G04 EAGLE Gerber RS-274X export*
G75*
%MOMM*%
%FSLAX34Y34*%
%LPD*%
%IN*%
%IPPOS*%
%AMOC8*
5,1,8,0,0,1.08239X$1,22.5*%
G01*
%ADD10C,0.254000*%


D10*
X-17780Y0D02*
X1630680Y0D01*
X1630680Y497840D01*
X-17780Y497840D01*
X-17780Y0D01*
X1610280Y22579D02*
X1610217Y22021D01*
X1610092Y21474D01*
X1609907Y20944D01*
X1609663Y20438D01*
X1609364Y19962D01*
X1609014Y19523D01*
X1608617Y19126D01*
X1608178Y18776D01*
X1607702Y18477D01*
X1607196Y18233D01*
X1606666Y18048D01*
X1606119Y17923D01*
X1605561Y17860D01*
X1604999Y17860D01*
X1604441Y17923D01*
X1603894Y18048D01*
X1603364Y18233D01*
X1602858Y18477D01*
X1602382Y18776D01*
X1601943Y19126D01*
X1601546Y19523D01*
X1601196Y19962D01*
X1600897Y20438D01*
X1600653Y20944D01*
X1600468Y21474D01*
X1600343Y22021D01*
X1600280Y22579D01*
X1600280Y23141D01*
X1600343Y23699D01*
X1600468Y24246D01*
X1600653Y24776D01*
X1600897Y25282D01*
X1601196Y25758D01*
X1601546Y26197D01*
X1601943Y26594D01*
X1602382Y26944D01*
X1602858Y27243D01*
X1603364Y27487D01*
X1603894Y27672D01*
X1604441Y27797D01*
X1604999Y27860D01*
X1605561Y27860D01*
X1606119Y27797D01*
X1606666Y27672D01*
X1607196Y27487D01*
X1607702Y27243D01*
X1608178Y26944D01*
X1608617Y26594D01*
X1609014Y26197D01*
X1609364Y25758D01*
X1609663Y25282D01*
X1609907Y24776D01*
X1610092Y24246D01*
X1610217Y23699D01*
X1610280Y23141D01*
X1610280Y22579D01*
X1612820Y467079D02*
X1612757Y466521D01*
X1612632Y465974D01*
X1612447Y465444D01*
X1612203Y464938D01*
X1611904Y464462D01*
X1611554Y464023D01*
X1611157Y463626D01*
X1610718Y463276D01*
X1610242Y462977D01*
X1609736Y462733D01*
X1609206Y462548D01*
X1608659Y462423D01*
X1608101Y462360D01*
X1607539Y462360D01*
X1606981Y462423D01*
X1606434Y462548D01*
X1605904Y462733D01*
X1605398Y462977D01*
X1604922Y463276D01*
X1604483Y463626D01*
X1604086Y464023D01*
X1603736Y464462D01*
X1603437Y464938D01*
X1603193Y465444D01*
X1603008Y465974D01*
X1602883Y466521D01*
X1602820Y467079D01*
X1602820Y467641D01*
X1602883Y468199D01*
X1603008Y468746D01*
X1603193Y469276D01*
X1603437Y469782D01*
X1603736Y470258D01*
X1604086Y470697D01*
X1604483Y471094D01*
X1604922Y471444D01*
X1605398Y471743D01*
X1605904Y471987D01*
X1606434Y472172D01*
X1606981Y472297D01*
X1607539Y472360D01*
X1608101Y472360D01*
X1608659Y472297D01*
X1609206Y472172D01*
X1609736Y471987D01*
X1610242Y471743D01*
X1610718Y471444D01*
X1611157Y471094D01*
X1611554Y470697D01*
X1611904Y470258D01*
X1612203Y469782D01*
X1612447Y469276D01*
X1612632Y468746D01*
X1612757Y468199D01*
X1612820Y467641D01*
X1612820Y467079D01*
X10080Y22579D02*
X10017Y22021D01*
X9892Y21474D01*
X9707Y20944D01*
X9463Y20438D01*
X9164Y19962D01*
X8814Y19523D01*
X8417Y19126D01*
X7978Y18776D01*
X7502Y18477D01*
X6996Y18233D01*
X6466Y18048D01*
X5919Y17923D01*
X5361Y17860D01*
X4799Y17860D01*
X4241Y17923D01*
X3694Y18048D01*
X3164Y18233D01*
X2658Y18477D01*
X2182Y18776D01*
X1743Y19126D01*
X1346Y19523D01*
X996Y19962D01*
X697Y20438D01*
X453Y20944D01*
X268Y21474D01*
X143Y22021D01*
X80Y22579D01*
X80Y23141D01*
X143Y23699D01*
X268Y24246D01*
X453Y24776D01*
X697Y25282D01*
X996Y25758D01*
X1346Y26197D01*
X1743Y26594D01*
X2182Y26944D01*
X2658Y27243D01*
X3164Y27487D01*
X3694Y27672D01*
X4241Y27797D01*
X4799Y27860D01*
X5361Y27860D01*
X5919Y27797D01*
X6466Y27672D01*
X6996Y27487D01*
X7502Y27243D01*
X7978Y26944D01*
X8417Y26594D01*
X8814Y26197D01*
X9164Y25758D01*
X9463Y25282D01*
X9707Y24776D01*
X9892Y24246D01*
X10017Y23699D01*
X10080Y23141D01*
X10080Y22579D01*
X10080Y472159D02*
X10017Y471601D01*
X9892Y471054D01*
X9707Y470524D01*
X9463Y470018D01*
X9164Y469542D01*
X8814Y469103D01*
X8417Y468706D01*
X7978Y468356D01*
X7502Y468057D01*
X6996Y467813D01*
X6466Y467628D01*
X5919Y467503D01*
X5361Y467440D01*
X4799Y467440D01*
X4241Y467503D01*
X3694Y467628D01*
X3164Y467813D01*
X2658Y468057D01*
X2182Y468356D01*
X1743Y468706D01*
X1346Y469103D01*
X996Y469542D01*
X697Y470018D01*
X453Y470524D01*
X268Y471054D01*
X143Y471601D01*
X80Y472159D01*
X80Y472721D01*
X143Y473279D01*
X268Y473826D01*
X453Y474356D01*
X697Y474862D01*
X996Y475338D01*
X1346Y475777D01*
X1743Y476174D01*
X2182Y476524D01*
X2658Y476823D01*
X3164Y477067D01*
X3694Y477252D01*
X4241Y477377D01*
X4799Y477440D01*
X5361Y477440D01*
X5919Y477377D01*
X6466Y477252D01*
X6996Y477067D01*
X7502Y476823D01*
X7978Y476524D01*
X8417Y476174D01*
X8814Y475777D01*
X9164Y475338D01*
X9463Y474862D01*
X9707Y474356D01*
X9892Y473826D01*
X10017Y473279D01*
X10080Y472721D01*
X10080Y472159D01*
M02*
