G04 EAGLE Gerber RS-274X export*
G75*
%MOMM*%
%FSLAX34Y34*%
%LPD*%
%INSoldermask Top*%
%IPNEG*%
%AMOC8*
5,1,8,0,0,1.08239X$1,22.5*%
G01*
%ADD10C,1.127000*%
%ADD11R,2.927000X1.127000*%
%ADD12R,1.727000X1.927000*%
%ADD13R,1.927000X1.727000*%
%ADD14C,1.651000*%
%ADD15C,2.667000*%
%ADD16R,1.527000X0.427000*%
%ADD17R,2.327000X1.727000*%
%ADD18R,1.327000X1.527000*%
%ADD19R,1.377000X1.877000*%
%ADD20R,1.877000X1.377000*%
%ADD21R,0.927000X0.927000*%
%ADD22C,3.175000*%
%ADD23R,1.427000X1.627000*%
%ADD24R,1.427000X1.727000*%
%ADD25R,1.727000X1.427000*%
%ADD26R,1.527000X1.727000*%
%ADD27R,0.727000X1.647000*%
%ADD28R,0.400000X0.625000*%
%ADD29R,1.627000X1.127000*%
%ADD30R,0.877000X2.327000*%
%ADD31C,0.630200*%
%ADD32R,1.100000X0.450000*%
%ADD33R,0.450000X1.100000*%
%ADD34R,0.727000X1.027000*%
%ADD35C,0.245428*%
%ADD36R,0.977000X0.427000*%
%ADD37R,0.427000X0.977000*%
%ADD38R,5.377000X3.777000*%
%ADD39C,0.584200*%
%ADD40C,0.680200*%
%ADD41C,1.102000*%


D10*
X1605280Y22860D03*
X1607820Y467360D03*
X5080Y22860D03*
X5080Y472440D03*
D11*
X833750Y63500D03*
X880750Y63500D03*
D12*
X210850Y342900D03*
X182850Y342900D03*
D11*
X611500Y146050D03*
X658500Y146050D03*
X382900Y146050D03*
X429900Y146050D03*
D13*
X704850Y93950D03*
X704850Y121950D03*
X476250Y93950D03*
X476250Y121950D03*
X1435100Y268000D03*
X1435100Y240000D03*
D12*
X1471900Y228600D03*
X1499900Y228600D03*
X1446500Y38100D03*
X1474500Y38100D03*
D13*
X1441450Y151100D03*
X1441450Y179100D03*
X977900Y220950D03*
X977900Y248950D03*
X927100Y93950D03*
X927100Y121950D03*
X590550Y220950D03*
X590550Y248950D03*
X273050Y439450D03*
X273050Y411450D03*
D12*
X1490950Y120650D03*
X1518950Y120650D03*
D11*
X611500Y63500D03*
X658500Y63500D03*
X382900Y63500D03*
X429900Y63500D03*
X833750Y146050D03*
X880750Y146050D03*
D13*
X1479550Y388650D03*
X1479550Y360650D03*
D12*
X182850Y241300D03*
X210850Y241300D03*
D14*
X1181100Y63500D03*
X1206500Y63500D03*
X933450Y425450D03*
X908050Y425450D03*
X863600Y425450D03*
X838200Y425450D03*
X1060450Y425450D03*
X1035050Y425450D03*
X1130300Y425450D03*
X1104900Y425450D03*
X1327150Y425450D03*
X1301750Y425450D03*
X1257300Y425450D03*
X1231900Y425450D03*
X1454150Y425450D03*
X1428750Y425450D03*
X958850Y63500D03*
X984250Y63500D03*
D15*
X190500Y114300D03*
X266700Y114300D03*
D16*
X1543050Y213800D03*
X1543050Y218800D03*
X1543050Y223800D03*
X1543050Y228800D03*
X1543050Y233800D03*
X1543050Y238800D03*
X1543050Y243800D03*
X1543050Y248800D03*
X1543050Y253800D03*
X1543050Y258800D03*
X1543050Y263800D03*
X1543050Y268800D03*
D17*
X1574550Y187300D03*
X1574550Y295300D03*
D14*
X1250950Y63500D03*
X1276350Y63500D03*
X736600Y63500D03*
X762000Y63500D03*
X508000Y63500D03*
X533400Y63500D03*
X1054100Y63500D03*
X1079500Y63500D03*
X1377950Y63500D03*
X1403350Y63500D03*
X342900Y425450D03*
X317500Y425450D03*
X469900Y425450D03*
X444500Y425450D03*
X539750Y425450D03*
X514350Y425450D03*
X666750Y425450D03*
X641350Y425450D03*
X736600Y425450D03*
X711200Y425450D03*
D18*
X1178300Y95250D03*
X1209300Y95250D03*
X866400Y393700D03*
X835400Y393700D03*
X1329950Y393700D03*
X1298950Y393700D03*
X1456950Y393700D03*
X1425950Y393700D03*
X936250Y393700D03*
X905250Y393700D03*
X1063250Y393700D03*
X1032250Y393700D03*
X1133100Y393700D03*
X1102100Y393700D03*
X1266450Y393700D03*
X1235450Y393700D03*
D19*
X1313400Y63500D03*
X1340900Y63500D03*
X1313400Y44450D03*
X1340900Y44450D03*
X1116550Y63500D03*
X1144050Y63500D03*
D18*
X1051300Y95250D03*
X1082300Y95250D03*
D19*
X1116550Y44450D03*
X1144050Y44450D03*
X407450Y425450D03*
X379950Y425450D03*
X407450Y444500D03*
X379950Y444500D03*
X604300Y425450D03*
X576800Y425450D03*
X604300Y444500D03*
X576800Y444500D03*
X998000Y425450D03*
X970500Y425450D03*
X998000Y444500D03*
X970500Y444500D03*
X801150Y425450D03*
X773650Y425450D03*
X801150Y444500D03*
X773650Y444500D03*
X1194850Y444500D03*
X1167350Y444500D03*
D18*
X542550Y393700D03*
X511550Y393700D03*
D19*
X1194850Y425450D03*
X1167350Y425450D03*
X1391700Y444500D03*
X1364200Y444500D03*
X1391700Y425450D03*
X1364200Y425450D03*
D20*
X266700Y274100D03*
X266700Y246600D03*
D21*
X1206500Y115500D03*
X1206500Y138500D03*
X1174750Y115500D03*
X1174750Y138500D03*
X1403350Y115500D03*
X1403350Y138500D03*
X1371600Y115500D03*
X1371600Y138500D03*
X444500Y373450D03*
X444500Y350450D03*
X469900Y373450D03*
X469900Y350450D03*
D18*
X669550Y393700D03*
X638550Y393700D03*
D21*
X641350Y373450D03*
X641350Y350450D03*
X666750Y373450D03*
X666750Y350450D03*
X838200Y373450D03*
X838200Y350450D03*
X863600Y373450D03*
X863600Y350450D03*
X1035050Y373450D03*
X1035050Y350450D03*
X1060450Y373450D03*
X1060450Y350450D03*
X1238250Y373450D03*
X1238250Y350450D03*
X1263650Y373450D03*
X1263650Y350450D03*
X1428750Y373450D03*
X1428750Y350450D03*
X1454150Y373450D03*
X1454150Y350450D03*
D18*
X1248150Y95250D03*
X1279150Y95250D03*
X1375150Y95250D03*
X1406150Y95250D03*
X348240Y393700D03*
X317240Y393700D03*
X472700Y393700D03*
X441700Y393700D03*
X739400Y393700D03*
X708400Y393700D03*
D22*
X88900Y438150D03*
X88900Y82550D03*
D23*
X1045700Y209550D03*
X1028700Y209550D03*
X1011700Y209550D03*
X1045700Y273050D03*
X1028700Y273050D03*
X1011700Y273050D03*
X1045700Y292100D03*
X1028700Y292100D03*
X1011700Y292100D03*
X658350Y209550D03*
X641350Y209550D03*
X624350Y209550D03*
X658350Y273050D03*
X641350Y273050D03*
X624350Y273050D03*
X658350Y292100D03*
X641350Y292100D03*
X624350Y292100D03*
D24*
X1355700Y190500D03*
X1336700Y190500D03*
X815950Y298450D03*
X796950Y298450D03*
X733400Y330200D03*
X714400Y330200D03*
X733400Y361950D03*
X714400Y361950D03*
X911250Y298450D03*
X930250Y298450D03*
X987400Y298450D03*
X968400Y298450D03*
X911250Y330200D03*
X930250Y330200D03*
X911250Y361950D03*
X930250Y361950D03*
X1476400Y323850D03*
X1495400Y323850D03*
X1527200Y323850D03*
X1546200Y323850D03*
X1285900Y190500D03*
X1304900Y190500D03*
X1177900Y190500D03*
X1158900Y190500D03*
X1108100Y190500D03*
X1127100Y190500D03*
X1057300Y158750D03*
X1076300Y158750D03*
X1076300Y127000D03*
X1057300Y127000D03*
X320700Y361950D03*
X339700Y361950D03*
X320700Y330200D03*
X339700Y330200D03*
D25*
X939800Y225450D03*
X939800Y244450D03*
X552450Y225450D03*
X552450Y244450D03*
X476250Y168300D03*
X476250Y187300D03*
X927100Y168300D03*
X927100Y187300D03*
D24*
X1254150Y127000D03*
X1273150Y127000D03*
D25*
X704850Y168300D03*
X704850Y187300D03*
D24*
X1501800Y438150D03*
X1520800Y438150D03*
X1552600Y438150D03*
X1571600Y438150D03*
D25*
X1581150Y384200D03*
X1581150Y403200D03*
X266700Y314350D03*
X266700Y333350D03*
X1498600Y92050D03*
X1498600Y73050D03*
D24*
X517550Y361950D03*
X536550Y361950D03*
X517550Y330200D03*
X536550Y330200D03*
X1209650Y298450D03*
X1190650Y298450D03*
X1139850Y298450D03*
X1158850Y298450D03*
X1254150Y152400D03*
X1273150Y152400D03*
X1101750Y361950D03*
X1120750Y361950D03*
X1101750Y330200D03*
X1120750Y330200D03*
X1406500Y298450D03*
X1387500Y298450D03*
X1336700Y298450D03*
X1355700Y298450D03*
X1304950Y361950D03*
X1323950Y361950D03*
X1304950Y330200D03*
X1323950Y330200D03*
X352450Y298450D03*
X371450Y298450D03*
X422250Y298450D03*
X403250Y298450D03*
X517550Y298450D03*
X536550Y298450D03*
X587350Y298450D03*
X568350Y298450D03*
X746150Y298450D03*
X765150Y298450D03*
D26*
X1570750Y78300D03*
X1570750Y150300D03*
X1540750Y78300D03*
X1540750Y150300D03*
D27*
X1136650Y154250D03*
X1136650Y99750D03*
X1149350Y154250D03*
X1123950Y154250D03*
X1111250Y154250D03*
X1149350Y99750D03*
X1123950Y99750D03*
X1111250Y99750D03*
D28*
X851050Y332975D03*
X844550Y332975D03*
X838050Y332975D03*
X838050Y314725D03*
X844550Y314725D03*
X851050Y314725D03*
D27*
X977900Y334700D03*
X977900Y389200D03*
X965200Y334700D03*
X990600Y334700D03*
X1003300Y334700D03*
X965200Y389200D03*
X990600Y389200D03*
X1003300Y389200D03*
D28*
X1047900Y332975D03*
X1041400Y332975D03*
X1034900Y332975D03*
X1034900Y314725D03*
X1041400Y314725D03*
X1047900Y314725D03*
D27*
X1174750Y334700D03*
X1174750Y389200D03*
X1162050Y334700D03*
X1187450Y334700D03*
X1200150Y334700D03*
X1162050Y389200D03*
X1187450Y389200D03*
X1200150Y389200D03*
D28*
X1251100Y326625D03*
X1244600Y326625D03*
X1238100Y326625D03*
X1238100Y308375D03*
X1244600Y308375D03*
X1251100Y308375D03*
D27*
X1371600Y334700D03*
X1371600Y389200D03*
X1358900Y334700D03*
X1384300Y334700D03*
X1397000Y334700D03*
X1358900Y389200D03*
X1384300Y389200D03*
X1397000Y389200D03*
D28*
X1441600Y332975D03*
X1435100Y332975D03*
X1428600Y332975D03*
X1428600Y314725D03*
X1435100Y314725D03*
X1441600Y314725D03*
D29*
X177800Y307100D03*
X177800Y277100D03*
X177800Y292100D03*
D28*
X1193950Y174225D03*
X1187450Y174225D03*
X1180950Y174225D03*
X1180950Y155975D03*
X1187450Y155975D03*
X1193950Y155975D03*
D27*
X1320800Y99750D03*
X1320800Y154250D03*
X1308100Y99750D03*
X1333500Y99750D03*
X1346200Y99750D03*
X1308100Y154250D03*
X1333500Y154250D03*
X1346200Y154250D03*
D28*
X1390800Y174225D03*
X1384300Y174225D03*
X1377800Y174225D03*
X1377800Y155975D03*
X1384300Y155975D03*
X1390800Y155975D03*
D27*
X387350Y334700D03*
X387350Y389200D03*
X374650Y334700D03*
X400050Y334700D03*
X412750Y334700D03*
X374650Y389200D03*
X400050Y389200D03*
X412750Y389200D03*
D28*
X457350Y332975D03*
X450850Y332975D03*
X444350Y332975D03*
X444350Y314725D03*
X450850Y314725D03*
X457350Y314725D03*
D27*
X584200Y334700D03*
X584200Y389200D03*
X571500Y334700D03*
X596900Y334700D03*
X609600Y334700D03*
X571500Y389200D03*
X596900Y389200D03*
X609600Y389200D03*
D28*
X654200Y332975D03*
X647700Y332975D03*
X641200Y332975D03*
X641200Y314725D03*
X647700Y314725D03*
X654200Y314725D03*
D27*
X781050Y334700D03*
X781050Y389200D03*
X768350Y334700D03*
X793750Y334700D03*
X806450Y334700D03*
X768350Y389200D03*
X793750Y389200D03*
X806450Y389200D03*
D30*
X990250Y168450D03*
X977550Y168450D03*
X964850Y168450D03*
X952150Y168450D03*
X952150Y110940D03*
X964850Y110950D03*
X977550Y110950D03*
X990250Y110950D03*
D31*
X982980Y147320D03*
X982980Y139700D03*
X982980Y132080D03*
X975360Y132080D03*
X975360Y139700D03*
X975360Y147320D03*
X967740Y147320D03*
X967740Y139700D03*
X967740Y132080D03*
X960120Y132080D03*
X960120Y139700D03*
X960120Y147320D03*
D32*
X663350Y231550D03*
X663350Y238050D03*
X663350Y244550D03*
X663350Y251050D03*
X619350Y251050D03*
X619350Y244550D03*
X619350Y238050D03*
X619350Y231550D03*
D33*
X225200Y403450D03*
X231700Y403450D03*
X238200Y403450D03*
X244700Y403450D03*
X244700Y447450D03*
X238200Y447450D03*
X231700Y447450D03*
X225200Y447450D03*
D27*
X1517650Y353750D03*
X1517650Y408250D03*
X1504950Y353750D03*
X1530350Y353750D03*
X1543050Y353750D03*
X1504950Y408250D03*
X1530350Y408250D03*
X1543050Y408250D03*
D34*
X1463700Y255200D03*
X1473200Y255200D03*
X1482700Y255200D03*
X1482700Y278200D03*
X1473200Y278200D03*
X1463700Y278200D03*
D35*
X1517358Y190208D02*
X1517358Y165392D01*
X1492542Y165392D01*
X1492542Y190208D01*
X1517358Y190208D01*
X1517358Y167723D02*
X1492542Y167723D01*
X1492542Y170054D02*
X1517358Y170054D01*
X1517358Y172385D02*
X1492542Y172385D01*
X1492542Y174716D02*
X1517358Y174716D01*
X1517358Y177047D02*
X1492542Y177047D01*
X1492542Y179378D02*
X1517358Y179378D01*
X1517358Y181709D02*
X1492542Y181709D01*
X1492542Y184040D02*
X1517358Y184040D01*
X1517358Y186371D02*
X1492542Y186371D01*
X1492542Y188702D02*
X1517358Y188702D01*
D36*
X1485450Y190300D03*
X1485450Y185300D03*
X1485450Y180300D03*
X1485450Y175300D03*
X1485450Y170300D03*
X1485450Y165300D03*
D37*
X1492450Y158300D03*
X1497450Y158300D03*
X1502450Y158300D03*
X1507450Y158300D03*
X1512450Y158300D03*
X1517450Y158300D03*
D36*
X1524450Y165300D03*
X1524450Y170300D03*
X1524450Y175300D03*
X1524450Y180300D03*
X1524450Y185300D03*
X1524450Y190300D03*
D37*
X1517450Y197300D03*
X1512450Y197300D03*
X1507450Y197300D03*
X1502450Y197300D03*
X1497450Y197300D03*
X1492450Y197300D03*
D30*
X768000Y168450D03*
X755300Y168450D03*
X742600Y168450D03*
X729900Y168450D03*
X729900Y110940D03*
X742600Y110950D03*
X755300Y110950D03*
X768000Y110950D03*
D31*
X760730Y147320D03*
X760730Y139700D03*
X760730Y132080D03*
X753110Y132080D03*
X753110Y139700D03*
X753110Y147320D03*
X745490Y147320D03*
X745490Y139700D03*
X745490Y132080D03*
X737870Y132080D03*
X737870Y139700D03*
X737870Y147320D03*
D30*
X545750Y168450D03*
X533050Y168450D03*
X520350Y168450D03*
X507650Y168450D03*
X507650Y110940D03*
X520350Y110950D03*
X533050Y110950D03*
X545750Y110950D03*
D31*
X538480Y147320D03*
X538480Y139700D03*
X538480Y132080D03*
X530860Y132080D03*
X530860Y139700D03*
X530860Y147320D03*
X523240Y147320D03*
X523240Y139700D03*
X523240Y132080D03*
X515620Y132080D03*
X515620Y139700D03*
X515620Y147320D03*
D33*
X1438050Y79600D03*
X1444550Y79600D03*
X1451050Y79600D03*
X1457550Y79600D03*
X1457550Y123600D03*
X1451050Y123600D03*
X1444550Y123600D03*
X1438050Y123600D03*
D32*
X1050700Y231550D03*
X1050700Y238050D03*
X1050700Y244550D03*
X1050700Y251050D03*
X1006700Y251050D03*
X1006700Y244550D03*
X1006700Y238050D03*
X1006700Y231550D03*
D38*
X177800Y447050D03*
X177800Y403850D03*
D39*
X1193800Y166688D03*
X1531938Y161925D03*
D40*
X768350Y463550D03*
X965200Y463550D03*
X1162050Y463550D03*
X1358900Y463550D03*
X1511300Y374650D03*
X1447800Y323850D03*
X1479550Y266700D03*
X1530350Y273050D03*
X1445260Y111760D03*
X1521460Y137160D03*
X1341120Y30480D03*
X1143000Y30480D03*
X1033780Y251460D03*
X977900Y264160D03*
X650240Y251460D03*
X591820Y264160D03*
X375920Y104140D03*
X388620Y104140D03*
X604520Y106680D03*
X617220Y106680D03*
X825500Y104140D03*
X838200Y104140D03*
X927100Y154940D03*
X927100Y137160D03*
X708660Y154940D03*
X708660Y134620D03*
X777240Y170180D03*
X754380Y93980D03*
X480060Y154940D03*
X480060Y137160D03*
X533400Y93980D03*
X553720Y162560D03*
D39*
X670560Y274320D03*
X670560Y210820D03*
X1059180Y271780D03*
X1059180Y208280D03*
X858520Y332740D03*
X830580Y314960D03*
X464820Y332740D03*
X436880Y314960D03*
X167640Y342900D03*
X165100Y292100D03*
X226060Y241300D03*
X266700Y236220D03*
X378460Y459740D03*
D40*
X571500Y463550D03*
D39*
X231140Y436880D03*
X231140Y414020D03*
X271780Y396240D03*
D40*
X1478280Y342900D03*
X1496060Y350520D03*
X1427480Y187960D03*
X1450340Y231140D03*
X1399540Y167640D03*
X1196340Y182880D03*
X1188720Y147320D03*
X1496060Y45720D03*
X1579880Y93980D03*
X1569720Y137160D03*
D39*
X1244600Y337820D03*
X1239520Y299720D03*
X662940Y332740D03*
X632460Y314960D03*
X1054100Y332740D03*
X1028700Y314960D03*
X977550Y96394D03*
X1483360Y203200D03*
X998220Y167640D03*
X998220Y160020D03*
X1187450Y161925D03*
X1533525Y180975D03*
X1346200Y111125D03*
X1357313Y122238D03*
X1390650Y180975D03*
X1533525Y187325D03*
X1384300Y122238D03*
X1547813Y138113D03*
X469900Y338138D03*
X1490663Y258763D03*
X450850Y320675D03*
X1512888Y206375D03*
X923925Y222250D03*
X1404938Y209550D03*
X1503363Y209550D03*
X642938Y320675D03*
X1439863Y255588D03*
X1389380Y48260D03*
X1320800Y116840D03*
D40*
X373380Y314960D03*
X401320Y314960D03*
X553720Y314960D03*
X566420Y314960D03*
X579120Y314960D03*
X767080Y314960D03*
X795020Y314960D03*
X947420Y294640D03*
X947420Y304800D03*
X965200Y314960D03*
X1160780Y314960D03*
X1173480Y304800D03*
X1173480Y297180D03*
X1351280Y325120D03*
X1358900Y320040D03*
X1371600Y304800D03*
X1371600Y294640D03*
X1320800Y190500D03*
X1143000Y195580D03*
X1125220Y167640D03*
X871220Y106680D03*
X891540Y106680D03*
X904240Y99060D03*
X904240Y76200D03*
X904240Y58420D03*
X916940Y68580D03*
X1524000Y259080D03*
D39*
X149860Y482600D03*
X157480Y482600D03*
X165100Y482600D03*
X149860Y474980D03*
X157480Y474980D03*
X165100Y474980D03*
X172720Y482600D03*
X172720Y474980D03*
X180340Y482600D03*
X180340Y474980D03*
X187960Y474980D03*
X187960Y482600D03*
X195580Y482600D03*
X195580Y474980D03*
X203200Y474980D03*
X203200Y482600D03*
D41*
X652780Y104140D03*
X668020Y104140D03*
X678180Y91440D03*
X421640Y104140D03*
X439420Y104140D03*
X452120Y91440D03*
X459740Y71120D03*
X477520Y71120D03*
D39*
X1308100Y81280D03*
X1333500Y81280D03*
X172720Y264160D03*
X162560Y241300D03*
X182880Y264160D03*
X728663Y374650D03*
X942975Y374650D03*
X1252538Y349250D03*
X1211263Y331788D03*
X1276350Y393700D03*
X1211263Y393700D03*
X1446213Y350838D03*
X1420813Y350838D03*
X1238250Y317500D03*
X1295400Y306388D03*
X1252538Y315913D03*
X1249363Y365125D03*
X1323975Y376238D03*
X1374775Y427038D03*
X917575Y233363D03*
X1468438Y203200D03*
X922338Y228600D03*
X1483678Y195898D03*
X1143000Y230188D03*
X1425575Y227013D03*
X1041400Y320675D03*
X1438275Y227013D03*
X1336675Y215900D03*
X1463675Y185738D03*
X1397000Y192088D03*
X1476375Y179388D03*
X1411288Y215900D03*
X1422400Y204788D03*
X1430338Y327025D03*
X1430338Y255588D03*
X927100Y244475D03*
X577850Y244475D03*
X1416050Y242888D03*
X1519238Y212725D03*
X939800Y201613D03*
X1558925Y160338D03*
X749300Y182563D03*
X579120Y30480D03*
X566420Y48260D03*
X518160Y193040D03*
X1557338Y238125D03*
X984250Y182563D03*
X1512888Y249238D03*
X1279525Y252413D03*
X673100Y238125D03*
X1019175Y238125D03*
X1501775Y149225D03*
X1470025Y117475D03*
X1530350Y396875D03*
X1581150Y373063D03*
X1508125Y144463D03*
X1120775Y207963D03*
X835660Y195580D03*
X680720Y223520D03*
X1531938Y219075D03*
X1524000Y269875D03*
X1543050Y207963D03*
X1543050Y274638D03*
X1484313Y217488D03*
X1533525Y198438D03*
M02*
