G04 EAGLE Gerber RS-274X export*
G75*
%MOMM*%
%FSLAX34Y34*%
%LPD*%
%INSolderpaste Top*%
%IPPOS*%
%AMOC8*
5,1,8,0,0,1.08239X$1,22.5*%
G01*
%ADD10R,2.800000X1.000000*%
%ADD11R,1.600000X1.800000*%
%ADD12R,1.800000X1.600000*%
%ADD13R,1.400000X0.300000*%
%ADD14R,2.200000X1.600000*%
%ADD15R,1.200000X1.400000*%
%ADD16R,1.250000X1.750000*%
%ADD17R,1.750000X1.250000*%
%ADD18R,0.800000X0.800000*%
%ADD19R,1.300000X1.500000*%
%ADD20R,1.300000X1.600000*%
%ADD21R,1.600000X1.300000*%
%ADD22R,1.400000X1.600000*%
%ADD23R,0.600000X1.520000*%
%ADD24R,0.250000X0.450000*%
%ADD25R,1.500000X1.000000*%
%ADD26R,0.750000X2.200000*%
%ADD27R,3.100000X2.400000*%
%ADD28R,1.000000X0.400000*%
%ADD29R,0.400000X1.000000*%
%ADD30R,0.600000X0.900000*%
%ADD31C,0.130000*%
%ADD32R,0.850000X0.300000*%
%ADD33R,0.300000X0.850000*%
%ADD34R,5.250000X3.650000*%

G36*
X216842Y280473D02*
X216842Y280473D01*
X216884Y280471D01*
X216951Y280493D01*
X217021Y280505D01*
X217057Y280527D01*
X217098Y280540D01*
X217171Y280594D01*
X217214Y280620D01*
X217227Y280636D01*
X217248Y280652D01*
X226248Y289652D01*
X226273Y289686D01*
X226304Y289715D01*
X226336Y289778D01*
X226377Y289836D01*
X226387Y289877D01*
X226407Y289915D01*
X226420Y290004D01*
X226433Y290053D01*
X226430Y290074D01*
X226434Y290100D01*
X226434Y294100D01*
X226427Y294142D01*
X226429Y294184D01*
X226407Y294251D01*
X226395Y294321D01*
X226373Y294357D01*
X226360Y294398D01*
X226306Y294471D01*
X226280Y294514D01*
X226264Y294527D01*
X226248Y294548D01*
X217248Y303548D01*
X217214Y303573D01*
X217185Y303604D01*
X217122Y303636D01*
X217064Y303677D01*
X217023Y303687D01*
X216985Y303707D01*
X216896Y303720D01*
X216847Y303733D01*
X216826Y303730D01*
X216800Y303734D01*
X194800Y303734D01*
X194758Y303727D01*
X194716Y303729D01*
X194649Y303707D01*
X194579Y303695D01*
X194543Y303673D01*
X194502Y303660D01*
X194429Y303606D01*
X194386Y303580D01*
X194373Y303564D01*
X194352Y303548D01*
X188537Y297734D01*
X185800Y297734D01*
X185735Y297723D01*
X185669Y297721D01*
X185626Y297703D01*
X185579Y297695D01*
X185522Y297661D01*
X185462Y297636D01*
X185427Y297605D01*
X185386Y297580D01*
X185345Y297529D01*
X185296Y297485D01*
X185274Y297443D01*
X185245Y297406D01*
X185224Y297344D01*
X185193Y297285D01*
X185185Y297231D01*
X185173Y297194D01*
X185174Y297154D01*
X185166Y297100D01*
X185166Y287100D01*
X185177Y287035D01*
X185179Y286969D01*
X185197Y286926D01*
X185205Y286879D01*
X185239Y286822D01*
X185264Y286762D01*
X185295Y286727D01*
X185320Y286686D01*
X185371Y286645D01*
X185415Y286596D01*
X185457Y286574D01*
X185494Y286545D01*
X185556Y286524D01*
X185615Y286493D01*
X185669Y286485D01*
X185706Y286473D01*
X185746Y286474D01*
X185800Y286466D01*
X188537Y286466D01*
X194352Y280652D01*
X194386Y280627D01*
X194415Y280596D01*
X194478Y280564D01*
X194536Y280523D01*
X194577Y280513D01*
X194615Y280493D01*
X194704Y280480D01*
X194753Y280468D01*
X194774Y280470D01*
X194800Y280466D01*
X216800Y280466D01*
X216842Y280473D01*
G37*
D10*
X833750Y63500D03*
X880750Y63500D03*
D11*
X210850Y342900D03*
X182850Y342900D03*
D10*
X611500Y146050D03*
X658500Y146050D03*
X382900Y146050D03*
X429900Y146050D03*
D12*
X704850Y93950D03*
X704850Y121950D03*
X476250Y93950D03*
X476250Y121950D03*
X1435100Y268000D03*
X1435100Y240000D03*
D11*
X1471900Y228600D03*
X1499900Y228600D03*
X1446500Y38100D03*
X1474500Y38100D03*
D12*
X1441450Y151100D03*
X1441450Y179100D03*
X977900Y220950D03*
X977900Y248950D03*
X927100Y93950D03*
X927100Y121950D03*
X590550Y220950D03*
X590550Y248950D03*
X273050Y439450D03*
X273050Y411450D03*
D11*
X1490950Y120650D03*
X1518950Y120650D03*
D10*
X611500Y63500D03*
X658500Y63500D03*
X382900Y63500D03*
X429900Y63500D03*
X833750Y146050D03*
X880750Y146050D03*
D12*
X1479550Y388650D03*
X1479550Y360650D03*
D11*
X182850Y241300D03*
X210850Y241300D03*
D13*
X1543050Y213800D03*
X1543050Y218800D03*
X1543050Y223800D03*
X1543050Y228800D03*
X1543050Y233800D03*
X1543050Y238800D03*
X1543050Y243800D03*
X1543050Y248800D03*
X1543050Y253800D03*
X1543050Y258800D03*
X1543050Y263800D03*
X1543050Y268800D03*
D14*
X1574550Y187300D03*
X1574550Y295300D03*
D15*
X1178300Y95250D03*
X1209300Y95250D03*
X866400Y393700D03*
X835400Y393700D03*
X1329950Y393700D03*
X1298950Y393700D03*
X1456950Y393700D03*
X1425950Y393700D03*
X936250Y393700D03*
X905250Y393700D03*
X1063250Y393700D03*
X1032250Y393700D03*
X1133100Y393700D03*
X1102100Y393700D03*
X1266450Y393700D03*
X1235450Y393700D03*
D16*
X1313400Y63500D03*
X1340900Y63500D03*
X1313400Y44450D03*
X1340900Y44450D03*
X1116550Y63500D03*
X1144050Y63500D03*
D15*
X1051300Y95250D03*
X1082300Y95250D03*
D16*
X1116550Y44450D03*
X1144050Y44450D03*
X407450Y425450D03*
X379950Y425450D03*
X407450Y444500D03*
X379950Y444500D03*
X604300Y425450D03*
X576800Y425450D03*
X604300Y444500D03*
X576800Y444500D03*
X998000Y425450D03*
X970500Y425450D03*
X998000Y444500D03*
X970500Y444500D03*
X801150Y425450D03*
X773650Y425450D03*
X801150Y444500D03*
X773650Y444500D03*
X1194850Y444500D03*
X1167350Y444500D03*
D15*
X542550Y393700D03*
X511550Y393700D03*
D16*
X1194850Y425450D03*
X1167350Y425450D03*
X1391700Y444500D03*
X1364200Y444500D03*
X1391700Y425450D03*
X1364200Y425450D03*
D17*
X266700Y274100D03*
X266700Y246600D03*
D18*
X1206500Y115500D03*
X1206500Y138500D03*
X1174750Y115500D03*
X1174750Y138500D03*
X1403350Y115500D03*
X1403350Y138500D03*
X1371600Y115500D03*
X1371600Y138500D03*
X444500Y373450D03*
X444500Y350450D03*
X469900Y373450D03*
X469900Y350450D03*
D15*
X669550Y393700D03*
X638550Y393700D03*
D18*
X641350Y373450D03*
X641350Y350450D03*
X666750Y373450D03*
X666750Y350450D03*
X838200Y373450D03*
X838200Y350450D03*
X863600Y373450D03*
X863600Y350450D03*
X1035050Y373450D03*
X1035050Y350450D03*
X1060450Y373450D03*
X1060450Y350450D03*
X1238250Y373450D03*
X1238250Y350450D03*
X1263650Y373450D03*
X1263650Y350450D03*
X1428750Y373450D03*
X1428750Y350450D03*
X1454150Y373450D03*
X1454150Y350450D03*
D15*
X1248150Y95250D03*
X1279150Y95250D03*
X1375150Y95250D03*
X1406150Y95250D03*
X348240Y393700D03*
X317240Y393700D03*
X472700Y393700D03*
X441700Y393700D03*
X739400Y393700D03*
X708400Y393700D03*
D19*
X1045700Y209550D03*
X1028700Y209550D03*
X1011700Y209550D03*
X1045700Y273050D03*
X1028700Y273050D03*
X1011700Y273050D03*
X1045700Y292100D03*
X1028700Y292100D03*
X1011700Y292100D03*
X658350Y209550D03*
X641350Y209550D03*
X624350Y209550D03*
X658350Y273050D03*
X641350Y273050D03*
X624350Y273050D03*
X658350Y292100D03*
X641350Y292100D03*
X624350Y292100D03*
D20*
X1355700Y190500D03*
X1336700Y190500D03*
X815950Y298450D03*
X796950Y298450D03*
X733400Y330200D03*
X714400Y330200D03*
X733400Y361950D03*
X714400Y361950D03*
X911250Y298450D03*
X930250Y298450D03*
X987400Y298450D03*
X968400Y298450D03*
X911250Y330200D03*
X930250Y330200D03*
X911250Y361950D03*
X930250Y361950D03*
X1476400Y323850D03*
X1495400Y323850D03*
X1527200Y323850D03*
X1546200Y323850D03*
X1285900Y190500D03*
X1304900Y190500D03*
X1177900Y190500D03*
X1158900Y190500D03*
X1108100Y190500D03*
X1127100Y190500D03*
X1057300Y158750D03*
X1076300Y158750D03*
X1076300Y127000D03*
X1057300Y127000D03*
X320700Y361950D03*
X339700Y361950D03*
X320700Y330200D03*
X339700Y330200D03*
D21*
X939800Y225450D03*
X939800Y244450D03*
X552450Y225450D03*
X552450Y244450D03*
X476250Y168300D03*
X476250Y187300D03*
X927100Y168300D03*
X927100Y187300D03*
D20*
X1254150Y127000D03*
X1273150Y127000D03*
D21*
X704850Y168300D03*
X704850Y187300D03*
D20*
X1501800Y438150D03*
X1520800Y438150D03*
X1552600Y438150D03*
X1571600Y438150D03*
D21*
X1581150Y384200D03*
X1581150Y403200D03*
X266700Y314350D03*
X266700Y333350D03*
X1498600Y92050D03*
X1498600Y73050D03*
D20*
X517550Y361950D03*
X536550Y361950D03*
X517550Y330200D03*
X536550Y330200D03*
X1209650Y298450D03*
X1190650Y298450D03*
X1139850Y298450D03*
X1158850Y298450D03*
X1254150Y152400D03*
X1273150Y152400D03*
X1101750Y361950D03*
X1120750Y361950D03*
X1101750Y330200D03*
X1120750Y330200D03*
X1406500Y298450D03*
X1387500Y298450D03*
X1336700Y298450D03*
X1355700Y298450D03*
X1304950Y361950D03*
X1323950Y361950D03*
X1304950Y330200D03*
X1323950Y330200D03*
X352450Y298450D03*
X371450Y298450D03*
X422250Y298450D03*
X403250Y298450D03*
X517550Y298450D03*
X536550Y298450D03*
X587350Y298450D03*
X568350Y298450D03*
X746150Y298450D03*
X765150Y298450D03*
D22*
X1570750Y78300D03*
X1570750Y150300D03*
X1540750Y78300D03*
X1540750Y150300D03*
D23*
X1136650Y154250D03*
X1136650Y99750D03*
X1149350Y154250D03*
X1123950Y154250D03*
X1111250Y154250D03*
X1149350Y99750D03*
X1123950Y99750D03*
X1111250Y99750D03*
D24*
X851050Y333100D03*
X844550Y333100D03*
X838050Y333100D03*
X838050Y314600D03*
X844550Y314600D03*
X851050Y314600D03*
D23*
X977900Y334700D03*
X977900Y389200D03*
X965200Y334700D03*
X990600Y334700D03*
X1003300Y334700D03*
X965200Y389200D03*
X990600Y389200D03*
X1003300Y389200D03*
D24*
X1047900Y333100D03*
X1041400Y333100D03*
X1034900Y333100D03*
X1034900Y314600D03*
X1041400Y314600D03*
X1047900Y314600D03*
D23*
X1174750Y334700D03*
X1174750Y389200D03*
X1162050Y334700D03*
X1187450Y334700D03*
X1200150Y334700D03*
X1162050Y389200D03*
X1187450Y389200D03*
X1200150Y389200D03*
D24*
X1251100Y326750D03*
X1244600Y326750D03*
X1238100Y326750D03*
X1238100Y308250D03*
X1244600Y308250D03*
X1251100Y308250D03*
D23*
X1371600Y334700D03*
X1371600Y389200D03*
X1358900Y334700D03*
X1384300Y334700D03*
X1397000Y334700D03*
X1358900Y389200D03*
X1384300Y389200D03*
X1397000Y389200D03*
D24*
X1441600Y333100D03*
X1435100Y333100D03*
X1428600Y333100D03*
X1428600Y314600D03*
X1435100Y314600D03*
X1441600Y314600D03*
D25*
X177800Y307100D03*
X177800Y277100D03*
X177800Y292100D03*
D24*
X1193950Y174350D03*
X1187450Y174350D03*
X1180950Y174350D03*
X1180950Y155850D03*
X1187450Y155850D03*
X1193950Y155850D03*
D23*
X1320800Y99750D03*
X1320800Y154250D03*
X1308100Y99750D03*
X1333500Y99750D03*
X1346200Y99750D03*
X1308100Y154250D03*
X1333500Y154250D03*
X1346200Y154250D03*
D24*
X1390800Y174350D03*
X1384300Y174350D03*
X1377800Y174350D03*
X1377800Y155850D03*
X1384300Y155850D03*
X1390800Y155850D03*
D23*
X387350Y334700D03*
X387350Y389200D03*
X374650Y334700D03*
X400050Y334700D03*
X412750Y334700D03*
X374650Y389200D03*
X400050Y389200D03*
X412750Y389200D03*
D24*
X457350Y333100D03*
X450850Y333100D03*
X444350Y333100D03*
X444350Y314600D03*
X450850Y314600D03*
X457350Y314600D03*
D23*
X584200Y334700D03*
X584200Y389200D03*
X571500Y334700D03*
X596900Y334700D03*
X609600Y334700D03*
X571500Y389200D03*
X596900Y389200D03*
X609600Y389200D03*
D24*
X654200Y333100D03*
X647700Y333100D03*
X641200Y333100D03*
X641200Y314600D03*
X647700Y314600D03*
X654200Y314600D03*
D23*
X781050Y334700D03*
X781050Y389200D03*
X768350Y334700D03*
X793750Y334700D03*
X806450Y334700D03*
X768350Y389200D03*
X793750Y389200D03*
X806450Y389200D03*
D26*
X990250Y168450D03*
X977550Y168450D03*
X964850Y168450D03*
X952150Y168450D03*
X952150Y110940D03*
X964850Y110950D03*
X977550Y110950D03*
X990250Y110950D03*
D27*
X971550Y139700D03*
D28*
X663350Y231550D03*
X663350Y238050D03*
X663350Y244550D03*
X663350Y251050D03*
X619350Y251050D03*
X619350Y244550D03*
X619350Y238050D03*
X619350Y231550D03*
D29*
X225200Y403450D03*
X231700Y403450D03*
X238200Y403450D03*
X244700Y403450D03*
X244700Y447450D03*
X238200Y447450D03*
X231700Y447450D03*
X225200Y447450D03*
D23*
X1517650Y353750D03*
X1517650Y408250D03*
X1504950Y353750D03*
X1530350Y353750D03*
X1543050Y353750D03*
X1504950Y408250D03*
X1530350Y408250D03*
X1543050Y408250D03*
D30*
X1463700Y255200D03*
X1473200Y255200D03*
X1482700Y255200D03*
X1482700Y278200D03*
X1473200Y278200D03*
X1463700Y278200D03*
D31*
X1517300Y190150D02*
X1517300Y165450D01*
X1492600Y165450D01*
X1492600Y190150D01*
X1517300Y190150D01*
X1517300Y166685D02*
X1492600Y166685D01*
X1492600Y167920D02*
X1517300Y167920D01*
X1517300Y169155D02*
X1492600Y169155D01*
X1492600Y170390D02*
X1517300Y170390D01*
X1517300Y171625D02*
X1492600Y171625D01*
X1492600Y172860D02*
X1517300Y172860D01*
X1517300Y174095D02*
X1492600Y174095D01*
X1492600Y175330D02*
X1517300Y175330D01*
X1517300Y176565D02*
X1492600Y176565D01*
X1492600Y177800D02*
X1517300Y177800D01*
X1517300Y179035D02*
X1492600Y179035D01*
X1492600Y180270D02*
X1517300Y180270D01*
X1517300Y181505D02*
X1492600Y181505D01*
X1492600Y182740D02*
X1517300Y182740D01*
X1517300Y183975D02*
X1492600Y183975D01*
X1492600Y185210D02*
X1517300Y185210D01*
X1517300Y186445D02*
X1492600Y186445D01*
X1492600Y187680D02*
X1517300Y187680D01*
X1517300Y188915D02*
X1492600Y188915D01*
X1492600Y190150D02*
X1517300Y190150D01*
D32*
X1485450Y190300D03*
X1485450Y185300D03*
X1485450Y180300D03*
X1485450Y175300D03*
X1485450Y170300D03*
X1485450Y165300D03*
D33*
X1492450Y158300D03*
X1497450Y158300D03*
X1502450Y158300D03*
X1507450Y158300D03*
X1512450Y158300D03*
X1517450Y158300D03*
D32*
X1524450Y165300D03*
X1524450Y170300D03*
X1524450Y175300D03*
X1524450Y180300D03*
X1524450Y185300D03*
X1524450Y190300D03*
D33*
X1517450Y197300D03*
X1512450Y197300D03*
X1507450Y197300D03*
X1502450Y197300D03*
X1497450Y197300D03*
X1492450Y197300D03*
D26*
X768000Y168450D03*
X755300Y168450D03*
X742600Y168450D03*
X729900Y168450D03*
X729900Y110940D03*
X742600Y110950D03*
X755300Y110950D03*
X768000Y110950D03*
D27*
X749300Y139700D03*
D26*
X545750Y168450D03*
X533050Y168450D03*
X520350Y168450D03*
X507650Y168450D03*
X507650Y110940D03*
X520350Y110950D03*
X533050Y110950D03*
X545750Y110950D03*
D27*
X527050Y139700D03*
D29*
X1438050Y79600D03*
X1444550Y79600D03*
X1451050Y79600D03*
X1457550Y79600D03*
X1457550Y123600D03*
X1451050Y123600D03*
X1444550Y123600D03*
X1438050Y123600D03*
D28*
X1050700Y231550D03*
X1050700Y238050D03*
X1050700Y244550D03*
X1050700Y251050D03*
X1006700Y251050D03*
X1006700Y244550D03*
X1006700Y238050D03*
X1006700Y231550D03*
D34*
X177800Y447050D03*
X177800Y403850D03*
M02*
