M48
;GenerationSoftware,Autodesk,EAGLE,9.2.1*%
;CreationDate,2018-11-13T15:42:35Z*%
FMAT,2
ICI,OFF
METRIC,TZ,000.000
T7C0.254
T6C0.300
T5C0.350
T4C0.650
T3C1.000
T2C1.016
T1C1.524
%
G90
M71
T1
X8890Y8255
X8890Y43815
T2
X34290Y42545
X31750Y42545
X98425Y6350
X46990Y42545
X83820Y42545
X44450Y42545
X123190Y42545
X51435Y42545
X66675Y42545
X64135Y42545
X73660Y42545
X71120Y42545
X53975Y42545
X118110Y6350
X120650Y6350
X93345Y42545
X90805Y42545
X86360Y42545
X106045Y42545
X103505Y42545
X113030Y42545
X110490Y42545
X132715Y42545
X130175Y42545
X125730Y42545
X137795Y6350
X145415Y42545
X142875Y42545
X95885Y6350
X125095Y6350
X127635Y6350
X73660Y6350
X76200Y6350
X50800Y6350
X53340Y6350
X105410Y6350
X107950Y6350
X140335Y6350
T3
X508Y2286
X160528Y2286
X160782Y46736
X26670Y11430
X508Y47244
X19050Y11430
T4
X47752Y7112
X65278Y10414
X66802Y10414
X42164Y10414
X45212Y9144
X45974Y7112
X67818Y9144
X43942Y10414
T5
X149606Y35052
X142748Y18796
X145034Y23114
X139954Y16764
X119634Y18288
X118872Y14732
X149606Y4572
X157988Y9398
X79502Y31496
X94742Y29464
X94742Y30480
X96520Y31496
X116078Y31496
X117348Y30480
X117348Y29718
X135128Y32512
X135890Y32004
X137160Y30480
X137160Y29464
X132080Y19050
X114300Y19558
X112522Y16764
X87122Y10668
X89154Y10668
X90424Y9906
X90424Y7620
X90424Y5842
X91694Y6858
X76835Y46355
X96520Y46355
X116205Y46355
X135890Y46355
X151130Y37465
X144780Y32385
X147955Y26670
X153035Y27305
X144526Y11176
X152146Y13716
X134112Y3048
X114300Y3048
X103378Y25146
X97790Y26416
X65024Y25146
X59182Y26416
X37592Y10414
X38862Y10414
X156972Y13716
X61722Y10668
X82550Y10414
X83820Y10414
X92710Y15494
X92710Y13716
X70866Y15494
X70866Y13462
X77724Y17018
X75438Y9398
X48006Y15494
X48006Y13716
X53340Y9398
X55372Y16256
X152400Y25908
X60452Y10668
X37338Y31496
X40132Y31496
X55372Y31496
X57150Y46355
X56642Y31496
X57912Y31496
X76708Y31496
X147828Y34290
T6
X98298Y14732
X98298Y13970
X98298Y13208
X97536Y13208
X97536Y13970
X97536Y14732
X96774Y14732
X96774Y13970
X96774Y13208
X96012Y13208
X96012Y13970
X96012Y14732
X76073Y14732
X76073Y13970
X76073Y13208
X75311Y13208
X75311Y13970
X75311Y14732
X74549Y14732
X74549Y13970
X74549Y13208
X73787Y13208
X73787Y13970
X73787Y14732
X53848Y14732
X53848Y13970
X53848Y13208
X53086Y13208
X53086Y13970
X53086Y14732
X52324Y14732
X52324Y13970
X52324Y13208
X51562Y13208
X51562Y13970
X51562Y14732
T7
X91757Y23336
X146844Y20320
X92234Y22860
X148368Y19590
X114300Y23019
X142558Y22701
X104140Y32067
X143828Y22701
X133668Y21590
X146368Y18574
X139700Y19209
X147638Y17939
X141129Y21590
X142240Y20479
X143034Y32702
X143034Y25559
X92710Y24447
X57785Y24447
X141605Y24289
X151924Y21273
X93980Y20161
X155893Y16034
X74930Y18256
X57912Y3048
X56642Y4826
X51816Y19304
X155734Y23812
X98425Y18256
X151289Y24924
X127952Y25241
X67310Y23812
X101917Y23812
X150178Y14922
X147003Y11747
X153035Y39688
X158115Y37306
X150813Y14446
X112077Y20796
X83566Y19558
X68072Y22352
X153194Y21907
X152400Y26987
X154305Y20796
X154305Y27464
X148431Y21749
X153353Y19844
X119380Y16669
X153194Y16192
X67056Y27432
X67056Y21082
X105918Y20828
X85852Y33274
X83058Y31496
X46482Y33274
X43688Y31496
X16764Y34290
X16510Y29210
X22606Y24130
X26670Y23622
X37846Y45974
X23114Y43688
X23114Y41402
X27178Y39624
X124460Y33782
X123952Y29972
X66294Y33274
X63246Y31496
X105410Y33274
X102870Y31496
X97755Y9639
X148336Y20320
X99822Y16764
X99822Y16002
X118745Y16192
X153353Y18098
X134620Y11112
X135731Y12224
X139065Y18098
X153353Y18733
X138430Y12224
X154781Y13811
X46990Y33814
X149066Y25876
X45085Y32067
X151289Y20638
X92392Y22225
X140494Y20955
X150336Y20955
X64294Y32067
X143986Y25559
X138938Y4826
X16256Y24130
X132080Y11684
X14986Y48260
X15748Y48260
X16510Y48260
X14986Y47498
X15748Y47498
X16510Y47498
X17272Y48260
X17272Y47498
X18034Y48260
X18034Y47498
X18796Y47498
X18796Y48260
X19558Y48260
X19558Y47498
X20320Y47498
X20320Y48260
X130810Y8128
X133350Y8128
X17272Y26416
X105918Y27178
X18288Y26416
X72866Y37465
X94297Y37465
X125254Y34925
X121126Y33179
X127635Y39370
X121126Y39370
X144621Y35084
X142081Y35084
X123825Y31750
X129540Y30639
X125254Y31591
X124936Y36513
X132398Y37624
X137478Y42704
M30