G04 EAGLE Gerber X2 export*
%TF.Part,Single*%
%TF.FileFunction,Soldermask,Bot,1*%
%TF.FilePolarity,Negative*%
%TF.GenerationSoftware,Autodesk,EAGLE,9.1.1*%
%TF.CreationDate,2018-07-18T19:57:23Z*%
G75*
%MOMM*%
%FSLAX34Y34*%
%LPD*%
%AMOC8*
5,1,8,0,0,1.08239X$1,22.5*%
G01*
%ADD10C,2.703200*%
%ADD11R,1.711200X1.711200*%
%ADD12R,2.000000X5.000000*%
%ADD13R,2.000000X4.000000*%
%ADD14R,4.000000X2.000000*%
%ADD15C,1.711200*%
%ADD16P,2.556822X8X22.500000*%
%ADD17C,1.711200*%
%ADD18P,2.144431X8X22.500000*%
%ADD19C,1.981200*%
%ADD20R,1.981200X1.981200*%
%ADD21C,8.077200*%
%ADD22C,0.959600*%


D10*
X44000Y1000000D03*
X598000Y996500D03*
X589500Y41000D03*
X192500Y33000D03*
D11*
X137000Y70200D03*
X71000Y70200D03*
D12*
X137000Y70200D03*
D13*
X71000Y70200D03*
D11*
X104000Y26200D03*
D14*
X104000Y26200D03*
D15*
X153560Y707600D02*
X168640Y707600D01*
X168640Y733000D02*
X153560Y733000D01*
X153560Y758400D02*
X168640Y758400D01*
X168640Y783800D02*
X153560Y783800D01*
X153560Y682200D02*
X168640Y682200D01*
X168640Y656800D02*
X153560Y656800D01*
X153560Y631400D02*
X168640Y631400D01*
D16*
X556400Y425000D03*
D17*
X248800Y944300D03*
X248800Y994300D03*
X393800Y994300D03*
X393800Y969300D03*
X393800Y944300D03*
D18*
X132800Y452900D03*
D19*
X158200Y452900D03*
X158200Y478300D03*
X183600Y478300D03*
X183600Y452900D03*
D20*
X132800Y478300D03*
D21*
X575700Y316200D03*
D19*
X499500Y252700D03*
D21*
X575700Y125700D03*
D19*
X499500Y49500D03*
D22*
X292500Y174500D03*
X238000Y142000D03*
X128000Y223000D03*
X93500Y506500D03*
X166000Y514000D03*
X189500Y437500D03*
X272000Y448500D03*
X42500Y115500D03*
X177000Y363000D03*
X232500Y406500D03*
X265000Y198000D03*
X302500Y244500D03*
X287500Y399500D03*
X249500Y412500D03*
X208000Y286000D03*
X380500Y352000D03*
X205500Y219500D03*
X297500Y261500D03*
X270000Y231000D03*
X340000Y419000D03*
X160500Y234500D03*
X279000Y368500D03*
X212510Y268332D03*
X255500Y293000D03*
X269000Y364500D03*
X199000Y431000D03*
X239000Y384500D03*
X216000Y364000D03*
X411000Y291518D03*
X133500Y372500D03*
X481000Y362500D03*
X458500Y64500D03*
X434000Y250500D03*
X356000Y956500D03*
X263000Y965000D03*
X356500Y981500D03*
X103000Y297500D03*
X61000Y858500D03*
X140000Y284000D03*
X193500Y281000D03*
X183500Y496000D03*
X127432Y342000D03*
X216000Y477000D03*
X161300Y283200D03*
X161500Y263500D03*
X255182Y338500D03*
X87500Y126500D03*
X118000Y391000D03*
X37000Y219000D03*
X109500Y218000D03*
X109000Y380500D03*
X36000Y250000D03*
X497500Y214000D03*
X255182Y316500D03*
X159000Y438000D03*
X201500Y474000D03*
X207000Y405932D03*
X146000Y306000D03*
X221432Y321500D03*
M02*
