G04 EAGLE Gerber X2 export*
%TF.Part,Single*%
%TF.FileFunction,Copper,L2,Bot,Mixed*%
%TF.FilePolarity,Positive*%
%TF.GenerationSoftware,Autodesk,EAGLE,9.1.1*%
%TF.CreationDate,2018-07-18T17:05:30Z*%
G75*
%MOMM*%
%FSLAX34Y34*%
%LPD*%
%AMOC8*
5,1,8,0,0,1.08239X$1,22.5*%
G01*
%ADD10R,2.100000X5.000000*%
%ADD11R,2.000000X4.000000*%
%ADD12R,1.508000X1.508000*%
%ADD13R,4.000000X2.000000*%
%ADD14C,1.508000*%
%ADD15P,2.336880X8X22.500000*%
%ADD16C,1.508000*%
%ADD17P,1.924489X8X22.500000*%
%ADD18C,1.778000*%
%ADD19R,1.778000X1.778000*%
%ADD20C,0.756400*%
%ADD21C,0.406400*%
%ADD22C,0.152400*%
%ADD23C,0.152400*%

G36*
X183561Y10590D02*
X183561Y10590D01*
X183656Y10606D01*
X183752Y10615D01*
X183777Y10626D01*
X183804Y10631D01*
X183889Y10676D01*
X183977Y10715D01*
X183997Y10733D01*
X184021Y10746D01*
X184087Y10816D01*
X184158Y10882D01*
X184171Y10905D01*
X184190Y10925D01*
X184230Y11012D01*
X184277Y11097D01*
X184282Y11124D01*
X184293Y11148D01*
X184303Y11244D01*
X184321Y11339D01*
X184317Y11366D01*
X184320Y11393D01*
X184299Y11487D01*
X184285Y11582D01*
X184273Y11607D01*
X184267Y11633D01*
X184217Y11716D01*
X184173Y11802D01*
X184154Y11821D01*
X184140Y11844D01*
X184067Y11906D01*
X183998Y11974D01*
X183968Y11990D01*
X183953Y12003D01*
X183922Y12016D01*
X183851Y12055D01*
X179664Y13789D01*
X173289Y20164D01*
X169839Y28493D01*
X169839Y37507D01*
X173289Y45836D01*
X179664Y52211D01*
X187993Y55661D01*
X197007Y55661D01*
X205336Y52211D01*
X211711Y45836D01*
X215161Y37507D01*
X215161Y28493D01*
X211711Y20164D01*
X205336Y13789D01*
X201251Y12097D01*
X201167Y12045D01*
X201081Y11999D01*
X201063Y11981D01*
X201042Y11967D01*
X200979Y11892D01*
X200912Y11820D01*
X200901Y11797D01*
X200885Y11778D01*
X200850Y11686D01*
X200809Y11597D01*
X200806Y11572D01*
X200797Y11548D01*
X200793Y11450D01*
X200782Y11352D01*
X200787Y11328D01*
X200786Y11302D01*
X200814Y11208D01*
X200835Y11112D01*
X200848Y11090D01*
X200855Y11066D01*
X200911Y10986D01*
X200962Y10901D01*
X200981Y10885D01*
X200995Y10864D01*
X201074Y10805D01*
X201149Y10742D01*
X201172Y10732D01*
X201193Y10717D01*
X201286Y10687D01*
X201377Y10650D01*
X201408Y10647D01*
X201426Y10641D01*
X201459Y10642D01*
X201544Y10632D01*
X630064Y11635D01*
X630084Y11638D01*
X630103Y11636D01*
X630204Y11658D01*
X630307Y11675D01*
X630324Y11685D01*
X630343Y11689D01*
X630432Y11742D01*
X630524Y11791D01*
X630538Y11805D01*
X630554Y11815D01*
X630622Y11894D01*
X630693Y11970D01*
X630701Y11988D01*
X630714Y12002D01*
X630753Y12099D01*
X630796Y12193D01*
X630798Y12213D01*
X630806Y12231D01*
X630824Y12397D01*
X629371Y1042001D01*
X629368Y1042020D01*
X629370Y1042039D01*
X629348Y1042141D01*
X629331Y1042244D01*
X629322Y1042261D01*
X629318Y1042280D01*
X629264Y1042369D01*
X629216Y1042461D01*
X629201Y1042474D01*
X629192Y1042491D01*
X629113Y1042558D01*
X629037Y1042630D01*
X629019Y1042638D01*
X629005Y1042651D01*
X628908Y1042690D01*
X628814Y1042733D01*
X628795Y1042736D01*
X628776Y1042743D01*
X628610Y1042761D01*
X344184Y1042761D01*
X344164Y1042758D01*
X344145Y1042760D01*
X344043Y1042738D01*
X343941Y1042722D01*
X343924Y1042712D01*
X343904Y1042708D01*
X343815Y1042655D01*
X343724Y1042606D01*
X343710Y1042592D01*
X343693Y1042582D01*
X343626Y1042503D01*
X343554Y1042428D01*
X343546Y1042410D01*
X343533Y1042395D01*
X343494Y1042299D01*
X343451Y1042205D01*
X343449Y1042185D01*
X343441Y1042167D01*
X343423Y1042000D01*
X343423Y1022327D01*
X341760Y1018313D01*
X338687Y1015240D01*
X334673Y1013577D01*
X302827Y1013577D01*
X298813Y1015240D01*
X295240Y1018813D01*
X293577Y1022827D01*
X293577Y1042000D01*
X293574Y1042020D01*
X293576Y1042039D01*
X293554Y1042141D01*
X293538Y1042243D01*
X293528Y1042260D01*
X293524Y1042280D01*
X293471Y1042369D01*
X293422Y1042460D01*
X293408Y1042474D01*
X293398Y1042491D01*
X293319Y1042558D01*
X293244Y1042629D01*
X293226Y1042638D01*
X293211Y1042651D01*
X293115Y1042690D01*
X293021Y1042733D01*
X293001Y1042735D01*
X292983Y1042743D01*
X292816Y1042761D01*
X9452Y1042761D01*
X9431Y1042758D01*
X9411Y1042760D01*
X9311Y1042738D01*
X9209Y1042721D01*
X9191Y1042712D01*
X9171Y1042708D01*
X9082Y1042654D01*
X8992Y1042606D01*
X8977Y1042592D01*
X8960Y1042581D01*
X8893Y1042503D01*
X8822Y1042428D01*
X8813Y1042409D01*
X8800Y1042394D01*
X8762Y1042299D01*
X8719Y1042205D01*
X8716Y1042185D01*
X8709Y1042166D01*
X8690Y1041999D01*
X10145Y10946D01*
X10149Y10926D01*
X10146Y10906D01*
X10169Y10805D01*
X10185Y10704D01*
X10195Y10686D01*
X10199Y10666D01*
X10252Y10578D01*
X10301Y10487D01*
X10316Y10473D01*
X10326Y10455D01*
X10404Y10388D01*
X10479Y10317D01*
X10498Y10309D01*
X10513Y10296D01*
X10609Y10257D01*
X10703Y10214D01*
X10723Y10212D01*
X10742Y10204D01*
X10908Y10186D01*
X183561Y10590D01*
G37*
%LPC*%
G36*
X85302Y121193D02*
X85302Y121193D01*
X82193Y124302D01*
X82193Y128698D01*
X85302Y131807D01*
X89257Y131807D01*
X89348Y131821D01*
X89438Y131829D01*
X89468Y131841D01*
X89500Y131846D01*
X89581Y131889D01*
X89665Y131925D01*
X89697Y131951D01*
X89718Y131962D01*
X89740Y131985D01*
X89796Y132030D01*
X113490Y155724D01*
X113543Y155798D01*
X113603Y155868D01*
X113615Y155898D01*
X113634Y155924D01*
X113661Y156011D01*
X113695Y156096D01*
X113699Y156137D01*
X113706Y156159D01*
X113705Y156191D01*
X113713Y156263D01*
X113713Y176237D01*
X113699Y176328D01*
X113691Y176418D01*
X113679Y176448D01*
X113674Y176480D01*
X113631Y176561D01*
X113595Y176645D01*
X113569Y176677D01*
X113558Y176698D01*
X113535Y176720D01*
X113490Y176776D01*
X73776Y216490D01*
X73702Y216543D01*
X73632Y216603D01*
X73602Y216615D01*
X73576Y216634D01*
X73489Y216661D01*
X73404Y216695D01*
X73363Y216699D01*
X73341Y216706D01*
X73309Y216705D01*
X73237Y216713D01*
X42533Y216713D01*
X42443Y216699D01*
X42352Y216691D01*
X42323Y216679D01*
X42291Y216674D01*
X42210Y216631D01*
X42126Y216595D01*
X42094Y216569D01*
X42073Y216558D01*
X42051Y216535D01*
X41995Y216490D01*
X39198Y213693D01*
X34802Y213693D01*
X31693Y216802D01*
X31693Y221198D01*
X34802Y224307D01*
X39198Y224307D01*
X41995Y221510D01*
X42069Y221457D01*
X42139Y221397D01*
X42169Y221385D01*
X42195Y221366D01*
X42282Y221339D01*
X42367Y221305D01*
X42408Y221301D01*
X42430Y221294D01*
X42462Y221295D01*
X42533Y221287D01*
X75447Y221287D01*
X77010Y219724D01*
X112414Y184320D01*
X112472Y184278D01*
X112524Y184229D01*
X112571Y184207D01*
X112613Y184177D01*
X112682Y184156D01*
X112747Y184125D01*
X112799Y184120D01*
X112849Y184104D01*
X112920Y184106D01*
X112991Y184098D01*
X113042Y184109D01*
X113094Y184111D01*
X113162Y184135D01*
X113232Y184150D01*
X113277Y184177D01*
X113325Y184195D01*
X113381Y184240D01*
X113443Y184277D01*
X113477Y184316D01*
X113517Y184349D01*
X113556Y184409D01*
X113603Y184464D01*
X113622Y184512D01*
X113650Y184556D01*
X113668Y184625D01*
X113695Y184692D01*
X113703Y184763D01*
X113711Y184794D01*
X113709Y184818D01*
X113713Y184858D01*
X113713Y212871D01*
X113702Y212941D01*
X113700Y213013D01*
X113682Y213062D01*
X113674Y213113D01*
X113640Y213177D01*
X113615Y213244D01*
X113583Y213285D01*
X113558Y213331D01*
X113506Y213380D01*
X113462Y213436D01*
X113418Y213464D01*
X113380Y213500D01*
X113315Y213530D01*
X113255Y213569D01*
X113204Y213582D01*
X113157Y213604D01*
X113086Y213612D01*
X113016Y213629D01*
X112964Y213625D01*
X112913Y213631D01*
X112842Y213616D01*
X112771Y213610D01*
X112723Y213590D01*
X112672Y213579D01*
X112611Y213542D01*
X112545Y213514D01*
X112489Y213469D01*
X112461Y213452D01*
X112446Y213435D01*
X112414Y213409D01*
X111698Y212693D01*
X107302Y212693D01*
X104193Y215802D01*
X104193Y220198D01*
X106990Y222995D01*
X107043Y223069D01*
X107103Y223139D01*
X107115Y223169D01*
X107134Y223195D01*
X107161Y223282D01*
X107195Y223367D01*
X107199Y223408D01*
X107206Y223430D01*
X107205Y223462D01*
X107213Y223533D01*
X107213Y241952D01*
X107210Y241972D01*
X107212Y241991D01*
X107190Y242093D01*
X107174Y242195D01*
X107164Y242212D01*
X107160Y242232D01*
X107107Y242321D01*
X107058Y242412D01*
X107044Y242426D01*
X107034Y242443D01*
X106955Y242510D01*
X106880Y242582D01*
X106862Y242590D01*
X106847Y242603D01*
X106751Y242642D01*
X106657Y242685D01*
X106637Y242687D01*
X106619Y242695D01*
X106452Y242713D01*
X40053Y242713D01*
X38296Y244470D01*
X38222Y244523D01*
X38152Y244583D01*
X38122Y244595D01*
X38096Y244614D01*
X38009Y244641D01*
X37924Y244675D01*
X37883Y244679D01*
X37861Y244686D01*
X37829Y244685D01*
X37757Y244693D01*
X33802Y244693D01*
X30693Y247802D01*
X30693Y252198D01*
X33802Y255307D01*
X38198Y255307D01*
X41307Y252198D01*
X41307Y248243D01*
X41321Y248152D01*
X41329Y248062D01*
X41341Y248032D01*
X41346Y248000D01*
X41389Y247919D01*
X41425Y247835D01*
X41451Y247803D01*
X41462Y247782D01*
X41485Y247760D01*
X41530Y247704D01*
X41724Y247510D01*
X41798Y247457D01*
X41868Y247397D01*
X41898Y247385D01*
X41924Y247366D01*
X42011Y247339D01*
X42096Y247305D01*
X42137Y247301D01*
X42159Y247294D01*
X42191Y247295D01*
X42263Y247287D01*
X106452Y247287D01*
X106472Y247290D01*
X106491Y247288D01*
X106593Y247310D01*
X106695Y247326D01*
X106712Y247336D01*
X106732Y247340D01*
X106821Y247393D01*
X106912Y247442D01*
X106926Y247456D01*
X106943Y247466D01*
X107010Y247545D01*
X107082Y247620D01*
X107090Y247638D01*
X107103Y247653D01*
X107142Y247749D01*
X107185Y247843D01*
X107187Y247863D01*
X107195Y247881D01*
X107213Y248048D01*
X107213Y292371D01*
X107202Y292441D01*
X107200Y292513D01*
X107182Y292562D01*
X107174Y292613D01*
X107140Y292677D01*
X107115Y292744D01*
X107083Y292785D01*
X107058Y292831D01*
X107006Y292880D01*
X106962Y292936D01*
X106918Y292964D01*
X106880Y293000D01*
X106815Y293030D01*
X106755Y293069D01*
X106704Y293082D01*
X106657Y293104D01*
X106586Y293112D01*
X106516Y293129D01*
X106464Y293125D01*
X106413Y293131D01*
X106342Y293116D01*
X106271Y293110D01*
X106223Y293090D01*
X106172Y293079D01*
X106111Y293042D01*
X106045Y293014D01*
X105989Y292969D01*
X105961Y292952D01*
X105946Y292935D01*
X105914Y292909D01*
X105198Y292193D01*
X100802Y292193D01*
X97693Y295302D01*
X97693Y299257D01*
X97679Y299348D01*
X97671Y299438D01*
X97659Y299468D01*
X97654Y299500D01*
X97611Y299581D01*
X97575Y299665D01*
X97549Y299697D01*
X97538Y299718D01*
X97515Y299740D01*
X97470Y299796D01*
X85276Y311990D01*
X83713Y313553D01*
X83713Y499737D01*
X83699Y499828D01*
X83691Y499918D01*
X83679Y499948D01*
X83674Y499980D01*
X83631Y500061D01*
X83595Y500145D01*
X83569Y500177D01*
X83558Y500198D01*
X83535Y500220D01*
X83490Y500276D01*
X80713Y503053D01*
X80713Y859642D01*
X80702Y859712D01*
X80700Y859784D01*
X80682Y859833D01*
X80674Y859884D01*
X80640Y859948D01*
X80615Y860015D01*
X80583Y860056D01*
X80558Y860102D01*
X80506Y860151D01*
X80462Y860207D01*
X80418Y860235D01*
X80380Y860271D01*
X80315Y860301D01*
X80255Y860340D01*
X80204Y860353D01*
X80157Y860375D01*
X80086Y860383D01*
X80016Y860400D01*
X79964Y860396D01*
X79913Y860402D01*
X79842Y860387D01*
X79771Y860381D01*
X79723Y860361D01*
X79672Y860350D01*
X79611Y860313D01*
X79545Y860285D01*
X79489Y860240D01*
X79461Y860223D01*
X79446Y860206D01*
X79414Y860180D01*
X77010Y857776D01*
X75447Y856213D01*
X66533Y856213D01*
X66443Y856199D01*
X66352Y856191D01*
X66323Y856179D01*
X66291Y856174D01*
X66210Y856131D01*
X66126Y856095D01*
X66094Y856069D01*
X66073Y856058D01*
X66051Y856035D01*
X65995Y855990D01*
X63198Y853193D01*
X58802Y853193D01*
X55693Y856302D01*
X55693Y860698D01*
X58802Y863807D01*
X63198Y863807D01*
X65995Y861010D01*
X66069Y860957D01*
X66139Y860897D01*
X66169Y860885D01*
X66195Y860866D01*
X66282Y860839D01*
X66367Y860805D01*
X66408Y860801D01*
X66430Y860794D01*
X66462Y860795D01*
X66533Y860787D01*
X73237Y860787D01*
X73328Y860801D01*
X73418Y860809D01*
X73448Y860821D01*
X73480Y860826D01*
X73561Y860869D01*
X73645Y860905D01*
X73677Y860931D01*
X73698Y860942D01*
X73720Y860965D01*
X73776Y861010D01*
X80490Y867724D01*
X80543Y867798D01*
X80603Y867868D01*
X80615Y867898D01*
X80634Y867924D01*
X80661Y868011D01*
X80695Y868096D01*
X80699Y868137D01*
X80706Y868159D01*
X80705Y868191D01*
X80713Y868262D01*
X80713Y900947D01*
X82276Y902510D01*
X185990Y1006224D01*
X187553Y1007787D01*
X276447Y1007787D01*
X300224Y984010D01*
X300298Y983957D01*
X300368Y983897D01*
X300398Y983885D01*
X300424Y983866D01*
X300511Y983839D01*
X300596Y983805D01*
X300637Y983801D01*
X300659Y983794D01*
X300691Y983795D01*
X300763Y983787D01*
X350967Y983787D01*
X351057Y983801D01*
X351148Y983809D01*
X351177Y983821D01*
X351209Y983826D01*
X351290Y983869D01*
X351374Y983905D01*
X351406Y983931D01*
X351427Y983942D01*
X351449Y983965D01*
X351505Y984010D01*
X354302Y986807D01*
X358698Y986807D01*
X361807Y983698D01*
X361807Y979302D01*
X358698Y976193D01*
X354302Y976193D01*
X351505Y978990D01*
X351431Y979043D01*
X351361Y979103D01*
X351331Y979115D01*
X351305Y979134D01*
X351218Y979161D01*
X351133Y979195D01*
X351092Y979199D01*
X351070Y979206D01*
X351038Y979205D01*
X350967Y979213D01*
X298553Y979213D01*
X274776Y1002990D01*
X274702Y1003043D01*
X274632Y1003103D01*
X274602Y1003115D01*
X274576Y1003134D01*
X274489Y1003161D01*
X274404Y1003195D01*
X274363Y1003199D01*
X274341Y1003206D01*
X274309Y1003205D01*
X274237Y1003213D01*
X254544Y1003213D01*
X254473Y1003202D01*
X254402Y1003200D01*
X254353Y1003182D01*
X254301Y1003174D01*
X254238Y1003140D01*
X254171Y1003115D01*
X254130Y1003083D01*
X254084Y1003058D01*
X254035Y1003006D01*
X253979Y1002962D01*
X253950Y1002918D01*
X253915Y1002880D01*
X253884Y1002815D01*
X253846Y1002755D01*
X253833Y1002704D01*
X253811Y1002657D01*
X253803Y1002586D01*
X253785Y1002516D01*
X253790Y1002464D01*
X253784Y1002413D01*
X253799Y1002342D01*
X253805Y1002271D01*
X253825Y1002223D01*
X253836Y1002172D01*
X253873Y1002111D01*
X253901Y1002045D01*
X253946Y1001989D01*
X253962Y1001961D01*
X253980Y1001946D01*
X254006Y1001914D01*
X256485Y999435D01*
X257865Y996103D01*
X257865Y992497D01*
X256485Y989165D01*
X256310Y988990D01*
X256257Y988916D01*
X256197Y988847D01*
X256185Y988817D01*
X256166Y988791D01*
X256139Y988703D01*
X256105Y988619D01*
X256101Y988578D01*
X256094Y988555D01*
X256095Y988523D01*
X256087Y988452D01*
X256087Y976405D01*
X239984Y960302D01*
X239931Y960228D01*
X239871Y960158D01*
X239859Y960128D01*
X239840Y960102D01*
X239813Y960015D01*
X239779Y959930D01*
X239775Y959889D01*
X239768Y959867D01*
X239769Y959835D01*
X239761Y959763D01*
X239761Y949918D01*
X239772Y949847D01*
X239774Y949776D01*
X239792Y949727D01*
X239800Y949675D01*
X239834Y949612D01*
X239859Y949545D01*
X239891Y949504D01*
X239916Y949458D01*
X239968Y949409D01*
X240012Y949353D01*
X240056Y949324D01*
X240094Y949289D01*
X240159Y949258D01*
X240219Y949220D01*
X240270Y949207D01*
X240317Y949185D01*
X240388Y949177D01*
X240458Y949159D01*
X240510Y949164D01*
X240561Y949158D01*
X240632Y949173D01*
X240703Y949179D01*
X240751Y949199D01*
X240802Y949210D01*
X240863Y949247D01*
X240929Y949275D01*
X240985Y949320D01*
X241013Y949336D01*
X241028Y949354D01*
X241060Y949380D01*
X243665Y951985D01*
X246997Y953365D01*
X250603Y953365D01*
X253935Y951985D01*
X256485Y949435D01*
X257865Y946103D01*
X257865Y942497D01*
X256485Y939165D01*
X253935Y936615D01*
X250603Y935235D01*
X246997Y935235D01*
X243665Y936615D01*
X241060Y939220D01*
X241002Y939262D01*
X240950Y939311D01*
X240903Y939333D01*
X240861Y939364D01*
X240792Y939385D01*
X240727Y939415D01*
X240675Y939421D01*
X240625Y939436D01*
X240554Y939434D01*
X240483Y939442D01*
X240432Y939431D01*
X240380Y939430D01*
X240312Y939405D01*
X240242Y939390D01*
X240197Y939363D01*
X240149Y939345D01*
X240093Y939300D01*
X240031Y939264D01*
X239997Y939224D01*
X239957Y939192D01*
X239918Y939131D01*
X239871Y939077D01*
X239852Y939029D01*
X239824Y938985D01*
X239806Y938915D01*
X239779Y938849D01*
X239771Y938777D01*
X239763Y938746D01*
X239765Y938723D01*
X239761Y938682D01*
X239761Y416707D01*
X239775Y416617D01*
X239783Y416526D01*
X239795Y416496D01*
X239800Y416464D01*
X239843Y416384D01*
X239879Y416300D01*
X239905Y416268D01*
X239916Y416247D01*
X239939Y416225D01*
X239945Y416217D01*
X239953Y416203D01*
X239963Y416195D01*
X239984Y416169D01*
X242894Y413259D01*
X242952Y413217D01*
X243004Y413167D01*
X243051Y413145D01*
X243093Y413115D01*
X243162Y413094D01*
X243227Y413064D01*
X243279Y413058D01*
X243329Y413043D01*
X243400Y413045D01*
X243471Y413037D01*
X243522Y413048D01*
X243574Y413049D01*
X243642Y413074D01*
X243712Y413089D01*
X243756Y413116D01*
X243805Y413134D01*
X243861Y413178D01*
X243923Y413215D01*
X243957Y413255D01*
X243997Y413287D01*
X244036Y413348D01*
X244083Y413402D01*
X244102Y413450D01*
X244130Y413494D01*
X244148Y413564D01*
X244175Y413630D01*
X244183Y413702D01*
X244191Y413733D01*
X244189Y413756D01*
X244193Y413797D01*
X244193Y414698D01*
X247302Y417807D01*
X251257Y417807D01*
X251348Y417821D01*
X251438Y417829D01*
X251468Y417841D01*
X251500Y417846D01*
X251581Y417889D01*
X251665Y417925D01*
X251697Y417951D01*
X251718Y417962D01*
X251740Y417985D01*
X251796Y418030D01*
X253490Y419724D01*
X253543Y419798D01*
X253603Y419868D01*
X253615Y419898D01*
X253634Y419924D01*
X253661Y420011D01*
X253695Y420096D01*
X253699Y420137D01*
X253706Y420159D01*
X253705Y420191D01*
X253713Y420263D01*
X253713Y420947D01*
X255053Y422287D01*
X288447Y422287D01*
X289224Y421510D01*
X289298Y421457D01*
X289368Y421397D01*
X289398Y421385D01*
X289424Y421366D01*
X289511Y421339D01*
X289596Y421305D01*
X289637Y421301D01*
X289659Y421294D01*
X289691Y421295D01*
X289762Y421287D01*
X334467Y421287D01*
X334557Y421301D01*
X334648Y421309D01*
X334677Y421321D01*
X334709Y421326D01*
X334790Y421369D01*
X334874Y421405D01*
X334906Y421431D01*
X334927Y421442D01*
X334949Y421465D01*
X335005Y421510D01*
X337802Y424307D01*
X342198Y424307D01*
X344995Y421510D01*
X345069Y421457D01*
X345139Y421397D01*
X345169Y421385D01*
X345195Y421366D01*
X345282Y421339D01*
X345367Y421305D01*
X345408Y421301D01*
X345430Y421294D01*
X345462Y421295D01*
X345533Y421287D01*
X355447Y421287D01*
X382287Y394447D01*
X382287Y358033D01*
X382301Y357943D01*
X382309Y357852D01*
X382321Y357823D01*
X382326Y357791D01*
X382369Y357710D01*
X382405Y357626D01*
X382431Y357594D01*
X382442Y357573D01*
X382465Y357551D01*
X382510Y357495D01*
X385807Y354198D01*
X385807Y349802D01*
X382698Y346693D01*
X378302Y346693D01*
X375193Y349802D01*
X375193Y354198D01*
X377490Y356495D01*
X377543Y356569D01*
X377603Y356639D01*
X377615Y356669D01*
X377634Y356695D01*
X377661Y356782D01*
X377695Y356867D01*
X377699Y356908D01*
X377706Y356930D01*
X377705Y356962D01*
X377713Y357033D01*
X377713Y392237D01*
X377699Y392328D01*
X377691Y392418D01*
X377679Y392448D01*
X377674Y392480D01*
X377631Y392561D01*
X377595Y392645D01*
X377569Y392677D01*
X377558Y392698D01*
X377535Y392720D01*
X377490Y392776D01*
X353776Y416490D01*
X353702Y416543D01*
X353632Y416603D01*
X353602Y416615D01*
X353576Y416634D01*
X353489Y416661D01*
X353404Y416695D01*
X353363Y416699D01*
X353341Y416706D01*
X353309Y416705D01*
X353237Y416713D01*
X345533Y416713D01*
X345443Y416699D01*
X345352Y416691D01*
X345323Y416679D01*
X345291Y416674D01*
X345210Y416631D01*
X345126Y416595D01*
X345094Y416569D01*
X345073Y416558D01*
X345056Y416540D01*
X345054Y416539D01*
X345047Y416532D01*
X344995Y416490D01*
X342198Y413693D01*
X338243Y413693D01*
X338152Y413679D01*
X338062Y413671D01*
X338032Y413659D01*
X338000Y413654D01*
X337919Y413611D01*
X337835Y413575D01*
X337803Y413549D01*
X337782Y413538D01*
X337760Y413515D01*
X337704Y413470D01*
X328322Y404088D01*
X295638Y404088D01*
X295547Y404074D01*
X295457Y404066D01*
X295427Y404054D01*
X295395Y404049D01*
X295314Y404006D01*
X295230Y403970D01*
X295198Y403944D01*
X295177Y403933D01*
X295155Y403910D01*
X295099Y403865D01*
X293030Y401796D01*
X292977Y401722D01*
X292917Y401652D01*
X292905Y401622D01*
X292886Y401596D01*
X292859Y401509D01*
X292825Y401424D01*
X292821Y401383D01*
X292814Y401361D01*
X292815Y401329D01*
X292807Y401258D01*
X292807Y397302D01*
X289698Y394193D01*
X285302Y394193D01*
X282193Y397302D01*
X282193Y401698D01*
X285302Y404807D01*
X289258Y404807D01*
X289348Y404821D01*
X289439Y404829D01*
X289468Y404841D01*
X289500Y404846D01*
X289581Y404889D01*
X289665Y404925D01*
X289697Y404951D01*
X289718Y404962D01*
X289740Y404985D01*
X289796Y405030D01*
X293428Y408662D01*
X326112Y408662D01*
X326203Y408676D01*
X326293Y408684D01*
X326323Y408696D01*
X326355Y408701D01*
X326436Y408744D01*
X326520Y408780D01*
X326552Y408806D01*
X326573Y408817D01*
X326595Y408840D01*
X326651Y408885D01*
X333180Y415414D01*
X333222Y415472D01*
X333271Y415524D01*
X333293Y415571D01*
X333323Y415613D01*
X333344Y415682D01*
X333375Y415747D01*
X333380Y415799D01*
X333396Y415849D01*
X333394Y415920D01*
X333402Y415991D01*
X333391Y416042D01*
X333389Y416094D01*
X333365Y416162D01*
X333350Y416232D01*
X333323Y416277D01*
X333305Y416325D01*
X333260Y416381D01*
X333223Y416443D01*
X333184Y416477D01*
X333151Y416517D01*
X333091Y416556D01*
X333036Y416603D01*
X332988Y416622D01*
X332944Y416650D01*
X332875Y416668D01*
X332808Y416695D01*
X332737Y416703D01*
X332706Y416711D01*
X332682Y416709D01*
X332642Y416713D01*
X287553Y416713D01*
X286776Y417490D01*
X286702Y417543D01*
X286632Y417603D01*
X286602Y417615D01*
X286576Y417634D01*
X286489Y417661D01*
X286404Y417695D01*
X286363Y417699D01*
X286341Y417706D01*
X286309Y417705D01*
X286237Y417713D01*
X258263Y417713D01*
X258172Y417699D01*
X258082Y417691D01*
X258052Y417679D01*
X258020Y417674D01*
X257939Y417631D01*
X257855Y417595D01*
X257823Y417569D01*
X257802Y417558D01*
X257780Y417535D01*
X257724Y417490D01*
X256724Y416490D01*
X256320Y416086D01*
X256278Y416028D01*
X256229Y415976D01*
X256207Y415929D01*
X256177Y415887D01*
X256156Y415818D01*
X256125Y415753D01*
X256120Y415701D01*
X256104Y415651D01*
X256106Y415580D01*
X256098Y415509D01*
X256109Y415458D01*
X256111Y415406D01*
X256135Y415338D01*
X256150Y415268D01*
X256177Y415223D01*
X256195Y415175D01*
X256240Y415119D01*
X256277Y415057D01*
X256316Y415023D01*
X256349Y414983D01*
X256409Y414944D01*
X256464Y414897D01*
X256512Y414878D01*
X256556Y414850D01*
X256625Y414832D01*
X256692Y414805D01*
X256763Y414797D01*
X256794Y414789D01*
X256818Y414791D01*
X256858Y414787D01*
X262197Y414787D01*
X263537Y413447D01*
X263537Y368379D01*
X263548Y368309D01*
X263550Y368237D01*
X263568Y368188D01*
X263576Y368137D01*
X263610Y368073D01*
X263635Y368006D01*
X263667Y367965D01*
X263692Y367919D01*
X263744Y367870D01*
X263788Y367814D01*
X263832Y367786D01*
X263870Y367750D01*
X263935Y367720D01*
X263995Y367681D01*
X264046Y367668D01*
X264093Y367646D01*
X264164Y367638D01*
X264234Y367621D01*
X264286Y367625D01*
X264337Y367619D01*
X264408Y367634D01*
X264479Y367640D01*
X264527Y367660D01*
X264578Y367671D01*
X264639Y367708D01*
X264705Y367736D01*
X264761Y367781D01*
X264789Y367798D01*
X264804Y367815D01*
X264836Y367841D01*
X266802Y369807D01*
X271198Y369807D01*
X272394Y368611D01*
X272452Y368569D01*
X272504Y368520D01*
X272551Y368498D01*
X272593Y368468D01*
X272662Y368446D01*
X272727Y368416D01*
X272779Y368411D01*
X272829Y368395D01*
X272900Y368397D01*
X272971Y368389D01*
X273022Y368400D01*
X273074Y368402D01*
X273142Y368426D01*
X273212Y368441D01*
X273257Y368468D01*
X273305Y368486D01*
X273361Y368531D01*
X273423Y368568D01*
X273457Y368607D01*
X273497Y368640D01*
X273536Y368700D01*
X273583Y368755D01*
X273602Y368803D01*
X273630Y368847D01*
X273648Y368916D01*
X273675Y368983D01*
X273683Y369054D01*
X273691Y369085D01*
X273689Y369108D01*
X273693Y369149D01*
X273693Y370698D01*
X276802Y373807D01*
X281198Y373807D01*
X284307Y370698D01*
X284307Y366302D01*
X281510Y363505D01*
X281457Y363431D01*
X281397Y363361D01*
X281385Y363331D01*
X281366Y363305D01*
X281339Y363218D01*
X281305Y363133D01*
X281301Y363092D01*
X281294Y363070D01*
X281295Y363038D01*
X281287Y362967D01*
X281287Y302053D01*
X255947Y276713D01*
X223263Y276713D01*
X223172Y276699D01*
X223082Y276691D01*
X223052Y276679D01*
X223020Y276674D01*
X222939Y276631D01*
X222855Y276595D01*
X222823Y276569D01*
X222802Y276558D01*
X222780Y276535D01*
X222724Y276490D01*
X217829Y271595D01*
X217817Y271579D01*
X217802Y271566D01*
X217746Y271479D01*
X217685Y271395D01*
X217679Y271376D01*
X217669Y271359D01*
X217643Y271259D01*
X217613Y271160D01*
X217613Y271140D01*
X217609Y271121D01*
X217617Y271018D01*
X217619Y270914D01*
X217626Y270895D01*
X217628Y270876D01*
X217668Y270781D01*
X217704Y270683D01*
X217716Y270667D01*
X217724Y270649D01*
X217817Y270533D01*
X217817Y266134D01*
X214708Y263025D01*
X210312Y263025D01*
X209086Y264251D01*
X209028Y264293D01*
X208976Y264342D01*
X208929Y264364D01*
X208887Y264395D01*
X208818Y264416D01*
X208753Y264446D01*
X208701Y264452D01*
X208651Y264467D01*
X208580Y264465D01*
X208509Y264473D01*
X208458Y264462D01*
X208406Y264461D01*
X208338Y264436D01*
X208268Y264421D01*
X208223Y264394D01*
X208175Y264376D01*
X208119Y264331D01*
X208057Y264295D01*
X208023Y264255D01*
X207983Y264222D01*
X207944Y264162D01*
X207897Y264108D01*
X207878Y264059D01*
X207850Y264016D01*
X207832Y263946D01*
X207805Y263880D01*
X207797Y263808D01*
X207789Y263777D01*
X207791Y263754D01*
X207787Y263713D01*
X207787Y253263D01*
X207801Y253172D01*
X207809Y253082D01*
X207821Y253052D01*
X207826Y253020D01*
X207869Y252939D01*
X207905Y252855D01*
X207931Y252823D01*
X207942Y252802D01*
X207965Y252780D01*
X208010Y252724D01*
X211224Y249510D01*
X211298Y249457D01*
X211368Y249397D01*
X211398Y249385D01*
X211424Y249366D01*
X211511Y249339D01*
X211596Y249305D01*
X211637Y249301D01*
X211659Y249294D01*
X211691Y249295D01*
X211763Y249287D01*
X281737Y249287D01*
X281828Y249301D01*
X281918Y249309D01*
X281948Y249321D01*
X281980Y249326D01*
X282061Y249369D01*
X282145Y249405D01*
X282177Y249431D01*
X282198Y249442D01*
X282220Y249465D01*
X282276Y249510D01*
X291970Y259204D01*
X292023Y259278D01*
X292083Y259348D01*
X292095Y259378D01*
X292114Y259404D01*
X292141Y259491D01*
X292175Y259576D01*
X292179Y259617D01*
X292186Y259639D01*
X292185Y259671D01*
X292193Y259743D01*
X292193Y263698D01*
X295302Y266807D01*
X299698Y266807D01*
X302807Y263698D01*
X302807Y259302D01*
X299698Y256193D01*
X295743Y256193D01*
X295652Y256179D01*
X295562Y256171D01*
X295532Y256159D01*
X295500Y256154D01*
X295419Y256111D01*
X295335Y256075D01*
X295303Y256049D01*
X295282Y256038D01*
X295260Y256015D01*
X295204Y255970D01*
X283724Y244490D01*
X274408Y235174D01*
X274396Y235158D01*
X274380Y235145D01*
X274324Y235058D01*
X274264Y234974D01*
X274258Y234955D01*
X274247Y234938D01*
X274222Y234838D01*
X274192Y234739D01*
X274192Y234719D01*
X274187Y234700D01*
X274195Y234597D01*
X274198Y234493D01*
X274205Y234474D01*
X274207Y234454D01*
X274247Y234360D01*
X274283Y234262D01*
X274295Y234246D01*
X274303Y234228D01*
X274408Y234097D01*
X275307Y233198D01*
X275307Y228802D01*
X272198Y225693D01*
X267802Y225693D01*
X264693Y228802D01*
X264693Y233198D01*
X267802Y236307D01*
X268758Y236307D01*
X268848Y236321D01*
X268939Y236329D01*
X268968Y236341D01*
X269000Y236346D01*
X269081Y236389D01*
X269165Y236425D01*
X269197Y236451D01*
X269218Y236462D01*
X269240Y236485D01*
X269296Y236530D01*
X276180Y243414D01*
X276222Y243472D01*
X276271Y243524D01*
X276293Y243571D01*
X276323Y243613D01*
X276344Y243682D01*
X276375Y243747D01*
X276380Y243799D01*
X276396Y243849D01*
X276394Y243920D01*
X276402Y243991D01*
X276391Y244042D01*
X276389Y244094D01*
X276365Y244162D01*
X276350Y244232D01*
X276323Y244276D01*
X276305Y244325D01*
X276260Y244381D01*
X276223Y244443D01*
X276184Y244477D01*
X276151Y244517D01*
X276091Y244556D01*
X276036Y244603D01*
X275988Y244622D01*
X275944Y244650D01*
X275875Y244668D01*
X275808Y244695D01*
X275737Y244703D01*
X275706Y244711D01*
X275682Y244709D01*
X275642Y244713D01*
X209553Y244713D01*
X209086Y245180D01*
X209028Y245222D01*
X208976Y245271D01*
X208929Y245293D01*
X208887Y245323D01*
X208818Y245344D01*
X208753Y245375D01*
X208701Y245380D01*
X208651Y245396D01*
X208580Y245394D01*
X208509Y245402D01*
X208458Y245391D01*
X208406Y245389D01*
X208338Y245365D01*
X208268Y245350D01*
X208223Y245323D01*
X208175Y245305D01*
X208119Y245260D01*
X208057Y245223D01*
X208023Y245184D01*
X207983Y245151D01*
X207944Y245091D01*
X207897Y245036D01*
X207878Y244988D01*
X207850Y244944D01*
X207832Y244875D01*
X207805Y244808D01*
X207797Y244737D01*
X207789Y244706D01*
X207791Y244682D01*
X207787Y244642D01*
X207787Y225033D01*
X207801Y224943D01*
X207809Y224852D01*
X207821Y224823D01*
X207826Y224791D01*
X207869Y224710D01*
X207905Y224626D01*
X207931Y224594D01*
X207942Y224573D01*
X207965Y224551D01*
X208010Y224495D01*
X210807Y221698D01*
X210807Y217302D01*
X207698Y214193D01*
X203302Y214193D01*
X200193Y217302D01*
X200193Y221698D01*
X202990Y224495D01*
X203043Y224569D01*
X203103Y224639D01*
X203115Y224669D01*
X203134Y224695D01*
X203161Y224782D01*
X203195Y224867D01*
X203199Y224908D01*
X203206Y224930D01*
X203205Y224962D01*
X203213Y225033D01*
X203213Y232452D01*
X203210Y232472D01*
X203212Y232491D01*
X203190Y232593D01*
X203174Y232695D01*
X203164Y232712D01*
X203160Y232732D01*
X203107Y232821D01*
X203058Y232912D01*
X203044Y232926D01*
X203034Y232943D01*
X202955Y233010D01*
X202880Y233082D01*
X202862Y233090D01*
X202847Y233103D01*
X202751Y233142D01*
X202657Y233185D01*
X202637Y233187D01*
X202619Y233195D01*
X202452Y233213D01*
X166568Y233213D01*
X166548Y233210D01*
X166529Y233212D01*
X166427Y233190D01*
X166325Y233174D01*
X166308Y233164D01*
X166288Y233160D01*
X166199Y233107D01*
X166108Y233058D01*
X166094Y233044D01*
X166077Y233034D01*
X166010Y232955D01*
X165938Y232880D01*
X165930Y232862D01*
X165917Y232847D01*
X165878Y232751D01*
X165835Y232657D01*
X165833Y232637D01*
X165825Y232619D01*
X165807Y232452D01*
X165807Y232302D01*
X162698Y229193D01*
X158302Y229193D01*
X155193Y232302D01*
X155193Y236698D01*
X158302Y239807D01*
X162698Y239807D01*
X164495Y238010D01*
X164569Y237957D01*
X164639Y237897D01*
X164669Y237885D01*
X164695Y237866D01*
X164782Y237839D01*
X164867Y237805D01*
X164908Y237801D01*
X164930Y237794D01*
X164962Y237795D01*
X165033Y237787D01*
X202452Y237787D01*
X202472Y237790D01*
X202491Y237788D01*
X202593Y237810D01*
X202695Y237826D01*
X202712Y237836D01*
X202732Y237840D01*
X202821Y237893D01*
X202912Y237942D01*
X202926Y237956D01*
X202943Y237966D01*
X203010Y238045D01*
X203082Y238120D01*
X203090Y238138D01*
X203103Y238153D01*
X203142Y238249D01*
X203185Y238343D01*
X203187Y238363D01*
X203195Y238381D01*
X203213Y238548D01*
X203213Y272947D01*
X204776Y274510D01*
X209660Y279394D01*
X209702Y279452D01*
X209751Y279504D01*
X209773Y279551D01*
X209803Y279593D01*
X209824Y279662D01*
X209855Y279727D01*
X209860Y279779D01*
X209876Y279829D01*
X209874Y279900D01*
X209882Y279971D01*
X209871Y280022D01*
X209869Y280074D01*
X209845Y280142D01*
X209830Y280212D01*
X209803Y280257D01*
X209785Y280305D01*
X209740Y280361D01*
X209703Y280423D01*
X209664Y280457D01*
X209631Y280497D01*
X209571Y280536D01*
X209516Y280583D01*
X209468Y280602D01*
X209424Y280630D01*
X209355Y280648D01*
X209288Y280675D01*
X209217Y280683D01*
X209186Y280691D01*
X209162Y280689D01*
X209122Y280693D01*
X205802Y280693D01*
X202693Y283802D01*
X202693Y288198D01*
X205802Y291307D01*
X210198Y291307D01*
X213307Y288198D01*
X213307Y287548D01*
X213310Y287528D01*
X213308Y287509D01*
X213330Y287407D01*
X213346Y287305D01*
X213356Y287288D01*
X213360Y287268D01*
X213413Y287179D01*
X213462Y287088D01*
X213476Y287074D01*
X213486Y287057D01*
X213565Y286990D01*
X213640Y286918D01*
X213658Y286910D01*
X213673Y286897D01*
X213769Y286858D01*
X213863Y286815D01*
X213883Y286813D01*
X213901Y286805D01*
X214068Y286787D01*
X232987Y286787D01*
X233078Y286801D01*
X233168Y286809D01*
X233198Y286821D01*
X233230Y286826D01*
X233311Y286869D01*
X233395Y286905D01*
X233427Y286931D01*
X233448Y286942D01*
X233470Y286965D01*
X233526Y287010D01*
X256410Y309894D01*
X256452Y309952D01*
X256501Y310004D01*
X256523Y310051D01*
X256553Y310093D01*
X256574Y310162D01*
X256605Y310227D01*
X256610Y310279D01*
X256626Y310329D01*
X256624Y310400D01*
X256632Y310471D01*
X256621Y310522D01*
X256619Y310574D01*
X256595Y310642D01*
X256580Y310712D01*
X256553Y310757D01*
X256535Y310805D01*
X256490Y310861D01*
X256453Y310923D01*
X256414Y310957D01*
X256381Y310997D01*
X256321Y311036D01*
X256266Y311083D01*
X256218Y311102D01*
X256174Y311130D01*
X256105Y311148D01*
X256038Y311175D01*
X255967Y311183D01*
X255936Y311191D01*
X255912Y311189D01*
X255872Y311193D01*
X252984Y311193D01*
X249875Y314302D01*
X249875Y318257D01*
X249861Y318348D01*
X249853Y318438D01*
X249841Y318468D01*
X249836Y318500D01*
X249793Y318581D01*
X249757Y318665D01*
X249731Y318697D01*
X249720Y318718D01*
X249697Y318740D01*
X249652Y318796D01*
X213026Y355422D01*
X212952Y355475D01*
X212882Y355535D01*
X212852Y355547D01*
X212826Y355566D01*
X212739Y355593D01*
X212654Y355627D01*
X212613Y355631D01*
X212591Y355638D01*
X212559Y355637D01*
X212546Y355639D01*
X207645Y360539D01*
X207645Y385987D01*
X207631Y386078D01*
X207623Y386168D01*
X207611Y386198D01*
X207606Y386230D01*
X207563Y386311D01*
X207527Y386395D01*
X207501Y386427D01*
X207490Y386448D01*
X207467Y386470D01*
X207422Y386526D01*
X161478Y432470D01*
X161404Y432523D01*
X161334Y432583D01*
X161304Y432595D01*
X161278Y432614D01*
X161191Y432641D01*
X161106Y432675D01*
X161065Y432679D01*
X161043Y432686D01*
X161011Y432685D01*
X160939Y432693D01*
X156802Y432693D01*
X153693Y435802D01*
X153693Y440198D01*
X155218Y441723D01*
X155245Y441760D01*
X155279Y441791D01*
X155316Y441860D01*
X155362Y441923D01*
X155375Y441967D01*
X155397Y442007D01*
X155411Y442084D01*
X155434Y442158D01*
X155433Y442204D01*
X155441Y442249D01*
X155430Y442326D01*
X155428Y442404D01*
X155412Y442447D01*
X155405Y442492D01*
X155370Y442562D01*
X155343Y442635D01*
X155315Y442671D01*
X155294Y442711D01*
X155238Y442766D01*
X155190Y442827D01*
X155151Y442852D01*
X155118Y442884D01*
X154998Y442950D01*
X154983Y442960D01*
X154978Y442961D01*
X154971Y442965D01*
X152300Y444071D01*
X150062Y446309D01*
X150004Y446351D01*
X149952Y446400D01*
X149905Y446422D01*
X149863Y446453D01*
X149794Y446474D01*
X149729Y446504D01*
X149677Y446510D01*
X149627Y446525D01*
X149556Y446523D01*
X149485Y446531D01*
X149434Y446520D01*
X149382Y446519D01*
X149314Y446494D01*
X149244Y446479D01*
X149199Y446452D01*
X149151Y446434D01*
X149095Y446389D01*
X149033Y446353D01*
X148999Y446313D01*
X148959Y446280D01*
X148920Y446220D01*
X148873Y446166D01*
X148854Y446117D01*
X148826Y446074D01*
X148808Y446004D01*
X148781Y445938D01*
X148773Y445866D01*
X148765Y445835D01*
X148767Y445812D01*
X148763Y445771D01*
X148763Y438823D01*
X129942Y420002D01*
X129889Y419929D01*
X129829Y419859D01*
X129817Y419829D01*
X129798Y419803D01*
X129771Y419716D01*
X129737Y419631D01*
X129733Y419590D01*
X129726Y419568D01*
X129727Y419535D01*
X129719Y419464D01*
X129719Y378061D01*
X129730Y377991D01*
X129732Y377919D01*
X129750Y377870D01*
X129758Y377819D01*
X129792Y377755D01*
X129817Y377688D01*
X129849Y377647D01*
X129874Y377601D01*
X129926Y377552D01*
X129970Y377496D01*
X130014Y377468D01*
X130052Y377432D01*
X130117Y377402D01*
X130177Y377363D01*
X130228Y377350D01*
X130275Y377328D01*
X130346Y377320D01*
X130416Y377303D01*
X130468Y377307D01*
X130519Y377301D01*
X130590Y377316D01*
X130661Y377322D01*
X130709Y377342D01*
X130760Y377353D01*
X130821Y377390D01*
X130887Y377418D01*
X130943Y377463D01*
X130971Y377480D01*
X130986Y377497D01*
X131018Y377523D01*
X131302Y377807D01*
X135698Y377807D01*
X138807Y374698D01*
X138807Y370302D01*
X136010Y367505D01*
X135957Y367431D01*
X135897Y367361D01*
X135885Y367331D01*
X135866Y367305D01*
X135839Y367218D01*
X135805Y367133D01*
X135801Y367092D01*
X135794Y367070D01*
X135795Y367038D01*
X135787Y366967D01*
X135787Y289129D01*
X135798Y289059D01*
X135800Y288987D01*
X135818Y288938D01*
X135826Y288887D01*
X135860Y288823D01*
X135885Y288756D01*
X135917Y288715D01*
X135942Y288669D01*
X135994Y288620D01*
X136038Y288564D01*
X136082Y288536D01*
X136120Y288500D01*
X136185Y288470D01*
X136245Y288431D01*
X136296Y288418D01*
X136343Y288396D01*
X136414Y288388D01*
X136484Y288371D01*
X136536Y288375D01*
X136587Y288369D01*
X136658Y288384D01*
X136729Y288390D01*
X136777Y288410D01*
X136828Y288421D01*
X136889Y288458D01*
X136955Y288486D01*
X137011Y288531D01*
X137039Y288548D01*
X137054Y288565D01*
X137086Y288591D01*
X137802Y289307D01*
X142198Y289307D01*
X144606Y286898D01*
X144623Y286887D01*
X144635Y286871D01*
X144722Y286815D01*
X144806Y286755D01*
X144825Y286749D01*
X144842Y286738D01*
X144942Y286713D01*
X145041Y286683D01*
X145061Y286683D01*
X145080Y286678D01*
X145183Y286686D01*
X145287Y286689D01*
X145306Y286696D01*
X145326Y286697D01*
X145421Y286738D01*
X145518Y286773D01*
X145534Y286786D01*
X145552Y286794D01*
X145683Y286898D01*
X155339Y296555D01*
X181179Y296555D01*
X191204Y286530D01*
X191278Y286477D01*
X191348Y286417D01*
X191378Y286405D01*
X191404Y286386D01*
X191491Y286359D01*
X191576Y286325D01*
X191617Y286321D01*
X191639Y286314D01*
X191671Y286315D01*
X191743Y286307D01*
X195698Y286307D01*
X198807Y283198D01*
X198807Y278802D01*
X195698Y275693D01*
X191302Y275693D01*
X188193Y278802D01*
X188193Y282757D01*
X188179Y282848D01*
X188171Y282938D01*
X188159Y282968D01*
X188154Y283000D01*
X188111Y283081D01*
X188075Y283165D01*
X188049Y283197D01*
X188038Y283218D01*
X188015Y283240D01*
X187970Y283296D01*
X179508Y291758D01*
X179434Y291811D01*
X179364Y291871D01*
X179334Y291883D01*
X179308Y291902D01*
X179221Y291929D01*
X179136Y291963D01*
X179095Y291967D01*
X179073Y291974D01*
X179041Y291973D01*
X178969Y291981D01*
X157549Y291981D01*
X157459Y291967D01*
X157368Y291959D01*
X157338Y291947D01*
X157306Y291942D01*
X157226Y291899D01*
X157142Y291863D01*
X157110Y291837D01*
X157089Y291826D01*
X157067Y291803D01*
X157011Y291758D01*
X146966Y281713D01*
X145533Y281713D01*
X145443Y281699D01*
X145352Y281691D01*
X145323Y281679D01*
X145291Y281674D01*
X145210Y281631D01*
X145126Y281595D01*
X145094Y281569D01*
X145073Y281558D01*
X145051Y281535D01*
X144995Y281490D01*
X142198Y278693D01*
X137802Y278693D01*
X137086Y279409D01*
X137028Y279451D01*
X136976Y279500D01*
X136929Y279522D01*
X136887Y279552D01*
X136818Y279574D01*
X136753Y279604D01*
X136701Y279609D01*
X136651Y279625D01*
X136580Y279623D01*
X136509Y279631D01*
X136458Y279620D01*
X136406Y279618D01*
X136338Y279594D01*
X136268Y279579D01*
X136223Y279552D01*
X136175Y279534D01*
X136119Y279489D01*
X136057Y279452D01*
X136023Y279413D01*
X135983Y279380D01*
X135944Y279320D01*
X135897Y279265D01*
X135878Y279217D01*
X135850Y279173D01*
X135832Y279104D01*
X135805Y279037D01*
X135797Y278966D01*
X135789Y278935D01*
X135791Y278912D01*
X135787Y278871D01*
X135787Y236763D01*
X135801Y236672D01*
X135809Y236582D01*
X135821Y236552D01*
X135826Y236520D01*
X135869Y236439D01*
X135905Y236355D01*
X135931Y236323D01*
X135942Y236302D01*
X135965Y236280D01*
X136010Y236224D01*
X184724Y187510D01*
X184798Y187457D01*
X184868Y187397D01*
X184898Y187385D01*
X184924Y187366D01*
X185011Y187339D01*
X185096Y187305D01*
X185137Y187301D01*
X185159Y187294D01*
X185191Y187295D01*
X185263Y187287D01*
X303219Y187287D01*
X303310Y187301D01*
X303400Y187309D01*
X303430Y187321D01*
X303462Y187326D01*
X303543Y187369D01*
X303627Y187405D01*
X303659Y187431D01*
X303680Y187442D01*
X303702Y187465D01*
X303758Y187510D01*
X405470Y289222D01*
X405523Y289296D01*
X405583Y289366D01*
X405595Y289396D01*
X405614Y289422D01*
X405641Y289509D01*
X405675Y289594D01*
X405679Y289635D01*
X405686Y289657D01*
X405685Y289689D01*
X405693Y289761D01*
X405693Y293716D01*
X408802Y296825D01*
X412757Y296825D01*
X412848Y296839D01*
X412938Y296847D01*
X412968Y296859D01*
X413000Y296864D01*
X413081Y296907D01*
X413165Y296943D01*
X413197Y296969D01*
X413218Y296980D01*
X413240Y297003D01*
X413296Y297048D01*
X475583Y359335D01*
X475595Y359351D01*
X475611Y359364D01*
X475667Y359451D01*
X475727Y359535D01*
X475733Y359554D01*
X475744Y359571D01*
X475769Y359671D01*
X475799Y359770D01*
X475799Y359790D01*
X475804Y359809D01*
X475796Y359912D01*
X475793Y360016D01*
X475786Y360035D01*
X475784Y360055D01*
X475744Y360149D01*
X475708Y360247D01*
X475696Y360263D01*
X475693Y360269D01*
X475693Y364698D01*
X478802Y367807D01*
X483198Y367807D01*
X486307Y364698D01*
X486307Y360302D01*
X483198Y357193D01*
X480225Y357193D01*
X480134Y357179D01*
X480044Y357171D01*
X480014Y357159D01*
X479982Y357154D01*
X479901Y357111D01*
X479817Y357075D01*
X479785Y357049D01*
X479764Y357038D01*
X479742Y357015D01*
X479686Y356970D01*
X416530Y293814D01*
X416477Y293740D01*
X416417Y293670D01*
X416405Y293640D01*
X416386Y293614D01*
X416359Y293527D01*
X416325Y293442D01*
X416321Y293401D01*
X416314Y293379D01*
X416315Y293347D01*
X416307Y293275D01*
X416307Y289320D01*
X413198Y286211D01*
X409243Y286211D01*
X409152Y286197D01*
X409062Y286189D01*
X409032Y286177D01*
X409000Y286172D01*
X408919Y286129D01*
X408835Y286093D01*
X408803Y286067D01*
X408782Y286056D01*
X408760Y286033D01*
X408704Y285988D01*
X305429Y182713D01*
X183053Y182713D01*
X131213Y234553D01*
X131213Y336439D01*
X131202Y336509D01*
X131200Y336581D01*
X131182Y336630D01*
X131174Y336681D01*
X131140Y336745D01*
X131115Y336812D01*
X131083Y336853D01*
X131058Y336899D01*
X131006Y336948D01*
X130962Y337004D01*
X130918Y337032D01*
X130880Y337068D01*
X130815Y337098D01*
X130755Y337137D01*
X130704Y337150D01*
X130657Y337172D01*
X130586Y337180D01*
X130516Y337197D01*
X130464Y337193D01*
X130413Y337199D01*
X130342Y337184D01*
X130271Y337178D01*
X130223Y337158D01*
X130172Y337147D01*
X130111Y337110D01*
X130045Y337082D01*
X129989Y337037D01*
X129961Y337020D01*
X129946Y337003D01*
X129914Y336977D01*
X129630Y336693D01*
X125234Y336693D01*
X122125Y339802D01*
X122125Y344198D01*
X124922Y346995D01*
X124975Y347069D01*
X125035Y347139D01*
X125047Y347169D01*
X125066Y347195D01*
X125093Y347282D01*
X125127Y347367D01*
X125131Y347408D01*
X125138Y347430D01*
X125137Y347462D01*
X125145Y347533D01*
X125145Y421674D01*
X143966Y440495D01*
X144019Y440569D01*
X144079Y440638D01*
X144091Y440668D01*
X144110Y440695D01*
X144137Y440782D01*
X144171Y440866D01*
X144175Y440907D01*
X144182Y440930D01*
X144181Y440962D01*
X144189Y441033D01*
X144189Y447723D01*
X144178Y447794D01*
X144176Y447865D01*
X144158Y447914D01*
X144150Y447966D01*
X144116Y448029D01*
X144091Y448096D01*
X144059Y448137D01*
X144034Y448183D01*
X143982Y448232D01*
X143938Y448288D01*
X143894Y448316D01*
X143856Y448352D01*
X143791Y448383D01*
X143731Y448421D01*
X143680Y448434D01*
X143633Y448456D01*
X143562Y448464D01*
X143492Y448481D01*
X143440Y448477D01*
X143389Y448483D01*
X143318Y448468D01*
X143247Y448462D01*
X143199Y448442D01*
X143148Y448431D01*
X143087Y448394D01*
X143021Y448366D01*
X142965Y448321D01*
X142937Y448305D01*
X142922Y448287D01*
X142890Y448261D01*
X137114Y442485D01*
X128486Y442485D01*
X122385Y448586D01*
X122385Y457214D01*
X128486Y463315D01*
X137114Y463315D01*
X142890Y457539D01*
X142948Y457497D01*
X143000Y457448D01*
X143047Y457426D01*
X143089Y457395D01*
X143158Y457374D01*
X143223Y457344D01*
X143275Y457338D01*
X143325Y457323D01*
X143396Y457325D01*
X143467Y457317D01*
X143518Y457328D01*
X143570Y457329D01*
X143638Y457354D01*
X143708Y457369D01*
X143753Y457396D01*
X143801Y457414D01*
X143857Y457459D01*
X143919Y457495D01*
X143953Y457535D01*
X143993Y457568D01*
X144032Y457628D01*
X144079Y457682D01*
X144098Y457731D01*
X144126Y457774D01*
X144144Y457844D01*
X144171Y457910D01*
X144179Y457982D01*
X144187Y458013D01*
X144185Y458036D01*
X144189Y458077D01*
X144189Y467915D01*
X144178Y467986D01*
X144176Y468058D01*
X144158Y468107D01*
X144150Y468158D01*
X144116Y468221D01*
X144091Y468289D01*
X144059Y468329D01*
X144034Y468375D01*
X143982Y468425D01*
X143938Y468481D01*
X143894Y468509D01*
X143856Y468545D01*
X143791Y468575D01*
X143731Y468614D01*
X143680Y468626D01*
X143633Y468648D01*
X143562Y468656D01*
X143492Y468674D01*
X143440Y468670D01*
X143389Y468675D01*
X143318Y468660D01*
X143247Y468655D01*
X143199Y468634D01*
X143148Y468623D01*
X143087Y468586D01*
X143021Y468558D01*
X142965Y468513D01*
X142937Y468497D01*
X142922Y468479D01*
X142890Y468453D01*
X142322Y467885D01*
X123278Y467885D01*
X122385Y468778D01*
X122385Y487822D01*
X123278Y488715D01*
X142322Y488715D01*
X143215Y487822D01*
X143215Y486789D01*
X143226Y486718D01*
X143228Y486646D01*
X143246Y486597D01*
X143254Y486546D01*
X143288Y486483D01*
X143313Y486415D01*
X143345Y486375D01*
X143370Y486328D01*
X143422Y486279D01*
X143466Y486223D01*
X143510Y486195D01*
X143548Y486159D01*
X143613Y486129D01*
X143673Y486090D01*
X143724Y486077D01*
X143771Y486055D01*
X143842Y486048D01*
X143912Y486030D01*
X143964Y486034D01*
X144015Y486028D01*
X144086Y486044D01*
X144157Y486049D01*
X144205Y486070D01*
X144256Y486081D01*
X144317Y486117D01*
X144383Y486146D01*
X144439Y486190D01*
X144467Y486207D01*
X144482Y486225D01*
X144514Y486250D01*
X145752Y487488D01*
X158051Y499787D01*
X179467Y499787D01*
X179557Y499801D01*
X179648Y499809D01*
X179677Y499821D01*
X179709Y499826D01*
X179790Y499869D01*
X179874Y499905D01*
X179906Y499931D01*
X179927Y499942D01*
X179949Y499965D01*
X180005Y500010D01*
X181302Y501307D01*
X185698Y501307D01*
X187982Y499023D01*
X188040Y498981D01*
X188092Y498932D01*
X188139Y498910D01*
X188181Y498880D01*
X188250Y498858D01*
X188315Y498828D01*
X188367Y498823D01*
X188417Y498807D01*
X188488Y498809D01*
X188559Y498801D01*
X188610Y498812D01*
X188662Y498814D01*
X188730Y498838D01*
X188800Y498853D01*
X188845Y498880D01*
X188893Y498898D01*
X188949Y498943D01*
X189011Y498980D01*
X189045Y499019D01*
X189085Y499052D01*
X189124Y499112D01*
X189171Y499167D01*
X189190Y499215D01*
X189218Y499259D01*
X189236Y499328D01*
X189263Y499395D01*
X189271Y499466D01*
X189279Y499497D01*
X189277Y499520D01*
X189281Y499561D01*
X189281Y507251D01*
X189267Y507341D01*
X189259Y507432D01*
X189247Y507462D01*
X189242Y507494D01*
X189199Y507574D01*
X189163Y507658D01*
X189137Y507690D01*
X189126Y507711D01*
X189103Y507733D01*
X189058Y507789D01*
X154276Y542572D01*
X152713Y544134D01*
X152713Y614801D01*
X152699Y614892D01*
X152691Y614982D01*
X152679Y615012D01*
X152674Y615044D01*
X152631Y615125D01*
X152595Y615209D01*
X152569Y615241D01*
X152558Y615262D01*
X152535Y615284D01*
X152490Y615340D01*
X141447Y626383D01*
X141447Y691181D01*
X148861Y698595D01*
X148888Y698633D01*
X148922Y698664D01*
X148936Y698689D01*
X148937Y698689D01*
X148938Y698693D01*
X148960Y698732D01*
X149005Y698795D01*
X149018Y698839D01*
X149041Y698879D01*
X149054Y698956D01*
X149077Y699030D01*
X149076Y699076D01*
X149084Y699121D01*
X149073Y699198D01*
X149071Y699276D01*
X149055Y699319D01*
X149049Y699365D01*
X149013Y699434D01*
X148987Y699507D01*
X148958Y699543D01*
X148937Y699584D01*
X148881Y699638D01*
X148833Y699699D01*
X148794Y699724D01*
X148761Y699756D01*
X148642Y699822D01*
X148626Y699832D01*
X148621Y699833D01*
X148614Y699837D01*
X148425Y699915D01*
X145875Y702465D01*
X144495Y705797D01*
X144495Y709403D01*
X145875Y712735D01*
X148425Y715285D01*
X151757Y716665D01*
X170443Y716665D01*
X173775Y715285D01*
X176325Y712735D01*
X177705Y709403D01*
X177705Y705797D01*
X176325Y702465D01*
X173775Y699915D01*
X170443Y698535D01*
X155584Y698535D01*
X155494Y698521D01*
X155403Y698513D01*
X155374Y698501D01*
X155342Y698496D01*
X155261Y698453D01*
X155177Y698417D01*
X155145Y698391D01*
X155124Y698380D01*
X155102Y698357D01*
X155046Y698312D01*
X148047Y691313D01*
X147991Y691234D01*
X147928Y691159D01*
X147919Y691135D01*
X147904Y691114D01*
X147875Y691021D01*
X147840Y690930D01*
X147839Y690904D01*
X147831Y690879D01*
X147834Y690781D01*
X147830Y690684D01*
X147837Y690659D01*
X147838Y690633D01*
X147871Y690541D01*
X147898Y690448D01*
X147913Y690426D01*
X147922Y690402D01*
X147983Y690326D01*
X148039Y690246D01*
X148060Y690230D01*
X148076Y690210D01*
X148158Y690157D01*
X148236Y690099D01*
X148261Y690091D01*
X148283Y690077D01*
X148377Y690053D01*
X148470Y690023D01*
X148496Y690023D01*
X148521Y690017D01*
X148618Y690024D01*
X148716Y690025D01*
X148747Y690034D01*
X148767Y690036D01*
X148797Y690049D01*
X148877Y690072D01*
X151757Y691265D01*
X170443Y691265D01*
X173775Y689885D01*
X176325Y687335D01*
X177705Y684003D01*
X177705Y680397D01*
X176325Y677065D01*
X173775Y674515D01*
X170443Y673135D01*
X151757Y673135D01*
X148425Y674515D01*
X147320Y675620D01*
X147262Y675662D01*
X147210Y675711D01*
X147163Y675733D01*
X147121Y675764D01*
X147052Y675785D01*
X146987Y675815D01*
X146935Y675821D01*
X146885Y675836D01*
X146814Y675834D01*
X146743Y675842D01*
X146692Y675831D01*
X146640Y675830D01*
X146572Y675805D01*
X146502Y675790D01*
X146457Y675763D01*
X146409Y675745D01*
X146353Y675700D01*
X146291Y675664D01*
X146257Y675624D01*
X146217Y675592D01*
X146178Y675531D01*
X146131Y675477D01*
X146112Y675429D01*
X146084Y675385D01*
X146066Y675315D01*
X146039Y675249D01*
X146031Y675177D01*
X146023Y675146D01*
X146025Y675123D01*
X146021Y675082D01*
X146021Y663918D01*
X146032Y663847D01*
X146034Y663776D01*
X146052Y663727D01*
X146060Y663675D01*
X146094Y663612D01*
X146119Y663545D01*
X146151Y663504D01*
X146176Y663458D01*
X146228Y663409D01*
X146272Y663353D01*
X146316Y663324D01*
X146354Y663289D01*
X146419Y663258D01*
X146479Y663220D01*
X146530Y663207D01*
X146577Y663185D01*
X146648Y663177D01*
X146718Y663159D01*
X146770Y663164D01*
X146821Y663158D01*
X146892Y663173D01*
X146963Y663179D01*
X147011Y663199D01*
X147062Y663210D01*
X147123Y663247D01*
X147189Y663275D01*
X147245Y663320D01*
X147273Y663336D01*
X147288Y663354D01*
X147320Y663380D01*
X148425Y664485D01*
X151757Y665865D01*
X170443Y665865D01*
X173775Y664485D01*
X176325Y661935D01*
X177705Y658603D01*
X177705Y654997D01*
X176325Y651665D01*
X173775Y649115D01*
X170443Y647735D01*
X151757Y647735D01*
X148425Y649115D01*
X147320Y650220D01*
X147262Y650262D01*
X147210Y650311D01*
X147163Y650333D01*
X147121Y650364D01*
X147052Y650385D01*
X146987Y650415D01*
X146935Y650421D01*
X146885Y650436D01*
X146814Y650434D01*
X146743Y650442D01*
X146692Y650431D01*
X146640Y650430D01*
X146572Y650405D01*
X146502Y650390D01*
X146457Y650363D01*
X146409Y650345D01*
X146353Y650300D01*
X146291Y650264D01*
X146257Y650224D01*
X146217Y650192D01*
X146178Y650131D01*
X146131Y650077D01*
X146112Y650029D01*
X146084Y649985D01*
X146066Y649915D01*
X146039Y649849D01*
X146031Y649777D01*
X146023Y649746D01*
X146025Y649723D01*
X146021Y649682D01*
X146021Y639877D01*
X146023Y639865D01*
X146021Y639853D01*
X146042Y639744D01*
X146060Y639634D01*
X146066Y639624D01*
X146068Y639612D01*
X146124Y639515D01*
X146176Y639417D01*
X146184Y639409D01*
X146190Y639398D01*
X146273Y639324D01*
X146354Y639247D01*
X146365Y639242D01*
X146374Y639234D01*
X146476Y639191D01*
X146577Y639144D01*
X146589Y639142D01*
X146600Y639138D01*
X146711Y639129D01*
X146821Y639117D01*
X146833Y639119D01*
X146845Y639118D01*
X146953Y639145D01*
X147062Y639169D01*
X147072Y639175D01*
X147084Y639178D01*
X147229Y639261D01*
X148277Y640022D01*
X149690Y640742D01*
X151199Y641233D01*
X152767Y641481D01*
X159577Y641481D01*
X159577Y632162D01*
X159580Y632142D01*
X159578Y632123D01*
X159600Y632021D01*
X159617Y631919D01*
X159626Y631902D01*
X159630Y631882D01*
X159683Y631793D01*
X159732Y631702D01*
X159746Y631688D01*
X159756Y631671D01*
X159835Y631604D01*
X159910Y631533D01*
X159928Y631524D01*
X159943Y631511D01*
X160039Y631473D01*
X160133Y631429D01*
X160153Y631427D01*
X160171Y631419D01*
X160338Y631401D01*
X161101Y631401D01*
X161101Y631399D01*
X160338Y631399D01*
X160318Y631396D01*
X160299Y631398D01*
X160197Y631376D01*
X160095Y631359D01*
X160078Y631350D01*
X160058Y631346D01*
X159969Y631293D01*
X159878Y631244D01*
X159864Y631230D01*
X159847Y631220D01*
X159780Y631141D01*
X159709Y631066D01*
X159700Y631048D01*
X159687Y631033D01*
X159648Y630937D01*
X159605Y630843D01*
X159603Y630823D01*
X159595Y630805D01*
X159577Y630638D01*
X159577Y621319D01*
X154816Y621319D01*
X154746Y621308D01*
X154674Y621306D01*
X154625Y621288D01*
X154574Y621280D01*
X154510Y621246D01*
X154443Y621221D01*
X154402Y621189D01*
X154356Y621164D01*
X154307Y621112D01*
X154251Y621068D01*
X154223Y621024D01*
X154187Y620986D01*
X154157Y620921D01*
X154118Y620861D01*
X154105Y620810D01*
X154083Y620763D01*
X154075Y620692D01*
X154058Y620622D01*
X154062Y620570D01*
X154056Y620519D01*
X154071Y620448D01*
X154077Y620377D01*
X154097Y620329D01*
X154108Y620278D01*
X154145Y620217D01*
X154173Y620151D01*
X154218Y620095D01*
X154235Y620067D01*
X154252Y620052D01*
X154278Y620020D01*
X157287Y617011D01*
X157287Y546344D01*
X157301Y546254D01*
X157309Y546163D01*
X157321Y546133D01*
X157326Y546101D01*
X157369Y546021D01*
X157405Y545937D01*
X157431Y545905D01*
X157442Y545884D01*
X157465Y545862D01*
X157510Y545806D01*
X192292Y511023D01*
X193855Y509461D01*
X193855Y493626D01*
X193866Y493556D01*
X193868Y493484D01*
X193886Y493435D01*
X193894Y493384D01*
X193928Y493320D01*
X193953Y493253D01*
X193985Y493212D01*
X194010Y493166D01*
X194061Y493117D01*
X194106Y493061D01*
X194150Y493033D01*
X194188Y492997D01*
X194253Y492967D01*
X194313Y492928D01*
X194364Y492915D01*
X194411Y492893D01*
X194482Y492885D01*
X194552Y492868D01*
X194604Y492872D01*
X194655Y492866D01*
X194726Y492881D01*
X194797Y492887D01*
X194845Y492907D01*
X194896Y492918D01*
X194957Y492955D01*
X195023Y492983D01*
X195079Y493028D01*
X195107Y493045D01*
X195122Y493062D01*
X195154Y493088D01*
X195790Y493724D01*
X197353Y495287D01*
X207447Y495287D01*
X218287Y484447D01*
X218287Y482533D01*
X218301Y482443D01*
X218309Y482352D01*
X218321Y482323D01*
X218326Y482291D01*
X218369Y482210D01*
X218405Y482126D01*
X218431Y482094D01*
X218442Y482073D01*
X218465Y482051D01*
X218510Y481995D01*
X221307Y479198D01*
X221307Y474802D01*
X218198Y471693D01*
X213802Y471693D01*
X210693Y474802D01*
X210693Y479198D01*
X213342Y481847D01*
X213354Y481863D01*
X213370Y481876D01*
X213426Y481963D01*
X213486Y482047D01*
X213492Y482066D01*
X213503Y482083D01*
X213528Y482183D01*
X213558Y482282D01*
X213558Y482302D01*
X213563Y482321D01*
X213555Y482424D01*
X213552Y482528D01*
X213545Y482547D01*
X213543Y482566D01*
X213503Y482661D01*
X213467Y482759D01*
X213455Y482775D01*
X213447Y482793D01*
X213342Y482924D01*
X205776Y490490D01*
X205702Y490543D01*
X205632Y490603D01*
X205602Y490615D01*
X205576Y490634D01*
X205489Y490661D01*
X205404Y490695D01*
X205363Y490699D01*
X205341Y490706D01*
X205309Y490705D01*
X205237Y490713D01*
X199563Y490713D01*
X199472Y490699D01*
X199382Y490691D01*
X199352Y490679D01*
X199320Y490674D01*
X199239Y490631D01*
X199155Y490595D01*
X199123Y490569D01*
X199102Y490558D01*
X199080Y490535D01*
X199024Y490490D01*
X192878Y484344D01*
X192810Y484250D01*
X192740Y484155D01*
X192738Y484149D01*
X192734Y484144D01*
X192700Y484033D01*
X192664Y483922D01*
X192664Y483915D01*
X192662Y483909D01*
X192665Y483792D01*
X192666Y483676D01*
X192668Y483668D01*
X192668Y483663D01*
X192675Y483646D01*
X192713Y483514D01*
X194015Y480372D01*
X194015Y476228D01*
X192429Y472400D01*
X189500Y469471D01*
X187946Y468827D01*
X187863Y468776D01*
X187777Y468730D01*
X187759Y468711D01*
X187737Y468698D01*
X187675Y468623D01*
X187608Y468552D01*
X187597Y468528D01*
X187580Y468508D01*
X187545Y468417D01*
X187504Y468329D01*
X187501Y468303D01*
X187492Y468279D01*
X187488Y468181D01*
X187477Y468085D01*
X187482Y468059D01*
X187481Y468033D01*
X187508Y467939D01*
X187529Y467844D01*
X187543Y467822D01*
X187550Y467797D01*
X187605Y467717D01*
X187655Y467633D01*
X187675Y467616D01*
X187690Y467595D01*
X187768Y467536D01*
X187842Y467473D01*
X187867Y467463D01*
X187887Y467448D01*
X187980Y467418D01*
X188070Y467381D01*
X188103Y467378D01*
X188121Y467372D01*
X188154Y467372D01*
X188237Y467363D01*
X191313Y467363D01*
X191404Y467377D01*
X191494Y467385D01*
X191524Y467397D01*
X191556Y467402D01*
X191637Y467445D01*
X191721Y467481D01*
X191753Y467507D01*
X191774Y467518D01*
X191796Y467541D01*
X191852Y467586D01*
X195970Y471704D01*
X196023Y471778D01*
X196083Y471848D01*
X196095Y471878D01*
X196114Y471904D01*
X196141Y471991D01*
X196175Y472076D01*
X196179Y472117D01*
X196186Y472139D01*
X196185Y472171D01*
X196193Y472243D01*
X196193Y476198D01*
X199302Y479307D01*
X203698Y479307D01*
X206807Y476198D01*
X206807Y471802D01*
X203698Y468693D01*
X199743Y468693D01*
X199652Y468679D01*
X199562Y468671D01*
X199532Y468659D01*
X199500Y468654D01*
X199419Y468611D01*
X199335Y468575D01*
X199303Y468549D01*
X199282Y468538D01*
X199260Y468515D01*
X199204Y468470D01*
X193523Y462789D01*
X191714Y462789D01*
X191643Y462778D01*
X191572Y462776D01*
X191523Y462758D01*
X191471Y462750D01*
X191408Y462716D01*
X191341Y462691D01*
X191300Y462659D01*
X191254Y462634D01*
X191205Y462582D01*
X191149Y462538D01*
X191120Y462494D01*
X191085Y462456D01*
X191054Y462391D01*
X191016Y462331D01*
X191003Y462280D01*
X190981Y462233D01*
X190973Y462162D01*
X190955Y462092D01*
X190960Y462040D01*
X190954Y461989D01*
X190969Y461918D01*
X190975Y461847D01*
X190995Y461799D01*
X191006Y461748D01*
X191043Y461687D01*
X191071Y461621D01*
X191116Y461565D01*
X191132Y461537D01*
X191150Y461522D01*
X191176Y461490D01*
X192319Y460347D01*
X193376Y458891D01*
X194193Y457288D01*
X194749Y455577D01*
X194932Y454423D01*
X184362Y454423D01*
X184342Y454420D01*
X184323Y454422D01*
X184221Y454400D01*
X184119Y454383D01*
X184102Y454374D01*
X184082Y454370D01*
X183993Y454317D01*
X183902Y454268D01*
X183888Y454254D01*
X183871Y454244D01*
X183804Y454165D01*
X183733Y454090D01*
X183724Y454072D01*
X183711Y454057D01*
X183673Y453961D01*
X183629Y453867D01*
X183627Y453847D01*
X183619Y453829D01*
X183601Y453662D01*
X183601Y452899D01*
X182838Y452899D01*
X182818Y452896D01*
X182799Y452898D01*
X182697Y452876D01*
X182595Y452859D01*
X182578Y452850D01*
X182558Y452846D01*
X182469Y452793D01*
X182378Y452744D01*
X182364Y452730D01*
X182347Y452720D01*
X182280Y452641D01*
X182209Y452566D01*
X182200Y452548D01*
X182187Y452533D01*
X182148Y452437D01*
X182105Y452343D01*
X182103Y452323D01*
X182095Y452305D01*
X182077Y452138D01*
X182077Y441568D01*
X180923Y441751D01*
X179212Y442307D01*
X178213Y442816D01*
X178210Y442817D01*
X178206Y442819D01*
X178093Y442854D01*
X177979Y442890D01*
X177975Y442890D01*
X177971Y442891D01*
X177852Y442888D01*
X177733Y442887D01*
X177729Y442885D01*
X177725Y442885D01*
X177614Y442844D01*
X177501Y442805D01*
X177498Y442802D01*
X177494Y442801D01*
X177401Y442726D01*
X177308Y442653D01*
X177306Y442649D01*
X177302Y442647D01*
X177238Y442546D01*
X177173Y442447D01*
X177172Y442443D01*
X177169Y442440D01*
X177140Y442324D01*
X177110Y442209D01*
X177110Y442205D01*
X177109Y442202D01*
X177119Y442082D01*
X177127Y441964D01*
X177128Y441960D01*
X177128Y441956D01*
X177175Y441848D01*
X177221Y441737D01*
X177223Y441734D01*
X177225Y441730D01*
X177330Y441599D01*
X195414Y423515D01*
X195472Y423473D01*
X195524Y423424D01*
X195571Y423402D01*
X195613Y423371D01*
X195682Y423350D01*
X195747Y423320D01*
X195799Y423314D01*
X195849Y423299D01*
X195920Y423301D01*
X195991Y423293D01*
X196042Y423304D01*
X196094Y423305D01*
X196162Y423330D01*
X196232Y423345D01*
X196276Y423372D01*
X196325Y423390D01*
X196381Y423435D01*
X196443Y423471D01*
X196477Y423511D01*
X196517Y423543D01*
X196556Y423604D01*
X196603Y423658D01*
X196622Y423707D01*
X196650Y423750D01*
X196668Y423820D01*
X196695Y423886D01*
X196703Y423958D01*
X196711Y423989D01*
X196709Y424012D01*
X196713Y424053D01*
X196713Y425467D01*
X196699Y425557D01*
X196691Y425648D01*
X196679Y425677D01*
X196674Y425709D01*
X196631Y425790D01*
X196595Y425874D01*
X196569Y425906D01*
X196558Y425927D01*
X196535Y425949D01*
X196490Y426005D01*
X193693Y428802D01*
X193693Y433198D01*
X196802Y436307D01*
X201198Y436307D01*
X204307Y433198D01*
X204307Y428802D01*
X201658Y426153D01*
X201646Y426137D01*
X201630Y426124D01*
X201574Y426037D01*
X201514Y425953D01*
X201508Y425934D01*
X201497Y425917D01*
X201472Y425817D01*
X201442Y425718D01*
X201442Y425698D01*
X201437Y425679D01*
X201445Y425576D01*
X201448Y425472D01*
X201455Y425453D01*
X201457Y425434D01*
X201497Y425339D01*
X201533Y425241D01*
X201545Y425225D01*
X201553Y425207D01*
X201658Y425076D01*
X236704Y390030D01*
X236778Y389977D01*
X236848Y389917D01*
X236878Y389905D01*
X236904Y389886D01*
X236991Y389859D01*
X237076Y389825D01*
X237117Y389821D01*
X237139Y389814D01*
X237171Y389815D01*
X237243Y389807D01*
X241198Y389807D01*
X244307Y386698D01*
X244307Y382302D01*
X241198Y379193D01*
X236802Y379193D01*
X233693Y382302D01*
X233693Y386257D01*
X233691Y386272D01*
X233692Y386283D01*
X233679Y386343D01*
X233679Y386348D01*
X233671Y386438D01*
X233659Y386468D01*
X233654Y386500D01*
X233611Y386581D01*
X233575Y386665D01*
X233549Y386697D01*
X233538Y386718D01*
X233515Y386740D01*
X233470Y386796D01*
X213606Y406660D01*
X213548Y406702D01*
X213496Y406751D01*
X213449Y406773D01*
X213407Y406803D01*
X213338Y406824D01*
X213273Y406855D01*
X213221Y406860D01*
X213171Y406876D01*
X213100Y406874D01*
X213029Y406882D01*
X212978Y406871D01*
X212926Y406869D01*
X212858Y406845D01*
X212788Y406830D01*
X212743Y406803D01*
X212695Y406785D01*
X212639Y406740D01*
X212577Y406703D01*
X212543Y406664D01*
X212503Y406631D01*
X212464Y406571D01*
X212417Y406516D01*
X212398Y406468D01*
X212370Y406424D01*
X212352Y406355D01*
X212325Y406288D01*
X212317Y406217D01*
X212309Y406186D01*
X212311Y406162D01*
X212307Y406122D01*
X212307Y403734D01*
X209198Y400625D01*
X207446Y400625D01*
X207376Y400614D01*
X207304Y400612D01*
X207255Y400594D01*
X207204Y400586D01*
X207140Y400552D01*
X207073Y400527D01*
X207032Y400495D01*
X206986Y400470D01*
X206937Y400418D01*
X206881Y400374D01*
X206853Y400330D01*
X206817Y400292D01*
X206787Y400227D01*
X206748Y400167D01*
X206735Y400116D01*
X206713Y400069D01*
X206705Y399998D01*
X206688Y399928D01*
X206692Y399876D01*
X206686Y399825D01*
X206701Y399754D01*
X206707Y399683D01*
X206727Y399635D01*
X206738Y399584D01*
X206775Y399523D01*
X206803Y399457D01*
X206848Y399401D01*
X206865Y399373D01*
X206882Y399358D01*
X206908Y399326D01*
X217287Y388947D01*
X217287Y370068D01*
X217290Y370048D01*
X217288Y370029D01*
X217310Y369927D01*
X217326Y369825D01*
X217336Y369808D01*
X217340Y369788D01*
X217393Y369699D01*
X217442Y369608D01*
X217456Y369594D01*
X217466Y369577D01*
X217545Y369510D01*
X217620Y369438D01*
X217638Y369430D01*
X217653Y369417D01*
X217749Y369378D01*
X217843Y369335D01*
X217863Y369333D01*
X217881Y369325D01*
X218048Y369307D01*
X218198Y369307D01*
X221307Y366198D01*
X221307Y361802D01*
X218198Y358693D01*
X218060Y358693D01*
X217990Y358682D01*
X217918Y358680D01*
X217869Y358662D01*
X217818Y358654D01*
X217754Y358620D01*
X217687Y358595D01*
X217646Y358563D01*
X217600Y358538D01*
X217551Y358486D01*
X217495Y358442D01*
X217467Y358398D01*
X217431Y358360D01*
X217401Y358295D01*
X217362Y358235D01*
X217349Y358184D01*
X217327Y358137D01*
X217319Y358066D01*
X217302Y357996D01*
X217306Y357944D01*
X217300Y357893D01*
X217315Y357822D01*
X217321Y357751D01*
X217341Y357703D01*
X217352Y357652D01*
X217389Y357591D01*
X217417Y357525D01*
X217462Y357469D01*
X217479Y357441D01*
X217496Y357426D01*
X217522Y357394D01*
X252886Y322030D01*
X252960Y321977D01*
X253030Y321917D01*
X253060Y321905D01*
X253086Y321886D01*
X253173Y321859D01*
X253258Y321825D01*
X253299Y321821D01*
X253321Y321814D01*
X253353Y321815D01*
X253425Y321807D01*
X257380Y321807D01*
X257664Y321523D01*
X257722Y321481D01*
X257774Y321432D01*
X257821Y321410D01*
X257863Y321380D01*
X257932Y321358D01*
X257997Y321328D01*
X258049Y321323D01*
X258099Y321307D01*
X258170Y321309D01*
X258241Y321301D01*
X258292Y321312D01*
X258344Y321314D01*
X258412Y321338D01*
X258482Y321353D01*
X258527Y321380D01*
X258575Y321398D01*
X258631Y321443D01*
X258693Y321480D01*
X258727Y321519D01*
X258767Y321552D01*
X258806Y321612D01*
X258853Y321667D01*
X258872Y321715D01*
X258900Y321759D01*
X258918Y321828D01*
X258945Y321895D01*
X258953Y321966D01*
X258961Y321997D01*
X258959Y322020D01*
X258963Y322061D01*
X258963Y332939D01*
X258952Y333009D01*
X258950Y333081D01*
X258932Y333130D01*
X258924Y333181D01*
X258890Y333245D01*
X258865Y333312D01*
X258833Y333353D01*
X258808Y333399D01*
X258756Y333448D01*
X258712Y333504D01*
X258668Y333532D01*
X258630Y333568D01*
X258565Y333598D01*
X258505Y333637D01*
X258454Y333650D01*
X258407Y333672D01*
X258336Y333680D01*
X258266Y333697D01*
X258214Y333693D01*
X258163Y333699D01*
X258092Y333684D01*
X258021Y333678D01*
X257973Y333658D01*
X257922Y333647D01*
X257861Y333610D01*
X257795Y333582D01*
X257739Y333537D01*
X257711Y333520D01*
X257696Y333503D01*
X257664Y333477D01*
X257380Y333193D01*
X252984Y333193D01*
X249875Y336302D01*
X249875Y340698D01*
X252672Y343495D01*
X252725Y343569D01*
X252785Y343639D01*
X252797Y343669D01*
X252816Y343695D01*
X252843Y343782D01*
X252877Y343867D01*
X252881Y343908D01*
X252888Y343930D01*
X252887Y343962D01*
X252895Y344033D01*
X252895Y396474D01*
X252881Y396564D01*
X252873Y396655D01*
X252861Y396685D01*
X252856Y396717D01*
X252813Y396797D01*
X252777Y396881D01*
X252751Y396913D01*
X252740Y396934D01*
X252717Y396956D01*
X252672Y397012D01*
X236750Y412935D01*
X235187Y414497D01*
X235187Y961973D01*
X251290Y978076D01*
X251343Y978150D01*
X251403Y978220D01*
X251415Y978250D01*
X251434Y978276D01*
X251461Y978363D01*
X251495Y978448D01*
X251499Y978489D01*
X251506Y978511D01*
X251505Y978543D01*
X251513Y978615D01*
X251513Y984474D01*
X251510Y984494D01*
X251512Y984513D01*
X251490Y984615D01*
X251474Y984717D01*
X251464Y984734D01*
X251460Y984754D01*
X251407Y984843D01*
X251358Y984934D01*
X251344Y984948D01*
X251334Y984965D01*
X251255Y985032D01*
X251180Y985104D01*
X251162Y985112D01*
X251147Y985125D01*
X251051Y985164D01*
X250957Y985207D01*
X250937Y985209D01*
X250919Y985217D01*
X250752Y985235D01*
X246997Y985235D01*
X243665Y986615D01*
X241115Y989165D01*
X239735Y992497D01*
X239735Y996103D01*
X241115Y999435D01*
X243594Y1001914D01*
X243636Y1001972D01*
X243685Y1002024D01*
X243707Y1002071D01*
X243738Y1002113D01*
X243759Y1002182D01*
X243789Y1002247D01*
X243795Y1002299D01*
X243810Y1002349D01*
X243808Y1002420D01*
X243816Y1002491D01*
X243805Y1002542D01*
X243804Y1002594D01*
X243779Y1002662D01*
X243764Y1002732D01*
X243737Y1002777D01*
X243719Y1002825D01*
X243674Y1002881D01*
X243638Y1002943D01*
X243598Y1002977D01*
X243566Y1003017D01*
X243505Y1003056D01*
X243451Y1003103D01*
X243403Y1003122D01*
X243359Y1003150D01*
X243289Y1003168D01*
X243223Y1003195D01*
X243151Y1003203D01*
X243120Y1003211D01*
X243097Y1003209D01*
X243056Y1003213D01*
X189762Y1003213D01*
X189672Y1003199D01*
X189581Y1003191D01*
X189552Y1003179D01*
X189520Y1003174D01*
X189439Y1003131D01*
X189355Y1003095D01*
X189323Y1003069D01*
X189302Y1003058D01*
X189280Y1003035D01*
X189224Y1002990D01*
X85510Y899276D01*
X85457Y899202D01*
X85397Y899132D01*
X85385Y899102D01*
X85366Y899076D01*
X85339Y898989D01*
X85305Y898904D01*
X85301Y898863D01*
X85294Y898841D01*
X85295Y898809D01*
X85287Y898738D01*
X85287Y505263D01*
X85301Y505172D01*
X85309Y505082D01*
X85321Y505052D01*
X85326Y505020D01*
X85369Y504939D01*
X85405Y504855D01*
X85431Y504823D01*
X85442Y504802D01*
X85465Y504780D01*
X85510Y504724D01*
X88287Y501947D01*
X88287Y315762D01*
X88301Y315672D01*
X88309Y315581D01*
X88321Y315552D01*
X88326Y315520D01*
X88369Y315439D01*
X88405Y315355D01*
X88431Y315323D01*
X88442Y315302D01*
X88465Y315280D01*
X88510Y315224D01*
X100704Y303030D01*
X100778Y302977D01*
X100848Y302917D01*
X100878Y302905D01*
X100904Y302886D01*
X100991Y302859D01*
X101076Y302825D01*
X101117Y302821D01*
X101139Y302814D01*
X101171Y302815D01*
X101243Y302807D01*
X105198Y302807D01*
X105914Y302091D01*
X105972Y302049D01*
X106024Y302000D01*
X106071Y301978D01*
X106113Y301948D01*
X106182Y301926D01*
X106247Y301896D01*
X106299Y301891D01*
X106349Y301875D01*
X106420Y301877D01*
X106491Y301869D01*
X106542Y301880D01*
X106594Y301882D01*
X106662Y301906D01*
X106732Y301921D01*
X106777Y301948D01*
X106825Y301966D01*
X106881Y302011D01*
X106943Y302048D01*
X106977Y302087D01*
X107017Y302120D01*
X107056Y302180D01*
X107103Y302235D01*
X107122Y302283D01*
X107150Y302327D01*
X107168Y302396D01*
X107195Y302463D01*
X107203Y302534D01*
X107211Y302565D01*
X107209Y302588D01*
X107213Y302629D01*
X107213Y330947D01*
X109490Y333224D01*
X109543Y333298D01*
X109603Y333368D01*
X109615Y333398D01*
X109634Y333424D01*
X109661Y333511D01*
X109695Y333596D01*
X109699Y333637D01*
X109706Y333659D01*
X109705Y333691D01*
X109713Y333763D01*
X109713Y374432D01*
X109710Y374452D01*
X109712Y374471D01*
X109690Y374573D01*
X109674Y374675D01*
X109664Y374692D01*
X109660Y374712D01*
X109607Y374801D01*
X109558Y374892D01*
X109544Y374906D01*
X109534Y374923D01*
X109455Y374990D01*
X109380Y375062D01*
X109362Y375070D01*
X109347Y375083D01*
X109251Y375122D01*
X109157Y375165D01*
X109137Y375167D01*
X109119Y375175D01*
X108952Y375193D01*
X106802Y375193D01*
X103693Y378302D01*
X103693Y382698D01*
X106802Y385807D01*
X111198Y385807D01*
X112414Y384591D01*
X112472Y384549D01*
X112524Y384500D01*
X112571Y384478D01*
X112613Y384448D01*
X112682Y384426D01*
X112747Y384396D01*
X112799Y384391D01*
X112849Y384375D01*
X112920Y384377D01*
X112991Y384369D01*
X113042Y384380D01*
X113094Y384382D01*
X113162Y384406D01*
X113232Y384421D01*
X113277Y384448D01*
X113325Y384466D01*
X113381Y384511D01*
X113443Y384548D01*
X113477Y384587D01*
X113517Y384620D01*
X113556Y384680D01*
X113603Y384735D01*
X113622Y384783D01*
X113650Y384827D01*
X113668Y384896D01*
X113695Y384963D01*
X113703Y385034D01*
X113711Y385065D01*
X113709Y385088D01*
X113713Y385129D01*
X113713Y387467D01*
X113699Y387557D01*
X113691Y387648D01*
X113679Y387677D01*
X113674Y387709D01*
X113631Y387790D01*
X113595Y387874D01*
X113569Y387906D01*
X113558Y387927D01*
X113535Y387949D01*
X113490Y388005D01*
X112693Y388802D01*
X112693Y393198D01*
X115802Y396307D01*
X120198Y396307D01*
X123307Y393198D01*
X123307Y388802D01*
X120198Y385693D01*
X119048Y385693D01*
X119028Y385690D01*
X119009Y385692D01*
X118907Y385670D01*
X118805Y385654D01*
X118788Y385644D01*
X118768Y385640D01*
X118679Y385587D01*
X118588Y385538D01*
X118574Y385524D01*
X118557Y385514D01*
X118490Y385435D01*
X118418Y385360D01*
X118410Y385342D01*
X118397Y385327D01*
X118358Y385231D01*
X118315Y385137D01*
X118313Y385117D01*
X118305Y385099D01*
X118287Y384932D01*
X118287Y154053D01*
X93030Y128796D01*
X92977Y128722D01*
X92917Y128652D01*
X92905Y128622D01*
X92886Y128596D01*
X92859Y128509D01*
X92825Y128424D01*
X92821Y128383D01*
X92814Y128361D01*
X92815Y128329D01*
X92807Y128257D01*
X92807Y124302D01*
X89698Y121193D01*
X85302Y121193D01*
G37*
%LPD*%
%LPC*%
G36*
X569179Y266669D02*
X569179Y266669D01*
X556582Y270045D01*
X545287Y276566D01*
X536066Y285787D01*
X529545Y297082D01*
X526169Y309679D01*
X526169Y322721D01*
X529545Y335318D01*
X536066Y346613D01*
X545287Y355834D01*
X556582Y362355D01*
X569179Y365731D01*
X582221Y365731D01*
X594818Y362355D01*
X606113Y355834D01*
X615334Y346613D01*
X621855Y335318D01*
X625231Y322721D01*
X625231Y309679D01*
X621855Y297082D01*
X615334Y285787D01*
X606113Y276566D01*
X594818Y270045D01*
X582221Y266669D01*
X569179Y266669D01*
G37*
%LPD*%
%LPC*%
G36*
X569179Y76169D02*
X569179Y76169D01*
X556582Y79545D01*
X545287Y86066D01*
X536066Y95287D01*
X529545Y106582D01*
X526169Y119179D01*
X526169Y132221D01*
X529545Y144818D01*
X536066Y156113D01*
X545287Y165334D01*
X556582Y171855D01*
X569179Y175231D01*
X582221Y175231D01*
X594818Y171855D01*
X606113Y165334D01*
X615334Y156113D01*
X621855Y144818D01*
X625231Y132221D01*
X625231Y119179D01*
X621855Y106582D01*
X615334Y95287D01*
X606113Y86066D01*
X594818Y79545D01*
X582221Y76169D01*
X569179Y76169D01*
G37*
%LPD*%
%LPC*%
G36*
X302827Y882577D02*
X302827Y882577D01*
X298813Y884240D01*
X295740Y887313D01*
X294077Y891327D01*
X294077Y915173D01*
X295740Y919187D01*
X298813Y922260D01*
X302827Y923923D01*
X334673Y923923D01*
X338687Y922260D01*
X342260Y918687D01*
X343923Y914673D01*
X343923Y891327D01*
X342260Y887313D01*
X339187Y884240D01*
X335173Y882577D01*
X302827Y882577D01*
G37*
%LPD*%
%LPC*%
G36*
X39493Y977339D02*
X39493Y977339D01*
X31164Y980789D01*
X24789Y987164D01*
X21339Y995493D01*
X21339Y1004507D01*
X24789Y1012836D01*
X31164Y1019211D01*
X39493Y1022661D01*
X48507Y1022661D01*
X56836Y1019211D01*
X63211Y1012836D01*
X66661Y1004507D01*
X66661Y995493D01*
X63211Y987164D01*
X56836Y980789D01*
X48507Y977339D01*
X39493Y977339D01*
G37*
%LPD*%
%LPC*%
G36*
X593493Y973839D02*
X593493Y973839D01*
X585164Y977289D01*
X578789Y983664D01*
X575339Y991993D01*
X575339Y1001007D01*
X578789Y1009336D01*
X585164Y1015711D01*
X593493Y1019161D01*
X602507Y1019161D01*
X610836Y1015711D01*
X617211Y1009336D01*
X620661Y1001007D01*
X620661Y991993D01*
X617211Y983664D01*
X610836Y977289D01*
X602507Y973839D01*
X593493Y973839D01*
G37*
%LPD*%
%LPC*%
G36*
X584993Y18339D02*
X584993Y18339D01*
X576664Y21789D01*
X570289Y28164D01*
X566839Y36493D01*
X566839Y45507D01*
X570289Y53836D01*
X576664Y60211D01*
X584993Y63661D01*
X594007Y63661D01*
X602336Y60211D01*
X608711Y53836D01*
X612161Y45507D01*
X612161Y36493D01*
X608711Y28164D01*
X602336Y21789D01*
X594007Y18339D01*
X584993Y18339D01*
G37*
%LPD*%
%LPC*%
G36*
X235802Y136693D02*
X235802Y136693D01*
X232693Y139802D01*
X232693Y144198D01*
X233409Y144914D01*
X233451Y144972D01*
X233500Y145024D01*
X233522Y145071D01*
X233552Y145113D01*
X233574Y145182D01*
X233604Y145247D01*
X233609Y145299D01*
X233625Y145349D01*
X233623Y145420D01*
X233631Y145491D01*
X233620Y145542D01*
X233618Y145594D01*
X233594Y145662D01*
X233579Y145732D01*
X233552Y145777D01*
X233534Y145825D01*
X233489Y145881D01*
X233452Y145943D01*
X233413Y145977D01*
X233380Y146017D01*
X233320Y146056D01*
X233265Y146103D01*
X233217Y146122D01*
X233173Y146150D01*
X233104Y146168D01*
X233037Y146195D01*
X232966Y146203D01*
X232935Y146211D01*
X232912Y146209D01*
X232871Y146213D01*
X201553Y146213D01*
X130296Y217470D01*
X130222Y217523D01*
X130152Y217583D01*
X130122Y217595D01*
X130096Y217614D01*
X130009Y217641D01*
X129924Y217675D01*
X129883Y217679D01*
X129861Y217686D01*
X129829Y217685D01*
X129757Y217693D01*
X125802Y217693D01*
X122693Y220802D01*
X122693Y225198D01*
X125802Y228307D01*
X130198Y228307D01*
X133307Y225198D01*
X133307Y221243D01*
X133321Y221152D01*
X133329Y221062D01*
X133341Y221032D01*
X133346Y221000D01*
X133389Y220919D01*
X133425Y220835D01*
X133451Y220803D01*
X133462Y220782D01*
X133485Y220760D01*
X133530Y220704D01*
X203224Y151010D01*
X203298Y150957D01*
X203368Y150897D01*
X203398Y150885D01*
X203424Y150866D01*
X203511Y150839D01*
X203596Y150805D01*
X203637Y150801D01*
X203659Y150794D01*
X203691Y150795D01*
X203763Y150787D01*
X234941Y150787D01*
X235032Y150801D01*
X235122Y150809D01*
X235152Y150821D01*
X235184Y150826D01*
X235265Y150869D01*
X235349Y150905D01*
X235381Y150931D01*
X235402Y150942D01*
X235424Y150965D01*
X235480Y151010D01*
X239027Y154557D01*
X267211Y154557D01*
X267302Y154571D01*
X267392Y154579D01*
X267422Y154591D01*
X267454Y154596D01*
X267535Y154639D01*
X267619Y154675D01*
X267651Y154701D01*
X267672Y154712D01*
X267694Y154735D01*
X267750Y154780D01*
X286970Y174000D01*
X287023Y174074D01*
X287083Y174144D01*
X287095Y174174D01*
X287114Y174200D01*
X287141Y174287D01*
X287175Y174372D01*
X287179Y174413D01*
X287186Y174435D01*
X287185Y174467D01*
X287193Y174539D01*
X287193Y176698D01*
X290302Y179807D01*
X294698Y179807D01*
X297807Y176698D01*
X297807Y172302D01*
X294698Y169193D01*
X292539Y169193D01*
X292448Y169179D01*
X292358Y169171D01*
X292328Y169159D01*
X292296Y169154D01*
X292215Y169111D01*
X292131Y169075D01*
X292099Y169049D01*
X292078Y169038D01*
X292056Y169015D01*
X292000Y168970D01*
X270473Y147443D01*
X242318Y147443D01*
X242298Y147440D01*
X242279Y147442D01*
X242177Y147420D01*
X242075Y147404D01*
X242058Y147394D01*
X242038Y147390D01*
X241949Y147337D01*
X241858Y147288D01*
X241844Y147274D01*
X241827Y147264D01*
X241760Y147185D01*
X241688Y147110D01*
X241680Y147092D01*
X241667Y147077D01*
X241628Y146981D01*
X241585Y146887D01*
X241583Y146867D01*
X241575Y146849D01*
X241557Y146682D01*
X241557Y146263D01*
X241571Y146173D01*
X241579Y146082D01*
X241591Y146053D01*
X241596Y146021D01*
X241639Y145940D01*
X241675Y145856D01*
X241701Y145824D01*
X241712Y145803D01*
X241735Y145781D01*
X241780Y145725D01*
X243307Y144198D01*
X243307Y139802D01*
X240198Y136693D01*
X235802Y136693D01*
G37*
%LPD*%
%LPC*%
G36*
X456302Y59193D02*
X456302Y59193D01*
X453193Y62302D01*
X453193Y66257D01*
X453179Y66348D01*
X453171Y66438D01*
X453159Y66468D01*
X453154Y66500D01*
X453111Y66581D01*
X453075Y66665D01*
X453049Y66697D01*
X453038Y66718D01*
X453015Y66740D01*
X452970Y66796D01*
X431713Y88053D01*
X431713Y244967D01*
X431699Y245057D01*
X431691Y245148D01*
X431679Y245177D01*
X431674Y245209D01*
X431631Y245290D01*
X431595Y245374D01*
X431569Y245406D01*
X431558Y245427D01*
X431535Y245449D01*
X431490Y245505D01*
X428693Y248302D01*
X428693Y252698D01*
X431802Y255807D01*
X436198Y255807D01*
X439307Y252698D01*
X439307Y248302D01*
X436510Y245505D01*
X436457Y245431D01*
X436397Y245361D01*
X436385Y245331D01*
X436366Y245305D01*
X436339Y245218D01*
X436305Y245133D01*
X436301Y245092D01*
X436294Y245070D01*
X436295Y245038D01*
X436287Y244967D01*
X436287Y90263D01*
X436301Y90172D01*
X436309Y90082D01*
X436321Y90052D01*
X436326Y90020D01*
X436369Y89939D01*
X436405Y89855D01*
X436431Y89823D01*
X436442Y89802D01*
X436465Y89780D01*
X436510Y89724D01*
X456204Y70030D01*
X456278Y69977D01*
X456348Y69917D01*
X456378Y69905D01*
X456404Y69886D01*
X456491Y69859D01*
X456576Y69825D01*
X456617Y69821D01*
X456639Y69814D01*
X456671Y69815D01*
X456743Y69807D01*
X460698Y69807D01*
X463807Y66698D01*
X463807Y62302D01*
X460698Y59193D01*
X456302Y59193D01*
G37*
%LPD*%
%LPC*%
G36*
X495302Y208693D02*
X495302Y208693D01*
X492193Y211802D01*
X492193Y216198D01*
X495325Y219330D01*
X495425Y219346D01*
X495442Y219356D01*
X495462Y219360D01*
X495551Y219413D01*
X495642Y219462D01*
X495656Y219476D01*
X495673Y219486D01*
X495740Y219565D01*
X495812Y219640D01*
X495820Y219658D01*
X495833Y219673D01*
X495872Y219769D01*
X495915Y219863D01*
X495917Y219883D01*
X495925Y219901D01*
X495943Y220068D01*
X495943Y242392D01*
X495942Y242402D01*
X495942Y242407D01*
X495936Y242434D01*
X495924Y242507D01*
X495907Y242623D01*
X495905Y242628D01*
X495904Y242635D01*
X495849Y242737D01*
X495796Y242842D01*
X495791Y242846D01*
X495788Y242852D01*
X495704Y242932D01*
X495620Y243014D01*
X495614Y243018D01*
X495610Y243021D01*
X495593Y243029D01*
X495473Y243095D01*
X493600Y243871D01*
X490671Y246800D01*
X489085Y250628D01*
X489085Y254772D01*
X490671Y258600D01*
X493600Y261529D01*
X497428Y263115D01*
X501572Y263115D01*
X505400Y261529D01*
X508329Y258600D01*
X509915Y254772D01*
X509915Y250628D01*
X508329Y246800D01*
X505400Y243871D01*
X503527Y243095D01*
X503427Y243034D01*
X503327Y242974D01*
X503323Y242969D01*
X503318Y242965D01*
X503243Y242875D01*
X503167Y242787D01*
X503165Y242781D01*
X503161Y242776D01*
X503119Y242668D01*
X503075Y242558D01*
X503074Y242551D01*
X503073Y242546D01*
X503072Y242528D01*
X503057Y242392D01*
X503057Y214527D01*
X503030Y214500D01*
X502977Y214426D01*
X502917Y214356D01*
X502905Y214326D01*
X502886Y214300D01*
X502859Y214213D01*
X502825Y214128D01*
X502821Y214087D01*
X502814Y214065D01*
X502815Y214033D01*
X502807Y213961D01*
X502807Y211802D01*
X499698Y208693D01*
X495302Y208693D01*
G37*
%LPD*%
%LPC*%
G36*
X353802Y951193D02*
X353802Y951193D01*
X351005Y953990D01*
X350931Y954043D01*
X350861Y954103D01*
X350831Y954115D01*
X350805Y954134D01*
X350718Y954161D01*
X350633Y954195D01*
X350592Y954199D01*
X350570Y954206D01*
X350538Y954205D01*
X350467Y954213D01*
X270553Y954213D01*
X265296Y959470D01*
X265222Y959523D01*
X265152Y959583D01*
X265122Y959595D01*
X265096Y959614D01*
X265009Y959641D01*
X264924Y959675D01*
X264883Y959679D01*
X264861Y959686D01*
X264829Y959685D01*
X264757Y959693D01*
X260802Y959693D01*
X257693Y962802D01*
X257693Y967198D01*
X260802Y970307D01*
X265198Y970307D01*
X268307Y967198D01*
X268307Y963243D01*
X268308Y963234D01*
X268308Y963232D01*
X268311Y963218D01*
X268321Y963152D01*
X268329Y963062D01*
X268341Y963032D01*
X268346Y963000D01*
X268389Y962919D01*
X268425Y962835D01*
X268451Y962803D01*
X268462Y962782D01*
X268485Y962760D01*
X268530Y962704D01*
X272224Y959010D01*
X272298Y958957D01*
X272368Y958897D01*
X272398Y958885D01*
X272424Y958866D01*
X272511Y958839D01*
X272596Y958805D01*
X272637Y958801D01*
X272659Y958794D01*
X272691Y958795D01*
X272763Y958787D01*
X350467Y958787D01*
X350557Y958801D01*
X350648Y958809D01*
X350677Y958821D01*
X350709Y958826D01*
X350790Y958869D01*
X350874Y958905D01*
X350906Y958931D01*
X350927Y958942D01*
X350949Y958965D01*
X351005Y959010D01*
X353802Y961807D01*
X358198Y961807D01*
X361307Y958698D01*
X361307Y954302D01*
X358198Y951193D01*
X353802Y951193D01*
G37*
%LPD*%
%LPC*%
G36*
X151757Y774735D02*
X151757Y774735D01*
X148425Y776115D01*
X145875Y778665D01*
X144495Y781997D01*
X144495Y785603D01*
X145875Y788935D01*
X148425Y791485D01*
X151757Y792865D01*
X170443Y792865D01*
X173775Y791485D01*
X176325Y788935D01*
X177705Y785603D01*
X177705Y781997D01*
X176325Y778665D01*
X173775Y776115D01*
X170443Y774735D01*
X151757Y774735D01*
G37*
%LPD*%
%LPC*%
G36*
X151757Y749335D02*
X151757Y749335D01*
X148425Y750715D01*
X145875Y753265D01*
X144495Y756597D01*
X144495Y760203D01*
X145875Y763535D01*
X148425Y766085D01*
X151757Y767465D01*
X170443Y767465D01*
X173775Y766085D01*
X176325Y763535D01*
X177705Y760203D01*
X177705Y756597D01*
X176325Y753265D01*
X173775Y750715D01*
X170443Y749335D01*
X151757Y749335D01*
G37*
%LPD*%
%LPC*%
G36*
X151757Y723935D02*
X151757Y723935D01*
X148425Y725315D01*
X145875Y727865D01*
X144495Y731197D01*
X144495Y734803D01*
X145875Y738135D01*
X148425Y740685D01*
X151757Y742065D01*
X170443Y742065D01*
X173775Y740685D01*
X176325Y738135D01*
X177705Y734803D01*
X177705Y731197D01*
X176325Y727865D01*
X173775Y725315D01*
X170443Y723935D01*
X151757Y723935D01*
G37*
%LPD*%
%LPC*%
G36*
X143802Y300693D02*
X143802Y300693D01*
X140693Y303802D01*
X140693Y308198D01*
X143802Y311307D01*
X148198Y311307D01*
X150995Y308510D01*
X151069Y308457D01*
X151139Y308397D01*
X151169Y308385D01*
X151195Y308366D01*
X151282Y308339D01*
X151367Y308305D01*
X151408Y308301D01*
X151430Y308294D01*
X151462Y308295D01*
X151533Y308287D01*
X204669Y308287D01*
X204760Y308301D01*
X204850Y308309D01*
X204880Y308321D01*
X204912Y308326D01*
X204993Y308369D01*
X205077Y308405D01*
X205109Y308431D01*
X205130Y308442D01*
X205152Y308465D01*
X205208Y308510D01*
X215902Y319204D01*
X215955Y319278D01*
X216015Y319348D01*
X216027Y319378D01*
X216046Y319404D01*
X216073Y319491D01*
X216107Y319576D01*
X216111Y319617D01*
X216118Y319639D01*
X216117Y319671D01*
X216125Y319743D01*
X216125Y323698D01*
X219234Y326807D01*
X223630Y326807D01*
X226739Y323698D01*
X226739Y319302D01*
X223630Y316193D01*
X219675Y316193D01*
X219584Y316179D01*
X219494Y316171D01*
X219464Y316159D01*
X219432Y316154D01*
X219351Y316111D01*
X219267Y316075D01*
X219235Y316049D01*
X219214Y316038D01*
X219192Y316015D01*
X219136Y315970D01*
X206879Y303713D01*
X151533Y303713D01*
X151443Y303699D01*
X151352Y303691D01*
X151323Y303679D01*
X151291Y303674D01*
X151210Y303631D01*
X151126Y303595D01*
X151094Y303569D01*
X151073Y303558D01*
X151051Y303535D01*
X150995Y303490D01*
X148198Y300693D01*
X143802Y300693D01*
G37*
%LPD*%
%LPC*%
G36*
X551297Y412680D02*
X551297Y412680D01*
X544080Y419897D01*
X544080Y430103D01*
X551297Y437320D01*
X561503Y437320D01*
X568720Y430103D01*
X568720Y419897D01*
X561503Y412680D01*
X551297Y412680D01*
G37*
%LPD*%
%LPC*%
G36*
X91302Y501193D02*
X91302Y501193D01*
X88193Y504302D01*
X88193Y508698D01*
X91302Y511807D01*
X95738Y511807D01*
X95797Y511764D01*
X95816Y511758D01*
X95833Y511747D01*
X95933Y511722D01*
X96032Y511692D01*
X96052Y511692D01*
X96071Y511687D01*
X96174Y511695D01*
X96278Y511698D01*
X96297Y511705D01*
X96316Y511707D01*
X96412Y511747D01*
X96509Y511783D01*
X96524Y511795D01*
X96543Y511803D01*
X96674Y511908D01*
X101053Y516287D01*
X160467Y516287D01*
X160557Y516301D01*
X160648Y516309D01*
X160677Y516321D01*
X160709Y516326D01*
X160790Y516369D01*
X160874Y516405D01*
X160906Y516431D01*
X160927Y516442D01*
X160949Y516465D01*
X161005Y516510D01*
X163802Y519307D01*
X168198Y519307D01*
X171307Y516198D01*
X171307Y511802D01*
X168198Y508693D01*
X163802Y508693D01*
X161005Y511490D01*
X160931Y511543D01*
X160861Y511603D01*
X160831Y511615D01*
X160805Y511634D01*
X160718Y511661D01*
X160633Y511695D01*
X160592Y511699D01*
X160570Y511706D01*
X160538Y511705D01*
X160467Y511713D01*
X103263Y511713D01*
X103172Y511699D01*
X103082Y511691D01*
X103052Y511679D01*
X103020Y511674D01*
X102939Y511631D01*
X102855Y511595D01*
X102823Y511569D01*
X102802Y511558D01*
X102780Y511535D01*
X102724Y511490D01*
X99030Y507796D01*
X98984Y507732D01*
X98964Y507711D01*
X98959Y507702D01*
X98917Y507652D01*
X98905Y507622D01*
X98886Y507596D01*
X98859Y507509D01*
X98825Y507424D01*
X98821Y507383D01*
X98814Y507361D01*
X98815Y507329D01*
X98807Y507257D01*
X98807Y504302D01*
X95698Y501193D01*
X91302Y501193D01*
G37*
%LPD*%
%LPC*%
G36*
X262802Y192693D02*
X262802Y192693D01*
X259693Y195802D01*
X259693Y200198D01*
X262802Y203307D01*
X267257Y203307D01*
X267348Y203321D01*
X267438Y203329D01*
X267468Y203341D01*
X267500Y203346D01*
X267581Y203389D01*
X267665Y203425D01*
X267697Y203451D01*
X267718Y203462D01*
X267740Y203485D01*
X267796Y203530D01*
X299990Y235724D01*
X300043Y235798D01*
X300103Y235868D01*
X300115Y235898D01*
X300134Y235924D01*
X300161Y236011D01*
X300195Y236096D01*
X300199Y236137D01*
X300206Y236159D01*
X300205Y236191D01*
X300213Y236263D01*
X300213Y238967D01*
X300199Y239057D01*
X300191Y239148D01*
X300179Y239177D01*
X300174Y239209D01*
X300131Y239290D01*
X300095Y239374D01*
X300069Y239406D01*
X300058Y239427D01*
X300035Y239449D01*
X299990Y239505D01*
X297193Y242302D01*
X297193Y246698D01*
X300302Y249807D01*
X304698Y249807D01*
X307807Y246698D01*
X307807Y242302D01*
X305010Y239505D01*
X304957Y239431D01*
X304897Y239361D01*
X304885Y239331D01*
X304866Y239305D01*
X304839Y239218D01*
X304805Y239133D01*
X304801Y239092D01*
X304794Y239070D01*
X304795Y239038D01*
X304787Y238967D01*
X304787Y234053D01*
X270530Y199796D01*
X270477Y199722D01*
X270417Y199652D01*
X270405Y199622D01*
X270386Y199596D01*
X270359Y199509D01*
X270325Y199424D01*
X270321Y199383D01*
X270314Y199361D01*
X270315Y199329D01*
X270307Y199257D01*
X270307Y195802D01*
X267198Y192693D01*
X262802Y192693D01*
G37*
%LPD*%
%LPC*%
G36*
X128828Y61135D02*
X128828Y61135D01*
X127935Y62028D01*
X127935Y78372D01*
X128828Y79265D01*
X145172Y79265D01*
X146065Y78372D01*
X146065Y62028D01*
X145172Y61135D01*
X128828Y61135D01*
G37*
%LPD*%
%LPC*%
G36*
X62828Y61135D02*
X62828Y61135D01*
X61935Y62028D01*
X61935Y78372D01*
X62828Y79265D01*
X79172Y79265D01*
X80065Y78372D01*
X80065Y62028D01*
X79172Y61135D01*
X62828Y61135D01*
G37*
%LPD*%
%LPC*%
G36*
X391997Y985235D02*
X391997Y985235D01*
X388665Y986615D01*
X386115Y989165D01*
X384735Y992497D01*
X384735Y996103D01*
X386115Y999435D01*
X388665Y1001985D01*
X391997Y1003365D01*
X395603Y1003365D01*
X398935Y1001985D01*
X401485Y999435D01*
X402865Y996103D01*
X402865Y992497D01*
X401485Y989165D01*
X398935Y986615D01*
X395603Y985235D01*
X391997Y985235D01*
G37*
%LPD*%
%LPC*%
G36*
X391997Y935235D02*
X391997Y935235D01*
X388665Y936615D01*
X386115Y939165D01*
X384735Y942497D01*
X384735Y946103D01*
X386115Y949435D01*
X388665Y951985D01*
X391997Y953365D01*
X395603Y953365D01*
X398935Y951985D01*
X401485Y949435D01*
X402865Y946103D01*
X402865Y942497D01*
X401485Y939165D01*
X398935Y936615D01*
X395603Y935235D01*
X391997Y935235D01*
G37*
%LPD*%
%LPC*%
G36*
X159302Y258193D02*
X159302Y258193D01*
X156193Y261302D01*
X156193Y265698D01*
X158990Y268495D01*
X159036Y268558D01*
X159059Y268583D01*
X159064Y268593D01*
X159103Y268639D01*
X159115Y268669D01*
X159134Y268695D01*
X159161Y268782D01*
X159195Y268867D01*
X159199Y268908D01*
X159206Y268930D01*
X159205Y268962D01*
X159213Y269033D01*
X159213Y277467D01*
X159199Y277557D01*
X159191Y277648D01*
X159179Y277677D01*
X159174Y277709D01*
X159131Y277790D01*
X159095Y277874D01*
X159069Y277906D01*
X159058Y277927D01*
X159035Y277949D01*
X158990Y278005D01*
X155993Y281002D01*
X155993Y285398D01*
X159102Y288507D01*
X163498Y288507D01*
X166607Y285398D01*
X166607Y281002D01*
X164010Y278405D01*
X163957Y278331D01*
X163897Y278261D01*
X163885Y278231D01*
X163866Y278205D01*
X163839Y278118D01*
X163805Y278033D01*
X163801Y277992D01*
X163794Y277970D01*
X163795Y277938D01*
X163787Y277867D01*
X163787Y269033D01*
X163801Y268943D01*
X163809Y268852D01*
X163821Y268823D01*
X163826Y268791D01*
X163869Y268710D01*
X163905Y268626D01*
X163931Y268594D01*
X163942Y268573D01*
X163965Y268551D01*
X163985Y268526D01*
X163988Y268520D01*
X163992Y268517D01*
X164010Y268495D01*
X166807Y265698D01*
X166807Y261302D01*
X163698Y258193D01*
X159302Y258193D01*
G37*
%LPD*%
%LPC*%
G36*
X162623Y632923D02*
X162623Y632923D01*
X162623Y641481D01*
X169433Y641481D01*
X171001Y641233D01*
X172510Y640742D01*
X173923Y640022D01*
X175207Y639089D01*
X176329Y637967D01*
X177262Y636683D01*
X177982Y635270D01*
X178473Y633760D01*
X178605Y632923D01*
X162623Y632923D01*
G37*
%LPD*%
%LPC*%
G36*
X162623Y621319D02*
X162623Y621319D01*
X162623Y629877D01*
X178605Y629877D01*
X178473Y629039D01*
X177982Y627530D01*
X177262Y626117D01*
X176329Y624833D01*
X175207Y623711D01*
X173923Y622778D01*
X172510Y622058D01*
X171001Y621567D01*
X169433Y621319D01*
X162623Y621319D01*
G37*
%LPD*%
%LPC*%
G36*
X105523Y27723D02*
X105523Y27723D01*
X105523Y36281D01*
X111874Y36281D01*
X112521Y36108D01*
X113100Y35773D01*
X113573Y35300D01*
X113908Y34721D01*
X114081Y34074D01*
X114081Y27723D01*
X105523Y27723D01*
G37*
%LPD*%
%LPC*%
G36*
X93919Y27723D02*
X93919Y27723D01*
X93919Y34074D01*
X94092Y34721D01*
X94427Y35300D01*
X94900Y35773D01*
X95479Y36108D01*
X96126Y36281D01*
X102477Y36281D01*
X102477Y27723D01*
X93919Y27723D01*
G37*
%LPD*%
%LPC*%
G36*
X105523Y16119D02*
X105523Y16119D01*
X105523Y24677D01*
X114081Y24677D01*
X114081Y18326D01*
X113908Y17679D01*
X113573Y17100D01*
X113100Y16627D01*
X112521Y16292D01*
X111874Y16119D01*
X105523Y16119D01*
G37*
%LPD*%
%LPC*%
G36*
X96126Y16119D02*
X96126Y16119D01*
X95479Y16292D01*
X94900Y16627D01*
X94427Y17100D01*
X94092Y17679D01*
X93919Y18326D01*
X93919Y24677D01*
X102477Y24677D01*
X102477Y16119D01*
X96126Y16119D01*
G37*
%LPD*%
%LPC*%
G36*
X501023Y51023D02*
X501023Y51023D01*
X501023Y60832D01*
X502177Y60649D01*
X503888Y60093D01*
X505491Y59276D01*
X506947Y58219D01*
X508219Y56947D01*
X509276Y55491D01*
X510093Y53888D01*
X510649Y52177D01*
X510832Y51023D01*
X501023Y51023D01*
G37*
%LPD*%
%LPC*%
G36*
X488168Y51023D02*
X488168Y51023D01*
X488351Y52177D01*
X488907Y53888D01*
X489724Y55491D01*
X490781Y56947D01*
X492053Y58219D01*
X493509Y59276D01*
X495112Y60093D01*
X496823Y60649D01*
X497977Y60832D01*
X497977Y51023D01*
X488168Y51023D01*
G37*
%LPD*%
%LPC*%
G36*
X501023Y47977D02*
X501023Y47977D01*
X510832Y47977D01*
X510649Y46823D01*
X510093Y45112D01*
X509276Y43509D01*
X508219Y42053D01*
X506947Y40781D01*
X505491Y39724D01*
X503888Y38907D01*
X502177Y38351D01*
X501023Y38168D01*
X501023Y47977D01*
G37*
%LPD*%
%LPC*%
G36*
X185123Y451377D02*
X185123Y451377D01*
X194932Y451377D01*
X194749Y450223D01*
X194193Y448512D01*
X193376Y446909D01*
X192319Y445453D01*
X191047Y444181D01*
X189591Y443124D01*
X187988Y442307D01*
X186277Y441751D01*
X185123Y441568D01*
X185123Y451377D01*
G37*
%LPD*%
%LPC*%
G36*
X496823Y38351D02*
X496823Y38351D01*
X495112Y38907D01*
X493509Y39724D01*
X492053Y40781D01*
X490781Y42053D01*
X489724Y43509D01*
X488907Y45112D01*
X488351Y46823D01*
X488168Y47977D01*
X497977Y47977D01*
X497977Y38168D01*
X496823Y38351D01*
G37*
%LPD*%
%LPC*%
G36*
X395323Y970823D02*
X395323Y970823D01*
X395323Y979265D01*
X396161Y979133D01*
X397670Y978642D01*
X399083Y977922D01*
X400367Y976989D01*
X401489Y975867D01*
X402422Y974583D01*
X403142Y973170D01*
X403633Y971661D01*
X403765Y970823D01*
X395323Y970823D01*
G37*
%LPD*%
%LPC*%
G36*
X383835Y970823D02*
X383835Y970823D01*
X383967Y971661D01*
X384458Y973170D01*
X385178Y974583D01*
X386111Y975867D01*
X387233Y976989D01*
X388517Y977922D01*
X389930Y978642D01*
X391439Y979133D01*
X392277Y979265D01*
X392277Y970823D01*
X383835Y970823D01*
G37*
%LPD*%
%LPC*%
G36*
X395323Y967777D02*
X395323Y967777D01*
X403765Y967777D01*
X403633Y966939D01*
X403142Y965430D01*
X402422Y964017D01*
X401489Y962733D01*
X400367Y961611D01*
X399083Y960678D01*
X397670Y959958D01*
X396161Y959467D01*
X395323Y959335D01*
X395323Y967777D01*
G37*
%LPD*%
%LPC*%
G36*
X391439Y959467D02*
X391439Y959467D01*
X389930Y959958D01*
X388517Y960678D01*
X387233Y961611D01*
X386111Y962733D01*
X385178Y964017D01*
X384458Y965430D01*
X383967Y966939D01*
X383835Y967777D01*
X392277Y967777D01*
X392277Y959335D01*
X391439Y959467D01*
G37*
%LPD*%
%LPC*%
G36*
X393799Y969299D02*
X393799Y969299D01*
X393799Y969301D01*
X393801Y969301D01*
X393801Y969299D01*
X393799Y969299D01*
G37*
%LPD*%
%LPC*%
G36*
X499499Y49499D02*
X499499Y49499D01*
X499499Y49501D01*
X499501Y49501D01*
X499501Y49499D01*
X499499Y49499D01*
G37*
%LPD*%
%LPC*%
G36*
X103999Y26199D02*
X103999Y26199D01*
X103999Y26201D01*
X104001Y26201D01*
X104001Y26199D01*
X103999Y26199D01*
G37*
%LPD*%
D10*
X137000Y70200D03*
D11*
X71000Y70200D03*
D12*
X137000Y70200D03*
X71000Y70200D03*
D13*
X104000Y26200D03*
D12*
X104000Y26200D03*
D14*
X153560Y707600D02*
X168640Y707600D01*
X168640Y733000D02*
X153560Y733000D01*
X153560Y758400D02*
X168640Y758400D01*
X168640Y783800D02*
X153560Y783800D01*
X153560Y682200D02*
X168640Y682200D01*
X168640Y656800D02*
X153560Y656800D01*
X153560Y631400D02*
X168640Y631400D01*
D15*
X556400Y425000D03*
D16*
X248800Y944300D03*
X248800Y994300D03*
X393800Y994300D03*
X393800Y969300D03*
X393800Y944300D03*
D17*
X132800Y452900D03*
D18*
X158200Y452900D03*
X158200Y478300D03*
X183600Y478300D03*
X183600Y452900D03*
D19*
X132800Y478300D03*
D18*
X499500Y252700D03*
X499500Y49500D03*
D20*
X292500Y174500D03*
D21*
X269000Y151000D02*
X240500Y151000D01*
X238000Y148500D02*
X238000Y142000D01*
D20*
X238000Y142000D03*
D21*
X269000Y151000D02*
X292500Y174500D01*
X240500Y151000D02*
X238000Y148500D01*
D22*
X202500Y148500D01*
X128000Y223000D01*
D20*
X128000Y223000D03*
X93500Y506500D03*
D22*
X102000Y514000D02*
X166000Y514000D01*
D20*
X166000Y514000D03*
D22*
X94500Y506500D02*
X93500Y506500D01*
X94500Y506500D02*
X102000Y514000D01*
D20*
X189500Y437500D03*
X272000Y448500D03*
X42500Y115500D03*
X177000Y363000D03*
X232500Y406500D03*
X265000Y198000D03*
D22*
X265750Y198250D02*
X302500Y235000D01*
D20*
X302500Y244500D03*
D22*
X302500Y235000D01*
X265750Y198250D02*
X265500Y198000D01*
X265000Y198000D01*
D20*
X287500Y399500D03*
D22*
X261250Y412500D02*
X249500Y412500D01*
D20*
X249500Y412500D03*
D22*
X256000Y420000D02*
X285500Y420000D01*
X287500Y420000D01*
X218000Y284500D02*
X209500Y284500D01*
X208000Y286000D01*
D20*
X208000Y286000D03*
X380500Y352000D03*
D22*
X218000Y284500D02*
X205500Y272000D01*
X205500Y252000D01*
D20*
X205500Y219500D03*
D22*
X205500Y235500D02*
X205500Y252000D01*
X205500Y235500D02*
X205500Y219500D01*
X340000Y419000D02*
X354500Y419000D01*
X340000Y419000D02*
X288500Y419000D01*
X261250Y311500D02*
X234250Y284500D01*
X218000Y284500D01*
D20*
X297500Y261500D03*
D22*
X380000Y393500D02*
X354500Y419000D01*
X283000Y247000D02*
X210500Y247000D01*
X283000Y247000D02*
X297500Y261500D01*
X210500Y247000D02*
X205500Y252000D01*
X261250Y311500D02*
X261250Y412500D01*
D23*
X283000Y247000D03*
D22*
X270000Y234000D01*
X270000Y231000D01*
D20*
X270000Y231000D03*
X340000Y419000D03*
D22*
X327375Y406375D01*
X294375Y406375D01*
X287500Y399500D01*
X288500Y419000D02*
X287500Y420000D01*
X380000Y393500D02*
X380000Y352500D01*
X380500Y352000D01*
X256000Y419000D02*
X249500Y412500D01*
X256000Y419000D02*
X256000Y420000D01*
X205500Y235500D02*
X161500Y235500D01*
X160500Y234500D01*
D20*
X160500Y234500D03*
X279000Y368500D03*
D22*
X279000Y303000D01*
X255000Y279000D01*
X222000Y279000D01*
X212510Y269510D01*
X212510Y268332D01*
D20*
X212510Y268332D03*
X255500Y293000D03*
D22*
X272000Y310000D02*
X272000Y361500D01*
D20*
X269000Y364500D03*
D22*
X272000Y310000D02*
X255500Y293500D01*
D20*
X199000Y431000D03*
X239000Y384500D03*
D22*
X199000Y424500D01*
X199000Y431000D01*
X269000Y364500D02*
X272000Y361500D01*
X255500Y293500D02*
X255500Y293000D01*
D20*
X216000Y364000D03*
D22*
X215000Y388000D02*
X169376Y433624D01*
X169376Y459029D02*
X158000Y470405D01*
X169376Y459029D02*
X169376Y433624D01*
X191568Y508514D02*
X155000Y545082D01*
X174839Y489932D02*
X188000Y489932D01*
X155000Y545082D02*
X155000Y616064D01*
X143734Y627330D01*
X143734Y690234D01*
X161100Y707600D01*
X174839Y489932D02*
X163207Y478300D01*
X158200Y478300D01*
X158000Y478100D01*
X158000Y470405D01*
X215000Y388000D02*
X215000Y365000D01*
X216000Y364000D01*
X188000Y489932D02*
X191568Y493500D01*
X191568Y508514D01*
D20*
X411000Y291518D03*
D22*
X304482Y185000D01*
X184000Y185000D01*
X133500Y235500D01*
X133500Y372500D01*
D20*
X133500Y372500D03*
D22*
X411000Y291518D02*
X481000Y361518D01*
X481000Y362500D01*
D20*
X481000Y362500D03*
X458500Y64500D03*
D22*
X434000Y89000D01*
X434000Y250500D01*
D20*
X434000Y250500D03*
X356000Y956500D03*
D22*
X271500Y956500D01*
X263000Y965000D01*
D20*
X263000Y965000D03*
X356500Y981500D03*
D22*
X299500Y981500D01*
X275500Y1005500D01*
X188500Y1005500D01*
X83000Y900000D01*
X83000Y867000D01*
X86000Y314500D02*
X103000Y297500D01*
D20*
X103000Y297500D03*
D22*
X74500Y858500D02*
X83000Y867000D01*
X74500Y858500D02*
X61000Y858500D01*
D20*
X61000Y858500D03*
D22*
X83000Y867000D02*
X83000Y504000D01*
X86000Y501000D02*
X86000Y314500D01*
X86000Y501000D02*
X83000Y504000D01*
D20*
X140000Y284000D03*
X193500Y281000D03*
D22*
X146019Y284000D02*
X140000Y284000D01*
X146019Y284000D02*
X156287Y294268D01*
X180232Y294268D01*
X193500Y281000D01*
D20*
X183500Y496000D03*
D22*
X127432Y420727D02*
X127432Y342000D01*
D20*
X127432Y342000D03*
D22*
X158998Y497500D02*
X179500Y497500D01*
X146476Y439771D02*
X127432Y420727D01*
X146476Y484978D02*
X158998Y497500D01*
X146476Y484978D02*
X146476Y439771D01*
D20*
X216000Y477000D03*
D22*
X181000Y496000D02*
X179500Y497500D01*
X181000Y496000D02*
X183500Y496000D01*
X198300Y493000D02*
X183600Y478300D01*
X216000Y477000D02*
X216000Y483500D01*
X206500Y493000D01*
X198300Y493000D01*
D20*
X161300Y283200D03*
D22*
X161500Y283000D01*
X161500Y263500D01*
D20*
X161500Y263500D03*
X255182Y338500D03*
D22*
X255182Y397737D01*
X237474Y415445D01*
X237474Y961026D01*
X253800Y977352D01*
X253800Y989300D01*
X248800Y994300D01*
D20*
X87500Y126500D03*
D22*
X116000Y155000D01*
D20*
X118000Y391000D03*
D22*
X116000Y177500D02*
X116000Y155000D01*
X116000Y177500D02*
X116000Y389000D01*
X118000Y391000D01*
X74500Y219000D02*
X116000Y177500D01*
X74500Y219000D02*
X37000Y219000D01*
D20*
X37000Y219000D03*
X109500Y218000D03*
D22*
X109500Y245000D01*
X109500Y330000D01*
X112000Y332500D01*
X112000Y377500D01*
X109000Y380500D01*
D20*
X109000Y380500D03*
D22*
X109500Y245000D02*
X41000Y245000D01*
X36000Y250000D01*
D20*
X36000Y250000D03*
X497500Y214000D03*
D21*
X499500Y216000D02*
X499500Y252700D01*
X499500Y216000D02*
X497500Y214000D01*
D20*
X255182Y316500D03*
D22*
X160500Y436682D02*
X160318Y436682D01*
D20*
X159000Y438000D03*
D22*
X213750Y357932D02*
X255182Y316500D01*
X213750Y357932D02*
X213487Y357932D01*
X209932Y361487D01*
X209932Y387250D01*
X160500Y436682D01*
X160318Y436682D02*
X159000Y438000D01*
D20*
X201500Y474000D03*
X207000Y405932D03*
D22*
X172424Y458529D02*
X178971Y465076D01*
X172424Y458529D02*
X172424Y443271D01*
X178971Y465076D02*
X192576Y465076D01*
X172424Y443271D02*
X207000Y408695D01*
X207000Y405932D01*
X192576Y465076D02*
X201500Y474000D01*
D20*
X146000Y306000D03*
D22*
X205932Y306000D01*
X221432Y321500D01*
D20*
X221432Y321500D03*
M02*
