M48
;GenerationSoftware,Autodesk,EAGLE,9.1.1*%
;CreationDate,2018-07-18T17:05:28Z*%
FMAT,2
ICI,OFF
METRIC,TZ,000.000
T6C0.350
T5C1.000
T4C1.029
T3C1.321
T2C2.500
T1C7.874
%
G90
M71
T1
X57570Y31620
X57570Y12570
T2
X4400Y100000
X59800Y99650
X58950Y4100
X19250Y3300
T3
X55640Y42500
T4
X49950Y4950
X49950Y25270
T5
X7100Y7020
X13700Y7020
X10400Y2620
X16110Y70760
X16110Y73300
X16110Y75840
X16110Y78380
X16110Y68220
X16110Y65680
X16110Y63140
X24880Y94430
X39380Y99430
X39380Y96930
X39380Y94430
X13280Y45290
X15820Y45290
X15820Y47830
X18360Y47830
X18360Y45290
X13280Y47830
X24880Y99430
T6
X48100Y36250
X45850Y6450
X43400Y25050
X35600Y95650
X26300Y96500
X35650Y98150
X10300Y29750
X6100Y85850
X14000Y28400
X19350Y28100
X18350Y49600
X12743Y34200
X21600Y47700
X16130Y28320
X30250Y24450
X25518Y33850
X8750Y12650
X11800Y39100
X3700Y21900
X10950Y21800
X10900Y38050
X3600Y25000
X49750Y21400
X25518Y31650
X15900Y43800
X20150Y47400
X20700Y40593
X14600Y30600
X22143Y32150
X29250Y17450
X23800Y14200
X12800Y22300
X9350Y50650
X16600Y51400
X18950Y43750
X27200Y44850
X4250Y11550
X17700Y36300
X23250Y40650
X26500Y19800
X28750Y39950
X24950Y41250
X20800Y28600
X38050Y35200
X20550Y21950
X29750Y26150
X27000Y23100
X16150Y26350
X34000Y41900
X16050Y23450
X27900Y36850
X21251Y26833
X25550Y29300
X26900Y36450
X19900Y43100
X23900Y38450
X21600Y36400
X41100Y29152
X13350Y37250
M30