G04 EAGLE Gerber X2 export*
%TF.Part,Single*%
%TF.FileFunction,Profile,NP*%
%TF.FilePolarity,Positive*%
%TF.GenerationSoftware,Autodesk,EAGLE,9.1.1*%
%TF.CreationDate,2018-07-18T17:05:30Z*%
G75*
%MOMM*%
%FSLAX34Y34*%
%LPD*%
%AMOC8*
5,1,8,0,0,1.08239X$1,22.5*%
G01*
%ADD10C,0.254000*%


D10*
X-1500Y1063000D02*
X0Y0D01*
X641000Y1500D01*
X639500Y1064500D01*
X-1500Y1063000D01*
X56500Y999509D02*
X56423Y998530D01*
X56269Y997560D01*
X56040Y996604D01*
X55736Y995670D01*
X55361Y994763D01*
X54915Y993888D01*
X54401Y993050D01*
X53824Y992255D01*
X53186Y991508D01*
X52492Y990814D01*
X51745Y990176D01*
X50950Y989599D01*
X50112Y989085D01*
X49237Y988639D01*
X48330Y988264D01*
X47396Y987960D01*
X46441Y987731D01*
X45470Y987577D01*
X44491Y987500D01*
X43509Y987500D01*
X42530Y987577D01*
X41560Y987731D01*
X40604Y987960D01*
X39670Y988264D01*
X38763Y988639D01*
X37888Y989085D01*
X37050Y989599D01*
X36255Y990176D01*
X35508Y990814D01*
X34814Y991508D01*
X34176Y992255D01*
X33599Y993050D01*
X33085Y993888D01*
X32639Y994763D01*
X32264Y995670D01*
X31960Y996604D01*
X31731Y997560D01*
X31577Y998530D01*
X31500Y999509D01*
X31500Y1000491D01*
X31577Y1001470D01*
X31731Y1002441D01*
X31960Y1003396D01*
X32264Y1004330D01*
X32639Y1005237D01*
X33085Y1006112D01*
X33599Y1006950D01*
X34176Y1007745D01*
X34814Y1008492D01*
X35508Y1009186D01*
X36255Y1009824D01*
X37050Y1010401D01*
X37888Y1010915D01*
X38763Y1011361D01*
X39670Y1011736D01*
X40604Y1012040D01*
X41560Y1012269D01*
X42530Y1012423D01*
X43509Y1012500D01*
X44491Y1012500D01*
X45470Y1012423D01*
X46441Y1012269D01*
X47396Y1012040D01*
X48330Y1011736D01*
X49237Y1011361D01*
X50112Y1010915D01*
X50950Y1010401D01*
X51745Y1009824D01*
X52492Y1009186D01*
X53186Y1008492D01*
X53824Y1007745D01*
X54401Y1006950D01*
X54915Y1006112D01*
X55361Y1005237D01*
X55736Y1004330D01*
X56040Y1003396D01*
X56269Y1002441D01*
X56423Y1001470D01*
X56500Y1000491D01*
X56500Y999509D01*
X610500Y996009D02*
X610423Y995030D01*
X610269Y994060D01*
X610040Y993104D01*
X609736Y992170D01*
X609361Y991263D01*
X608915Y990388D01*
X608401Y989550D01*
X607824Y988755D01*
X607186Y988008D01*
X606492Y987314D01*
X605745Y986676D01*
X604950Y986099D01*
X604112Y985585D01*
X603237Y985139D01*
X602330Y984764D01*
X601396Y984460D01*
X600441Y984231D01*
X599470Y984077D01*
X598491Y984000D01*
X597509Y984000D01*
X596530Y984077D01*
X595560Y984231D01*
X594604Y984460D01*
X593670Y984764D01*
X592763Y985139D01*
X591888Y985585D01*
X591050Y986099D01*
X590255Y986676D01*
X589508Y987314D01*
X588814Y988008D01*
X588176Y988755D01*
X587599Y989550D01*
X587085Y990388D01*
X586639Y991263D01*
X586264Y992170D01*
X585960Y993104D01*
X585731Y994060D01*
X585577Y995030D01*
X585500Y996009D01*
X585500Y996991D01*
X585577Y997970D01*
X585731Y998941D01*
X585960Y999896D01*
X586264Y1000830D01*
X586639Y1001737D01*
X587085Y1002612D01*
X587599Y1003450D01*
X588176Y1004245D01*
X588814Y1004992D01*
X589508Y1005686D01*
X590255Y1006324D01*
X591050Y1006901D01*
X591888Y1007415D01*
X592763Y1007861D01*
X593670Y1008236D01*
X594604Y1008540D01*
X595560Y1008769D01*
X596530Y1008923D01*
X597509Y1009000D01*
X598491Y1009000D01*
X599470Y1008923D01*
X600441Y1008769D01*
X601396Y1008540D01*
X602330Y1008236D01*
X603237Y1007861D01*
X604112Y1007415D01*
X604950Y1006901D01*
X605745Y1006324D01*
X606492Y1005686D01*
X607186Y1004992D01*
X607824Y1004245D01*
X608401Y1003450D01*
X608915Y1002612D01*
X609361Y1001737D01*
X609736Y1000830D01*
X610040Y999896D01*
X610269Y998941D01*
X610423Y997970D01*
X610500Y996991D01*
X610500Y996009D01*
X602000Y40509D02*
X601923Y39530D01*
X601769Y38560D01*
X601540Y37604D01*
X601236Y36670D01*
X600861Y35763D01*
X600415Y34888D01*
X599901Y34050D01*
X599324Y33255D01*
X598686Y32508D01*
X597992Y31814D01*
X597245Y31176D01*
X596450Y30599D01*
X595612Y30085D01*
X594737Y29639D01*
X593830Y29264D01*
X592896Y28960D01*
X591941Y28731D01*
X590970Y28577D01*
X589991Y28500D01*
X589009Y28500D01*
X588030Y28577D01*
X587060Y28731D01*
X586104Y28960D01*
X585170Y29264D01*
X584263Y29639D01*
X583388Y30085D01*
X582550Y30599D01*
X581755Y31176D01*
X581008Y31814D01*
X580314Y32508D01*
X579676Y33255D01*
X579099Y34050D01*
X578585Y34888D01*
X578139Y35763D01*
X577764Y36670D01*
X577460Y37604D01*
X577231Y38560D01*
X577077Y39530D01*
X577000Y40509D01*
X577000Y41491D01*
X577077Y42470D01*
X577231Y43441D01*
X577460Y44396D01*
X577764Y45330D01*
X578139Y46237D01*
X578585Y47112D01*
X579099Y47950D01*
X579676Y48745D01*
X580314Y49492D01*
X581008Y50186D01*
X581755Y50824D01*
X582550Y51401D01*
X583388Y51915D01*
X584263Y52361D01*
X585170Y52736D01*
X586104Y53040D01*
X587060Y53269D01*
X588030Y53423D01*
X589009Y53500D01*
X589991Y53500D01*
X590970Y53423D01*
X591941Y53269D01*
X592896Y53040D01*
X593830Y52736D01*
X594737Y52361D01*
X595612Y51915D01*
X596450Y51401D01*
X597245Y50824D01*
X597992Y50186D01*
X598686Y49492D01*
X599324Y48745D01*
X599901Y47950D01*
X600415Y47112D01*
X600861Y46237D01*
X601236Y45330D01*
X601540Y44396D01*
X601769Y43441D01*
X601923Y42470D01*
X602000Y41491D01*
X602000Y40509D01*
X205000Y32509D02*
X204923Y31530D01*
X204769Y30560D01*
X204540Y29604D01*
X204236Y28670D01*
X203861Y27763D01*
X203415Y26888D01*
X202901Y26050D01*
X202324Y25255D01*
X201686Y24508D01*
X200992Y23814D01*
X200245Y23176D01*
X199450Y22599D01*
X198612Y22085D01*
X197737Y21639D01*
X196830Y21264D01*
X195896Y20960D01*
X194941Y20731D01*
X193970Y20577D01*
X192991Y20500D01*
X192009Y20500D01*
X191030Y20577D01*
X190060Y20731D01*
X189104Y20960D01*
X188170Y21264D01*
X187263Y21639D01*
X186388Y22085D01*
X185550Y22599D01*
X184755Y23176D01*
X184008Y23814D01*
X183314Y24508D01*
X182676Y25255D01*
X182099Y26050D01*
X181585Y26888D01*
X181139Y27763D01*
X180764Y28670D01*
X180460Y29604D01*
X180231Y30560D01*
X180077Y31530D01*
X180000Y32509D01*
X180000Y33491D01*
X180077Y34470D01*
X180231Y35441D01*
X180460Y36396D01*
X180764Y37330D01*
X181139Y38237D01*
X181585Y39112D01*
X182099Y39950D01*
X182676Y40745D01*
X183314Y41492D01*
X184008Y42186D01*
X184755Y42824D01*
X185550Y43401D01*
X186388Y43915D01*
X187263Y44361D01*
X188170Y44736D01*
X189104Y45040D01*
X190060Y45269D01*
X191030Y45423D01*
X192009Y45500D01*
X192991Y45500D01*
X193970Y45423D01*
X194941Y45269D01*
X195896Y45040D01*
X196830Y44736D01*
X197737Y44361D01*
X198612Y43915D01*
X199450Y43401D01*
X200245Y42824D01*
X200992Y42186D01*
X201686Y41492D01*
X202324Y40745D01*
X202901Y39950D01*
X203415Y39112D01*
X203861Y38237D01*
X204236Y37330D01*
X204540Y36396D01*
X204769Y35441D01*
X204923Y34470D01*
X205000Y33491D01*
X205000Y32509D01*
X574841Y276830D02*
X573124Y276905D01*
X571413Y277055D01*
X569709Y277279D01*
X568017Y277577D01*
X566340Y277949D01*
X564681Y278394D01*
X563042Y278911D01*
X561427Y279498D01*
X559840Y280156D01*
X558283Y280882D01*
X556759Y281675D01*
X555271Y282534D01*
X553822Y283457D01*
X552415Y284443D01*
X551052Y285489D01*
X549735Y286593D01*
X548469Y287754D01*
X547254Y288969D01*
X546093Y290235D01*
X544989Y291552D01*
X543943Y292915D01*
X542957Y294322D01*
X542034Y295771D01*
X541175Y297259D01*
X540382Y298783D01*
X539656Y300340D01*
X538998Y301927D01*
X538411Y303542D01*
X537894Y305181D01*
X537449Y306840D01*
X537077Y308517D01*
X536779Y310209D01*
X536555Y311913D01*
X536405Y313624D01*
X536330Y315341D01*
X536330Y317059D01*
X536405Y318776D01*
X536555Y320487D01*
X536779Y322191D01*
X537077Y323883D01*
X537449Y325560D01*
X537894Y327220D01*
X538411Y328858D01*
X538998Y330473D01*
X539656Y332060D01*
X540382Y333617D01*
X541175Y335141D01*
X542034Y336629D01*
X542957Y338078D01*
X543943Y339485D01*
X544989Y340848D01*
X546093Y342165D01*
X547254Y343431D01*
X548469Y344646D01*
X549735Y345807D01*
X551052Y346911D01*
X552415Y347957D01*
X553822Y348943D01*
X555271Y349866D01*
X556759Y350725D01*
X558283Y351518D01*
X559840Y352244D01*
X561427Y352902D01*
X563042Y353490D01*
X564681Y354006D01*
X566340Y354451D01*
X568017Y354823D01*
X569709Y355121D01*
X571413Y355345D01*
X573124Y355495D01*
X574841Y355570D01*
X576559Y355570D01*
X578276Y355495D01*
X579987Y355345D01*
X581691Y355121D01*
X583383Y354823D01*
X585060Y354451D01*
X586720Y354006D01*
X588358Y353490D01*
X589973Y352902D01*
X591560Y352244D01*
X593117Y351518D01*
X594641Y350725D01*
X596129Y349866D01*
X597578Y348943D01*
X598985Y347957D01*
X600348Y346911D01*
X601665Y345807D01*
X602931Y344646D01*
X604146Y343431D01*
X605307Y342165D01*
X606411Y340848D01*
X607457Y339485D01*
X608443Y338078D01*
X609366Y336629D01*
X610225Y335141D01*
X611018Y333617D01*
X611744Y332060D01*
X612402Y330473D01*
X612990Y328858D01*
X613506Y327220D01*
X613951Y325560D01*
X614323Y323883D01*
X614621Y322191D01*
X614845Y320487D01*
X614995Y318776D01*
X615070Y317059D01*
X615070Y315341D01*
X614995Y313624D01*
X614845Y311913D01*
X614621Y310209D01*
X614323Y308517D01*
X613951Y306840D01*
X613506Y305181D01*
X612990Y303542D01*
X612402Y301927D01*
X611744Y300340D01*
X611018Y298783D01*
X610225Y297259D01*
X609366Y295771D01*
X608443Y294322D01*
X607457Y292915D01*
X606411Y291552D01*
X605307Y290235D01*
X604146Y288969D01*
X602931Y287754D01*
X601665Y286593D01*
X600348Y285489D01*
X598985Y284443D01*
X597578Y283457D01*
X596129Y282534D01*
X594641Y281675D01*
X593117Y280882D01*
X591560Y280156D01*
X589973Y279498D01*
X588358Y278911D01*
X586720Y278394D01*
X585060Y277949D01*
X583383Y277577D01*
X581691Y277279D01*
X579987Y277055D01*
X578276Y276905D01*
X576559Y276830D01*
X574841Y276830D01*
X574841Y86330D02*
X573124Y86405D01*
X571413Y86555D01*
X569709Y86779D01*
X568017Y87077D01*
X566340Y87449D01*
X564681Y87894D01*
X563042Y88411D01*
X561427Y88998D01*
X559840Y89656D01*
X558283Y90382D01*
X556759Y91175D01*
X555271Y92034D01*
X553822Y92957D01*
X552415Y93943D01*
X551052Y94989D01*
X549735Y96093D01*
X548469Y97254D01*
X547254Y98469D01*
X546093Y99735D01*
X544989Y101052D01*
X543943Y102415D01*
X542957Y103822D01*
X542034Y105271D01*
X541175Y106759D01*
X540382Y108283D01*
X539656Y109840D01*
X538998Y111427D01*
X538411Y113042D01*
X537894Y114681D01*
X537449Y116340D01*
X537077Y118017D01*
X536779Y119709D01*
X536555Y121413D01*
X536405Y123124D01*
X536330Y124841D01*
X536330Y126559D01*
X536405Y128276D01*
X536555Y129987D01*
X536779Y131691D01*
X537077Y133383D01*
X537449Y135060D01*
X537894Y136720D01*
X538411Y138358D01*
X538998Y139973D01*
X539656Y141560D01*
X540382Y143117D01*
X541175Y144641D01*
X542034Y146129D01*
X542957Y147578D01*
X543943Y148985D01*
X544989Y150348D01*
X546093Y151665D01*
X547254Y152931D01*
X548469Y154146D01*
X549735Y155307D01*
X551052Y156411D01*
X552415Y157457D01*
X553822Y158443D01*
X555271Y159366D01*
X556759Y160225D01*
X558283Y161018D01*
X559840Y161744D01*
X561427Y162402D01*
X563042Y162990D01*
X564681Y163506D01*
X566340Y163951D01*
X568017Y164323D01*
X569709Y164621D01*
X571413Y164845D01*
X573124Y164995D01*
X574841Y165070D01*
X576559Y165070D01*
X578276Y164995D01*
X579987Y164845D01*
X581691Y164621D01*
X583383Y164323D01*
X585060Y163951D01*
X586720Y163506D01*
X588358Y162990D01*
X589973Y162402D01*
X591560Y161744D01*
X593117Y161018D01*
X594641Y160225D01*
X596129Y159366D01*
X597578Y158443D01*
X598985Y157457D01*
X600348Y156411D01*
X601665Y155307D01*
X602931Y154146D01*
X604146Y152931D01*
X605307Y151665D01*
X606411Y150348D01*
X607457Y148985D01*
X608443Y147578D01*
X609366Y146129D01*
X610225Y144641D01*
X611018Y143117D01*
X611744Y141560D01*
X612402Y139973D01*
X612990Y138358D01*
X613506Y136720D01*
X613951Y135060D01*
X614323Y133383D01*
X614621Y131691D01*
X614845Y129987D01*
X614995Y128276D01*
X615070Y126559D01*
X615070Y124841D01*
X614995Y123124D01*
X614845Y121413D01*
X614621Y119709D01*
X614323Y118017D01*
X613951Y116340D01*
X613506Y114681D01*
X612990Y113042D01*
X612402Y111427D01*
X611744Y109840D01*
X611018Y108283D01*
X610225Y106759D01*
X609366Y105271D01*
X608443Y103822D01*
X607457Y102415D01*
X606411Y101052D01*
X605307Y99735D01*
X604146Y98469D01*
X602931Y97254D01*
X601665Y96093D01*
X600348Y94989D01*
X598985Y93943D01*
X597578Y92957D01*
X596129Y92034D01*
X594641Y91175D01*
X593117Y90382D01*
X591560Y89656D01*
X589973Y88998D01*
X588358Y88411D01*
X586720Y87894D01*
X585060Y87449D01*
X583383Y87077D01*
X581691Y86779D01*
X579987Y86555D01*
X578276Y86405D01*
X576559Y86330D01*
X574841Y86330D01*
M02*
