G04 EAGLE Gerber X2 export*
%TF.Part,Single*%
%TF.FileFunction,Paste,Top*%
%TF.FilePolarity,Positive*%
%TF.GenerationSoftware,Autodesk,EAGLE,9.1.1*%
%TF.CreationDate,2018-07-18T17:05:30Z*%
G75*
%MOMM*%
%FSLAX34Y34*%
%LPD*%
%AMOC8*
5,1,8,0,0,1.08239X$1,22.5*%
G01*
%ADD10R,2.100000X5.000000*%
%ADD11R,2.000000X4.000000*%
%ADD12R,4.000000X2.000000*%
%ADD13R,1.250000X1.750000*%
%ADD14R,1.750000X1.250000*%
%ADD15R,1.200000X1.520000*%
%ADD16R,0.600000X2.200000*%
%ADD17R,1.600000X1.400000*%
%ADD18C,0.430000*%
%ADD19R,1.000000X3.400000*%
%ADD20R,1.000000X1.500000*%
%ADD21R,2.200000X0.600000*%
%ADD22R,0.400000X1.000000*%
%ADD23R,2.235200X1.219200*%
%ADD24R,2.200000X3.600000*%
%ADD25R,1.000000X0.400000*%
%ADD26R,0.550000X1.500000*%
%ADD27R,1.500000X0.550000*%
%ADD28R,0.600000X0.900000*%
%ADD29R,2.100000X5.600000*%


D10*
X137000Y70200D03*
D11*
X71000Y70200D03*
D12*
X104000Y26200D03*
D13*
X151250Y194200D03*
X178750Y194200D03*
D14*
X119300Y842950D03*
X119300Y815450D03*
X61000Y842950D03*
X61000Y815450D03*
D13*
X84850Y478200D03*
X57350Y478200D03*
X88550Y276200D03*
X61050Y276200D03*
X338750Y461700D03*
X311250Y461700D03*
X117950Y418200D03*
X145450Y418200D03*
D14*
X271700Y249950D03*
X271700Y277450D03*
D13*
X226650Y223200D03*
X254150Y223200D03*
X237350Y193700D03*
X209850Y193700D03*
X226550Y164200D03*
X199050Y164200D03*
D14*
X135000Y266450D03*
X135000Y238950D03*
X399200Y209950D03*
X399200Y237450D03*
D13*
X286150Y466700D03*
X258650Y466700D03*
X320850Y428200D03*
X293350Y428200D03*
D15*
X222100Y128000D03*
X178900Y128000D03*
X178900Y95000D03*
X222100Y95000D03*
D13*
X277750Y504100D03*
X305250Y504100D03*
X484950Y505100D03*
X457450Y505100D03*
D16*
X87850Y146800D03*
X87850Y198800D03*
X75150Y146800D03*
X100550Y146800D03*
X113250Y146800D03*
X75150Y198800D03*
X100550Y198800D03*
X113250Y198800D03*
D13*
X389550Y461700D03*
X362050Y461700D03*
D14*
X372500Y209950D03*
X372500Y237450D03*
D13*
X438050Y114000D03*
X410550Y114000D03*
X437750Y79500D03*
X410250Y79500D03*
X437950Y45500D03*
X410450Y45500D03*
X460150Y944500D03*
X487650Y944500D03*
D14*
X427600Y944250D03*
X427600Y916750D03*
D13*
X488550Y993500D03*
X461050Y993500D03*
D14*
X427000Y994250D03*
X427000Y1021750D03*
D13*
X544450Y504500D03*
X516950Y504500D03*
X170350Y933100D03*
X197850Y933100D03*
D14*
X41900Y157850D03*
X41900Y185350D03*
D13*
X221450Y504200D03*
X248950Y504200D03*
D14*
X143100Y154350D03*
X143100Y126850D03*
D13*
X88050Y232100D03*
X60550Y232100D03*
X60750Y254600D03*
X88250Y254600D03*
X342650Y504700D03*
X370150Y504700D03*
X401850Y505000D03*
X429350Y505000D03*
D14*
X239500Y250050D03*
X239500Y277550D03*
D13*
X437750Y181000D03*
X410250Y181000D03*
D14*
X470700Y118750D03*
X470700Y91250D03*
D13*
X409150Y324000D03*
X436650Y324000D03*
X437850Y147500D03*
X410350Y147500D03*
D17*
X430100Y428600D03*
X502100Y428600D03*
X430100Y458600D03*
X502100Y458600D03*
D18*
X366850Y155050D02*
X264150Y155050D01*
X366850Y155050D02*
X366850Y73350D01*
X264150Y73350D01*
X264150Y155050D01*
X264150Y77435D02*
X366850Y77435D01*
X366850Y81520D02*
X264150Y81520D01*
X264150Y85605D02*
X366850Y85605D01*
X366850Y89690D02*
X264150Y89690D01*
X264150Y93775D02*
X366850Y93775D01*
X366850Y97860D02*
X264150Y97860D01*
X264150Y101945D02*
X366850Y101945D01*
X366850Y106030D02*
X264150Y106030D01*
X264150Y110115D02*
X366850Y110115D01*
X366850Y114200D02*
X264150Y114200D01*
X264150Y118285D02*
X366850Y118285D01*
X366850Y122370D02*
X264150Y122370D01*
X264150Y126455D02*
X366850Y126455D01*
X366850Y130540D02*
X264150Y130540D01*
X264150Y134625D02*
X366850Y134625D01*
X366850Y138710D02*
X264150Y138710D01*
X264150Y142795D02*
X366850Y142795D01*
X366850Y146880D02*
X264150Y146880D01*
X264150Y150965D02*
X366850Y150965D01*
X366850Y155050D02*
X264150Y155050D01*
D19*
X315500Y220200D03*
X290100Y220200D03*
X340900Y220200D03*
D20*
X503300Y173500D03*
X493800Y197500D03*
X512800Y197500D03*
X446200Y264000D03*
X436700Y288000D03*
X455700Y288000D03*
D21*
X303900Y377550D03*
X355900Y377550D03*
X303900Y390250D03*
X303900Y364850D03*
X303900Y352150D03*
X355900Y390250D03*
X355900Y364850D03*
X355900Y352150D03*
D22*
X192650Y263900D03*
X186150Y263900D03*
X179650Y263900D03*
X173150Y263900D03*
X173150Y219900D03*
X179650Y219900D03*
X186150Y219900D03*
X192650Y219900D03*
D23*
X316212Y317314D03*
X316212Y294200D03*
X316212Y271086D03*
D24*
X378190Y294200D03*
D25*
X474400Y213450D03*
X474400Y219950D03*
X474400Y226450D03*
X474400Y232950D03*
X430400Y232950D03*
X430400Y226450D03*
X430400Y219950D03*
X430400Y213450D03*
D26*
X167800Y302200D03*
X175800Y302200D03*
X183800Y302200D03*
X191800Y302200D03*
X199800Y302200D03*
X207800Y302200D03*
X215800Y302200D03*
X223800Y302200D03*
D27*
X238800Y317200D03*
X238800Y325200D03*
X238800Y333200D03*
X238800Y341200D03*
X238800Y349200D03*
X238800Y357200D03*
X238800Y365200D03*
X238800Y373200D03*
D26*
X223800Y388200D03*
X215800Y388200D03*
X207800Y388200D03*
X199800Y388200D03*
X191800Y388200D03*
X183800Y388200D03*
X175800Y388200D03*
X167800Y388200D03*
D27*
X152800Y373200D03*
X152800Y365200D03*
X152800Y357200D03*
X152800Y349200D03*
X152800Y341200D03*
X152800Y333200D03*
X152800Y325200D03*
X152800Y317200D03*
D21*
X456000Y362950D03*
X404000Y362950D03*
X456000Y350250D03*
X456000Y375650D03*
X456000Y388350D03*
X404000Y350250D03*
X404000Y375650D03*
X404000Y388350D03*
D28*
X230800Y444300D03*
X221300Y444300D03*
X211800Y444300D03*
X211800Y421300D03*
X221300Y421300D03*
X230800Y421300D03*
D29*
X65300Y327800D03*
X65300Y422800D03*
M02*
