G04 EAGLE Gerber X2 export*
%TF.Part,Single*%
%TF.FileFunction,Copper,L2,Bot,Mixed*%
%TF.FilePolarity,Positive*%
%TF.GenerationSoftware,Autodesk,EAGLE,9.1.1*%
%TF.CreationDate,2018-08-04T18:42:35Z*%
G75*
%MOMM*%
%FSLAX34Y34*%
%LPD*%
%AMOC8*
5,1,8,0,0,1.08239X$1,22.5*%
G01*
%ADD10C,1.524000*%
%ADD11C,1.524000*%
%ADD12R,1.524000X1.524000*%
%ADD13C,0.508000*%
%ADD14C,0.304800*%
%ADD15C,0.756400*%

G36*
X491062Y10164D02*
X491062Y10164D01*
X491088Y10162D01*
X491235Y10184D01*
X491382Y10201D01*
X491407Y10209D01*
X491433Y10213D01*
X491571Y10268D01*
X491710Y10318D01*
X491732Y10332D01*
X491757Y10342D01*
X491878Y10427D01*
X492003Y10507D01*
X492021Y10526D01*
X492043Y10541D01*
X492142Y10651D01*
X492245Y10758D01*
X492259Y10780D01*
X492276Y10800D01*
X492348Y10930D01*
X492424Y11057D01*
X492432Y11082D01*
X492445Y11105D01*
X492485Y11248D01*
X492530Y11389D01*
X492532Y11415D01*
X492540Y11440D01*
X492559Y11684D01*
X492559Y822144D01*
X492545Y822270D01*
X492538Y822396D01*
X492525Y822442D01*
X492519Y822490D01*
X492477Y822609D01*
X492442Y822731D01*
X492418Y822773D01*
X492402Y822818D01*
X492333Y822925D01*
X492272Y823035D01*
X492232Y823081D01*
X492213Y823111D01*
X492178Y823145D01*
X492113Y823221D01*
X445321Y870013D01*
X445222Y870092D01*
X445128Y870176D01*
X445086Y870200D01*
X445048Y870230D01*
X444934Y870284D01*
X444823Y870345D01*
X444777Y870358D01*
X444733Y870379D01*
X444610Y870405D01*
X444488Y870440D01*
X444427Y870445D01*
X444392Y870452D01*
X444344Y870451D01*
X444244Y870459D01*
X53596Y870459D01*
X53470Y870445D01*
X53344Y870438D01*
X53298Y870425D01*
X53250Y870419D01*
X53131Y870377D01*
X53009Y870342D01*
X52967Y870318D01*
X52922Y870302D01*
X52815Y870233D01*
X52705Y870172D01*
X52659Y870132D01*
X52629Y870113D01*
X52595Y870078D01*
X52519Y870013D01*
X10607Y828101D01*
X10528Y828002D01*
X10444Y827908D01*
X10420Y827866D01*
X10390Y827828D01*
X10336Y827714D01*
X10275Y827603D01*
X10262Y827557D01*
X10241Y827513D01*
X10215Y827390D01*
X10180Y827268D01*
X10175Y827207D01*
X10168Y827172D01*
X10169Y827124D01*
X10161Y827024D01*
X10161Y11684D01*
X10164Y11658D01*
X10162Y11632D01*
X10184Y11485D01*
X10201Y11338D01*
X10209Y11313D01*
X10213Y11287D01*
X10268Y11149D01*
X10318Y11010D01*
X10332Y10988D01*
X10342Y10963D01*
X10427Y10842D01*
X10507Y10717D01*
X10526Y10699D01*
X10541Y10677D01*
X10651Y10578D01*
X10758Y10475D01*
X10780Y10461D01*
X10800Y10444D01*
X10930Y10372D01*
X11057Y10296D01*
X11082Y10288D01*
X11105Y10275D01*
X11248Y10235D01*
X11389Y10190D01*
X11415Y10188D01*
X11440Y10180D01*
X11684Y10161D01*
X491036Y10161D01*
X491062Y10164D01*
G37*
%LPC*%
G36*
X315681Y105155D02*
X315681Y105155D01*
X312320Y106548D01*
X309748Y109120D01*
X308355Y112481D01*
X308355Y116119D01*
X308849Y117310D01*
X308870Y117383D01*
X308900Y117454D01*
X308917Y117550D01*
X308944Y117645D01*
X308948Y117721D01*
X308962Y117797D01*
X308956Y117895D01*
X308961Y117993D01*
X308948Y118068D01*
X308944Y118145D01*
X308916Y118239D01*
X308899Y118336D01*
X308868Y118406D01*
X308847Y118480D01*
X308799Y118565D01*
X308760Y118656D01*
X308714Y118717D01*
X308677Y118784D01*
X308580Y118897D01*
X308552Y118935D01*
X308537Y118948D01*
X308518Y118970D01*
X251151Y176337D01*
X251052Y176416D01*
X250958Y176500D01*
X250916Y176524D01*
X250878Y176554D01*
X250764Y176608D01*
X250653Y176669D01*
X250607Y176682D01*
X250563Y176703D01*
X250440Y176729D01*
X250318Y176764D01*
X250257Y176769D01*
X250222Y176776D01*
X250174Y176775D01*
X250074Y176783D01*
X168448Y176783D01*
X168398Y176778D01*
X168348Y176780D01*
X168226Y176758D01*
X168102Y176743D01*
X168055Y176726D01*
X168005Y176717D01*
X167891Y176668D01*
X167774Y176626D01*
X167732Y176599D01*
X167685Y176579D01*
X167586Y176504D01*
X167481Y176437D01*
X167446Y176401D01*
X167406Y176371D01*
X167326Y176276D01*
X167239Y176186D01*
X167213Y176143D01*
X167181Y176105D01*
X167124Y175994D01*
X167060Y175887D01*
X167045Y175839D01*
X167022Y175794D01*
X166992Y175674D01*
X166954Y175555D01*
X166950Y175505D01*
X166938Y175456D01*
X166936Y175332D01*
X166926Y175208D01*
X166933Y175158D01*
X166933Y175108D01*
X166959Y174986D01*
X166978Y174863D01*
X166996Y174816D01*
X167007Y174767D01*
X167060Y174655D01*
X167106Y174539D01*
X167135Y174498D01*
X167157Y174452D01*
X167234Y174355D01*
X167305Y174253D01*
X167343Y174219D01*
X167374Y174180D01*
X167472Y174103D01*
X167564Y174020D01*
X167608Y173995D01*
X167648Y173964D01*
X167865Y173853D01*
X170280Y172853D01*
X172852Y170280D01*
X174245Y166919D01*
X174245Y163281D01*
X172852Y159920D01*
X170280Y157348D01*
X166919Y155955D01*
X163281Y155955D01*
X159920Y157348D01*
X157348Y159920D01*
X155955Y163281D01*
X155955Y166919D01*
X157348Y170280D01*
X159920Y172853D01*
X162335Y173853D01*
X162379Y173877D01*
X162426Y173894D01*
X162531Y173962D01*
X162639Y174022D01*
X162676Y174056D01*
X162719Y174083D01*
X162805Y174173D01*
X162897Y174256D01*
X162926Y174298D01*
X162961Y174334D01*
X163025Y174441D01*
X163096Y174543D01*
X163114Y174590D01*
X163140Y174633D01*
X163178Y174751D01*
X163223Y174867D01*
X163231Y174917D01*
X163246Y174965D01*
X163256Y175089D01*
X163274Y175212D01*
X163270Y175262D01*
X163274Y175312D01*
X163256Y175435D01*
X163245Y175559D01*
X163230Y175607D01*
X163222Y175657D01*
X163176Y175772D01*
X163138Y175891D01*
X163112Y175934D01*
X163094Y175981D01*
X163023Y176083D01*
X162959Y176189D01*
X162923Y176226D01*
X162895Y176267D01*
X162802Y176350D01*
X162716Y176439D01*
X162673Y176467D01*
X162636Y176500D01*
X162527Y176560D01*
X162422Y176628D01*
X162375Y176645D01*
X162331Y176669D01*
X162211Y176703D01*
X162094Y176744D01*
X162044Y176750D01*
X161995Y176764D01*
X161752Y176783D01*
X159418Y176783D01*
X100075Y236126D01*
X100075Y326782D01*
X100061Y326908D01*
X100054Y327034D01*
X100041Y327080D01*
X100035Y327128D01*
X99993Y327247D01*
X99958Y327369D01*
X99934Y327411D01*
X99918Y327457D01*
X99849Y327563D01*
X99788Y327673D01*
X99748Y327719D01*
X99729Y327749D01*
X99694Y327783D01*
X99629Y327859D01*
X55470Y372018D01*
X55410Y372066D01*
X55357Y372121D01*
X55274Y372174D01*
X55197Y372235D01*
X55128Y372268D01*
X55064Y372309D01*
X54971Y372342D01*
X54882Y372384D01*
X54807Y372400D01*
X54735Y372426D01*
X54637Y372437D01*
X54541Y372457D01*
X54465Y372456D01*
X54389Y372465D01*
X54291Y372453D01*
X54193Y372451D01*
X54119Y372433D01*
X54043Y372424D01*
X53901Y372378D01*
X53855Y372366D01*
X53838Y372358D01*
X53810Y372349D01*
X52619Y371855D01*
X48981Y371855D01*
X45620Y373248D01*
X43048Y375820D01*
X41655Y379181D01*
X41655Y382819D01*
X43048Y386180D01*
X45620Y388752D01*
X48981Y390145D01*
X52619Y390145D01*
X55980Y388752D01*
X58552Y386180D01*
X59945Y382819D01*
X59945Y379181D01*
X59451Y377990D01*
X59430Y377917D01*
X59400Y377846D01*
X59383Y377750D01*
X59356Y377655D01*
X59352Y377579D01*
X59338Y377503D01*
X59344Y377405D01*
X59339Y377307D01*
X59352Y377232D01*
X59356Y377155D01*
X59384Y377061D01*
X59401Y376964D01*
X59432Y376894D01*
X59453Y376820D01*
X59501Y376735D01*
X59540Y376644D01*
X59586Y376583D01*
X59623Y376516D01*
X59720Y376403D01*
X59748Y376365D01*
X59763Y376352D01*
X59782Y376330D01*
X102047Y334065D01*
X102125Y334002D01*
X102198Y333932D01*
X102262Y333894D01*
X102320Y333848D01*
X102411Y333805D01*
X102497Y333754D01*
X102568Y333731D01*
X102635Y333699D01*
X102733Y333678D01*
X102829Y333647D01*
X102903Y333641D01*
X102976Y333626D01*
X103076Y333627D01*
X103176Y333619D01*
X103250Y333630D01*
X103324Y333632D01*
X103421Y333656D01*
X103521Y333671D01*
X103590Y333699D01*
X103662Y333717D01*
X103752Y333763D01*
X103845Y333800D01*
X103906Y333842D01*
X103972Y333876D01*
X104049Y333942D01*
X104131Y333999D01*
X104181Y334054D01*
X104237Y334102D01*
X104297Y334183D01*
X104364Y334258D01*
X104400Y334323D01*
X104445Y334382D01*
X104484Y334475D01*
X104533Y334563D01*
X104553Y334634D01*
X104583Y334702D01*
X104600Y334801D01*
X104628Y334898D01*
X104636Y334998D01*
X104644Y335045D01*
X104642Y335081D01*
X104647Y335142D01*
X104647Y386813D01*
X104633Y386939D01*
X104626Y387065D01*
X104613Y387112D01*
X104607Y387160D01*
X104565Y387279D01*
X104530Y387400D01*
X104506Y387442D01*
X104490Y387488D01*
X104421Y387594D01*
X104360Y387704D01*
X104320Y387750D01*
X104301Y387780D01*
X104266Y387814D01*
X104201Y387890D01*
X90202Y401889D01*
X90103Y401968D01*
X90010Y402052D01*
X89967Y402076D01*
X89929Y402106D01*
X89815Y402160D01*
X89705Y402221D01*
X89658Y402234D01*
X89614Y402255D01*
X89491Y402281D01*
X89369Y402316D01*
X89308Y402321D01*
X89274Y402328D01*
X89226Y402327D01*
X89125Y402335D01*
X60032Y402335D01*
X59956Y402327D01*
X59880Y402328D01*
X59784Y402307D01*
X59686Y402295D01*
X59614Y402270D01*
X59539Y402253D01*
X59451Y402211D01*
X59358Y402178D01*
X59294Y402136D01*
X59225Y402104D01*
X59148Y402042D01*
X59065Y401989D01*
X59012Y401934D01*
X58952Y401886D01*
X58891Y401809D01*
X58823Y401738D01*
X58784Y401673D01*
X58736Y401613D01*
X58668Y401480D01*
X58644Y401439D01*
X58638Y401421D01*
X58625Y401395D01*
X58553Y401220D01*
X55980Y398648D01*
X52619Y397255D01*
X48981Y397255D01*
X45620Y398648D01*
X43048Y401220D01*
X41655Y404581D01*
X41655Y408219D01*
X43048Y411580D01*
X45620Y414152D01*
X48981Y415545D01*
X52619Y415545D01*
X55980Y414152D01*
X58553Y411580D01*
X58625Y411405D01*
X58662Y411338D01*
X58690Y411267D01*
X58747Y411186D01*
X58794Y411100D01*
X58846Y411044D01*
X58889Y410981D01*
X58962Y410915D01*
X59028Y410842D01*
X59091Y410799D01*
X59148Y410748D01*
X59234Y410700D01*
X59315Y410644D01*
X59386Y410616D01*
X59453Y410579D01*
X59548Y410552D01*
X59639Y410516D01*
X59715Y410505D01*
X59789Y410484D01*
X59937Y410472D01*
X59984Y410465D01*
X60003Y410467D01*
X60032Y410465D01*
X93124Y410465D01*
X108651Y394937D01*
X108729Y394875D01*
X108802Y394805D01*
X108866Y394767D01*
X108924Y394721D01*
X109015Y394678D01*
X109101Y394626D01*
X109172Y394604D01*
X109239Y394572D01*
X109337Y394551D01*
X109433Y394520D01*
X109507Y394514D01*
X109580Y394499D01*
X109680Y394500D01*
X109780Y394492D01*
X109854Y394503D01*
X109928Y394505D01*
X110025Y394529D01*
X110125Y394544D01*
X110194Y394571D01*
X110266Y394590D01*
X110356Y394636D01*
X110449Y394673D01*
X110510Y394715D01*
X110576Y394749D01*
X110653Y394814D01*
X110735Y394872D01*
X110785Y394927D01*
X110841Y394975D01*
X110901Y395056D01*
X110968Y395130D01*
X111004Y395195D01*
X111049Y395255D01*
X111088Y395347D01*
X111137Y395435D01*
X111157Y395507D01*
X111187Y395575D01*
X111204Y395674D01*
X111232Y395771D01*
X111240Y395871D01*
X111248Y395918D01*
X111246Y395954D01*
X111251Y396015D01*
X111251Y405123D01*
X181109Y474981D01*
X400468Y474981D01*
X400494Y474984D01*
X400520Y474982D01*
X400667Y475004D01*
X400814Y475021D01*
X400839Y475029D01*
X400865Y475033D01*
X401003Y475088D01*
X401142Y475138D01*
X401164Y475152D01*
X401189Y475162D01*
X401310Y475247D01*
X401435Y475327D01*
X401453Y475346D01*
X401475Y475361D01*
X401574Y475471D01*
X401677Y475578D01*
X401691Y475600D01*
X401708Y475620D01*
X401780Y475750D01*
X401856Y475877D01*
X401864Y475902D01*
X401877Y475925D01*
X401917Y476068D01*
X401962Y476209D01*
X401964Y476235D01*
X401972Y476260D01*
X401991Y476504D01*
X401991Y509110D01*
X404223Y511342D01*
X412366Y519485D01*
X414598Y521717D01*
X441202Y521717D01*
X443434Y519485D01*
X458017Y504902D01*
X460249Y502670D01*
X460249Y389897D01*
X448303Y377951D01*
X445173Y377951D01*
X445097Y377943D01*
X445021Y377944D01*
X444925Y377923D01*
X444827Y377911D01*
X444755Y377886D01*
X444680Y377869D01*
X444592Y377827D01*
X444499Y377794D01*
X444435Y377752D01*
X444366Y377720D01*
X444289Y377658D01*
X444206Y377605D01*
X444153Y377550D01*
X444093Y377502D01*
X444032Y377425D01*
X443964Y377354D01*
X443925Y377289D01*
X443877Y377229D01*
X443809Y377095D01*
X443785Y377055D01*
X443779Y377037D01*
X443766Y377011D01*
X443273Y375820D01*
X440700Y373248D01*
X437339Y371855D01*
X418461Y371855D01*
X415100Y373248D01*
X412528Y375820D01*
X411135Y379181D01*
X411135Y382819D01*
X412528Y386180D01*
X415100Y388752D01*
X418461Y390145D01*
X437339Y390145D01*
X440700Y388752D01*
X443273Y386180D01*
X443758Y385008D01*
X443831Y384877D01*
X443900Y384743D01*
X443915Y384725D01*
X443927Y384703D01*
X444028Y384592D01*
X444126Y384478D01*
X444145Y384463D01*
X444161Y384445D01*
X444285Y384360D01*
X444406Y384270D01*
X444428Y384261D01*
X444448Y384247D01*
X444588Y384192D01*
X444726Y384132D01*
X444750Y384128D01*
X444772Y384119D01*
X444921Y384097D01*
X445069Y384071D01*
X445093Y384072D01*
X445117Y384069D01*
X445267Y384081D01*
X445417Y384089D01*
X445440Y384095D01*
X445464Y384097D01*
X445607Y384144D01*
X445752Y384185D01*
X445773Y384197D01*
X445796Y384205D01*
X445925Y384282D01*
X446056Y384355D01*
X446078Y384374D01*
X446095Y384384D01*
X446129Y384417D01*
X446242Y384514D01*
X453705Y391977D01*
X453784Y392076D01*
X453868Y392170D01*
X453892Y392212D01*
X453922Y392250D01*
X453976Y392364D01*
X454037Y392475D01*
X454050Y392521D01*
X454071Y392565D01*
X454097Y392688D01*
X454132Y392810D01*
X454137Y392871D01*
X454144Y392906D01*
X454143Y392954D01*
X454151Y393054D01*
X454151Y410602D01*
X454140Y410702D01*
X454138Y410802D01*
X454120Y410875D01*
X454111Y410948D01*
X454078Y411043D01*
X454053Y411140D01*
X454019Y411207D01*
X453994Y411277D01*
X453939Y411361D01*
X453893Y411450D01*
X453845Y411507D01*
X453805Y411569D01*
X453733Y411639D01*
X453668Y411716D01*
X453608Y411760D01*
X453554Y411812D01*
X453468Y411863D01*
X453387Y411923D01*
X453319Y411952D01*
X453255Y411990D01*
X453159Y412021D01*
X453067Y412061D01*
X452994Y412074D01*
X452923Y412097D01*
X452823Y412105D01*
X452724Y412122D01*
X452650Y412119D01*
X452576Y412125D01*
X452476Y412110D01*
X452376Y412105D01*
X452305Y412084D01*
X452231Y412073D01*
X452138Y412036D01*
X452041Y412008D01*
X451976Y411972D01*
X451907Y411944D01*
X451825Y411887D01*
X451737Y411838D01*
X451661Y411773D01*
X451621Y411745D01*
X451597Y411719D01*
X451551Y411679D01*
X445455Y405583D01*
X445029Y405157D01*
X445028Y405156D01*
X445026Y405155D01*
X444917Y405017D01*
X444812Y404884D01*
X444812Y404883D01*
X444810Y404881D01*
X444699Y404663D01*
X443273Y401220D01*
X440700Y398648D01*
X437339Y397255D01*
X418461Y397255D01*
X415100Y398648D01*
X412528Y401220D01*
X411135Y404581D01*
X411135Y408219D01*
X412528Y411580D01*
X415100Y414152D01*
X418461Y415545D01*
X437339Y415545D01*
X440700Y414153D01*
X441973Y412879D01*
X441994Y412863D01*
X442011Y412843D01*
X442130Y412755D01*
X442246Y412663D01*
X442270Y412651D01*
X442291Y412636D01*
X442427Y412577D01*
X442562Y412514D01*
X442587Y412508D01*
X442611Y412498D01*
X442757Y412471D01*
X442902Y412440D01*
X442928Y412441D01*
X442954Y412436D01*
X443103Y412444D01*
X443251Y412446D01*
X443276Y412453D01*
X443302Y412454D01*
X443445Y412495D01*
X443589Y412531D01*
X443612Y412543D01*
X443637Y412551D01*
X443767Y412623D01*
X443898Y412691D01*
X443918Y412708D01*
X443941Y412721D01*
X444128Y412879D01*
X448625Y417377D01*
X448704Y417476D01*
X448788Y417570D01*
X448812Y417612D01*
X448842Y417650D01*
X448896Y417764D01*
X448957Y417875D01*
X448970Y417921D01*
X448991Y417965D01*
X449017Y418088D01*
X449052Y418210D01*
X449057Y418271D01*
X449064Y418306D01*
X449063Y418354D01*
X449071Y418454D01*
X449071Y435166D01*
X449069Y435185D01*
X449070Y435200D01*
X449060Y435271D01*
X449058Y435366D01*
X449040Y435439D01*
X449031Y435512D01*
X448998Y435607D01*
X448973Y435704D01*
X448939Y435771D01*
X448914Y435841D01*
X448859Y435925D01*
X448813Y436014D01*
X448765Y436071D01*
X448725Y436133D01*
X448653Y436203D01*
X448588Y436280D01*
X448528Y436324D01*
X448474Y436376D01*
X448388Y436427D01*
X448307Y436487D01*
X448239Y436516D01*
X448175Y436554D01*
X448079Y436585D01*
X447987Y436625D01*
X447914Y436638D01*
X447843Y436661D01*
X447743Y436669D01*
X447644Y436686D01*
X447570Y436683D01*
X447496Y436689D01*
X447396Y436674D01*
X447296Y436669D01*
X447225Y436648D01*
X447151Y436637D01*
X447058Y436600D01*
X446961Y436572D01*
X446896Y436536D01*
X446827Y436508D01*
X446745Y436451D01*
X446657Y436402D01*
X446581Y436337D01*
X446572Y436331D01*
X446562Y436324D01*
X446561Y436323D01*
X446541Y436309D01*
X446517Y436283D01*
X446471Y436243D01*
X445111Y434883D01*
X445032Y434784D01*
X444948Y434690D01*
X444924Y434648D01*
X444894Y434610D01*
X444840Y434496D01*
X444779Y434385D01*
X444766Y434339D01*
X444745Y434295D01*
X444719Y434172D01*
X444684Y434050D01*
X444679Y433989D01*
X444672Y433955D01*
X444673Y433907D01*
X444665Y433806D01*
X444665Y429981D01*
X443272Y426620D01*
X440700Y424048D01*
X437339Y422655D01*
X418461Y422655D01*
X415100Y424048D01*
X412528Y426620D01*
X411135Y429981D01*
X411135Y433619D01*
X412528Y436980D01*
X415100Y439552D01*
X418461Y440945D01*
X437339Y440945D01*
X440083Y439808D01*
X440156Y439787D01*
X440226Y439757D01*
X440323Y439740D01*
X440418Y439713D01*
X440494Y439709D01*
X440569Y439695D01*
X440668Y439700D01*
X440766Y439696D01*
X440841Y439709D01*
X440918Y439713D01*
X441012Y439740D01*
X441109Y439758D01*
X441179Y439789D01*
X441252Y439810D01*
X441338Y439858D01*
X441429Y439897D01*
X441490Y439943D01*
X441557Y439980D01*
X441646Y440056D01*
X441658Y440064D01*
X441671Y440077D01*
X441708Y440105D01*
X441721Y440120D01*
X441743Y440138D01*
X442693Y441089D01*
X442772Y441188D01*
X442856Y441282D01*
X442880Y441324D01*
X442910Y441362D01*
X442964Y441476D01*
X443025Y441587D01*
X443038Y441633D01*
X443059Y441677D01*
X443085Y441800D01*
X443120Y441922D01*
X443125Y441983D01*
X443132Y442018D01*
X443131Y442066D01*
X443139Y442166D01*
X443139Y448209D01*
X443128Y448309D01*
X443126Y448410D01*
X443108Y448482D01*
X443099Y448555D01*
X443065Y448650D01*
X443041Y448748D01*
X443007Y448814D01*
X442982Y448884D01*
X442927Y448968D01*
X442881Y449058D01*
X442833Y449114D01*
X442793Y449176D01*
X442720Y449246D01*
X442655Y449323D01*
X442596Y449367D01*
X442542Y449419D01*
X442456Y449470D01*
X442375Y449530D01*
X442307Y449559D01*
X442243Y449597D01*
X442147Y449628D01*
X442055Y449668D01*
X441982Y449681D01*
X441911Y449704D01*
X441811Y449712D01*
X441712Y449729D01*
X441638Y449726D01*
X441564Y449732D01*
X441464Y449717D01*
X441364Y449711D01*
X441293Y449691D01*
X441219Y449680D01*
X441126Y449643D01*
X441029Y449615D01*
X440964Y449579D01*
X440895Y449551D01*
X440814Y449495D01*
X437339Y448055D01*
X418461Y448055D01*
X415100Y449448D01*
X412527Y452020D01*
X412034Y453211D01*
X411997Y453278D01*
X411969Y453349D01*
X411913Y453430D01*
X411865Y453516D01*
X411813Y453572D01*
X411770Y453635D01*
X411697Y453701D01*
X411631Y453774D01*
X411568Y453817D01*
X411511Y453868D01*
X411425Y453916D01*
X411344Y453972D01*
X411273Y454000D01*
X411206Y454037D01*
X411111Y454064D01*
X411020Y454100D01*
X410944Y454111D01*
X410871Y454132D01*
X410722Y454144D01*
X410675Y454151D01*
X410656Y454149D01*
X410627Y454151D01*
X189854Y454151D01*
X189728Y454137D01*
X189602Y454130D01*
X189556Y454117D01*
X189508Y454111D01*
X189389Y454069D01*
X189267Y454034D01*
X189225Y454010D01*
X189179Y453994D01*
X189073Y453925D01*
X188963Y453864D01*
X188917Y453824D01*
X188887Y453805D01*
X188853Y453770D01*
X188777Y453705D01*
X133035Y397963D01*
X132956Y397864D01*
X132872Y397770D01*
X132848Y397728D01*
X132818Y397690D01*
X132764Y397576D01*
X132703Y397465D01*
X132690Y397419D01*
X132669Y397375D01*
X132643Y397252D01*
X132608Y397130D01*
X132603Y397069D01*
X132596Y397035D01*
X132597Y396987D01*
X132589Y396886D01*
X132589Y329554D01*
X132603Y329428D01*
X132610Y329302D01*
X132623Y329256D01*
X132629Y329208D01*
X132671Y329089D01*
X132706Y328967D01*
X132730Y328925D01*
X132746Y328879D01*
X132815Y328773D01*
X132876Y328663D01*
X132916Y328617D01*
X132935Y328587D01*
X132970Y328553D01*
X133035Y328477D01*
X160430Y301082D01*
X160490Y301034D01*
X160543Y300979D01*
X160626Y300926D01*
X160703Y300865D01*
X160772Y300832D01*
X160836Y300791D01*
X160929Y300758D01*
X161018Y300716D01*
X161093Y300700D01*
X161165Y300674D01*
X161263Y300663D01*
X161359Y300643D01*
X161435Y300644D01*
X161511Y300635D01*
X161609Y300647D01*
X161707Y300649D01*
X161781Y300667D01*
X161857Y300676D01*
X161999Y300722D01*
X162045Y300734D01*
X162062Y300742D01*
X162090Y300751D01*
X163281Y301245D01*
X166919Y301245D01*
X170280Y299852D01*
X172852Y297280D01*
X174245Y293919D01*
X174245Y290281D01*
X172852Y286920D01*
X170280Y284348D01*
X166919Y282955D01*
X163281Y282955D01*
X159920Y284348D01*
X157348Y286920D01*
X155955Y290281D01*
X155955Y293919D01*
X156449Y295110D01*
X156470Y295183D01*
X156500Y295254D01*
X156517Y295350D01*
X156544Y295445D01*
X156548Y295521D01*
X156562Y295597D01*
X156556Y295695D01*
X156561Y295793D01*
X156548Y295868D01*
X156544Y295945D01*
X156516Y296039D01*
X156499Y296136D01*
X156468Y296206D01*
X156447Y296280D01*
X156399Y296365D01*
X156360Y296456D01*
X156314Y296517D01*
X156277Y296584D01*
X156180Y296697D01*
X156152Y296735D01*
X156137Y296748D01*
X156118Y296770D01*
X130109Y322779D01*
X130031Y322842D01*
X129958Y322912D01*
X129894Y322950D01*
X129836Y322996D01*
X129745Y323039D01*
X129659Y323090D01*
X129588Y323113D01*
X129521Y323145D01*
X129423Y323166D01*
X129327Y323197D01*
X129253Y323203D01*
X129180Y323218D01*
X129080Y323217D01*
X128980Y323225D01*
X128906Y323214D01*
X128832Y323212D01*
X128735Y323188D01*
X128635Y323173D01*
X128566Y323145D01*
X128494Y323127D01*
X128404Y323081D01*
X128311Y323044D01*
X128250Y323002D01*
X128184Y322968D01*
X128107Y322902D01*
X128025Y322845D01*
X127975Y322790D01*
X127919Y322742D01*
X127859Y322661D01*
X127792Y322586D01*
X127756Y322521D01*
X127711Y322462D01*
X127672Y322369D01*
X127623Y322281D01*
X127603Y322210D01*
X127573Y322142D01*
X127556Y322043D01*
X127528Y321946D01*
X127520Y321846D01*
X127512Y321799D01*
X127514Y321763D01*
X127509Y321702D01*
X127509Y309234D01*
X127523Y309108D01*
X127530Y308982D01*
X127543Y308936D01*
X127549Y308888D01*
X127591Y308769D01*
X127626Y308647D01*
X127650Y308605D01*
X127666Y308559D01*
X127735Y308453D01*
X127796Y308343D01*
X127836Y308297D01*
X127855Y308267D01*
X127890Y308233D01*
X127955Y308157D01*
X160430Y275682D01*
X160490Y275634D01*
X160543Y275579D01*
X160626Y275526D01*
X160703Y275465D01*
X160772Y275432D01*
X160836Y275391D01*
X160929Y275358D01*
X161018Y275316D01*
X161093Y275300D01*
X161165Y275274D01*
X161263Y275263D01*
X161359Y275243D01*
X161435Y275244D01*
X161511Y275235D01*
X161609Y275247D01*
X161707Y275249D01*
X161781Y275267D01*
X161857Y275276D01*
X161999Y275322D01*
X162045Y275334D01*
X162062Y275342D01*
X162090Y275351D01*
X163281Y275845D01*
X166919Y275845D01*
X170280Y274452D01*
X172852Y271880D01*
X174245Y268519D01*
X174245Y264881D01*
X172852Y261520D01*
X170280Y258948D01*
X166919Y257555D01*
X163281Y257555D01*
X159920Y258948D01*
X157348Y261520D01*
X155955Y264881D01*
X155955Y268519D01*
X156449Y269710D01*
X156470Y269784D01*
X156500Y269854D01*
X156517Y269950D01*
X156544Y270045D01*
X156548Y270121D01*
X156562Y270197D01*
X156556Y270295D01*
X156561Y270393D01*
X156548Y270468D01*
X156544Y270545D01*
X156516Y270639D01*
X156499Y270736D01*
X156468Y270806D01*
X156447Y270880D01*
X156399Y270965D01*
X156360Y271056D01*
X156314Y271117D01*
X156277Y271184D01*
X156180Y271298D01*
X156152Y271335D01*
X156137Y271348D01*
X156118Y271370D01*
X125029Y302459D01*
X124951Y302522D01*
X124878Y302592D01*
X124814Y302630D01*
X124756Y302676D01*
X124665Y302719D01*
X124579Y302770D01*
X124508Y302793D01*
X124441Y302825D01*
X124343Y302846D01*
X124247Y302877D01*
X124173Y302883D01*
X124100Y302898D01*
X124000Y302897D01*
X123900Y302905D01*
X123826Y302894D01*
X123752Y302892D01*
X123655Y302868D01*
X123555Y302853D01*
X123486Y302825D01*
X123414Y302807D01*
X123324Y302761D01*
X123231Y302724D01*
X123170Y302682D01*
X123104Y302648D01*
X123027Y302582D01*
X122945Y302525D01*
X122895Y302470D01*
X122839Y302422D01*
X122779Y302341D01*
X122712Y302266D01*
X122676Y302201D01*
X122631Y302142D01*
X122592Y302049D01*
X122543Y301961D01*
X122523Y301890D01*
X122493Y301822D01*
X122476Y301723D01*
X122448Y301626D01*
X122440Y301526D01*
X122432Y301479D01*
X122434Y301443D01*
X122429Y301382D01*
X122429Y288914D01*
X122432Y288888D01*
X122430Y288863D01*
X122444Y288765D01*
X122450Y288662D01*
X122463Y288616D01*
X122469Y288568D01*
X122478Y288542D01*
X122481Y288519D01*
X122517Y288430D01*
X122546Y288327D01*
X122570Y288285D01*
X122586Y288239D01*
X122602Y288215D01*
X122610Y288195D01*
X122663Y288119D01*
X122716Y288023D01*
X122756Y287977D01*
X122775Y287947D01*
X122798Y287925D01*
X122809Y287909D01*
X122829Y287890D01*
X122875Y287837D01*
X160430Y250282D01*
X160490Y250234D01*
X160543Y250179D01*
X160626Y250126D01*
X160703Y250065D01*
X160772Y250032D01*
X160836Y249991D01*
X160929Y249958D01*
X161018Y249916D01*
X161093Y249900D01*
X161165Y249874D01*
X161263Y249863D01*
X161359Y249843D01*
X161435Y249844D01*
X161511Y249835D01*
X161609Y249847D01*
X161707Y249849D01*
X161781Y249867D01*
X161857Y249876D01*
X161999Y249922D01*
X162045Y249934D01*
X162062Y249942D01*
X162090Y249951D01*
X163281Y250445D01*
X166919Y250445D01*
X170280Y249052D01*
X172852Y246480D01*
X174245Y243119D01*
X174245Y239481D01*
X172852Y236120D01*
X170280Y233548D01*
X166919Y232155D01*
X163281Y232155D01*
X159920Y233548D01*
X157348Y236120D01*
X155955Y239481D01*
X155955Y243119D01*
X156449Y244310D01*
X156470Y244383D01*
X156500Y244454D01*
X156517Y244550D01*
X156544Y244645D01*
X156548Y244721D01*
X156562Y244797D01*
X156556Y244895D01*
X156561Y244993D01*
X156548Y245068D01*
X156544Y245145D01*
X156516Y245239D01*
X156499Y245336D01*
X156468Y245406D01*
X156447Y245480D01*
X156399Y245565D01*
X156360Y245656D01*
X156314Y245717D01*
X156277Y245784D01*
X156180Y245897D01*
X156152Y245935D01*
X156137Y245948D01*
X156118Y245970D01*
X119949Y282139D01*
X119871Y282202D01*
X119798Y282272D01*
X119734Y282310D01*
X119676Y282356D01*
X119585Y282399D01*
X119499Y282450D01*
X119428Y282473D01*
X119361Y282505D01*
X119263Y282526D01*
X119167Y282557D01*
X119093Y282563D01*
X119020Y282578D01*
X118920Y282577D01*
X118820Y282585D01*
X118746Y282574D01*
X118672Y282572D01*
X118575Y282548D01*
X118475Y282533D01*
X118406Y282505D01*
X118334Y282487D01*
X118244Y282441D01*
X118151Y282404D01*
X118090Y282362D01*
X118024Y282328D01*
X117947Y282262D01*
X117865Y282205D01*
X117815Y282150D01*
X117759Y282102D01*
X117699Y282021D01*
X117632Y281946D01*
X117596Y281881D01*
X117551Y281822D01*
X117512Y281729D01*
X117463Y281641D01*
X117443Y281570D01*
X117413Y281502D01*
X117396Y281403D01*
X117368Y281306D01*
X117360Y281206D01*
X117352Y281159D01*
X117354Y281123D01*
X117349Y281062D01*
X117349Y268594D01*
X117363Y268468D01*
X117370Y268342D01*
X117383Y268296D01*
X117389Y268248D01*
X117431Y268129D01*
X117466Y268007D01*
X117490Y267965D01*
X117506Y267919D01*
X117575Y267813D01*
X117636Y267703D01*
X117676Y267657D01*
X117695Y267627D01*
X117730Y267593D01*
X117795Y267517D01*
X160430Y224882D01*
X160490Y224834D01*
X160543Y224779D01*
X160626Y224726D01*
X160703Y224665D01*
X160772Y224632D01*
X160836Y224591D01*
X160929Y224558D01*
X161018Y224516D01*
X161093Y224500D01*
X161165Y224474D01*
X161263Y224463D01*
X161359Y224443D01*
X161435Y224444D01*
X161511Y224435D01*
X161609Y224447D01*
X161707Y224449D01*
X161781Y224467D01*
X161857Y224476D01*
X161999Y224522D01*
X162045Y224534D01*
X162062Y224542D01*
X162090Y224551D01*
X163281Y225045D01*
X166919Y225045D01*
X170280Y223652D01*
X172852Y221080D01*
X174245Y217719D01*
X174245Y214081D01*
X172816Y210632D01*
X172797Y210608D01*
X172754Y210517D01*
X172703Y210431D01*
X172680Y210361D01*
X172648Y210293D01*
X172627Y210195D01*
X172596Y210099D01*
X172590Y210025D01*
X172575Y209953D01*
X172576Y209852D01*
X172568Y209752D01*
X172579Y209678D01*
X172581Y209604D01*
X172605Y209507D01*
X172620Y209407D01*
X172648Y209338D01*
X172666Y209266D01*
X172712Y209177D01*
X172749Y209083D01*
X172791Y209022D01*
X172825Y208956D01*
X172890Y208880D01*
X172948Y208797D01*
X173003Y208747D01*
X173051Y208691D01*
X173132Y208631D01*
X173207Y208564D01*
X173271Y208528D01*
X173331Y208484D01*
X173423Y208444D01*
X173512Y208395D01*
X173583Y208375D01*
X173651Y208346D01*
X173750Y208328D01*
X173847Y208300D01*
X173947Y208292D01*
X173994Y208284D01*
X174030Y208286D01*
X174091Y208281D01*
X263544Y208281D01*
X266371Y205454D01*
X305755Y166070D01*
X305833Y166007D01*
X305906Y165938D01*
X305970Y165899D01*
X306028Y165853D01*
X306119Y165810D01*
X306205Y165759D01*
X306276Y165736D01*
X306343Y165704D01*
X306441Y165683D01*
X306537Y165653D01*
X306611Y165647D01*
X306684Y165631D01*
X306784Y165633D01*
X306884Y165625D01*
X306958Y165636D01*
X307032Y165637D01*
X307129Y165661D01*
X307229Y165676D01*
X307298Y165704D01*
X307370Y165722D01*
X307460Y165768D01*
X307553Y165805D01*
X307614Y165847D01*
X307680Y165881D01*
X307757Y165947D01*
X307839Y166004D01*
X307889Y166059D01*
X307945Y166107D01*
X308005Y166188D01*
X308072Y166263D01*
X308108Y166328D01*
X308153Y166388D01*
X308192Y166480D01*
X308241Y166568D01*
X308261Y166639D01*
X308291Y166708D01*
X308308Y166805D01*
X309748Y170280D01*
X312320Y172852D01*
X315681Y174245D01*
X319319Y174245D01*
X322680Y172852D01*
X325252Y170280D01*
X326645Y166919D01*
X326645Y163281D01*
X325253Y159920D01*
X324398Y159065D01*
X324335Y158986D01*
X324265Y158914D01*
X324227Y158850D01*
X324181Y158792D01*
X324138Y158701D01*
X324087Y158615D01*
X324064Y158544D01*
X324032Y158477D01*
X324011Y158379D01*
X323980Y158283D01*
X323974Y158209D01*
X323959Y158136D01*
X323960Y158036D01*
X323952Y157936D01*
X323963Y157862D01*
X323965Y157788D01*
X323989Y157691D01*
X324004Y157591D01*
X324032Y157522D01*
X324050Y157450D01*
X324096Y157361D01*
X324133Y157267D01*
X324175Y157206D01*
X324209Y157140D01*
X324274Y157064D01*
X324332Y156981D01*
X324387Y156931D01*
X324435Y156875D01*
X324516Y156815D01*
X324591Y156748D01*
X324656Y156712D01*
X324715Y156667D01*
X324808Y156628D01*
X324896Y156579D01*
X324967Y156559D01*
X325035Y156529D01*
X325134Y156512D01*
X325231Y156484D01*
X325331Y156476D01*
X325378Y156468D01*
X325414Y156470D01*
X325475Y156465D01*
X411048Y156465D01*
X411124Y156473D01*
X411200Y156472D01*
X411296Y156493D01*
X411394Y156505D01*
X411466Y156530D01*
X411541Y156547D01*
X411629Y156589D01*
X411722Y156622D01*
X411786Y156664D01*
X411855Y156696D01*
X411932Y156758D01*
X412015Y156811D01*
X412068Y156866D01*
X412128Y156914D01*
X412189Y156991D01*
X412257Y157062D01*
X412296Y157127D01*
X412344Y157187D01*
X412412Y157320D01*
X412436Y157361D01*
X412442Y157379D01*
X412455Y157405D01*
X412527Y157580D01*
X415100Y160152D01*
X418461Y161545D01*
X437339Y161545D01*
X440700Y160152D01*
X443272Y157580D01*
X444665Y154219D01*
X444665Y150581D01*
X443272Y147220D01*
X440700Y144648D01*
X437339Y143255D01*
X418461Y143255D01*
X415100Y144648D01*
X412527Y147220D01*
X412455Y147395D01*
X412418Y147462D01*
X412390Y147533D01*
X412333Y147614D01*
X412286Y147700D01*
X412234Y147756D01*
X412191Y147819D01*
X412118Y147885D01*
X412052Y147958D01*
X411989Y148001D01*
X411932Y148052D01*
X411846Y148100D01*
X411765Y148156D01*
X411694Y148184D01*
X411627Y148221D01*
X411532Y148248D01*
X411441Y148284D01*
X411365Y148295D01*
X411291Y148316D01*
X411143Y148328D01*
X411096Y148335D01*
X411077Y148333D01*
X411048Y148335D01*
X325475Y148335D01*
X325375Y148324D01*
X325275Y148322D01*
X325202Y148304D01*
X325129Y148295D01*
X325034Y148261D01*
X324937Y148237D01*
X324871Y148203D01*
X324800Y148178D01*
X324716Y148123D01*
X324627Y148077D01*
X324570Y148029D01*
X324508Y147989D01*
X324438Y147917D01*
X324361Y147852D01*
X324317Y147792D01*
X324265Y147738D01*
X324214Y147652D01*
X324154Y147571D01*
X324125Y147503D01*
X324087Y147439D01*
X324056Y147343D01*
X324016Y147251D01*
X324003Y147178D01*
X323980Y147107D01*
X323972Y147007D01*
X323955Y146908D01*
X323958Y146834D01*
X323952Y146760D01*
X323967Y146660D01*
X323972Y146560D01*
X323993Y146489D01*
X324004Y146415D01*
X324041Y146322D01*
X324069Y146225D01*
X324105Y146160D01*
X324133Y146091D01*
X324190Y146009D01*
X324239Y145921D01*
X324304Y145845D01*
X324332Y145805D01*
X324358Y145781D01*
X324398Y145735D01*
X325253Y144880D01*
X326645Y141519D01*
X326645Y137881D01*
X325252Y134520D01*
X322680Y131948D01*
X319319Y130555D01*
X315681Y130555D01*
X312320Y131948D01*
X309748Y134520D01*
X308355Y137881D01*
X308355Y141519D01*
X309747Y144880D01*
X311521Y146653D01*
X311537Y146674D01*
X311557Y146691D01*
X311645Y146810D01*
X311737Y146926D01*
X311748Y146950D01*
X311764Y146971D01*
X311823Y147107D01*
X311886Y147241D01*
X311892Y147267D01*
X311902Y147291D01*
X311928Y147437D01*
X311959Y147582D01*
X311959Y147608D01*
X311964Y147634D01*
X311956Y147783D01*
X311953Y147930D01*
X311947Y147956D01*
X311946Y147982D01*
X311905Y148125D01*
X311868Y148268D01*
X311856Y148292D01*
X311849Y148317D01*
X311777Y148447D01*
X311709Y148578D01*
X311692Y148598D01*
X311679Y148621D01*
X311521Y148807D01*
X260623Y199705D01*
X260524Y199784D01*
X260430Y199868D01*
X260388Y199892D01*
X260350Y199922D01*
X260236Y199976D01*
X260125Y200037D01*
X260078Y200050D01*
X260035Y200071D01*
X259911Y200097D01*
X259789Y200132D01*
X259729Y200137D01*
X259694Y200144D01*
X259646Y200143D01*
X259546Y200151D01*
X172059Y200151D01*
X171959Y200140D01*
X171859Y200138D01*
X171786Y200120D01*
X171713Y200111D01*
X171618Y200078D01*
X171521Y200053D01*
X171454Y200019D01*
X171384Y199994D01*
X171300Y199939D01*
X171211Y199893D01*
X171154Y199845D01*
X171092Y199805D01*
X171022Y199733D01*
X170945Y199668D01*
X170901Y199608D01*
X170849Y199554D01*
X170798Y199468D01*
X170738Y199387D01*
X170709Y199319D01*
X170671Y199255D01*
X170640Y199159D01*
X170600Y199067D01*
X170587Y198994D01*
X170564Y198923D01*
X170556Y198823D01*
X170539Y198724D01*
X170542Y198650D01*
X170536Y198576D01*
X170551Y198476D01*
X170556Y198376D01*
X170577Y198305D01*
X170588Y198231D01*
X170625Y198138D01*
X170653Y198041D01*
X170689Y197976D01*
X170717Y197907D01*
X170774Y197825D01*
X170823Y197737D01*
X170888Y197661D01*
X170916Y197621D01*
X170942Y197597D01*
X170982Y197551D01*
X172853Y195680D01*
X174245Y192319D01*
X174245Y188681D01*
X172816Y185232D01*
X172797Y185208D01*
X172754Y185117D01*
X172703Y185031D01*
X172680Y184961D01*
X172648Y184893D01*
X172627Y184795D01*
X172596Y184699D01*
X172590Y184625D01*
X172575Y184553D01*
X172576Y184452D01*
X172568Y184352D01*
X172579Y184278D01*
X172581Y184204D01*
X172605Y184107D01*
X172620Y184007D01*
X172648Y183938D01*
X172666Y183866D01*
X172712Y183777D01*
X172749Y183683D01*
X172791Y183622D01*
X172825Y183556D01*
X172890Y183480D01*
X172948Y183397D01*
X173003Y183347D01*
X173051Y183291D01*
X173132Y183231D01*
X173207Y183164D01*
X173271Y183128D01*
X173331Y183084D01*
X173423Y183044D01*
X173512Y182995D01*
X173583Y182975D01*
X173651Y182946D01*
X173750Y182928D01*
X173847Y182900D01*
X173947Y182892D01*
X173994Y182884D01*
X174030Y182886D01*
X174091Y182881D01*
X253231Y182881D01*
X312830Y123282D01*
X312890Y123234D01*
X312943Y123179D01*
X313026Y123126D01*
X313103Y123065D01*
X313172Y123032D01*
X313236Y122991D01*
X313329Y122958D01*
X313418Y122916D01*
X313493Y122900D01*
X313565Y122874D01*
X313663Y122863D01*
X313759Y122843D01*
X313835Y122844D01*
X313911Y122835D01*
X314009Y122847D01*
X314107Y122849D01*
X314181Y122867D01*
X314257Y122876D01*
X314399Y122922D01*
X314445Y122934D01*
X314462Y122942D01*
X314490Y122951D01*
X315681Y123445D01*
X319319Y123445D01*
X322680Y122052D01*
X325252Y119480D01*
X326645Y116119D01*
X326645Y112481D01*
X325252Y109120D01*
X322680Y106548D01*
X319319Y105155D01*
X315681Y105155D01*
G37*
%LPD*%
%LPC*%
G36*
X367244Y548413D02*
X367244Y548413D01*
X365294Y549221D01*
X363801Y550714D01*
X362993Y552664D01*
X362993Y554776D01*
X363801Y556726D01*
X364805Y557730D01*
X364884Y557829D01*
X364968Y557923D01*
X364992Y557965D01*
X365022Y558003D01*
X365076Y558117D01*
X365137Y558228D01*
X365150Y558274D01*
X365171Y558318D01*
X365197Y558441D01*
X365232Y558563D01*
X365237Y558624D01*
X365244Y558659D01*
X365243Y558707D01*
X365251Y558807D01*
X365251Y683906D01*
X365237Y684032D01*
X365230Y684158D01*
X365217Y684204D01*
X365211Y684252D01*
X365169Y684371D01*
X365134Y684493D01*
X365110Y684535D01*
X365094Y684581D01*
X365025Y684687D01*
X364964Y684797D01*
X364924Y684843D01*
X364905Y684873D01*
X364870Y684907D01*
X364805Y684983D01*
X313998Y735791D01*
X313977Y735807D01*
X313960Y735827D01*
X313841Y735915D01*
X313725Y736007D01*
X313701Y736019D01*
X313680Y736034D01*
X313544Y736093D01*
X313410Y736156D01*
X313384Y736162D01*
X313360Y736172D01*
X313214Y736199D01*
X313069Y736230D01*
X313043Y736229D01*
X313017Y736234D01*
X312868Y736226D01*
X312720Y736224D01*
X312695Y736217D01*
X312669Y736216D01*
X312526Y736175D01*
X312382Y736139D01*
X312359Y736127D01*
X312334Y736119D01*
X312204Y736047D01*
X312073Y735979D01*
X312053Y735962D01*
X312030Y735949D01*
X311843Y735791D01*
X309980Y733927D01*
X306619Y732535D01*
X302981Y732535D01*
X299620Y733928D01*
X297048Y736500D01*
X295655Y739861D01*
X295655Y758739D01*
X297048Y762100D01*
X299620Y764672D01*
X302981Y766065D01*
X306619Y766065D01*
X309980Y764672D01*
X312552Y762100D01*
X313945Y758739D01*
X313945Y745098D01*
X313959Y744972D01*
X313966Y744846D01*
X313979Y744800D01*
X313985Y744752D01*
X314027Y744633D01*
X314062Y744511D01*
X314086Y744469D01*
X314102Y744423D01*
X314171Y744317D01*
X314232Y744207D01*
X314272Y744161D01*
X314291Y744131D01*
X314326Y744097D01*
X314391Y744021D01*
X371349Y687063D01*
X371349Y558807D01*
X371363Y558681D01*
X371370Y558555D01*
X371383Y558509D01*
X371389Y558461D01*
X371431Y558342D01*
X371466Y558220D01*
X371490Y558178D01*
X371506Y558133D01*
X371575Y558027D01*
X371636Y557916D01*
X371676Y557870D01*
X371695Y557840D01*
X371730Y557806D01*
X371795Y557730D01*
X372799Y556726D01*
X373607Y554776D01*
X373607Y552664D01*
X372799Y550714D01*
X371306Y549221D01*
X369356Y548413D01*
X367244Y548413D01*
G37*
%LPD*%
%LPC*%
G36*
X417192Y799339D02*
X417192Y799339D01*
X408864Y802789D01*
X402489Y809164D01*
X399039Y817492D01*
X399039Y826508D01*
X402489Y834836D01*
X408864Y841211D01*
X417192Y844661D01*
X426208Y844661D01*
X434536Y841211D01*
X440911Y834836D01*
X444361Y826508D01*
X444361Y817492D01*
X440911Y809164D01*
X434536Y802789D01*
X426208Y799339D01*
X417192Y799339D01*
G37*
%LPD*%
%LPC*%
G36*
X107192Y799339D02*
X107192Y799339D01*
X98864Y802789D01*
X92489Y809164D01*
X89039Y817492D01*
X89039Y826508D01*
X92489Y834836D01*
X98864Y841211D01*
X107192Y844661D01*
X116208Y844661D01*
X124536Y841211D01*
X130911Y834836D01*
X134361Y826508D01*
X134361Y817492D01*
X130911Y809164D01*
X124536Y802789D01*
X116208Y799339D01*
X107192Y799339D01*
G37*
%LPD*%
%LPC*%
G36*
X107192Y49339D02*
X107192Y49339D01*
X98864Y52789D01*
X92489Y59164D01*
X89039Y67492D01*
X89039Y76508D01*
X92489Y84836D01*
X98864Y91211D01*
X107192Y94661D01*
X116208Y94661D01*
X124536Y91211D01*
X130911Y84836D01*
X134361Y76508D01*
X134361Y67492D01*
X130911Y59164D01*
X124536Y52789D01*
X116208Y49339D01*
X107192Y49339D01*
G37*
%LPD*%
%LPC*%
G36*
X417192Y49339D02*
X417192Y49339D01*
X408864Y52789D01*
X402489Y59164D01*
X399039Y67492D01*
X399039Y76508D01*
X402489Y84836D01*
X408864Y91211D01*
X417192Y94661D01*
X426208Y94661D01*
X434536Y91211D01*
X440911Y84836D01*
X444361Y76508D01*
X444361Y67492D01*
X440911Y59164D01*
X434536Y52789D01*
X426208Y49339D01*
X417192Y49339D01*
G37*
%LPD*%
%LPC*%
G36*
X418461Y168655D02*
X418461Y168655D01*
X415100Y170048D01*
X412528Y172620D01*
X411135Y175981D01*
X411135Y179619D01*
X412528Y182980D01*
X415100Y185552D01*
X418461Y186945D01*
X437339Y186945D01*
X440700Y185552D01*
X443272Y182980D01*
X444665Y179619D01*
X444665Y175981D01*
X443272Y172620D01*
X440700Y170048D01*
X437339Y168655D01*
X418461Y168655D01*
G37*
%LPD*%
%LPC*%
G36*
X252181Y732535D02*
X252181Y732535D01*
X248820Y733928D01*
X246248Y736500D01*
X244855Y739861D01*
X244855Y758739D01*
X246248Y762100D01*
X248820Y764672D01*
X252181Y766065D01*
X255819Y766065D01*
X259180Y764672D01*
X261752Y762100D01*
X263145Y758739D01*
X263145Y739861D01*
X261752Y736500D01*
X259180Y733928D01*
X255819Y732535D01*
X252181Y732535D01*
G37*
%LPD*%
%LPC*%
G36*
X418461Y194055D02*
X418461Y194055D01*
X415100Y195448D01*
X412528Y198020D01*
X411135Y201381D01*
X411135Y205019D01*
X412528Y208380D01*
X415100Y210952D01*
X418461Y212345D01*
X437339Y212345D01*
X440700Y210952D01*
X443272Y208380D01*
X444665Y205019D01*
X444665Y201381D01*
X443272Y198020D01*
X440700Y195448D01*
X437339Y194055D01*
X418461Y194055D01*
G37*
%LPD*%
%LPC*%
G36*
X418461Y270255D02*
X418461Y270255D01*
X415100Y271648D01*
X412528Y274220D01*
X411135Y277581D01*
X411135Y281219D01*
X412528Y284580D01*
X415100Y287152D01*
X418461Y288545D01*
X437339Y288545D01*
X440700Y287152D01*
X443272Y284580D01*
X444665Y281219D01*
X444665Y277581D01*
X443272Y274220D01*
X440700Y271648D01*
X437339Y270255D01*
X418461Y270255D01*
G37*
%LPD*%
%LPC*%
G36*
X418461Y295655D02*
X418461Y295655D01*
X415100Y297048D01*
X412528Y299620D01*
X411135Y302981D01*
X411135Y306619D01*
X412528Y309980D01*
X415100Y312552D01*
X418461Y313945D01*
X437339Y313945D01*
X440700Y312552D01*
X443272Y309980D01*
X444665Y306619D01*
X444665Y302981D01*
X443272Y299620D01*
X440700Y297048D01*
X437339Y295655D01*
X418461Y295655D01*
G37*
%LPD*%
%LPC*%
G36*
X418461Y321055D02*
X418461Y321055D01*
X415100Y322448D01*
X412528Y325020D01*
X411135Y328381D01*
X411135Y332019D01*
X412528Y335380D01*
X415100Y337952D01*
X418461Y339345D01*
X437339Y339345D01*
X440700Y337952D01*
X443272Y335380D01*
X444665Y332019D01*
X444665Y328381D01*
X443272Y325020D01*
X440700Y322448D01*
X437339Y321055D01*
X418461Y321055D01*
G37*
%LPD*%
%LPC*%
G36*
X418461Y244855D02*
X418461Y244855D01*
X415100Y246248D01*
X412528Y248820D01*
X411135Y252181D01*
X411135Y255819D01*
X412528Y259180D01*
X415100Y261752D01*
X418461Y263145D01*
X437339Y263145D01*
X440700Y261752D01*
X443272Y259180D01*
X444665Y255819D01*
X444665Y252181D01*
X443272Y248820D01*
X440700Y246248D01*
X437339Y244855D01*
X418461Y244855D01*
G37*
%LPD*%
%LPC*%
G36*
X418461Y346455D02*
X418461Y346455D01*
X415100Y347848D01*
X412528Y350420D01*
X411135Y353781D01*
X411135Y357419D01*
X412528Y360780D01*
X415100Y363352D01*
X418461Y364745D01*
X437339Y364745D01*
X440700Y363352D01*
X443272Y360780D01*
X444665Y357419D01*
X444665Y353781D01*
X443272Y350420D01*
X440700Y347848D01*
X437339Y346455D01*
X418461Y346455D01*
G37*
%LPD*%
%LPC*%
G36*
X156848Y384555D02*
X156848Y384555D01*
X155955Y385448D01*
X155955Y401952D01*
X156848Y402845D01*
X173352Y402845D01*
X174245Y401952D01*
X174245Y385448D01*
X173352Y384555D01*
X156848Y384555D01*
G37*
%LPD*%
%LPC*%
G36*
X163281Y54355D02*
X163281Y54355D01*
X159920Y55748D01*
X157348Y58320D01*
X155955Y61681D01*
X155955Y65319D01*
X157348Y68680D01*
X159920Y71252D01*
X163281Y72645D01*
X166919Y72645D01*
X170280Y71252D01*
X172852Y68680D01*
X174245Y65319D01*
X174245Y61681D01*
X172852Y58320D01*
X170280Y55748D01*
X166919Y54355D01*
X163281Y54355D01*
G37*
%LPD*%
%LPC*%
G36*
X315681Y28955D02*
X315681Y28955D01*
X312320Y30348D01*
X309748Y32920D01*
X308355Y36281D01*
X308355Y39919D01*
X309748Y43280D01*
X312320Y45852D01*
X315681Y47245D01*
X319319Y47245D01*
X322680Y45852D01*
X325252Y43280D01*
X326645Y39919D01*
X326645Y36281D01*
X325252Y32920D01*
X322680Y30348D01*
X319319Y28955D01*
X315681Y28955D01*
G37*
%LPD*%
%LPC*%
G36*
X315681Y333755D02*
X315681Y333755D01*
X312320Y335148D01*
X309748Y337720D01*
X308355Y341081D01*
X308355Y344719D01*
X309748Y348080D01*
X312320Y350652D01*
X315681Y352045D01*
X319319Y352045D01*
X322680Y350652D01*
X325252Y348080D01*
X326645Y344719D01*
X326645Y341081D01*
X325252Y337720D01*
X322680Y335148D01*
X319319Y333755D01*
X315681Y333755D01*
G37*
%LPD*%
%LPC*%
G36*
X163281Y333755D02*
X163281Y333755D01*
X159920Y335148D01*
X157348Y337720D01*
X155955Y341081D01*
X155955Y344719D01*
X157348Y348080D01*
X159920Y350652D01*
X163281Y352045D01*
X166919Y352045D01*
X170280Y350652D01*
X172852Y348080D01*
X174245Y344719D01*
X174245Y341081D01*
X172852Y337720D01*
X170280Y335148D01*
X166919Y333755D01*
X163281Y333755D01*
G37*
%LPD*%
%LPC*%
G36*
X48981Y689355D02*
X48981Y689355D01*
X45620Y690748D01*
X43048Y693320D01*
X41655Y696681D01*
X41655Y700319D01*
X43048Y703680D01*
X45620Y706252D01*
X48981Y707645D01*
X52619Y707645D01*
X55980Y706252D01*
X58552Y703680D01*
X59945Y700319D01*
X59945Y696681D01*
X58552Y693320D01*
X55980Y690748D01*
X52619Y689355D01*
X48981Y689355D01*
G37*
%LPD*%
%LPC*%
G36*
X48981Y663955D02*
X48981Y663955D01*
X45620Y665348D01*
X43048Y667920D01*
X41655Y671281D01*
X41655Y674919D01*
X43048Y678280D01*
X45620Y680852D01*
X48981Y682245D01*
X52619Y682245D01*
X55980Y680852D01*
X58552Y678280D01*
X59945Y674919D01*
X59945Y671281D01*
X58552Y667920D01*
X55980Y665348D01*
X52619Y663955D01*
X48981Y663955D01*
G37*
%LPD*%
%LPC*%
G36*
X48981Y625855D02*
X48981Y625855D01*
X45620Y627248D01*
X43048Y629820D01*
X41655Y633181D01*
X41655Y636819D01*
X43048Y640180D01*
X45620Y642752D01*
X48981Y644145D01*
X52619Y644145D01*
X55980Y642752D01*
X58552Y640180D01*
X59945Y636819D01*
X59945Y633181D01*
X58552Y629820D01*
X55980Y627248D01*
X52619Y625855D01*
X48981Y625855D01*
G37*
%LPD*%
%LPC*%
G36*
X315681Y308355D02*
X315681Y308355D01*
X312320Y309748D01*
X309748Y312320D01*
X308355Y315681D01*
X308355Y319319D01*
X309748Y322680D01*
X312320Y325252D01*
X315681Y326645D01*
X319319Y326645D01*
X322680Y325252D01*
X325252Y322680D01*
X326645Y319319D01*
X326645Y315681D01*
X325252Y312320D01*
X322680Y309748D01*
X319319Y308355D01*
X315681Y308355D01*
G37*
%LPD*%
%LPC*%
G36*
X163281Y28955D02*
X163281Y28955D01*
X159920Y30348D01*
X157348Y32920D01*
X155955Y36281D01*
X155955Y39919D01*
X157348Y43280D01*
X159920Y45852D01*
X163281Y47245D01*
X166919Y47245D01*
X170280Y45852D01*
X172852Y43280D01*
X174245Y39919D01*
X174245Y36281D01*
X172852Y32920D01*
X170280Y30348D01*
X166919Y28955D01*
X163281Y28955D01*
G37*
%LPD*%
%LPC*%
G36*
X48981Y282955D02*
X48981Y282955D01*
X45620Y284348D01*
X43048Y286920D01*
X41655Y290281D01*
X41655Y293919D01*
X43048Y297280D01*
X45620Y299852D01*
X48981Y301245D01*
X52619Y301245D01*
X55980Y299852D01*
X58552Y297280D01*
X59945Y293919D01*
X59945Y290281D01*
X58552Y286920D01*
X55980Y284348D01*
X52619Y282955D01*
X48981Y282955D01*
G37*
%LPD*%
%LPC*%
G36*
X315681Y282955D02*
X315681Y282955D01*
X312320Y284348D01*
X309748Y286920D01*
X308355Y290281D01*
X308355Y293919D01*
X309748Y297280D01*
X312320Y299852D01*
X315681Y301245D01*
X319319Y301245D01*
X322680Y299852D01*
X325252Y297280D01*
X326645Y293919D01*
X326645Y290281D01*
X325252Y286920D01*
X322680Y284348D01*
X319319Y282955D01*
X315681Y282955D01*
G37*
%LPD*%
%LPC*%
G36*
X315681Y257555D02*
X315681Y257555D01*
X312320Y258948D01*
X309748Y261520D01*
X308355Y264881D01*
X308355Y268519D01*
X309748Y271880D01*
X312320Y274452D01*
X315681Y275845D01*
X319319Y275845D01*
X322680Y274452D01*
X325252Y271880D01*
X326645Y268519D01*
X326645Y264881D01*
X325252Y261520D01*
X322680Y258948D01*
X319319Y257555D01*
X315681Y257555D01*
G37*
%LPD*%
%LPC*%
G36*
X315681Y232155D02*
X315681Y232155D01*
X312320Y233548D01*
X309748Y236120D01*
X308355Y239481D01*
X308355Y243119D01*
X309748Y246480D01*
X312320Y249052D01*
X315681Y250445D01*
X319319Y250445D01*
X322680Y249052D01*
X325252Y246480D01*
X326645Y243119D01*
X326645Y239481D01*
X325252Y236120D01*
X322680Y233548D01*
X319319Y232155D01*
X315681Y232155D01*
G37*
%LPD*%
%LPC*%
G36*
X315681Y206755D02*
X315681Y206755D01*
X312320Y208148D01*
X309748Y210720D01*
X308355Y214081D01*
X308355Y217719D01*
X309748Y221080D01*
X312320Y223652D01*
X315681Y225045D01*
X319319Y225045D01*
X322680Y223652D01*
X325252Y221080D01*
X326645Y217719D01*
X326645Y214081D01*
X325252Y210720D01*
X322680Y208148D01*
X319319Y206755D01*
X315681Y206755D01*
G37*
%LPD*%
%LPC*%
G36*
X315681Y181355D02*
X315681Y181355D01*
X312320Y182748D01*
X309748Y185320D01*
X308355Y188681D01*
X308355Y192319D01*
X309748Y195680D01*
X312320Y198252D01*
X315681Y199645D01*
X319319Y199645D01*
X322680Y198252D01*
X325252Y195680D01*
X326645Y192319D01*
X326645Y188681D01*
X325252Y185320D01*
X322680Y182748D01*
X319319Y181355D01*
X315681Y181355D01*
G37*
%LPD*%
%LPC*%
G36*
X48981Y524255D02*
X48981Y524255D01*
X45620Y525648D01*
X43048Y528220D01*
X41655Y531581D01*
X41655Y535219D01*
X43048Y538580D01*
X45620Y541152D01*
X48981Y542545D01*
X52619Y542545D01*
X55980Y541152D01*
X58552Y538580D01*
X59945Y535219D01*
X59945Y531581D01*
X58552Y528220D01*
X55980Y525648D01*
X52619Y524255D01*
X48981Y524255D01*
G37*
%LPD*%
%LPC*%
G36*
X48981Y181355D02*
X48981Y181355D01*
X45620Y182748D01*
X43048Y185320D01*
X41655Y188681D01*
X41655Y192319D01*
X43048Y195680D01*
X45620Y198252D01*
X48981Y199645D01*
X52619Y199645D01*
X55980Y198252D01*
X58552Y195680D01*
X59945Y192319D01*
X59945Y188681D01*
X58552Y185320D01*
X55980Y182748D01*
X52619Y181355D01*
X48981Y181355D01*
G37*
%LPD*%
%LPC*%
G36*
X163281Y130555D02*
X163281Y130555D01*
X159920Y131948D01*
X157348Y134520D01*
X155955Y137881D01*
X155955Y141519D01*
X157348Y144880D01*
X159920Y147452D01*
X163281Y148845D01*
X166919Y148845D01*
X170280Y147452D01*
X172852Y144880D01*
X174245Y141519D01*
X174245Y137881D01*
X172852Y134520D01*
X170280Y131948D01*
X166919Y130555D01*
X163281Y130555D01*
G37*
%LPD*%
%LPC*%
G36*
X163281Y105155D02*
X163281Y105155D01*
X159920Y106548D01*
X157348Y109120D01*
X155955Y112481D01*
X155955Y116119D01*
X157348Y119480D01*
X159920Y122052D01*
X163281Y123445D01*
X166919Y123445D01*
X170280Y122052D01*
X172852Y119480D01*
X174245Y116119D01*
X174245Y112481D01*
X172852Y109120D01*
X170280Y106548D01*
X166919Y105155D01*
X163281Y105155D01*
G37*
%LPD*%
%LPC*%
G36*
X315681Y79755D02*
X315681Y79755D01*
X312320Y81148D01*
X309748Y83720D01*
X308355Y87081D01*
X308355Y90719D01*
X309748Y94080D01*
X312320Y96652D01*
X315681Y98045D01*
X319319Y98045D01*
X322680Y96652D01*
X325252Y94080D01*
X326645Y90719D01*
X326645Y87081D01*
X325252Y83720D01*
X322680Y81148D01*
X319319Y79755D01*
X315681Y79755D01*
G37*
%LPD*%
%LPC*%
G36*
X48981Y448055D02*
X48981Y448055D01*
X45620Y449448D01*
X43048Y452020D01*
X41655Y455381D01*
X41655Y459019D01*
X43048Y462380D01*
X45620Y464952D01*
X48981Y466345D01*
X52619Y466345D01*
X55980Y464952D01*
X58552Y462380D01*
X59945Y459019D01*
X59945Y455381D01*
X58552Y452020D01*
X55980Y449448D01*
X52619Y448055D01*
X48981Y448055D01*
G37*
%LPD*%
%LPC*%
G36*
X315681Y384555D02*
X315681Y384555D01*
X312320Y385948D01*
X309748Y388520D01*
X308355Y391881D01*
X308355Y395519D01*
X309748Y398880D01*
X312320Y401452D01*
X315681Y402845D01*
X319319Y402845D01*
X322680Y401452D01*
X325252Y398880D01*
X326645Y395519D01*
X326645Y391881D01*
X325252Y388520D01*
X322680Y385948D01*
X319319Y384555D01*
X315681Y384555D01*
G37*
%LPD*%
%LPC*%
G36*
X163281Y79755D02*
X163281Y79755D01*
X159920Y81148D01*
X157348Y83720D01*
X155955Y87081D01*
X155955Y90719D01*
X157348Y94080D01*
X159920Y96652D01*
X163281Y98045D01*
X166919Y98045D01*
X170280Y96652D01*
X172852Y94080D01*
X174245Y90719D01*
X174245Y87081D01*
X172852Y83720D01*
X170280Y81148D01*
X166919Y79755D01*
X163281Y79755D01*
G37*
%LPD*%
%LPC*%
G36*
X315681Y54355D02*
X315681Y54355D01*
X312320Y55748D01*
X309748Y58320D01*
X308355Y61681D01*
X308355Y65319D01*
X309748Y68680D01*
X312320Y71252D01*
X315681Y72645D01*
X319319Y72645D01*
X322680Y71252D01*
X325252Y68680D01*
X326645Y65319D01*
X326645Y61681D01*
X325252Y58320D01*
X322680Y55748D01*
X319319Y54355D01*
X315681Y54355D01*
G37*
%LPD*%
%LPC*%
G36*
X163281Y359155D02*
X163281Y359155D01*
X159920Y360548D01*
X157348Y363120D01*
X155955Y366481D01*
X155955Y370119D01*
X157348Y373480D01*
X159920Y376052D01*
X163281Y377445D01*
X166919Y377445D01*
X170280Y376052D01*
X172852Y373480D01*
X174245Y370119D01*
X174245Y366481D01*
X172852Y363120D01*
X170280Y360548D01*
X166919Y359155D01*
X163281Y359155D01*
G37*
%LPD*%
%LPC*%
G36*
X281939Y751839D02*
X281939Y751839D01*
X281939Y766779D01*
X283300Y766336D01*
X284725Y765610D01*
X286019Y764670D01*
X287150Y763539D01*
X288090Y762245D01*
X288816Y760820D01*
X289311Y759299D01*
X289561Y757720D01*
X289561Y751839D01*
X281939Y751839D01*
G37*
%LPD*%
%LPC*%
G36*
X430439Y129539D02*
X430439Y129539D01*
X430439Y137161D01*
X436320Y137161D01*
X437899Y136911D01*
X439420Y136416D01*
X440845Y135690D01*
X442139Y134750D01*
X443270Y133619D01*
X444210Y132325D01*
X444936Y130900D01*
X445379Y129539D01*
X430439Y129539D01*
G37*
%LPD*%
%LPC*%
G36*
X430439Y231139D02*
X430439Y231139D01*
X430439Y238761D01*
X436320Y238761D01*
X437899Y238511D01*
X439420Y238016D01*
X440845Y237290D01*
X442139Y236350D01*
X443270Y235219D01*
X444210Y233925D01*
X444936Y232500D01*
X445379Y231139D01*
X430439Y231139D01*
G37*
%LPD*%
%LPC*%
G36*
X410421Y129539D02*
X410421Y129539D01*
X410864Y130900D01*
X411590Y132325D01*
X412530Y133619D01*
X413661Y134750D01*
X414955Y135690D01*
X416380Y136416D01*
X417901Y136911D01*
X419480Y137161D01*
X425361Y137161D01*
X425361Y129539D01*
X410421Y129539D01*
G37*
%LPD*%
%LPC*%
G36*
X410421Y231139D02*
X410421Y231139D01*
X410864Y232500D01*
X411590Y233925D01*
X412530Y235219D01*
X413661Y236350D01*
X414955Y237290D01*
X416380Y238016D01*
X417901Y238511D01*
X419480Y238761D01*
X425361Y238761D01*
X425361Y231139D01*
X410421Y231139D01*
G37*
%LPD*%
%LPC*%
G36*
X281939Y746761D02*
X281939Y746761D01*
X289561Y746761D01*
X289561Y740880D01*
X289311Y739301D01*
X288816Y737780D01*
X288090Y736355D01*
X287150Y735061D01*
X286019Y733930D01*
X284725Y732990D01*
X283300Y732264D01*
X281939Y731821D01*
X281939Y746761D01*
G37*
%LPD*%
%LPC*%
G36*
X269239Y751839D02*
X269239Y751839D01*
X269239Y757720D01*
X269489Y759299D01*
X269984Y760820D01*
X270710Y762245D01*
X271650Y763539D01*
X272781Y764670D01*
X274075Y765610D01*
X275500Y766336D01*
X276861Y766779D01*
X276861Y751839D01*
X269239Y751839D01*
G37*
%LPD*%
%LPC*%
G36*
X430439Y218439D02*
X430439Y218439D01*
X430439Y226061D01*
X445379Y226061D01*
X444936Y224700D01*
X444210Y223275D01*
X443270Y221981D01*
X442139Y220850D01*
X440845Y219910D01*
X439420Y219184D01*
X437899Y218689D01*
X436320Y218439D01*
X430439Y218439D01*
G37*
%LPD*%
%LPC*%
G36*
X430439Y116839D02*
X430439Y116839D01*
X430439Y124461D01*
X445379Y124461D01*
X444936Y123100D01*
X444210Y121675D01*
X443270Y120381D01*
X442139Y119250D01*
X440845Y118310D01*
X439420Y117584D01*
X437899Y117089D01*
X436320Y116839D01*
X430439Y116839D01*
G37*
%LPD*%
%LPC*%
G36*
X275500Y732264D02*
X275500Y732264D01*
X274075Y732990D01*
X272781Y733930D01*
X271650Y735061D01*
X270710Y736355D01*
X269984Y737780D01*
X269489Y739301D01*
X269239Y740880D01*
X269239Y746761D01*
X276861Y746761D01*
X276861Y731821D01*
X275500Y732264D01*
G37*
%LPD*%
%LPC*%
G36*
X419480Y218439D02*
X419480Y218439D01*
X417901Y218689D01*
X416380Y219184D01*
X414955Y219910D01*
X413661Y220850D01*
X412530Y221981D01*
X411590Y223275D01*
X410864Y224700D01*
X410421Y226061D01*
X425361Y226061D01*
X425361Y218439D01*
X419480Y218439D01*
G37*
%LPD*%
%LPC*%
G36*
X419480Y116839D02*
X419480Y116839D01*
X417901Y117089D01*
X416380Y117584D01*
X414955Y118310D01*
X413661Y119250D01*
X412530Y120381D01*
X411590Y121675D01*
X410864Y123100D01*
X410421Y124461D01*
X425361Y124461D01*
X425361Y116839D01*
X419480Y116839D01*
G37*
%LPD*%
%LPC*%
G36*
X53339Y612139D02*
X53339Y612139D01*
X53339Y619459D01*
X54700Y619016D01*
X56125Y618290D01*
X57419Y617350D01*
X58550Y616219D01*
X59490Y614925D01*
X60216Y613500D01*
X60659Y612139D01*
X53339Y612139D01*
G37*
%LPD*%
%LPC*%
G36*
X320039Y370839D02*
X320039Y370839D01*
X320039Y378159D01*
X321400Y377716D01*
X322825Y376990D01*
X324119Y376050D01*
X325250Y374919D01*
X326190Y373625D01*
X326916Y372200D01*
X327359Y370839D01*
X320039Y370839D01*
G37*
%LPD*%
%LPC*%
G36*
X53339Y167639D02*
X53339Y167639D01*
X53339Y174959D01*
X54700Y174516D01*
X56125Y173790D01*
X57419Y172850D01*
X58550Y171719D01*
X59490Y170425D01*
X60216Y169000D01*
X60659Y167639D01*
X53339Y167639D01*
G37*
%LPD*%
%LPC*%
G36*
X53339Y561339D02*
X53339Y561339D01*
X53339Y568659D01*
X54700Y568216D01*
X56125Y567490D01*
X57419Y566550D01*
X58550Y565419D01*
X59490Y564125D01*
X60216Y562700D01*
X60659Y561339D01*
X53339Y561339D01*
G37*
%LPD*%
%LPC*%
G36*
X53339Y485139D02*
X53339Y485139D01*
X53339Y492459D01*
X54700Y492016D01*
X56125Y491290D01*
X57419Y490350D01*
X58550Y489219D01*
X59490Y487925D01*
X60216Y486500D01*
X60659Y485139D01*
X53339Y485139D01*
G37*
%LPD*%
%LPC*%
G36*
X53339Y142239D02*
X53339Y142239D01*
X53339Y149559D01*
X54700Y149116D01*
X56125Y148390D01*
X57419Y147450D01*
X58550Y146319D01*
X59490Y145025D01*
X60216Y143600D01*
X60659Y142239D01*
X53339Y142239D01*
G37*
%LPD*%
%LPC*%
G36*
X53339Y269239D02*
X53339Y269239D01*
X53339Y276559D01*
X54700Y276116D01*
X56125Y275390D01*
X57419Y274450D01*
X58550Y273319D01*
X59490Y272025D01*
X60216Y270600D01*
X60659Y269239D01*
X53339Y269239D01*
G37*
%LPD*%
%LPC*%
G36*
X53339Y243839D02*
X53339Y243839D01*
X53339Y251159D01*
X54700Y250716D01*
X56125Y249990D01*
X57419Y249050D01*
X58550Y247919D01*
X59490Y246625D01*
X60216Y245200D01*
X60659Y243839D01*
X53339Y243839D01*
G37*
%LPD*%
%LPC*%
G36*
X167639Y320039D02*
X167639Y320039D01*
X167639Y327359D01*
X169000Y326916D01*
X170425Y326190D01*
X171719Y325250D01*
X172850Y324119D01*
X173790Y322825D01*
X174516Y321400D01*
X174959Y320039D01*
X167639Y320039D01*
G37*
%LPD*%
%LPC*%
G36*
X53339Y358139D02*
X53339Y358139D01*
X53339Y365459D01*
X54700Y365016D01*
X56125Y364290D01*
X57419Y363350D01*
X58550Y362219D01*
X59490Y360925D01*
X60216Y359500D01*
X60659Y358139D01*
X53339Y358139D01*
G37*
%LPD*%
%LPC*%
G36*
X307641Y370839D02*
X307641Y370839D01*
X308084Y372200D01*
X308810Y373625D01*
X309750Y374919D01*
X310881Y376050D01*
X312175Y376990D01*
X313600Y377716D01*
X314961Y378159D01*
X314961Y370839D01*
X307641Y370839D01*
G37*
%LPD*%
%LPC*%
G36*
X320039Y365761D02*
X320039Y365761D01*
X327359Y365761D01*
X326916Y364400D01*
X326190Y362975D01*
X325250Y361681D01*
X324119Y360550D01*
X322825Y359610D01*
X321400Y358884D01*
X320039Y358441D01*
X320039Y365761D01*
G37*
%LPD*%
%LPC*%
G36*
X53339Y238761D02*
X53339Y238761D01*
X60659Y238761D01*
X60216Y237400D01*
X59490Y235975D01*
X58550Y234681D01*
X57419Y233550D01*
X56125Y232610D01*
X54700Y231884D01*
X53339Y231441D01*
X53339Y238761D01*
G37*
%LPD*%
%LPC*%
G36*
X40941Y269239D02*
X40941Y269239D01*
X41384Y270600D01*
X42110Y272025D01*
X43050Y273319D01*
X44181Y274450D01*
X45475Y275390D01*
X46900Y276116D01*
X48261Y276559D01*
X48261Y269239D01*
X40941Y269239D01*
G37*
%LPD*%
%LPC*%
G36*
X53339Y353061D02*
X53339Y353061D01*
X60659Y353061D01*
X60216Y351700D01*
X59490Y350275D01*
X58550Y348981D01*
X57419Y347850D01*
X56125Y346910D01*
X54700Y346184D01*
X53339Y345741D01*
X53339Y353061D01*
G37*
%LPD*%
%LPC*%
G36*
X40941Y167639D02*
X40941Y167639D01*
X41384Y169000D01*
X42110Y170425D01*
X43050Y171719D01*
X44181Y172850D01*
X45475Y173790D01*
X46900Y174516D01*
X48261Y174959D01*
X48261Y167639D01*
X40941Y167639D01*
G37*
%LPD*%
%LPC*%
G36*
X53339Y162561D02*
X53339Y162561D01*
X60659Y162561D01*
X60216Y161200D01*
X59490Y159775D01*
X58550Y158481D01*
X57419Y157350D01*
X56125Y156410D01*
X54700Y155684D01*
X53339Y155241D01*
X53339Y162561D01*
G37*
%LPD*%
%LPC*%
G36*
X40941Y142239D02*
X40941Y142239D01*
X41384Y143600D01*
X42110Y145025D01*
X43050Y146319D01*
X44181Y147450D01*
X45475Y148390D01*
X46900Y149116D01*
X48261Y149559D01*
X48261Y142239D01*
X40941Y142239D01*
G37*
%LPD*%
%LPC*%
G36*
X53339Y137161D02*
X53339Y137161D01*
X60659Y137161D01*
X60216Y135800D01*
X59490Y134375D01*
X58550Y133081D01*
X57419Y131950D01*
X56125Y131010D01*
X54700Y130284D01*
X53339Y129841D01*
X53339Y137161D01*
G37*
%LPD*%
%LPC*%
G36*
X40941Y612139D02*
X40941Y612139D01*
X41384Y613500D01*
X42110Y614925D01*
X43050Y616219D01*
X44181Y617350D01*
X45475Y618290D01*
X46900Y619016D01*
X48261Y619459D01*
X48261Y612139D01*
X40941Y612139D01*
G37*
%LPD*%
%LPC*%
G36*
X53339Y607061D02*
X53339Y607061D01*
X60659Y607061D01*
X60216Y605700D01*
X59490Y604275D01*
X58550Y602981D01*
X57419Y601850D01*
X56125Y600910D01*
X54700Y600184D01*
X53339Y599741D01*
X53339Y607061D01*
G37*
%LPD*%
%LPC*%
G36*
X40941Y561339D02*
X40941Y561339D01*
X41384Y562700D01*
X42110Y564125D01*
X43050Y565419D01*
X44181Y566550D01*
X45475Y567490D01*
X46900Y568216D01*
X48261Y568659D01*
X48261Y561339D01*
X40941Y561339D01*
G37*
%LPD*%
%LPC*%
G36*
X53339Y264161D02*
X53339Y264161D01*
X60659Y264161D01*
X60216Y262800D01*
X59490Y261375D01*
X58550Y260081D01*
X57419Y258950D01*
X56125Y258010D01*
X54700Y257284D01*
X53339Y256841D01*
X53339Y264161D01*
G37*
%LPD*%
%LPC*%
G36*
X53339Y556261D02*
X53339Y556261D01*
X60659Y556261D01*
X60216Y554900D01*
X59490Y553475D01*
X58550Y552181D01*
X57419Y551050D01*
X56125Y550110D01*
X54700Y549384D01*
X53339Y548941D01*
X53339Y556261D01*
G37*
%LPD*%
%LPC*%
G36*
X167639Y314961D02*
X167639Y314961D01*
X174959Y314961D01*
X174516Y313600D01*
X173790Y312175D01*
X172850Y310881D01*
X171719Y309750D01*
X170425Y308810D01*
X169000Y308084D01*
X167639Y307641D01*
X167639Y314961D01*
G37*
%LPD*%
%LPC*%
G36*
X40941Y485139D02*
X40941Y485139D01*
X41384Y486500D01*
X42110Y487925D01*
X43050Y489219D01*
X44181Y490350D01*
X45475Y491290D01*
X46900Y492016D01*
X48261Y492459D01*
X48261Y485139D01*
X40941Y485139D01*
G37*
%LPD*%
%LPC*%
G36*
X40941Y358139D02*
X40941Y358139D01*
X41384Y359500D01*
X42110Y360925D01*
X43050Y362219D01*
X44181Y363350D01*
X45475Y364290D01*
X46900Y365016D01*
X48261Y365459D01*
X48261Y358139D01*
X40941Y358139D01*
G37*
%LPD*%
%LPC*%
G36*
X40941Y243839D02*
X40941Y243839D01*
X41384Y245200D01*
X42110Y246625D01*
X43050Y247919D01*
X44181Y249050D01*
X45475Y249990D01*
X46900Y250716D01*
X48261Y251159D01*
X48261Y243839D01*
X40941Y243839D01*
G37*
%LPD*%
%LPC*%
G36*
X155241Y320039D02*
X155241Y320039D01*
X155684Y321400D01*
X156410Y322825D01*
X157350Y324119D01*
X158481Y325250D01*
X159775Y326190D01*
X161200Y326916D01*
X162561Y327359D01*
X162561Y320039D01*
X155241Y320039D01*
G37*
%LPD*%
%LPC*%
G36*
X53339Y480061D02*
X53339Y480061D01*
X60659Y480061D01*
X60216Y478700D01*
X59490Y477275D01*
X58550Y475981D01*
X57419Y474850D01*
X56125Y473910D01*
X54700Y473184D01*
X53339Y472741D01*
X53339Y480061D01*
G37*
%LPD*%
%LPC*%
G36*
X46900Y155684D02*
X46900Y155684D01*
X45475Y156410D01*
X44181Y157350D01*
X43050Y158481D01*
X42110Y159775D01*
X41384Y161200D01*
X40941Y162561D01*
X48261Y162561D01*
X48261Y155241D01*
X46900Y155684D01*
G37*
%LPD*%
%LPC*%
G36*
X46900Y346184D02*
X46900Y346184D01*
X45475Y346910D01*
X44181Y347850D01*
X43050Y348981D01*
X42110Y350275D01*
X41384Y351700D01*
X40941Y353061D01*
X48261Y353061D01*
X48261Y345741D01*
X46900Y346184D01*
G37*
%LPD*%
%LPC*%
G36*
X46900Y473184D02*
X46900Y473184D01*
X45475Y473910D01*
X44181Y474850D01*
X43050Y475981D01*
X42110Y477275D01*
X41384Y478700D01*
X40941Y480061D01*
X48261Y480061D01*
X48261Y472741D01*
X46900Y473184D01*
G37*
%LPD*%
%LPC*%
G36*
X46900Y257284D02*
X46900Y257284D01*
X45475Y258010D01*
X44181Y258950D01*
X43050Y260081D01*
X42110Y261375D01*
X41384Y262800D01*
X40941Y264161D01*
X48261Y264161D01*
X48261Y256841D01*
X46900Y257284D01*
G37*
%LPD*%
%LPC*%
G36*
X46900Y549384D02*
X46900Y549384D01*
X45475Y550110D01*
X44181Y551050D01*
X43050Y552181D01*
X42110Y553475D01*
X41384Y554900D01*
X40941Y556261D01*
X48261Y556261D01*
X48261Y548941D01*
X46900Y549384D01*
G37*
%LPD*%
%LPC*%
G36*
X46900Y600184D02*
X46900Y600184D01*
X45475Y600910D01*
X44181Y601850D01*
X43050Y602981D01*
X42110Y604275D01*
X41384Y605700D01*
X40941Y607061D01*
X48261Y607061D01*
X48261Y599741D01*
X46900Y600184D01*
G37*
%LPD*%
%LPC*%
G36*
X46900Y231884D02*
X46900Y231884D01*
X45475Y232610D01*
X44181Y233550D01*
X43050Y234681D01*
X42110Y235975D01*
X41384Y237400D01*
X40941Y238761D01*
X48261Y238761D01*
X48261Y231441D01*
X46900Y231884D01*
G37*
%LPD*%
%LPC*%
G36*
X313600Y358884D02*
X313600Y358884D01*
X312175Y359610D01*
X310881Y360550D01*
X309750Y361681D01*
X308810Y362975D01*
X308084Y364400D01*
X307641Y365761D01*
X314961Y365761D01*
X314961Y358441D01*
X313600Y358884D01*
G37*
%LPD*%
%LPC*%
G36*
X161200Y308084D02*
X161200Y308084D01*
X159775Y308810D01*
X158481Y309750D01*
X157350Y310881D01*
X156410Y312175D01*
X155684Y313600D01*
X155241Y314961D01*
X162561Y314961D01*
X162561Y307641D01*
X161200Y308084D01*
G37*
%LPD*%
%LPC*%
G36*
X46900Y130284D02*
X46900Y130284D01*
X45475Y131010D01*
X44181Y131950D01*
X43050Y133081D01*
X42110Y134375D01*
X41384Y135800D01*
X40941Y137161D01*
X48261Y137161D01*
X48261Y129841D01*
X46900Y130284D01*
G37*
%LPD*%
D10*
X254000Y741680D02*
X254000Y756920D01*
X279400Y756920D02*
X279400Y741680D01*
X304800Y741680D02*
X304800Y756920D01*
D11*
X165100Y215900D03*
X165100Y241300D03*
X165100Y266700D03*
X165100Y292100D03*
X165100Y317500D03*
X165100Y342900D03*
D12*
X165100Y393700D03*
D11*
X165100Y190500D03*
X165100Y165100D03*
X165100Y139700D03*
X165100Y114300D03*
X165100Y88900D03*
X165100Y63500D03*
X165100Y38100D03*
X165100Y368300D03*
X317500Y393700D03*
X317500Y368300D03*
X317500Y342900D03*
X317500Y317500D03*
X317500Y292100D03*
X317500Y266700D03*
X317500Y241300D03*
X317500Y215900D03*
X317500Y190500D03*
X317500Y165100D03*
X317500Y139700D03*
X317500Y114300D03*
X317500Y88900D03*
X317500Y63500D03*
X317500Y38100D03*
D10*
X420280Y127000D02*
X435520Y127000D01*
X435520Y152400D02*
X420280Y152400D01*
X420280Y177800D02*
X435520Y177800D01*
X435520Y203200D02*
X420280Y203200D01*
X420280Y228600D02*
X435520Y228600D01*
X435520Y254000D02*
X420280Y254000D01*
X420280Y279400D02*
X435520Y279400D01*
X435520Y304800D02*
X420280Y304800D01*
X420280Y330200D02*
X435520Y330200D01*
X435520Y355600D02*
X420280Y355600D01*
X420280Y381000D02*
X435520Y381000D01*
X435520Y406400D02*
X420280Y406400D01*
X420280Y431800D02*
X435520Y431800D01*
X435520Y457200D02*
X420280Y457200D01*
X420280Y482600D02*
X435520Y482600D01*
X435520Y508000D02*
X420280Y508000D01*
D11*
X50800Y635000D03*
X50800Y609600D03*
X50800Y558800D03*
X50800Y533400D03*
X50800Y482600D03*
X50800Y457200D03*
X50800Y292100D03*
X50800Y266700D03*
X50800Y241300D03*
X50800Y190500D03*
X50800Y165100D03*
X50800Y139700D03*
X50800Y698500D03*
X50800Y673100D03*
X50800Y406400D03*
X50800Y381000D03*
X50800Y355600D03*
D13*
X50800Y406400D02*
X91440Y406400D01*
X108712Y389128D01*
X108712Y255764D02*
X160260Y204216D01*
X261860Y204216D02*
X313676Y152400D01*
X261860Y204216D02*
X160260Y204216D01*
X108712Y255764D02*
X108712Y389128D01*
X313676Y152400D02*
X427900Y152400D01*
D14*
X368300Y685800D02*
X304800Y749300D01*
X368300Y685800D02*
X368300Y553720D01*
D15*
X368300Y553720D03*
D14*
X103124Y328676D02*
X50800Y381000D01*
X251968Y179832D02*
X317500Y114300D01*
X251968Y179832D02*
X160681Y179832D01*
X103124Y237389D02*
X103124Y328676D01*
X103124Y237389D02*
X160681Y179832D01*
X165100Y292100D02*
X129540Y327660D01*
X129540Y340360D01*
X129540Y342900D01*
X129540Y340360D02*
X129540Y398780D01*
X187960Y457200D01*
X427900Y457200D01*
X165100Y266700D02*
X124460Y307340D01*
X124460Y340360D01*
X124460Y342900D01*
X124968Y340868D02*
X124460Y340360D01*
X124968Y340868D02*
X124968Y400674D01*
X186574Y462280D01*
X410273Y462280D02*
X415861Y467868D01*
X439939Y467868D01*
X446188Y461619D01*
X446188Y440272D01*
X410273Y462280D02*
X186574Y462280D01*
X437716Y431800D02*
X446188Y440272D01*
X437716Y431800D02*
X427900Y431800D01*
X119380Y342900D02*
X119380Y287020D01*
X165100Y241300D01*
X119380Y342900D02*
X119888Y343408D01*
X119888Y402060D01*
X185188Y467360D01*
X406400Y467360D01*
X409612Y487019D02*
X415861Y493268D01*
X439939Y493268D01*
X409612Y470572D02*
X406400Y467360D01*
X409612Y470572D02*
X409612Y487019D01*
X439939Y493268D02*
X452120Y481087D01*
X452120Y416560D01*
X441960Y406400D01*
X427900Y406400D01*
X165100Y215900D02*
X114300Y266700D01*
X114300Y403860D01*
X182372Y471932D01*
X403860Y471932D01*
X415861Y518668D02*
X439939Y518668D01*
X405040Y473112D02*
X403860Y471932D01*
X405040Y473112D02*
X405040Y507847D01*
X415861Y518668D01*
X439939Y518668D02*
X457200Y501407D01*
X457200Y391160D01*
X447040Y381000D02*
X427900Y381000D01*
X447040Y381000D02*
X457200Y391160D01*
M02*
