M48
;GenerationSoftware,Autodesk,EAGLE,9.1.1*%
;CreationDate,2018-08-04T18:42:34Z*%
FMAT,2
ICI,OFF
METRIC,TZ,000.000
T3C0.350
T2C1.016
T1C2.500
%
G90
M71
T1
X11170Y82200
X42170Y7200
X11170Y7200
X42170Y82200
T2
X16510Y21590
X25400Y74930
X27940Y74930
X30480Y74930
X16510Y16510
X16510Y24130
X16510Y26670
X16510Y29210
X16510Y31750
X16510Y34290
X16510Y39370
X16510Y19050
X5080Y35560
X16510Y13970
X16510Y11430
X16510Y8890
X16510Y6350
X16510Y3810
X16510Y36830
X31750Y39370
X31750Y36830
X31750Y34290
X31750Y31750
X31750Y29210
X31750Y26670
X31750Y24130
X31750Y21590
X31750Y19050
X31750Y16510
X31750Y13970
X31750Y11430
X31750Y8890
X31750Y6350
X31750Y3810
X42790Y12700
X42790Y15240
X42790Y17780
X42790Y20320
X42790Y22860
X42790Y25400
X42790Y27940
X42790Y30480
X42790Y33020
X42790Y35560
X42790Y38100
X42790Y40640
X42790Y43180
X42790Y45720
X42790Y48260
X42790Y50800
X5080Y63500
X5080Y60960
X5080Y55880
X5080Y53340
X5080Y48260
X5080Y45720
X5080Y29210
X5080Y26670
X5080Y24130
X5080Y19050
X5080Y16510
X5080Y13970
X5080Y69850
X5080Y67310
X5080Y40640
X5080Y38100
T3
X36830Y55372
M30