G04 EAGLE Gerber X2 export*
%TF.Part,Single*%
%TF.FileFunction,Soldermask,Top,1*%
%TF.FilePolarity,Negative*%
%TF.GenerationSoftware,Autodesk,EAGLE,9.1.1*%
%TF.CreationDate,2018-08-04T18:42:35Z*%
G75*
%MOMM*%
%FSLAX34Y34*%
%LPD*%
%AMOC8*
5,1,8,0,0,1.08239X$1,22.5*%
G01*
%ADD10R,2.003200X1.803200*%
%ADD11C,1.727200*%
%ADD12R,2.403200X0.803200*%
%ADD13R,2.006200X1.803200*%
%ADD14R,2.203200X1.803200*%
%ADD15R,1.803200X2.203200*%
%ADD16C,1.727200*%
%ADD17R,1.727200X1.727200*%
%ADD18R,1.203200X1.603200*%
%ADD19C,2.703200*%
%ADD20R,2.203200X1.503200*%
%ADD21R,1.503200X1.503200*%
%ADD22C,0.959600*%


D10*
X177800Y750600D03*
X177800Y722600D03*
X381000Y750600D03*
X381000Y722600D03*
D11*
X254000Y741680D02*
X254000Y756920D01*
X279400Y756920D02*
X279400Y741680D01*
X304800Y741680D02*
X304800Y756920D01*
D12*
X291500Y552450D03*
X343500Y552450D03*
X291500Y565150D03*
X291500Y539750D03*
X291500Y527050D03*
X343500Y565150D03*
X343500Y539750D03*
X343500Y527050D03*
D13*
X375920Y359160D03*
X375920Y387600D03*
X101600Y357120D03*
X101600Y328680D03*
D14*
X203200Y572800D03*
X203200Y544800D03*
X203200Y455900D03*
X203200Y483900D03*
X375920Y280640D03*
X375920Y308640D03*
D15*
X237460Y624840D03*
X265460Y624840D03*
X300960Y624840D03*
X328960Y624840D03*
D14*
X101600Y389860D03*
X101600Y417860D03*
X101600Y240000D03*
X101600Y268000D03*
X101600Y179100D03*
X101600Y151100D03*
D16*
X165100Y215900D03*
X165100Y241300D03*
X165100Y266700D03*
X165100Y292100D03*
X165100Y317500D03*
X165100Y342900D03*
D17*
X165100Y393700D03*
D16*
X165100Y190500D03*
X165100Y165100D03*
X165100Y139700D03*
X165100Y114300D03*
X165100Y88900D03*
X165100Y63500D03*
X165100Y38100D03*
X165100Y368300D03*
X317500Y393700D03*
X317500Y368300D03*
X317500Y342900D03*
X317500Y317500D03*
X317500Y292100D03*
X317500Y266700D03*
X317500Y241300D03*
X317500Y215900D03*
X317500Y190500D03*
X317500Y165100D03*
X317500Y139700D03*
X317500Y114300D03*
X317500Y88900D03*
X317500Y63500D03*
X317500Y38100D03*
D18*
X139700Y458900D03*
X130200Y480900D03*
X149200Y480900D03*
D11*
X420280Y127000D02*
X435520Y127000D01*
X435520Y152400D02*
X420280Y152400D01*
X420280Y177800D02*
X435520Y177800D01*
X435520Y203200D02*
X420280Y203200D01*
X420280Y228600D02*
X435520Y228600D01*
X435520Y254000D02*
X420280Y254000D01*
X420280Y279400D02*
X435520Y279400D01*
X435520Y304800D02*
X420280Y304800D01*
X420280Y330200D02*
X435520Y330200D01*
X435520Y355600D02*
X420280Y355600D01*
X420280Y381000D02*
X435520Y381000D01*
X435520Y406400D02*
X420280Y406400D01*
X420280Y431800D02*
X435520Y431800D01*
X435520Y457200D02*
X420280Y457200D01*
X420280Y482600D02*
X435520Y482600D01*
X435520Y508000D02*
X420280Y508000D01*
D19*
X421700Y72000D03*
X111700Y72000D03*
X421700Y822000D03*
X111700Y822000D03*
D20*
X406400Y615040D03*
D21*
X394900Y660040D03*
X417900Y660040D03*
D16*
X50800Y635000D03*
X50800Y609600D03*
X50800Y558800D03*
X50800Y533400D03*
X50800Y482600D03*
X50800Y457200D03*
X50800Y292100D03*
X50800Y266700D03*
X50800Y241300D03*
X50800Y190500D03*
X50800Y165100D03*
X50800Y139700D03*
X50800Y698500D03*
X50800Y673100D03*
X50800Y406400D03*
X50800Y381000D03*
X50800Y355600D03*
D18*
X127000Y557100D03*
X136500Y535100D03*
X117500Y535100D03*
D22*
X368300Y553720D03*
M02*
