G04 EAGLE Gerber X2 export*
%TF.Part,Single*%
%TF.FileFunction,Paste,Top*%
%TF.FilePolarity,Positive*%
%TF.GenerationSoftware,Autodesk,EAGLE,9.1.1*%
%TF.CreationDate,2018-08-04T18:42:35Z*%
G75*
%MOMM*%
%FSLAX34Y34*%
%LPD*%
%AMOC8*
5,1,8,0,0,1.08239X$1,22.5*%
G01*
%ADD10R,1.800000X1.600000*%
%ADD11R,2.200000X0.600000*%
%ADD12R,1.803000X1.600000*%
%ADD13R,2.000000X1.600000*%
%ADD14R,1.600000X2.000000*%
%ADD15R,1.000000X1.400000*%
%ADD16R,2.000000X1.300000*%
%ADD17R,1.300000X1.300000*%


D10*
X177800Y750600D03*
X177800Y722600D03*
X381000Y750600D03*
X381000Y722600D03*
D11*
X291500Y552450D03*
X343500Y552450D03*
X291500Y565150D03*
X291500Y539750D03*
X291500Y527050D03*
X343500Y565150D03*
X343500Y539750D03*
X343500Y527050D03*
D12*
X375920Y359160D03*
X375920Y387600D03*
X101600Y357120D03*
X101600Y328680D03*
D13*
X203200Y572800D03*
X203200Y544800D03*
X203200Y455900D03*
X203200Y483900D03*
X375920Y280640D03*
X375920Y308640D03*
D14*
X237460Y624840D03*
X265460Y624840D03*
X300960Y624840D03*
X328960Y624840D03*
D13*
X101600Y389860D03*
X101600Y417860D03*
X101600Y240000D03*
X101600Y268000D03*
X101600Y179100D03*
X101600Y151100D03*
D15*
X139700Y458900D03*
X130200Y480900D03*
X149200Y480900D03*
D16*
X406400Y615040D03*
D17*
X394900Y660040D03*
X417900Y660040D03*
D15*
X127000Y557100D03*
X136500Y535100D03*
X117500Y535100D03*
M02*
