G04 EAGLE Gerber RS-274X export*
G75*
%MOMM*%
%FSLAX34Y34*%
%LPD*%
%INEAGLE Copper Layer 2*%
%IPPOS*%
%AMOC8*
5,1,8,0,0,1.08239X$1,22.5*%
G01*
%ADD10C,1.524000*%
%ADD11C,1.500000*%
%ADD12C,2.286000*%
%ADD13C,0.457200*%
%ADD14C,0.553200*%
%ADD15C,0.127000*%
%ADD16C,0.975000*%

G36*
X80005Y15265D02*
X80005Y15265D01*
X80018Y15267D01*
X80031Y15266D01*
X80191Y15282D01*
X85458Y16178D01*
X85603Y16222D01*
X85748Y16264D01*
X85755Y16268D01*
X85762Y16270D01*
X85891Y16348D01*
X86022Y16425D01*
X86030Y16432D01*
X86034Y16435D01*
X86042Y16444D01*
X86119Y16511D01*
X87145Y16511D01*
X87203Y16518D01*
X87260Y16516D01*
X87419Y16541D01*
X88419Y16762D01*
X88500Y16710D01*
X88609Y16658D01*
X88714Y16600D01*
X88752Y16591D01*
X88787Y16574D01*
X88906Y16551D01*
X89022Y16521D01*
X89080Y16517D01*
X89099Y16513D01*
X89120Y16515D01*
X89182Y16511D01*
X1536057Y16511D01*
X1536212Y16530D01*
X1536368Y16549D01*
X1536370Y16550D01*
X1536372Y16551D01*
X1536518Y16608D01*
X1536664Y16665D01*
X1536667Y16667D01*
X1536668Y16668D01*
X1536672Y16670D01*
X1536742Y16714D01*
X1537905Y16527D01*
X1537926Y16526D01*
X1537946Y16521D01*
X1538107Y16511D01*
X1539322Y16511D01*
X1539381Y16465D01*
X1539411Y16452D01*
X1539439Y16433D01*
X1539557Y16389D01*
X1539672Y16339D01*
X1539705Y16333D01*
X1539737Y16322D01*
X1539896Y16295D01*
X1544490Y15817D01*
X1544516Y15818D01*
X1544542Y15813D01*
X1544703Y15813D01*
X1554496Y16447D01*
X1554553Y16458D01*
X1554611Y16460D01*
X1554709Y16488D01*
X1554808Y16507D01*
X1554861Y16532D01*
X1554916Y16548D01*
X1555004Y16600D01*
X1555096Y16643D01*
X1555140Y16680D01*
X1555190Y16710D01*
X1555311Y16816D01*
X1601098Y62603D01*
X1601158Y62681D01*
X1601226Y62753D01*
X1601255Y62806D01*
X1601292Y62854D01*
X1601332Y62945D01*
X1601380Y63031D01*
X1601395Y63090D01*
X1601419Y63146D01*
X1601434Y63244D01*
X1601459Y63339D01*
X1601465Y63439D01*
X1601469Y63460D01*
X1601467Y63472D01*
X1601469Y63500D01*
X1601469Y430581D01*
X1601467Y430597D01*
X1601469Y430613D01*
X1601455Y430773D01*
X1600512Y436920D01*
X1600500Y436963D01*
X1600495Y437007D01*
X1600450Y437161D01*
X1595977Y449472D01*
X1595957Y449511D01*
X1595944Y449554D01*
X1595870Y449696D01*
X1589081Y460898D01*
X1589053Y460932D01*
X1589033Y460971D01*
X1588932Y461097D01*
X1580088Y470759D01*
X1580054Y470787D01*
X1580026Y470821D01*
X1579903Y470925D01*
X1569344Y478675D01*
X1569305Y478697D01*
X1569271Y478725D01*
X1569130Y478802D01*
X1557262Y484344D01*
X1557220Y484358D01*
X1557181Y484379D01*
X1557027Y484427D01*
X1544306Y487547D01*
X1544293Y487549D01*
X1544281Y487553D01*
X1544122Y487578D01*
X1537647Y488184D01*
X1537626Y488183D01*
X1537529Y488189D01*
X37192Y488189D01*
X37181Y488188D01*
X37170Y488189D01*
X37009Y488176D01*
X32572Y487530D01*
X32530Y487519D01*
X32486Y487515D01*
X32331Y487471D01*
X23690Y484406D01*
X23614Y484367D01*
X23533Y484338D01*
X23415Y484267D01*
X23406Y484263D01*
X23403Y484260D01*
X23395Y484255D01*
X15842Y479058D01*
X15778Y479001D01*
X15708Y478952D01*
X15612Y478854D01*
X15604Y478846D01*
X15602Y478843D01*
X15596Y478836D01*
X9645Y471862D01*
X9598Y471790D01*
X9543Y471724D01*
X9476Y471605D01*
X9470Y471596D01*
X9469Y471591D01*
X9465Y471584D01*
X5522Y463306D01*
X5495Y463225D01*
X5459Y463147D01*
X5425Y463014D01*
X5422Y463004D01*
X5422Y463000D01*
X5420Y462991D01*
X3753Y453975D01*
X3751Y453931D01*
X3740Y453888D01*
X3732Y453728D01*
X3771Y450877D01*
X3784Y450787D01*
X3787Y450696D01*
X3806Y450630D01*
X3811Y450595D01*
X3811Y448951D01*
X3813Y448929D01*
X3815Y448851D01*
X3929Y447404D01*
X3924Y447389D01*
X3900Y447346D01*
X3873Y447239D01*
X3837Y447135D01*
X3833Y447086D01*
X3821Y447038D01*
X3811Y446877D01*
X3811Y69308D01*
X3822Y69220D01*
X3823Y69131D01*
X3849Y69006D01*
X3851Y68992D01*
X3853Y68987D01*
X3856Y68974D01*
X5506Y62929D01*
X5511Y62917D01*
X5513Y62905D01*
X5569Y62753D01*
X5682Y62496D01*
X5760Y62364D01*
X5840Y62229D01*
X5844Y62225D01*
X5845Y62223D01*
X5850Y62218D01*
X5946Y62109D01*
X49037Y19018D01*
X49055Y19004D01*
X49070Y18986D01*
X49180Y18907D01*
X49289Y18823D01*
X49310Y18814D01*
X49328Y18800D01*
X49474Y18733D01*
X52878Y17406D01*
X52921Y17396D01*
X52961Y17377D01*
X53118Y17339D01*
X66336Y15000D01*
X66380Y14997D01*
X66424Y14987D01*
X66584Y14980D01*
X80005Y15265D01*
G37*
%LPC*%
G36*
X996747Y156463D02*
X996747Y156463D01*
X994663Y158547D01*
X994663Y161493D01*
X996103Y162933D01*
X996176Y163027D01*
X996254Y163116D01*
X996273Y163152D01*
X996297Y163184D01*
X996345Y163293D01*
X996399Y163399D01*
X996408Y163438D01*
X996424Y163476D01*
X996443Y163593D01*
X996469Y163709D01*
X996467Y163750D01*
X996474Y163790D01*
X996463Y163908D01*
X996459Y164027D01*
X996448Y164066D01*
X996444Y164106D01*
X996404Y164218D01*
X996370Y164333D01*
X996350Y164368D01*
X996336Y164406D01*
X996269Y164504D01*
X996209Y164607D01*
X996169Y164652D01*
X996158Y164669D01*
X996142Y164682D01*
X996103Y164728D01*
X994663Y166167D01*
X994663Y169113D01*
X996103Y170553D01*
X996188Y170662D01*
X996276Y170769D01*
X996285Y170788D01*
X996298Y170804D01*
X996353Y170932D01*
X996412Y171057D01*
X996416Y171077D01*
X996424Y171096D01*
X996446Y171234D01*
X996472Y171370D01*
X996471Y171390D01*
X996474Y171410D01*
X996461Y171549D01*
X996452Y171687D01*
X996446Y171706D01*
X996444Y171726D01*
X996397Y171858D01*
X996354Y171989D01*
X996343Y172007D01*
X996336Y172026D01*
X996258Y172141D01*
X996184Y172258D01*
X996169Y172272D01*
X996158Y172289D01*
X996053Y172381D01*
X995952Y172476D01*
X995935Y172486D01*
X995919Y172499D01*
X995795Y172563D01*
X995674Y172630D01*
X995654Y172635D01*
X995636Y172644D01*
X995500Y172674D01*
X995366Y172709D01*
X995338Y172711D01*
X995326Y172714D01*
X995305Y172713D01*
X995205Y172719D01*
X965998Y172719D01*
X941033Y197684D01*
X940955Y197745D01*
X940883Y197813D01*
X940830Y197842D01*
X940782Y197879D01*
X940691Y197918D01*
X940604Y197966D01*
X940546Y197981D01*
X940490Y198005D01*
X940392Y198021D01*
X940297Y198046D01*
X940197Y198052D01*
X940176Y198055D01*
X940164Y198054D01*
X940136Y198056D01*
X938327Y198056D01*
X936243Y200139D01*
X936243Y203086D01*
X938327Y205169D01*
X941273Y205169D01*
X943357Y203086D01*
X943357Y201277D01*
X943369Y201178D01*
X943372Y201079D01*
X943389Y201021D01*
X943397Y200961D01*
X943433Y200869D01*
X943461Y200774D01*
X943491Y200722D01*
X943514Y200665D01*
X943572Y200585D01*
X943622Y200500D01*
X943688Y200425D01*
X943700Y200408D01*
X943710Y200400D01*
X943728Y200379D01*
X967205Y176902D01*
X967283Y176842D01*
X967356Y176774D01*
X967409Y176745D01*
X967456Y176708D01*
X967547Y176668D01*
X967634Y176620D01*
X967693Y176605D01*
X967748Y176581D01*
X967846Y176566D01*
X967942Y176541D01*
X968042Y176535D01*
X968062Y176531D01*
X968075Y176533D01*
X968103Y176531D01*
X982188Y176531D01*
X982325Y176548D01*
X982464Y176561D01*
X982483Y176568D01*
X982503Y176571D01*
X982632Y176622D01*
X982763Y176669D01*
X982780Y176680D01*
X982799Y176688D01*
X982911Y176769D01*
X983026Y176847D01*
X983040Y176863D01*
X983056Y176874D01*
X983145Y176982D01*
X983237Y177086D01*
X983246Y177104D01*
X983259Y177119D01*
X983318Y177245D01*
X983381Y177369D01*
X983386Y177389D01*
X983394Y177407D01*
X983421Y177543D01*
X983451Y177679D01*
X983450Y177700D01*
X983454Y177719D01*
X983446Y177858D01*
X983441Y177997D01*
X983436Y178017D01*
X983435Y178037D01*
X983392Y178169D01*
X983353Y178303D01*
X983343Y178320D01*
X983336Y178339D01*
X983262Y178457D01*
X983191Y178577D01*
X983173Y178598D01*
X983166Y178608D01*
X983151Y178622D01*
X983085Y178697D01*
X980693Y181089D01*
X980693Y184036D01*
X982777Y186119D01*
X985723Y186119D01*
X987807Y184036D01*
X987807Y181089D01*
X985415Y178697D01*
X985330Y178588D01*
X985241Y178481D01*
X985232Y178462D01*
X985220Y178446D01*
X985165Y178318D01*
X985106Y178193D01*
X985102Y178173D01*
X985094Y178154D01*
X985072Y178016D01*
X985046Y177880D01*
X985047Y177860D01*
X985044Y177840D01*
X985057Y177701D01*
X985065Y177563D01*
X985072Y177544D01*
X985074Y177524D01*
X985121Y177392D01*
X985164Y177261D01*
X985174Y177243D01*
X985181Y177224D01*
X985259Y177109D01*
X985334Y176992D01*
X985348Y176978D01*
X985360Y176961D01*
X985464Y176869D01*
X985565Y176774D01*
X985583Y176764D01*
X985598Y176751D01*
X985722Y176687D01*
X985844Y176620D01*
X985863Y176615D01*
X985881Y176606D01*
X986017Y176576D01*
X986152Y176541D01*
X986180Y176539D01*
X986192Y176536D01*
X986212Y176537D01*
X986312Y176531D01*
X1193916Y176531D01*
X1194054Y176548D01*
X1194193Y176561D01*
X1194212Y176568D01*
X1194232Y176571D01*
X1194361Y176622D01*
X1194492Y176669D01*
X1194509Y176680D01*
X1194527Y176688D01*
X1194640Y176769D01*
X1194755Y176847D01*
X1194768Y176863D01*
X1194785Y176874D01*
X1194874Y176982D01*
X1194965Y177086D01*
X1194975Y177104D01*
X1194988Y177119D01*
X1195047Y177245D01*
X1195110Y177369D01*
X1195115Y177389D01*
X1195123Y177407D01*
X1195149Y177543D01*
X1195180Y177679D01*
X1195179Y177700D01*
X1195183Y177719D01*
X1195174Y177858D01*
X1195170Y177997D01*
X1195164Y178017D01*
X1195163Y178037D01*
X1195120Y178169D01*
X1195082Y178303D01*
X1195071Y178320D01*
X1195065Y178339D01*
X1194991Y178457D01*
X1194920Y178577D01*
X1194902Y178598D01*
X1194895Y178608D01*
X1194880Y178622D01*
X1194814Y178697D01*
X1192303Y181208D01*
X1192303Y184552D01*
X1194668Y186917D01*
X1198012Y186917D01*
X1200377Y184552D01*
X1200377Y181208D01*
X1197866Y178697D01*
X1197781Y178588D01*
X1197692Y178481D01*
X1197684Y178462D01*
X1197671Y178446D01*
X1197616Y178318D01*
X1197557Y178193D01*
X1197553Y178173D01*
X1197545Y178154D01*
X1197523Y178016D01*
X1197497Y177880D01*
X1197498Y177860D01*
X1197495Y177840D01*
X1197508Y177701D01*
X1197517Y177563D01*
X1197523Y177544D01*
X1197525Y177524D01*
X1197572Y177392D01*
X1197615Y177261D01*
X1197626Y177243D01*
X1197633Y177224D01*
X1197711Y177109D01*
X1197785Y176992D01*
X1197800Y176978D01*
X1197811Y176961D01*
X1197915Y176869D01*
X1198017Y176774D01*
X1198034Y176764D01*
X1198050Y176751D01*
X1198174Y176687D01*
X1198295Y176620D01*
X1198315Y176615D01*
X1198333Y176606D01*
X1198469Y176576D01*
X1198603Y176541D01*
X1198631Y176539D01*
X1198643Y176536D01*
X1198664Y176537D01*
X1198764Y176531D01*
X1387000Y176531D01*
X1387138Y176548D01*
X1387276Y176561D01*
X1387295Y176568D01*
X1387316Y176571D01*
X1387445Y176622D01*
X1387576Y176669D01*
X1387593Y176680D01*
X1387611Y176688D01*
X1387724Y176769D01*
X1387839Y176847D01*
X1387852Y176863D01*
X1387869Y176874D01*
X1387957Y176982D01*
X1388049Y177086D01*
X1388059Y177104D01*
X1388071Y177119D01*
X1388131Y177245D01*
X1388194Y177369D01*
X1388198Y177389D01*
X1388207Y177407D01*
X1388233Y177544D01*
X1388264Y177679D01*
X1388263Y177700D01*
X1388267Y177719D01*
X1388258Y177858D01*
X1388254Y177997D01*
X1388248Y178017D01*
X1388247Y178037D01*
X1388204Y178169D01*
X1388166Y178303D01*
X1388155Y178320D01*
X1388149Y178339D01*
X1388075Y178457D01*
X1388004Y178577D01*
X1387985Y178598D01*
X1387979Y178608D01*
X1387964Y178622D01*
X1387898Y178697D01*
X1387093Y179502D01*
X1387093Y182448D01*
X1389177Y184532D01*
X1392123Y184532D01*
X1394207Y182448D01*
X1394207Y179502D01*
X1393402Y178697D01*
X1393318Y178588D01*
X1393229Y178481D01*
X1393220Y178462D01*
X1393208Y178446D01*
X1393152Y178319D01*
X1393093Y178193D01*
X1393089Y178173D01*
X1393081Y178154D01*
X1393059Y178016D01*
X1393033Y177880D01*
X1393034Y177860D01*
X1393031Y177840D01*
X1393044Y177701D01*
X1393053Y177563D01*
X1393059Y177544D01*
X1393061Y177524D01*
X1393108Y177392D01*
X1393151Y177261D01*
X1393162Y177243D01*
X1393169Y177224D01*
X1393247Y177109D01*
X1393321Y176992D01*
X1393336Y176978D01*
X1393347Y176961D01*
X1393451Y176869D01*
X1393553Y176774D01*
X1393571Y176764D01*
X1393586Y176751D01*
X1393709Y176688D01*
X1393831Y176620D01*
X1393851Y176615D01*
X1393869Y176606D01*
X1394005Y176576D01*
X1394139Y176541D01*
X1394167Y176539D01*
X1394179Y176536D01*
X1394200Y176537D01*
X1394300Y176531D01*
X1471549Y176531D01*
X1471667Y176546D01*
X1471786Y176553D01*
X1471824Y176566D01*
X1471865Y176571D01*
X1471975Y176614D01*
X1472088Y176651D01*
X1472123Y176673D01*
X1472160Y176688D01*
X1472256Y176757D01*
X1472357Y176821D01*
X1472385Y176851D01*
X1472418Y176874D01*
X1472494Y176966D01*
X1472575Y177053D01*
X1472595Y177088D01*
X1472620Y177119D01*
X1472671Y177227D01*
X1472729Y177331D01*
X1472739Y177371D01*
X1472756Y177407D01*
X1472778Y177524D01*
X1472808Y177639D01*
X1472812Y177699D01*
X1472816Y177719D01*
X1472814Y177740D01*
X1472818Y177800D01*
X1472818Y180861D01*
X1473202Y181245D01*
X1473275Y181339D01*
X1473354Y181428D01*
X1473373Y181464D01*
X1473397Y181496D01*
X1473445Y181605D01*
X1473499Y181711D01*
X1473508Y181751D01*
X1473524Y181788D01*
X1473542Y181906D01*
X1473568Y182022D01*
X1473567Y182062D01*
X1473574Y182102D01*
X1473562Y182221D01*
X1473559Y182340D01*
X1473548Y182378D01*
X1473544Y182419D01*
X1473503Y182531D01*
X1473470Y182645D01*
X1473450Y182680D01*
X1473436Y182718D01*
X1473369Y182816D01*
X1473309Y182919D01*
X1473269Y182964D01*
X1473258Y182981D01*
X1473242Y182995D01*
X1473202Y183040D01*
X1469398Y186844D01*
X1469289Y186929D01*
X1469182Y187018D01*
X1469163Y187026D01*
X1469147Y187039D01*
X1469019Y187094D01*
X1468894Y187153D01*
X1468874Y187157D01*
X1468855Y187165D01*
X1468717Y187187D01*
X1468581Y187213D01*
X1468561Y187212D01*
X1468541Y187215D01*
X1468402Y187202D01*
X1468264Y187193D01*
X1468245Y187187D01*
X1468225Y187185D01*
X1468093Y187138D01*
X1467962Y187095D01*
X1467944Y187085D01*
X1467925Y187078D01*
X1467810Y187000D01*
X1467693Y186925D01*
X1467679Y186910D01*
X1467662Y186899D01*
X1467570Y186795D01*
X1467475Y186694D01*
X1467465Y186676D01*
X1467452Y186661D01*
X1467388Y186537D01*
X1467321Y186415D01*
X1467316Y186395D01*
X1467307Y186377D01*
X1467277Y186242D01*
X1467242Y186107D01*
X1467240Y186079D01*
X1467237Y186067D01*
X1467238Y186047D01*
X1467232Y185946D01*
X1467232Y184264D01*
X1465148Y182181D01*
X1462202Y182181D01*
X1460118Y184264D01*
X1460118Y187211D01*
X1462202Y189294D01*
X1463884Y189294D01*
X1464022Y189312D01*
X1464160Y189325D01*
X1464179Y189332D01*
X1464199Y189334D01*
X1464329Y189385D01*
X1464460Y189432D01*
X1464476Y189444D01*
X1464495Y189451D01*
X1464607Y189533D01*
X1464723Y189611D01*
X1464736Y189626D01*
X1464752Y189638D01*
X1464841Y189745D01*
X1464933Y189849D01*
X1464942Y189867D01*
X1464955Y189883D01*
X1465015Y190009D01*
X1465078Y190133D01*
X1465082Y190152D01*
X1465091Y190171D01*
X1465117Y190307D01*
X1465147Y190443D01*
X1465147Y190463D01*
X1465151Y190483D01*
X1465142Y190621D01*
X1465138Y190761D01*
X1465132Y190780D01*
X1465131Y190800D01*
X1465088Y190932D01*
X1465049Y191066D01*
X1465039Y191084D01*
X1465033Y191103D01*
X1464959Y191220D01*
X1464888Y191340D01*
X1464869Y191361D01*
X1464863Y191372D01*
X1464848Y191386D01*
X1464781Y191461D01*
X1463892Y192350D01*
X1463814Y192411D01*
X1463742Y192479D01*
X1463689Y192508D01*
X1463641Y192545D01*
X1463550Y192584D01*
X1463463Y192632D01*
X1463405Y192647D01*
X1463349Y192671D01*
X1463251Y192687D01*
X1463156Y192712D01*
X1463055Y192718D01*
X1463035Y192721D01*
X1463023Y192720D01*
X1462995Y192722D01*
X1431491Y192722D01*
X1431353Y192704D01*
X1431215Y192691D01*
X1431196Y192684D01*
X1431176Y192682D01*
X1431047Y192631D01*
X1430916Y192584D01*
X1430899Y192572D01*
X1430880Y192565D01*
X1430768Y192483D01*
X1430652Y192405D01*
X1430639Y192390D01*
X1430623Y192378D01*
X1430534Y192271D01*
X1430442Y192167D01*
X1430433Y192149D01*
X1430420Y192133D01*
X1430361Y192007D01*
X1430297Y191883D01*
X1430293Y191864D01*
X1430284Y191845D01*
X1430258Y191709D01*
X1430228Y191573D01*
X1430228Y191553D01*
X1430225Y191533D01*
X1430233Y191395D01*
X1430237Y191255D01*
X1430243Y191236D01*
X1430244Y191216D01*
X1430287Y191084D01*
X1430326Y190950D01*
X1430336Y190932D01*
X1430342Y190913D01*
X1430417Y190795D01*
X1430487Y190676D01*
X1430506Y190655D01*
X1430513Y190644D01*
X1430528Y190630D01*
X1430594Y190555D01*
X1431517Y189632D01*
X1431517Y186288D01*
X1429152Y183923D01*
X1425808Y183923D01*
X1423443Y186288D01*
X1423443Y189632D01*
X1424366Y190555D01*
X1424451Y190665D01*
X1424540Y190772D01*
X1424549Y190790D01*
X1424561Y190806D01*
X1424616Y190934D01*
X1424676Y191060D01*
X1424679Y191079D01*
X1424688Y191098D01*
X1424709Y191236D01*
X1424735Y191372D01*
X1424734Y191392D01*
X1424737Y191412D01*
X1424724Y191551D01*
X1424716Y191689D01*
X1424709Y191709D01*
X1424708Y191729D01*
X1424660Y191860D01*
X1424618Y191992D01*
X1424607Y192009D01*
X1424600Y192028D01*
X1424522Y192143D01*
X1424447Y192261D01*
X1424433Y192275D01*
X1424421Y192291D01*
X1424317Y192383D01*
X1424216Y192479D01*
X1424198Y192488D01*
X1424183Y192502D01*
X1424059Y192565D01*
X1423937Y192632D01*
X1423918Y192637D01*
X1423900Y192646D01*
X1423764Y192677D01*
X1423629Y192712D01*
X1423601Y192713D01*
X1423589Y192716D01*
X1423569Y192715D01*
X1423469Y192722D01*
X1401826Y192722D01*
X1401708Y192707D01*
X1401589Y192699D01*
X1401551Y192687D01*
X1401510Y192682D01*
X1401400Y192638D01*
X1401287Y192601D01*
X1401252Y192580D01*
X1401215Y192565D01*
X1401119Y192495D01*
X1401018Y192431D01*
X1400990Y192402D01*
X1400957Y192378D01*
X1400881Y192286D01*
X1400800Y192200D01*
X1400780Y192164D01*
X1400755Y192133D01*
X1400704Y192025D01*
X1400646Y191921D01*
X1400636Y191882D01*
X1400619Y191845D01*
X1400597Y191729D01*
X1400567Y191613D01*
X1400563Y191553D01*
X1400559Y191533D01*
X1400561Y191513D01*
X1400557Y191453D01*
X1400557Y190614D01*
X1398473Y188531D01*
X1395527Y188531D01*
X1393443Y190614D01*
X1393443Y193561D01*
X1395527Y195644D01*
X1397336Y195644D01*
X1397434Y195657D01*
X1397533Y195660D01*
X1397591Y195676D01*
X1397651Y195684D01*
X1397743Y195721D01*
X1397839Y195748D01*
X1397891Y195779D01*
X1397947Y195801D01*
X1398027Y195859D01*
X1398113Y195910D01*
X1398188Y195976D01*
X1398204Y195988D01*
X1398212Y195997D01*
X1398233Y196016D01*
X1398751Y196533D01*
X1465099Y196533D01*
X1478281Y183352D01*
X1478281Y183037D01*
X1478293Y182939D01*
X1478296Y182840D01*
X1478313Y182782D01*
X1478321Y182722D01*
X1478357Y182630D01*
X1478385Y182535D01*
X1478415Y182483D01*
X1478438Y182426D01*
X1478496Y182346D01*
X1478546Y182261D01*
X1478612Y182185D01*
X1478624Y182169D01*
X1478634Y182161D01*
X1478652Y182140D01*
X1479932Y180861D01*
X1479932Y177800D01*
X1479947Y177682D01*
X1479954Y177563D01*
X1479967Y177525D01*
X1479972Y177484D01*
X1480015Y177374D01*
X1480052Y177261D01*
X1480074Y177226D01*
X1480089Y177189D01*
X1480158Y177093D01*
X1480222Y176992D01*
X1480252Y176964D01*
X1480275Y176931D01*
X1480367Y176855D01*
X1480454Y176774D01*
X1480489Y176754D01*
X1480520Y176729D01*
X1480628Y176678D01*
X1480732Y176620D01*
X1480772Y176610D01*
X1480808Y176593D01*
X1480925Y176571D01*
X1481040Y176541D01*
X1481100Y176537D01*
X1481120Y176533D01*
X1481141Y176535D01*
X1481201Y176531D01*
X1486172Y176531D01*
X1486271Y176543D01*
X1486370Y176546D01*
X1486428Y176563D01*
X1486488Y176571D01*
X1486580Y176607D01*
X1486675Y176635D01*
X1486727Y176665D01*
X1486784Y176688D01*
X1486864Y176746D01*
X1486949Y176796D01*
X1487024Y176862D01*
X1487041Y176874D01*
X1487049Y176884D01*
X1487070Y176902D01*
X1511302Y201135D01*
X1511376Y201229D01*
X1511454Y201318D01*
X1511473Y201354D01*
X1511497Y201386D01*
X1511545Y201496D01*
X1511599Y201602D01*
X1511608Y201641D01*
X1511624Y201678D01*
X1511642Y201796D01*
X1511668Y201912D01*
X1511667Y201952D01*
X1511674Y201992D01*
X1511662Y202111D01*
X1511659Y202230D01*
X1511648Y202269D01*
X1511644Y202309D01*
X1511603Y202421D01*
X1511570Y202535D01*
X1511550Y202570D01*
X1511536Y202608D01*
X1511469Y202707D01*
X1511409Y202809D01*
X1511369Y202854D01*
X1511358Y202871D01*
X1511342Y202885D01*
X1511302Y202930D01*
X1509331Y204902D01*
X1509331Y207424D01*
X1509313Y207562D01*
X1509300Y207700D01*
X1509293Y207720D01*
X1509291Y207740D01*
X1509271Y207789D01*
X1511414Y209932D01*
X1514412Y209932D01*
X1514530Y209947D01*
X1514648Y209954D01*
X1514687Y209967D01*
X1514727Y209972D01*
X1514838Y210015D01*
X1514951Y210052D01*
X1514985Y210074D01*
X1515023Y210089D01*
X1515119Y210158D01*
X1515220Y210222D01*
X1515247Y210252D01*
X1515280Y210275D01*
X1515356Y210367D01*
X1515438Y210454D01*
X1515457Y210489D01*
X1515483Y210520D01*
X1515534Y210628D01*
X1515591Y210732D01*
X1515601Y210772D01*
X1515618Y210808D01*
X1515641Y210925D01*
X1515671Y211040D01*
X1515674Y211100D01*
X1515678Y211120D01*
X1515677Y211141D01*
X1515681Y211201D01*
X1515681Y214198D01*
X1517764Y216282D01*
X1520711Y216282D01*
X1522794Y214198D01*
X1522794Y211252D01*
X1521515Y209973D01*
X1521454Y209894D01*
X1521386Y209822D01*
X1521357Y209769D01*
X1521320Y209721D01*
X1521281Y209630D01*
X1521233Y209544D01*
X1521218Y209485D01*
X1521194Y209429D01*
X1521178Y209331D01*
X1521153Y209236D01*
X1521147Y209136D01*
X1521144Y209115D01*
X1521145Y209103D01*
X1521143Y209075D01*
X1521143Y205586D01*
X1488277Y172719D01*
X1403234Y172719D01*
X1403096Y172702D01*
X1402957Y172689D01*
X1402938Y172682D01*
X1402918Y172679D01*
X1402789Y172628D01*
X1402658Y172581D01*
X1402641Y172570D01*
X1402623Y172562D01*
X1402510Y172481D01*
X1402395Y172403D01*
X1402382Y172387D01*
X1402365Y172376D01*
X1402276Y172268D01*
X1402185Y172164D01*
X1402175Y172146D01*
X1402162Y172131D01*
X1402103Y172005D01*
X1402040Y171881D01*
X1402035Y171861D01*
X1402027Y171843D01*
X1402001Y171706D01*
X1401970Y171571D01*
X1401971Y171550D01*
X1401967Y171531D01*
X1401976Y171392D01*
X1401980Y171253D01*
X1401986Y171233D01*
X1401987Y171213D01*
X1402030Y171081D01*
X1402068Y170947D01*
X1402079Y170930D01*
X1402085Y170911D01*
X1402159Y170793D01*
X1402230Y170673D01*
X1402248Y170652D01*
X1402255Y170642D01*
X1402270Y170628D01*
X1402336Y170553D01*
X1403577Y169312D01*
X1403577Y165968D01*
X1401212Y163603D01*
X1397868Y163603D01*
X1395503Y165968D01*
X1395503Y169312D01*
X1396744Y170553D01*
X1396829Y170662D01*
X1396918Y170769D01*
X1396926Y170788D01*
X1396939Y170804D01*
X1396994Y170932D01*
X1397053Y171057D01*
X1397057Y171077D01*
X1397065Y171096D01*
X1397087Y171234D01*
X1397113Y171370D01*
X1397112Y171390D01*
X1397115Y171410D01*
X1397102Y171549D01*
X1397093Y171687D01*
X1397087Y171706D01*
X1397085Y171726D01*
X1397038Y171858D01*
X1396995Y171989D01*
X1396984Y172007D01*
X1396977Y172026D01*
X1396899Y172141D01*
X1396825Y172258D01*
X1396810Y172272D01*
X1396799Y172289D01*
X1396695Y172381D01*
X1396593Y172476D01*
X1396576Y172486D01*
X1396560Y172499D01*
X1396436Y172563D01*
X1396315Y172630D01*
X1396295Y172635D01*
X1396277Y172644D01*
X1396141Y172674D01*
X1396007Y172709D01*
X1395979Y172711D01*
X1395967Y172714D01*
X1395946Y172713D01*
X1395846Y172719D01*
X1195862Y172719D01*
X1195725Y172702D01*
X1195586Y172689D01*
X1195567Y172682D01*
X1195547Y172679D01*
X1195418Y172628D01*
X1195287Y172581D01*
X1195270Y172570D01*
X1195251Y172562D01*
X1195139Y172481D01*
X1195024Y172403D01*
X1195010Y172387D01*
X1194994Y172376D01*
X1194905Y172268D01*
X1194813Y172164D01*
X1194804Y172146D01*
X1194791Y172131D01*
X1194732Y172005D01*
X1194669Y171881D01*
X1194664Y171861D01*
X1194656Y171843D01*
X1194629Y171707D01*
X1194599Y171571D01*
X1194600Y171550D01*
X1194596Y171531D01*
X1194604Y171392D01*
X1194609Y171253D01*
X1194614Y171233D01*
X1194615Y171213D01*
X1194658Y171081D01*
X1194697Y170947D01*
X1194707Y170930D01*
X1194714Y170911D01*
X1194788Y170793D01*
X1194859Y170673D01*
X1194877Y170652D01*
X1194884Y170642D01*
X1194899Y170628D01*
X1194965Y170553D01*
X1197357Y168161D01*
X1197357Y165214D01*
X1195273Y163131D01*
X1192276Y163131D01*
X1192158Y163116D01*
X1192039Y163108D01*
X1192001Y163096D01*
X1191960Y163091D01*
X1191850Y163047D01*
X1191737Y163010D01*
X1191702Y162989D01*
X1191665Y162974D01*
X1191569Y162904D01*
X1191468Y162840D01*
X1191440Y162811D01*
X1191407Y162787D01*
X1191331Y162695D01*
X1191250Y162609D01*
X1191230Y162573D01*
X1191205Y162542D01*
X1191154Y162434D01*
X1191096Y162330D01*
X1191086Y162291D01*
X1191069Y162254D01*
X1191047Y162138D01*
X1191017Y162022D01*
X1191013Y161962D01*
X1191009Y161942D01*
X1191011Y161922D01*
X1191007Y161862D01*
X1191007Y160452D01*
X1188923Y158368D01*
X1185977Y158368D01*
X1183893Y160452D01*
X1183893Y163398D01*
X1185977Y165482D01*
X1188974Y165482D01*
X1189092Y165497D01*
X1189211Y165504D01*
X1189249Y165517D01*
X1189290Y165522D01*
X1189400Y165565D01*
X1189513Y165602D01*
X1189548Y165624D01*
X1189585Y165639D01*
X1189681Y165708D01*
X1189782Y165772D01*
X1189810Y165802D01*
X1189843Y165825D01*
X1189919Y165917D01*
X1190000Y166004D01*
X1190020Y166039D01*
X1190045Y166070D01*
X1190096Y166178D01*
X1190154Y166282D01*
X1190164Y166322D01*
X1190181Y166358D01*
X1190203Y166475D01*
X1190233Y166590D01*
X1190237Y166650D01*
X1190241Y166670D01*
X1190239Y166691D01*
X1190243Y166751D01*
X1190243Y168161D01*
X1192635Y170553D01*
X1192720Y170662D01*
X1192809Y170769D01*
X1192818Y170788D01*
X1192830Y170804D01*
X1192885Y170932D01*
X1192944Y171057D01*
X1192948Y171077D01*
X1192956Y171096D01*
X1192978Y171234D01*
X1193004Y171370D01*
X1193003Y171390D01*
X1193006Y171410D01*
X1192993Y171549D01*
X1192985Y171687D01*
X1192978Y171706D01*
X1192976Y171726D01*
X1192929Y171858D01*
X1192886Y171989D01*
X1192876Y172007D01*
X1192869Y172026D01*
X1192791Y172141D01*
X1192716Y172258D01*
X1192702Y172272D01*
X1192690Y172289D01*
X1192586Y172381D01*
X1192485Y172476D01*
X1192467Y172486D01*
X1192452Y172499D01*
X1192328Y172563D01*
X1192206Y172630D01*
X1192187Y172635D01*
X1192169Y172644D01*
X1192033Y172674D01*
X1191898Y172709D01*
X1191870Y172711D01*
X1191858Y172714D01*
X1191838Y172713D01*
X1191738Y172719D01*
X1001235Y172719D01*
X1001097Y172702D01*
X1000959Y172689D01*
X1000939Y172682D01*
X1000919Y172679D01*
X1000790Y172628D01*
X1000659Y172581D01*
X1000642Y172570D01*
X1000624Y172562D01*
X1000511Y172481D01*
X1000396Y172403D01*
X1000383Y172387D01*
X1000366Y172376D01*
X1000278Y172268D01*
X1000186Y172164D01*
X1000176Y172146D01*
X1000164Y172131D01*
X1000104Y172005D01*
X1000041Y171881D01*
X1000037Y171861D01*
X1000028Y171843D01*
X1000002Y171706D01*
X999971Y171571D01*
X999972Y171550D01*
X999968Y171531D01*
X999977Y171392D01*
X999981Y171253D01*
X999987Y171233D01*
X999988Y171213D01*
X1000031Y171081D01*
X1000069Y170947D01*
X1000080Y170930D01*
X1000086Y170911D01*
X1000161Y170793D01*
X1000231Y170673D01*
X1000250Y170652D01*
X1000256Y170642D01*
X1000271Y170628D01*
X1000337Y170553D01*
X1001777Y169113D01*
X1001777Y166167D01*
X1000337Y164728D01*
X1000264Y164633D01*
X1000186Y164544D01*
X1000167Y164508D01*
X1000143Y164476D01*
X1000095Y164367D01*
X1000041Y164261D01*
X1000032Y164222D01*
X1000016Y164184D01*
X999997Y164067D01*
X999971Y163951D01*
X999973Y163910D01*
X999966Y163870D01*
X999977Y163752D01*
X999981Y163633D01*
X999992Y163594D01*
X999996Y163554D01*
X1000036Y163441D01*
X1000070Y163327D01*
X1000090Y163293D01*
X1000104Y163254D01*
X1000171Y163156D01*
X1000231Y163053D01*
X1000271Y163008D01*
X1000282Y162991D01*
X1000298Y162978D01*
X1000337Y162933D01*
X1001777Y161493D01*
X1001777Y158547D01*
X999693Y156463D01*
X996747Y156463D01*
G37*
%LPD*%
G36*
X-4981Y73674D02*
X-4981Y73674D01*
X-4843Y73683D01*
X-4824Y73689D01*
X-4804Y73691D01*
X-4672Y73738D01*
X-4541Y73781D01*
X-4523Y73792D01*
X-4504Y73799D01*
X-4389Y73877D01*
X-4272Y73951D01*
X-4258Y73966D01*
X-4241Y73977D01*
X-4149Y74081D01*
X-4054Y74183D01*
X-4044Y74201D01*
X-4031Y74216D01*
X-3967Y74340D01*
X-3900Y74461D01*
X-3895Y74481D01*
X-3886Y74499D01*
X-3856Y74635D01*
X-3821Y74769D01*
X-3819Y74797D01*
X-3816Y74809D01*
X-3817Y74830D01*
X-3811Y74930D01*
X-3811Y448549D01*
X-3813Y448571D01*
X-3815Y448649D01*
X-4256Y454225D01*
X-2151Y465621D01*
X2833Y476083D01*
X10354Y484898D01*
X14723Y487904D01*
X14795Y487968D01*
X14872Y488024D01*
X14913Y488074D01*
X14960Y488116D01*
X15014Y488196D01*
X15075Y488269D01*
X15102Y488327D01*
X15138Y488380D01*
X15170Y488471D01*
X15210Y488557D01*
X15222Y488620D01*
X15244Y488680D01*
X15252Y488775D01*
X15270Y488870D01*
X15266Y488933D01*
X15272Y488997D01*
X15256Y489091D01*
X15251Y489187D01*
X15231Y489247D01*
X15221Y489310D01*
X15182Y489398D01*
X15152Y489489D01*
X15118Y489543D01*
X15093Y489602D01*
X15034Y489677D01*
X14982Y489758D01*
X14936Y489802D01*
X14897Y489852D01*
X14821Y489910D01*
X14751Y489976D01*
X14695Y490007D01*
X14644Y490046D01*
X14556Y490083D01*
X14472Y490130D01*
X14410Y490146D01*
X14352Y490171D01*
X14257Y490185D01*
X14164Y490209D01*
X14057Y490216D01*
X14037Y490219D01*
X14027Y490218D01*
X14004Y490219D01*
X-6350Y490219D01*
X-6468Y490204D01*
X-6587Y490197D01*
X-6625Y490184D01*
X-6666Y490179D01*
X-6776Y490136D01*
X-6889Y490099D01*
X-6924Y490077D01*
X-6961Y490062D01*
X-7057Y489993D01*
X-7158Y489929D01*
X-7186Y489899D01*
X-7219Y489876D01*
X-7295Y489784D01*
X-7376Y489697D01*
X-7396Y489662D01*
X-7421Y489631D01*
X-7472Y489523D01*
X-7530Y489419D01*
X-7540Y489379D01*
X-7557Y489343D01*
X-7579Y489226D01*
X-7609Y489111D01*
X-7613Y489051D01*
X-7617Y489031D01*
X-7615Y489010D01*
X-7619Y488950D01*
X-7619Y76200D01*
X-7607Y76102D01*
X-7604Y76003D01*
X-7587Y75945D01*
X-7579Y75884D01*
X-7543Y75792D01*
X-7515Y75697D01*
X-7485Y75645D01*
X-7462Y75589D01*
X-7404Y75509D01*
X-7354Y75423D01*
X-7288Y75348D01*
X-7276Y75331D01*
X-7266Y75324D01*
X-7248Y75303D01*
X-5977Y74032D01*
X-5868Y73947D01*
X-5761Y73859D01*
X-5742Y73850D01*
X-5726Y73838D01*
X-5598Y73782D01*
X-5473Y73723D01*
X-5453Y73719D01*
X-5434Y73711D01*
X-5296Y73689D01*
X-5160Y73663D01*
X-5140Y73665D01*
X-5120Y73661D01*
X-4981Y73674D01*
G37*
%LPC*%
G36*
X1482204Y192341D02*
X1482204Y192341D01*
X1480121Y194424D01*
X1480121Y197371D01*
X1481243Y198493D01*
X1481316Y198587D01*
X1481394Y198676D01*
X1481413Y198712D01*
X1481437Y198744D01*
X1481485Y198853D01*
X1481539Y198959D01*
X1481548Y198998D01*
X1481564Y199036D01*
X1481583Y199153D01*
X1481609Y199269D01*
X1481607Y199310D01*
X1481614Y199350D01*
X1481603Y199468D01*
X1481599Y199587D01*
X1481588Y199626D01*
X1481584Y199666D01*
X1481544Y199778D01*
X1481510Y199893D01*
X1481490Y199928D01*
X1481476Y199966D01*
X1481409Y200064D01*
X1481349Y200167D01*
X1481309Y200212D01*
X1481298Y200229D01*
X1481282Y200242D01*
X1481243Y200288D01*
X1479803Y201727D01*
X1479803Y204673D01*
X1480608Y205478D01*
X1480692Y205587D01*
X1480781Y205694D01*
X1480790Y205713D01*
X1480802Y205729D01*
X1480858Y205856D01*
X1480917Y205982D01*
X1480921Y206002D01*
X1480929Y206021D01*
X1480951Y206159D01*
X1480977Y206295D01*
X1480976Y206315D01*
X1480979Y206335D01*
X1480966Y206474D01*
X1480957Y206612D01*
X1480951Y206631D01*
X1480949Y206651D01*
X1480902Y206783D01*
X1480859Y206914D01*
X1480848Y206932D01*
X1480841Y206951D01*
X1480763Y207066D01*
X1480689Y207183D01*
X1480674Y207197D01*
X1480663Y207214D01*
X1480559Y207306D01*
X1480457Y207401D01*
X1480439Y207411D01*
X1480424Y207424D01*
X1480301Y207487D01*
X1480179Y207555D01*
X1480159Y207560D01*
X1480141Y207569D01*
X1480005Y207599D01*
X1479871Y207634D01*
X1479843Y207636D01*
X1479831Y207639D01*
X1479810Y207638D01*
X1479710Y207644D01*
X1472087Y207644D01*
X1471949Y207627D01*
X1471811Y207614D01*
X1471792Y207607D01*
X1471772Y207604D01*
X1471643Y207553D01*
X1471512Y207506D01*
X1471495Y207495D01*
X1471476Y207487D01*
X1471364Y207406D01*
X1471249Y207328D01*
X1471235Y207312D01*
X1471219Y207301D01*
X1471130Y207193D01*
X1471038Y207089D01*
X1471029Y207071D01*
X1471016Y207056D01*
X1470957Y206930D01*
X1470894Y206806D01*
X1470889Y206786D01*
X1470881Y206768D01*
X1470854Y206631D01*
X1470824Y206496D01*
X1470825Y206475D01*
X1470821Y206456D01*
X1470829Y206317D01*
X1470834Y206178D01*
X1470839Y206158D01*
X1470840Y206138D01*
X1470883Y206006D01*
X1470922Y205872D01*
X1470932Y205855D01*
X1470939Y205836D01*
X1471013Y205718D01*
X1471084Y205598D01*
X1471102Y205577D01*
X1471109Y205567D01*
X1471124Y205553D01*
X1471190Y205478D01*
X1471994Y204673D01*
X1471994Y201727D01*
X1469911Y199643D01*
X1466964Y199643D01*
X1464881Y201727D01*
X1464881Y204673D01*
X1465685Y205478D01*
X1465770Y205587D01*
X1465859Y205694D01*
X1465868Y205713D01*
X1465880Y205729D01*
X1465935Y205856D01*
X1465994Y205982D01*
X1465998Y206002D01*
X1466006Y206021D01*
X1466028Y206159D01*
X1466054Y206295D01*
X1466053Y206315D01*
X1466056Y206335D01*
X1466043Y206474D01*
X1466035Y206612D01*
X1466028Y206631D01*
X1466026Y206651D01*
X1465979Y206783D01*
X1465936Y206914D01*
X1465926Y206932D01*
X1465919Y206951D01*
X1465841Y207066D01*
X1465766Y207183D01*
X1465752Y207197D01*
X1465740Y207214D01*
X1465636Y207306D01*
X1465535Y207401D01*
X1465517Y207411D01*
X1465502Y207424D01*
X1465378Y207487D01*
X1465256Y207555D01*
X1465237Y207560D01*
X1465219Y207569D01*
X1465083Y207599D01*
X1464948Y207634D01*
X1464920Y207636D01*
X1464908Y207639D01*
X1464888Y207638D01*
X1464788Y207644D01*
X1427226Y207644D01*
X1427108Y207629D01*
X1426989Y207622D01*
X1426951Y207609D01*
X1426910Y207604D01*
X1426800Y207561D01*
X1426687Y207524D01*
X1426652Y207502D01*
X1426615Y207487D01*
X1426519Y207418D01*
X1426418Y207354D01*
X1426390Y207324D01*
X1426357Y207301D01*
X1426281Y207209D01*
X1426200Y207122D01*
X1426180Y207087D01*
X1426155Y207056D01*
X1426104Y206948D01*
X1426046Y206844D01*
X1426036Y206804D01*
X1426019Y206768D01*
X1425997Y206651D01*
X1425967Y206536D01*
X1425963Y206476D01*
X1425959Y206456D01*
X1425961Y206435D01*
X1425957Y206375D01*
X1425957Y203314D01*
X1423873Y201231D01*
X1420927Y201231D01*
X1418843Y203314D01*
X1418843Y206375D01*
X1418828Y206493D01*
X1418821Y206612D01*
X1418808Y206650D01*
X1418803Y206691D01*
X1418760Y206801D01*
X1418723Y206914D01*
X1418701Y206949D01*
X1418686Y206986D01*
X1418617Y207082D01*
X1418553Y207183D01*
X1418523Y207211D01*
X1418500Y207244D01*
X1418408Y207320D01*
X1418321Y207401D01*
X1418286Y207421D01*
X1418255Y207446D01*
X1418147Y207497D01*
X1418043Y207555D01*
X1418003Y207565D01*
X1417967Y207582D01*
X1417850Y207604D01*
X1417735Y207634D01*
X1417675Y207638D01*
X1417655Y207642D01*
X1417634Y207640D01*
X1417574Y207644D01*
X1408587Y207644D01*
X1408489Y207632D01*
X1408390Y207629D01*
X1408332Y207612D01*
X1408272Y207604D01*
X1408180Y207568D01*
X1408085Y207540D01*
X1408033Y207510D01*
X1407976Y207487D01*
X1407896Y207429D01*
X1407811Y207379D01*
X1407735Y207313D01*
X1407719Y207301D01*
X1407711Y207291D01*
X1407690Y207273D01*
X1406411Y205993D01*
X1403464Y205993D01*
X1401381Y208077D01*
X1401381Y211023D01*
X1403464Y213107D01*
X1406462Y213107D01*
X1406580Y213122D01*
X1406698Y213129D01*
X1406737Y213142D01*
X1406777Y213147D01*
X1406888Y213190D01*
X1407001Y213227D01*
X1407035Y213249D01*
X1407073Y213264D01*
X1407169Y213333D01*
X1407270Y213397D01*
X1407297Y213427D01*
X1407330Y213450D01*
X1407406Y213542D01*
X1407488Y213629D01*
X1407507Y213664D01*
X1407533Y213695D01*
X1407584Y213803D01*
X1407641Y213907D01*
X1407651Y213947D01*
X1407668Y213983D01*
X1407691Y214100D01*
X1407721Y214215D01*
X1407724Y214275D01*
X1407728Y214295D01*
X1407727Y214316D01*
X1407731Y214376D01*
X1407731Y217373D01*
X1409814Y219457D01*
X1412761Y219457D01*
X1414844Y217373D01*
X1414844Y214427D01*
X1414040Y213622D01*
X1413955Y213513D01*
X1413866Y213406D01*
X1413857Y213387D01*
X1413845Y213371D01*
X1413790Y213244D01*
X1413731Y213118D01*
X1413727Y213098D01*
X1413719Y213079D01*
X1413697Y212941D01*
X1413671Y212805D01*
X1413672Y212785D01*
X1413669Y212765D01*
X1413682Y212626D01*
X1413690Y212488D01*
X1413697Y212469D01*
X1413699Y212449D01*
X1413746Y212317D01*
X1413789Y212186D01*
X1413799Y212168D01*
X1413806Y212149D01*
X1413884Y212034D01*
X1413959Y211917D01*
X1413973Y211903D01*
X1413985Y211886D01*
X1414089Y211794D01*
X1414190Y211699D01*
X1414208Y211689D01*
X1414223Y211676D01*
X1414347Y211613D01*
X1414469Y211545D01*
X1414488Y211540D01*
X1414506Y211531D01*
X1414642Y211501D01*
X1414777Y211466D01*
X1414805Y211464D01*
X1414817Y211461D01*
X1414837Y211462D01*
X1414937Y211456D01*
X1482250Y211456D01*
X1482388Y211473D01*
X1482526Y211486D01*
X1482546Y211493D01*
X1482566Y211496D01*
X1482695Y211547D01*
X1482826Y211594D01*
X1482843Y211605D01*
X1482861Y211613D01*
X1482974Y211694D01*
X1483089Y211772D01*
X1483102Y211788D01*
X1483119Y211799D01*
X1483207Y211907D01*
X1483299Y212011D01*
X1483309Y212029D01*
X1483321Y212044D01*
X1483381Y212170D01*
X1483444Y212294D01*
X1483448Y212314D01*
X1483457Y212332D01*
X1483483Y212468D01*
X1483514Y212604D01*
X1483513Y212625D01*
X1483517Y212644D01*
X1483508Y212783D01*
X1483504Y212922D01*
X1483498Y212942D01*
X1483497Y212962D01*
X1483454Y213094D01*
X1483416Y213228D01*
X1483405Y213245D01*
X1483399Y213264D01*
X1483324Y213382D01*
X1483254Y213502D01*
X1483235Y213523D01*
X1483229Y213533D01*
X1483214Y213547D01*
X1483148Y213622D01*
X1480756Y216014D01*
X1480756Y218961D01*
X1482839Y221044D01*
X1485786Y221044D01*
X1487869Y218961D01*
X1487869Y216014D01*
X1485477Y213622D01*
X1485392Y213513D01*
X1485304Y213406D01*
X1485295Y213387D01*
X1485282Y213371D01*
X1485227Y213243D01*
X1485168Y213118D01*
X1485164Y213098D01*
X1485156Y213079D01*
X1485134Y212941D01*
X1485108Y212805D01*
X1485109Y212785D01*
X1485106Y212765D01*
X1485119Y212626D01*
X1485128Y212488D01*
X1485134Y212469D01*
X1485136Y212449D01*
X1485183Y212317D01*
X1485226Y212186D01*
X1485237Y212168D01*
X1485244Y212149D01*
X1485322Y212034D01*
X1485396Y211917D01*
X1485411Y211903D01*
X1485422Y211886D01*
X1485527Y211794D01*
X1485628Y211699D01*
X1485645Y211689D01*
X1485661Y211676D01*
X1485785Y211612D01*
X1485906Y211545D01*
X1485926Y211540D01*
X1485944Y211531D01*
X1486080Y211501D01*
X1486214Y211466D01*
X1486242Y211464D01*
X1486254Y211461D01*
X1486275Y211462D01*
X1486375Y211456D01*
X1499713Y211456D01*
X1499811Y211468D01*
X1499910Y211471D01*
X1499968Y211488D01*
X1500028Y211496D01*
X1500120Y211532D01*
X1500215Y211560D01*
X1500267Y211590D01*
X1500324Y211613D01*
X1500404Y211671D01*
X1500489Y211721D01*
X1500565Y211787D01*
X1500581Y211799D01*
X1500589Y211809D01*
X1500610Y211827D01*
X1501889Y213107D01*
X1504836Y213107D01*
X1506919Y211023D01*
X1506919Y208501D01*
X1506937Y208363D01*
X1506950Y208225D01*
X1506957Y208205D01*
X1506959Y208185D01*
X1506979Y208136D01*
X1504836Y205993D01*
X1501889Y205993D01*
X1500610Y207273D01*
X1500532Y207333D01*
X1500460Y207401D01*
X1500407Y207430D01*
X1500359Y207467D01*
X1500268Y207507D01*
X1500181Y207555D01*
X1500123Y207570D01*
X1500067Y207594D01*
X1499969Y207609D01*
X1499873Y207634D01*
X1499773Y207640D01*
X1499753Y207644D01*
X1499741Y207642D01*
X1499713Y207644D01*
X1487010Y207644D01*
X1486872Y207627D01*
X1486734Y207614D01*
X1486715Y207607D01*
X1486694Y207604D01*
X1486565Y207553D01*
X1486434Y207506D01*
X1486417Y207495D01*
X1486399Y207487D01*
X1486286Y207406D01*
X1486171Y207328D01*
X1486158Y207312D01*
X1486141Y207301D01*
X1486053Y207193D01*
X1485961Y207089D01*
X1485951Y207071D01*
X1485939Y207056D01*
X1485879Y206930D01*
X1485816Y206806D01*
X1485812Y206786D01*
X1485803Y206768D01*
X1485777Y206631D01*
X1485746Y206496D01*
X1485747Y206475D01*
X1485743Y206456D01*
X1485752Y206317D01*
X1485756Y206178D01*
X1485762Y206158D01*
X1485763Y206138D01*
X1485806Y206006D01*
X1485844Y205872D01*
X1485855Y205855D01*
X1485861Y205836D01*
X1485936Y205718D01*
X1486006Y205598D01*
X1486025Y205577D01*
X1486031Y205567D01*
X1486046Y205553D01*
X1486112Y205478D01*
X1486917Y204673D01*
X1486917Y201727D01*
X1485795Y200605D01*
X1485722Y200511D01*
X1485643Y200422D01*
X1485625Y200386D01*
X1485600Y200354D01*
X1485553Y200245D01*
X1485499Y200138D01*
X1485490Y200099D01*
X1485474Y200062D01*
X1485455Y199944D01*
X1485429Y199828D01*
X1485430Y199788D01*
X1485424Y199748D01*
X1485435Y199629D01*
X1485439Y199510D01*
X1485450Y199471D01*
X1485454Y199431D01*
X1485494Y199319D01*
X1485527Y199205D01*
X1485548Y199170D01*
X1485561Y199132D01*
X1485628Y199033D01*
X1485689Y198931D01*
X1485728Y198886D01*
X1485740Y198869D01*
X1485755Y198855D01*
X1485795Y198810D01*
X1487234Y197371D01*
X1487234Y194424D01*
X1485151Y192341D01*
X1482204Y192341D01*
G37*
%LPD*%
%LPC*%
G36*
X834187Y192023D02*
X834187Y192023D01*
X832908Y193303D01*
X832829Y193363D01*
X832757Y193431D01*
X832704Y193460D01*
X832656Y193497D01*
X832565Y193537D01*
X832479Y193585D01*
X832420Y193600D01*
X832364Y193624D01*
X832266Y193639D01*
X832171Y193664D01*
X832071Y193670D01*
X832050Y193674D01*
X832038Y193672D01*
X832010Y193674D01*
X740891Y193674D01*
X713322Y221243D01*
X713244Y221303D01*
X713172Y221371D01*
X713119Y221400D01*
X713071Y221437D01*
X712980Y221477D01*
X712893Y221525D01*
X712835Y221540D01*
X712779Y221564D01*
X712681Y221579D01*
X712586Y221604D01*
X712486Y221610D01*
X712465Y221614D01*
X712453Y221612D01*
X712425Y221614D01*
X684370Y221614D01*
X684272Y221602D01*
X684173Y221599D01*
X684115Y221582D01*
X684054Y221574D01*
X683962Y221538D01*
X683867Y221510D01*
X683815Y221480D01*
X683759Y221457D01*
X683679Y221399D01*
X683593Y221349D01*
X683518Y221283D01*
X683501Y221271D01*
X683494Y221261D01*
X683472Y221243D01*
X682193Y219963D01*
X679247Y219963D01*
X677163Y222047D01*
X677163Y224993D01*
X679247Y227077D01*
X682193Y227077D01*
X683472Y225797D01*
X683551Y225737D01*
X683623Y225669D01*
X683676Y225640D01*
X683724Y225603D01*
X683815Y225563D01*
X683901Y225515D01*
X683960Y225500D01*
X684016Y225476D01*
X684114Y225461D01*
X684209Y225436D01*
X684309Y225430D01*
X684330Y225426D01*
X684342Y225428D01*
X684370Y225426D01*
X714529Y225426D01*
X742098Y197857D01*
X742176Y197797D01*
X742248Y197729D01*
X742301Y197700D01*
X742349Y197663D01*
X742440Y197623D01*
X742527Y197575D01*
X742585Y197560D01*
X742641Y197536D01*
X742739Y197521D01*
X742834Y197496D01*
X742934Y197490D01*
X742955Y197486D01*
X742967Y197488D01*
X742995Y197486D01*
X832010Y197486D01*
X832108Y197498D01*
X832207Y197501D01*
X832265Y197518D01*
X832326Y197526D01*
X832418Y197562D01*
X832513Y197590D01*
X832565Y197620D01*
X832621Y197643D01*
X832701Y197701D01*
X832787Y197751D01*
X832862Y197817D01*
X832879Y197829D01*
X832886Y197839D01*
X832908Y197857D01*
X834187Y199137D01*
X837133Y199137D01*
X839217Y197053D01*
X839217Y194107D01*
X837133Y192023D01*
X834187Y192023D01*
G37*
%LPD*%
%LPC*%
G36*
X86374Y425449D02*
X86374Y425449D01*
X81706Y427383D01*
X78133Y430956D01*
X76199Y435624D01*
X76199Y440676D01*
X78133Y445344D01*
X81706Y448917D01*
X86374Y450851D01*
X91426Y450851D01*
X96094Y448917D01*
X99667Y445344D01*
X101601Y440676D01*
X101601Y435624D01*
X99667Y430956D01*
X96094Y427383D01*
X91426Y425449D01*
X86374Y425449D01*
G37*
%LPD*%
%LPC*%
G36*
X86374Y69849D02*
X86374Y69849D01*
X81706Y71783D01*
X78133Y75356D01*
X76199Y80024D01*
X76199Y85076D01*
X78133Y89744D01*
X81706Y93317D01*
X86374Y95251D01*
X91426Y95251D01*
X96094Y93317D01*
X99667Y89744D01*
X101601Y85076D01*
X101601Y80024D01*
X99667Y75356D01*
X96094Y71783D01*
X91426Y69849D01*
X86374Y69849D01*
G37*
%LPD*%
%LPC*%
G36*
X1387907Y44703D02*
X1387907Y44703D01*
X1386628Y45983D01*
X1386549Y46043D01*
X1386477Y46111D01*
X1386424Y46140D01*
X1386376Y46177D01*
X1386285Y46217D01*
X1386199Y46265D01*
X1386140Y46280D01*
X1386084Y46304D01*
X1385986Y46319D01*
X1385891Y46344D01*
X1385791Y46350D01*
X1385770Y46354D01*
X1385758Y46352D01*
X1385730Y46354D01*
X1353031Y46354D01*
X1318894Y80491D01*
X1318894Y113190D01*
X1318882Y113288D01*
X1318879Y113387D01*
X1318862Y113445D01*
X1318854Y113506D01*
X1318818Y113598D01*
X1318790Y113693D01*
X1318760Y113745D01*
X1318737Y113801D01*
X1318679Y113881D01*
X1318629Y113967D01*
X1318563Y114042D01*
X1318551Y114059D01*
X1318541Y114066D01*
X1318523Y114088D01*
X1317243Y115367D01*
X1317243Y118313D01*
X1319327Y120397D01*
X1322273Y120397D01*
X1324357Y118313D01*
X1324357Y115367D01*
X1323077Y114088D01*
X1323017Y114009D01*
X1322949Y113937D01*
X1322920Y113884D01*
X1322883Y113836D01*
X1322843Y113745D01*
X1322795Y113659D01*
X1322780Y113600D01*
X1322756Y113544D01*
X1322741Y113446D01*
X1322716Y113351D01*
X1322710Y113251D01*
X1322706Y113230D01*
X1322708Y113218D01*
X1322706Y113190D01*
X1322706Y82595D01*
X1322718Y82497D01*
X1322721Y82398D01*
X1322738Y82340D01*
X1322746Y82280D01*
X1322782Y82188D01*
X1322810Y82092D01*
X1322840Y82040D01*
X1322863Y81984D01*
X1322921Y81904D01*
X1322971Y81818D01*
X1323037Y81743D01*
X1323049Y81727D01*
X1323059Y81719D01*
X1323077Y81698D01*
X1354238Y50537D01*
X1354316Y50477D01*
X1354388Y50409D01*
X1354441Y50380D01*
X1354489Y50343D01*
X1354580Y50303D01*
X1354667Y50255D01*
X1354725Y50240D01*
X1354781Y50216D01*
X1354879Y50201D01*
X1354974Y50176D01*
X1355074Y50170D01*
X1355095Y50166D01*
X1355107Y50168D01*
X1355135Y50166D01*
X1385730Y50166D01*
X1385828Y50178D01*
X1385927Y50181D01*
X1385985Y50198D01*
X1386046Y50206D01*
X1386138Y50242D01*
X1386233Y50270D01*
X1386285Y50300D01*
X1386341Y50323D01*
X1386421Y50381D01*
X1386507Y50431D01*
X1386582Y50497D01*
X1386599Y50509D01*
X1386606Y50519D01*
X1386628Y50537D01*
X1387907Y51817D01*
X1390853Y51817D01*
X1392937Y49733D01*
X1392937Y46787D01*
X1390853Y44703D01*
X1387907Y44703D01*
G37*
%LPD*%
G36*
X1600305Y459070D02*
X1600305Y459070D01*
X1600437Y459078D01*
X1600463Y459087D01*
X1600490Y459090D01*
X1600614Y459136D01*
X1600739Y459176D01*
X1600762Y459191D01*
X1600788Y459200D01*
X1600896Y459276D01*
X1601008Y459347D01*
X1601027Y459366D01*
X1601049Y459382D01*
X1601135Y459482D01*
X1601226Y459578D01*
X1601239Y459602D01*
X1601257Y459622D01*
X1601316Y459741D01*
X1601380Y459857D01*
X1601386Y459883D01*
X1601398Y459907D01*
X1601426Y460037D01*
X1601459Y460165D01*
X1601461Y460203D01*
X1601465Y460218D01*
X1601464Y460240D01*
X1601469Y460325D01*
X1601469Y488950D01*
X1601454Y489068D01*
X1601447Y489187D01*
X1601434Y489225D01*
X1601429Y489266D01*
X1601386Y489376D01*
X1601349Y489489D01*
X1601327Y489524D01*
X1601312Y489561D01*
X1601243Y489657D01*
X1601179Y489758D01*
X1601149Y489786D01*
X1601126Y489819D01*
X1601034Y489895D01*
X1600947Y489976D01*
X1600912Y489996D01*
X1600881Y490021D01*
X1600773Y490072D01*
X1600669Y490130D01*
X1600629Y490140D01*
X1600593Y490157D01*
X1600476Y490179D01*
X1600361Y490209D01*
X1600301Y490213D01*
X1600281Y490217D01*
X1600260Y490215D01*
X1600200Y490219D01*
X1569172Y490219D01*
X1569131Y490214D01*
X1569089Y490217D01*
X1568973Y490194D01*
X1568857Y490179D01*
X1568818Y490164D01*
X1568777Y490156D01*
X1568670Y490106D01*
X1568561Y490062D01*
X1568527Y490038D01*
X1568489Y490020D01*
X1568399Y489945D01*
X1568304Y489876D01*
X1568277Y489843D01*
X1568245Y489817D01*
X1568176Y489721D01*
X1568101Y489631D01*
X1568083Y489593D01*
X1568059Y489559D01*
X1568015Y489449D01*
X1567965Y489343D01*
X1567957Y489302D01*
X1567942Y489263D01*
X1567928Y489146D01*
X1567906Y489031D01*
X1567908Y488989D01*
X1567903Y488947D01*
X1567918Y488830D01*
X1567925Y488713D01*
X1567938Y488673D01*
X1567943Y488632D01*
X1567987Y488522D01*
X1568023Y488411D01*
X1568046Y488375D01*
X1568061Y488336D01*
X1568130Y488241D01*
X1568193Y488142D01*
X1568224Y488113D01*
X1568249Y488080D01*
X1568339Y488005D01*
X1568425Y487924D01*
X1568462Y487904D01*
X1568494Y487877D01*
X1568635Y487800D01*
X1573313Y485616D01*
X1585334Y476791D01*
X1595403Y465791D01*
X1599115Y459667D01*
X1599197Y459564D01*
X1599274Y459457D01*
X1599295Y459439D01*
X1599312Y459418D01*
X1599417Y459338D01*
X1599519Y459254D01*
X1599544Y459242D01*
X1599566Y459226D01*
X1599688Y459175D01*
X1599807Y459118D01*
X1599834Y459113D01*
X1599859Y459103D01*
X1599990Y459083D01*
X1600120Y459059D01*
X1600147Y459060D01*
X1600173Y459056D01*
X1600305Y459070D01*
G37*
%LPC*%
G36*
X1468552Y113918D02*
X1468552Y113918D01*
X1466468Y116002D01*
X1466468Y118948D01*
X1468552Y121032D01*
X1470361Y121032D01*
X1470459Y121044D01*
X1470558Y121047D01*
X1470616Y121064D01*
X1470676Y121072D01*
X1470768Y121108D01*
X1470864Y121136D01*
X1470916Y121166D01*
X1470972Y121189D01*
X1471052Y121247D01*
X1471138Y121297D01*
X1471213Y121363D01*
X1471229Y121375D01*
X1471237Y121385D01*
X1471258Y121403D01*
X1497847Y147992D01*
X1497907Y148070D01*
X1497975Y148142D01*
X1498004Y148195D01*
X1498041Y148243D01*
X1498081Y148334D01*
X1498129Y148421D01*
X1498144Y148479D01*
X1498168Y148535D01*
X1498183Y148633D01*
X1498208Y148728D01*
X1498214Y148828D01*
X1498218Y148849D01*
X1498216Y148861D01*
X1498218Y148889D01*
X1498218Y150698D01*
X1500302Y152782D01*
X1503248Y152782D01*
X1505332Y150698D01*
X1505332Y149288D01*
X1505347Y149170D01*
X1505354Y149052D01*
X1505367Y149013D01*
X1505372Y148973D01*
X1505415Y148862D01*
X1505452Y148749D01*
X1505474Y148715D01*
X1505489Y148677D01*
X1505558Y148581D01*
X1505622Y148480D01*
X1505652Y148453D01*
X1505675Y148420D01*
X1505767Y148344D01*
X1505854Y148262D01*
X1505889Y148243D01*
X1505920Y148217D01*
X1506028Y148166D01*
X1506132Y148109D01*
X1506172Y148099D01*
X1506208Y148082D01*
X1506325Y148059D01*
X1506440Y148029D01*
X1506500Y148026D01*
X1506520Y148022D01*
X1506541Y148023D01*
X1506601Y148019D01*
X1509598Y148019D01*
X1511682Y145936D01*
X1511682Y142989D01*
X1509598Y140906D01*
X1506652Y140906D01*
X1504568Y142989D01*
X1504568Y144399D01*
X1504553Y144517D01*
X1504546Y144636D01*
X1504533Y144674D01*
X1504528Y144715D01*
X1504485Y144825D01*
X1504448Y144938D01*
X1504426Y144973D01*
X1504411Y145010D01*
X1504342Y145106D01*
X1504278Y145207D01*
X1504248Y145235D01*
X1504225Y145268D01*
X1504133Y145344D01*
X1504046Y145425D01*
X1504011Y145445D01*
X1503980Y145470D01*
X1503872Y145521D01*
X1503768Y145579D01*
X1503728Y145589D01*
X1503692Y145606D01*
X1503575Y145628D01*
X1503460Y145658D01*
X1503400Y145662D01*
X1503380Y145666D01*
X1503359Y145664D01*
X1503299Y145668D01*
X1501439Y145668D01*
X1501341Y145656D01*
X1501242Y145653D01*
X1501184Y145636D01*
X1501124Y145628D01*
X1501032Y145592D01*
X1500936Y145564D01*
X1500884Y145534D01*
X1500828Y145511D01*
X1500748Y145453D01*
X1500662Y145403D01*
X1500587Y145337D01*
X1500571Y145325D01*
X1500563Y145315D01*
X1500542Y145297D01*
X1473953Y118708D01*
X1473893Y118630D01*
X1473825Y118558D01*
X1473796Y118505D01*
X1473759Y118457D01*
X1473719Y118366D01*
X1473671Y118279D01*
X1473656Y118221D01*
X1473632Y118165D01*
X1473617Y118067D01*
X1473592Y117972D01*
X1473586Y117879D01*
X1473584Y117870D01*
X1473585Y117865D01*
X1473582Y117851D01*
X1473584Y117839D01*
X1473582Y117811D01*
X1473582Y116002D01*
X1471498Y113918D01*
X1468552Y113918D01*
G37*
%LPD*%
%LPC*%
G36*
X1052331Y54609D02*
X1052331Y54609D01*
X1049064Y55963D01*
X1046563Y58464D01*
X1045209Y61731D01*
X1045209Y65269D01*
X1046563Y68536D01*
X1049064Y71037D01*
X1052331Y72391D01*
X1055869Y72391D01*
X1059136Y71037D01*
X1061637Y68536D01*
X1062991Y65269D01*
X1062991Y61731D01*
X1061637Y58464D01*
X1059136Y55963D01*
X1055869Y54609D01*
X1052331Y54609D01*
G37*
%LPD*%
%LPC*%
G36*
X982481Y54609D02*
X982481Y54609D01*
X979214Y55963D01*
X976713Y58464D01*
X975359Y61731D01*
X975359Y65269D01*
X976713Y68536D01*
X979214Y71037D01*
X982481Y72391D01*
X986019Y72391D01*
X989286Y71037D01*
X991787Y68536D01*
X993141Y65269D01*
X993141Y61731D01*
X991787Y58464D01*
X989286Y55963D01*
X986019Y54609D01*
X982481Y54609D01*
G37*
%LPD*%
%LPC*%
G36*
X341131Y416559D02*
X341131Y416559D01*
X337864Y417913D01*
X335363Y420414D01*
X334009Y423681D01*
X334009Y427219D01*
X335363Y430486D01*
X337864Y432987D01*
X341131Y434341D01*
X344669Y434341D01*
X347936Y432987D01*
X350437Y430486D01*
X351791Y427219D01*
X351791Y423681D01*
X350437Y420414D01*
X347936Y417913D01*
X344669Y416559D01*
X341131Y416559D01*
G37*
%LPD*%
%LPC*%
G36*
X1452381Y416559D02*
X1452381Y416559D01*
X1449114Y417913D01*
X1446613Y420414D01*
X1445259Y423681D01*
X1445259Y427219D01*
X1446613Y430486D01*
X1449114Y432987D01*
X1452381Y434341D01*
X1455919Y434341D01*
X1459186Y432987D01*
X1461687Y430486D01*
X1463041Y427219D01*
X1463041Y423681D01*
X1461687Y420414D01*
X1459186Y417913D01*
X1455919Y416559D01*
X1452381Y416559D01*
G37*
%LPD*%
%LPC*%
G36*
X1426981Y416559D02*
X1426981Y416559D01*
X1423714Y417913D01*
X1421213Y420414D01*
X1419859Y423681D01*
X1419859Y427219D01*
X1421213Y430486D01*
X1423714Y432987D01*
X1426981Y434341D01*
X1430519Y434341D01*
X1433786Y432987D01*
X1436287Y430486D01*
X1437641Y427219D01*
X1437641Y423681D01*
X1436287Y420414D01*
X1433786Y417913D01*
X1430519Y416559D01*
X1426981Y416559D01*
G37*
%LPD*%
%LPC*%
G36*
X1325381Y416559D02*
X1325381Y416559D01*
X1322114Y417913D01*
X1319613Y420414D01*
X1318259Y423681D01*
X1318259Y427219D01*
X1319613Y430486D01*
X1322114Y432987D01*
X1325381Y434341D01*
X1328919Y434341D01*
X1332186Y432987D01*
X1334687Y430486D01*
X1336041Y427219D01*
X1336041Y423681D01*
X1334687Y420414D01*
X1332186Y417913D01*
X1328919Y416559D01*
X1325381Y416559D01*
G37*
%LPD*%
%LPC*%
G36*
X1299981Y416559D02*
X1299981Y416559D01*
X1296714Y417913D01*
X1294213Y420414D01*
X1292859Y423681D01*
X1292859Y427219D01*
X1294213Y430486D01*
X1296714Y432987D01*
X1299981Y434341D01*
X1303519Y434341D01*
X1306786Y432987D01*
X1309287Y430486D01*
X1310641Y427219D01*
X1310641Y423681D01*
X1309287Y420414D01*
X1306786Y417913D01*
X1303519Y416559D01*
X1299981Y416559D01*
G37*
%LPD*%
%LPC*%
G36*
X1255531Y416559D02*
X1255531Y416559D01*
X1252264Y417913D01*
X1249763Y420414D01*
X1248409Y423681D01*
X1248409Y427219D01*
X1249763Y430486D01*
X1252264Y432987D01*
X1255531Y434341D01*
X1259069Y434341D01*
X1262336Y432987D01*
X1264837Y430486D01*
X1266191Y427219D01*
X1266191Y423681D01*
X1264837Y420414D01*
X1262336Y417913D01*
X1259069Y416559D01*
X1255531Y416559D01*
G37*
%LPD*%
%LPC*%
G36*
X1230131Y416559D02*
X1230131Y416559D01*
X1226864Y417913D01*
X1224363Y420414D01*
X1223009Y423681D01*
X1223009Y427219D01*
X1224363Y430486D01*
X1226864Y432987D01*
X1230131Y434341D01*
X1233669Y434341D01*
X1236936Y432987D01*
X1239437Y430486D01*
X1240791Y427219D01*
X1240791Y423681D01*
X1239437Y420414D01*
X1236936Y417913D01*
X1233669Y416559D01*
X1230131Y416559D01*
G37*
%LPD*%
%LPC*%
G36*
X1128531Y416559D02*
X1128531Y416559D01*
X1125264Y417913D01*
X1122763Y420414D01*
X1121409Y423681D01*
X1121409Y427219D01*
X1122763Y430486D01*
X1125264Y432987D01*
X1128531Y434341D01*
X1132069Y434341D01*
X1135336Y432987D01*
X1137837Y430486D01*
X1139191Y427219D01*
X1139191Y423681D01*
X1137837Y420414D01*
X1135336Y417913D01*
X1132069Y416559D01*
X1128531Y416559D01*
G37*
%LPD*%
%LPC*%
G36*
X1103131Y416559D02*
X1103131Y416559D01*
X1099864Y417913D01*
X1097363Y420414D01*
X1096009Y423681D01*
X1096009Y427219D01*
X1097363Y430486D01*
X1099864Y432987D01*
X1103131Y434341D01*
X1106669Y434341D01*
X1109936Y432987D01*
X1112437Y430486D01*
X1113791Y427219D01*
X1113791Y423681D01*
X1112437Y420414D01*
X1109936Y417913D01*
X1106669Y416559D01*
X1103131Y416559D01*
G37*
%LPD*%
%LPC*%
G36*
X1058681Y416559D02*
X1058681Y416559D01*
X1055414Y417913D01*
X1052913Y420414D01*
X1051559Y423681D01*
X1051559Y427219D01*
X1052913Y430486D01*
X1055414Y432987D01*
X1058681Y434341D01*
X1062219Y434341D01*
X1065486Y432987D01*
X1067987Y430486D01*
X1069341Y427219D01*
X1069341Y423681D01*
X1067987Y420414D01*
X1065486Y417913D01*
X1062219Y416559D01*
X1058681Y416559D01*
G37*
%LPD*%
%LPC*%
G36*
X1033281Y416559D02*
X1033281Y416559D01*
X1030014Y417913D01*
X1027513Y420414D01*
X1026159Y423681D01*
X1026159Y427219D01*
X1027513Y430486D01*
X1030014Y432987D01*
X1033281Y434341D01*
X1036819Y434341D01*
X1040086Y432987D01*
X1042587Y430486D01*
X1043941Y427219D01*
X1043941Y423681D01*
X1042587Y420414D01*
X1040086Y417913D01*
X1036819Y416559D01*
X1033281Y416559D01*
G37*
%LPD*%
%LPC*%
G36*
X931681Y416559D02*
X931681Y416559D01*
X928414Y417913D01*
X925913Y420414D01*
X924559Y423681D01*
X924559Y427219D01*
X925913Y430486D01*
X928414Y432987D01*
X931681Y434341D01*
X935219Y434341D01*
X938486Y432987D01*
X940987Y430486D01*
X942341Y427219D01*
X942341Y423681D01*
X940987Y420414D01*
X938486Y417913D01*
X935219Y416559D01*
X931681Y416559D01*
G37*
%LPD*%
%LPC*%
G36*
X906281Y416559D02*
X906281Y416559D01*
X903014Y417913D01*
X900513Y420414D01*
X899159Y423681D01*
X899159Y427219D01*
X900513Y430486D01*
X903014Y432987D01*
X906281Y434341D01*
X909819Y434341D01*
X913086Y432987D01*
X915587Y430486D01*
X916941Y427219D01*
X916941Y423681D01*
X915587Y420414D01*
X913086Y417913D01*
X909819Y416559D01*
X906281Y416559D01*
G37*
%LPD*%
%LPC*%
G36*
X861831Y416559D02*
X861831Y416559D01*
X858564Y417913D01*
X856063Y420414D01*
X854709Y423681D01*
X854709Y427219D01*
X856063Y430486D01*
X858564Y432987D01*
X861831Y434341D01*
X865369Y434341D01*
X868636Y432987D01*
X871137Y430486D01*
X872491Y427219D01*
X872491Y423681D01*
X871137Y420414D01*
X868636Y417913D01*
X865369Y416559D01*
X861831Y416559D01*
G37*
%LPD*%
%LPC*%
G36*
X836431Y416559D02*
X836431Y416559D01*
X833164Y417913D01*
X830663Y420414D01*
X829309Y423681D01*
X829309Y427219D01*
X830663Y430486D01*
X833164Y432987D01*
X836431Y434341D01*
X839969Y434341D01*
X843236Y432987D01*
X845737Y430486D01*
X847091Y427219D01*
X847091Y423681D01*
X845737Y420414D01*
X843236Y417913D01*
X839969Y416559D01*
X836431Y416559D01*
G37*
%LPD*%
%LPC*%
G36*
X734831Y416559D02*
X734831Y416559D01*
X731564Y417913D01*
X729063Y420414D01*
X727709Y423681D01*
X727709Y427219D01*
X729063Y430486D01*
X731564Y432987D01*
X734831Y434341D01*
X738369Y434341D01*
X741636Y432987D01*
X744137Y430486D01*
X745491Y427219D01*
X745491Y423681D01*
X744137Y420414D01*
X741636Y417913D01*
X738369Y416559D01*
X734831Y416559D01*
G37*
%LPD*%
%LPC*%
G36*
X709431Y416559D02*
X709431Y416559D01*
X706164Y417913D01*
X703663Y420414D01*
X702309Y423681D01*
X702309Y427219D01*
X703663Y430486D01*
X706164Y432987D01*
X709431Y434341D01*
X712969Y434341D01*
X716236Y432987D01*
X718737Y430486D01*
X720091Y427219D01*
X720091Y423681D01*
X718737Y420414D01*
X716236Y417913D01*
X712969Y416559D01*
X709431Y416559D01*
G37*
%LPD*%
%LPC*%
G36*
X664981Y416559D02*
X664981Y416559D01*
X661714Y417913D01*
X659213Y420414D01*
X657859Y423681D01*
X657859Y427219D01*
X659213Y430486D01*
X661714Y432987D01*
X664981Y434341D01*
X668519Y434341D01*
X671786Y432987D01*
X674287Y430486D01*
X675641Y427219D01*
X675641Y423681D01*
X674287Y420414D01*
X671786Y417913D01*
X668519Y416559D01*
X664981Y416559D01*
G37*
%LPD*%
%LPC*%
G36*
X639581Y416559D02*
X639581Y416559D01*
X636314Y417913D01*
X633813Y420414D01*
X632459Y423681D01*
X632459Y427219D01*
X633813Y430486D01*
X636314Y432987D01*
X639581Y434341D01*
X643119Y434341D01*
X646386Y432987D01*
X648887Y430486D01*
X650241Y427219D01*
X650241Y423681D01*
X648887Y420414D01*
X646386Y417913D01*
X643119Y416559D01*
X639581Y416559D01*
G37*
%LPD*%
%LPC*%
G36*
X537981Y416559D02*
X537981Y416559D01*
X534714Y417913D01*
X532213Y420414D01*
X530859Y423681D01*
X530859Y427219D01*
X532213Y430486D01*
X534714Y432987D01*
X537981Y434341D01*
X541519Y434341D01*
X544786Y432987D01*
X547287Y430486D01*
X548641Y427219D01*
X548641Y423681D01*
X547287Y420414D01*
X544786Y417913D01*
X541519Y416559D01*
X537981Y416559D01*
G37*
%LPD*%
%LPC*%
G36*
X512581Y416559D02*
X512581Y416559D01*
X509314Y417913D01*
X506813Y420414D01*
X505459Y423681D01*
X505459Y427219D01*
X506813Y430486D01*
X509314Y432987D01*
X512581Y434341D01*
X516119Y434341D01*
X519386Y432987D01*
X521887Y430486D01*
X523241Y427219D01*
X523241Y423681D01*
X521887Y420414D01*
X519386Y417913D01*
X516119Y416559D01*
X512581Y416559D01*
G37*
%LPD*%
%LPC*%
G36*
X468131Y416559D02*
X468131Y416559D01*
X464864Y417913D01*
X462363Y420414D01*
X461009Y423681D01*
X461009Y427219D01*
X462363Y430486D01*
X464864Y432987D01*
X468131Y434341D01*
X471669Y434341D01*
X474936Y432987D01*
X477437Y430486D01*
X478791Y427219D01*
X478791Y423681D01*
X477437Y420414D01*
X474936Y417913D01*
X471669Y416559D01*
X468131Y416559D01*
G37*
%LPD*%
%LPC*%
G36*
X442731Y416559D02*
X442731Y416559D01*
X439464Y417913D01*
X436963Y420414D01*
X435609Y423681D01*
X435609Y427219D01*
X436963Y430486D01*
X439464Y432987D01*
X442731Y434341D01*
X446269Y434341D01*
X449536Y432987D01*
X452037Y430486D01*
X453391Y427219D01*
X453391Y423681D01*
X452037Y420414D01*
X449536Y417913D01*
X446269Y416559D01*
X442731Y416559D01*
G37*
%LPD*%
%LPC*%
G36*
X957081Y54609D02*
X957081Y54609D01*
X953814Y55963D01*
X951313Y58464D01*
X949959Y61731D01*
X949959Y65269D01*
X951313Y68536D01*
X953814Y71037D01*
X957081Y72391D01*
X960619Y72391D01*
X963886Y71037D01*
X966387Y68536D01*
X967741Y65269D01*
X967741Y61731D01*
X966387Y58464D01*
X963886Y55963D01*
X960619Y54609D01*
X957081Y54609D01*
G37*
%LPD*%
%LPC*%
G36*
X1204731Y54609D02*
X1204731Y54609D01*
X1201464Y55963D01*
X1198963Y58464D01*
X1197609Y61731D01*
X1197609Y65269D01*
X1198963Y68536D01*
X1201464Y71037D01*
X1204731Y72391D01*
X1208269Y72391D01*
X1211536Y71037D01*
X1214037Y68536D01*
X1215391Y65269D01*
X1215391Y61731D01*
X1214037Y58464D01*
X1211536Y55963D01*
X1208269Y54609D01*
X1204731Y54609D01*
G37*
%LPD*%
%LPC*%
G36*
X506231Y54609D02*
X506231Y54609D01*
X502964Y55963D01*
X500463Y58464D01*
X499109Y61731D01*
X499109Y65269D01*
X500463Y68536D01*
X502964Y71037D01*
X506231Y72391D01*
X509769Y72391D01*
X513036Y71037D01*
X515537Y68536D01*
X516891Y65269D01*
X516891Y61731D01*
X515537Y58464D01*
X513036Y55963D01*
X509769Y54609D01*
X506231Y54609D01*
G37*
%LPD*%
%LPC*%
G36*
X531631Y54609D02*
X531631Y54609D01*
X528364Y55963D01*
X525863Y58464D01*
X524509Y61731D01*
X524509Y65269D01*
X525863Y68536D01*
X528364Y71037D01*
X531631Y72391D01*
X535169Y72391D01*
X538436Y71037D01*
X540937Y68536D01*
X542291Y65269D01*
X542291Y61731D01*
X540937Y58464D01*
X538436Y55963D01*
X535169Y54609D01*
X531631Y54609D01*
G37*
%LPD*%
%LPC*%
G36*
X760231Y54609D02*
X760231Y54609D01*
X756964Y55963D01*
X754463Y58464D01*
X753109Y61731D01*
X753109Y65269D01*
X754463Y68536D01*
X756964Y71037D01*
X760231Y72391D01*
X763769Y72391D01*
X767036Y71037D01*
X769537Y68536D01*
X770891Y65269D01*
X770891Y61731D01*
X769537Y58464D01*
X767036Y55963D01*
X763769Y54609D01*
X760231Y54609D01*
G37*
%LPD*%
%LPC*%
G36*
X1249181Y54609D02*
X1249181Y54609D01*
X1245914Y55963D01*
X1243413Y58464D01*
X1242059Y61731D01*
X1242059Y65269D01*
X1243413Y68536D01*
X1245914Y71037D01*
X1249181Y72391D01*
X1252719Y72391D01*
X1255986Y71037D01*
X1258487Y68536D01*
X1259841Y65269D01*
X1259841Y61731D01*
X1258487Y58464D01*
X1255986Y55963D01*
X1252719Y54609D01*
X1249181Y54609D01*
G37*
%LPD*%
%LPC*%
G36*
X1274581Y54609D02*
X1274581Y54609D01*
X1271314Y55963D01*
X1268813Y58464D01*
X1267459Y61731D01*
X1267459Y65269D01*
X1268813Y68536D01*
X1271314Y71037D01*
X1274581Y72391D01*
X1278119Y72391D01*
X1281386Y71037D01*
X1283887Y68536D01*
X1285241Y65269D01*
X1285241Y61731D01*
X1283887Y58464D01*
X1281386Y55963D01*
X1278119Y54609D01*
X1274581Y54609D01*
G37*
%LPD*%
%LPC*%
G36*
X1376181Y54609D02*
X1376181Y54609D01*
X1372914Y55963D01*
X1370413Y58464D01*
X1369059Y61731D01*
X1369059Y65269D01*
X1370413Y68536D01*
X1372914Y71037D01*
X1376181Y72391D01*
X1379719Y72391D01*
X1382986Y71037D01*
X1385487Y68536D01*
X1386841Y65269D01*
X1386841Y61731D01*
X1385487Y58464D01*
X1382986Y55963D01*
X1379719Y54609D01*
X1376181Y54609D01*
G37*
%LPD*%
%LPC*%
G36*
X1401581Y54609D02*
X1401581Y54609D01*
X1398314Y55963D01*
X1395813Y58464D01*
X1394459Y61731D01*
X1394459Y65269D01*
X1395813Y68536D01*
X1398314Y71037D01*
X1401581Y72391D01*
X1405119Y72391D01*
X1408386Y71037D01*
X1410887Y68536D01*
X1412241Y65269D01*
X1412241Y61731D01*
X1410887Y58464D01*
X1408386Y55963D01*
X1405119Y54609D01*
X1401581Y54609D01*
G37*
%LPD*%
%LPC*%
G36*
X734831Y54609D02*
X734831Y54609D01*
X731564Y55963D01*
X729063Y58464D01*
X727709Y61731D01*
X727709Y65269D01*
X729063Y68536D01*
X731564Y71037D01*
X734831Y72391D01*
X738369Y72391D01*
X741636Y71037D01*
X744137Y68536D01*
X745491Y65269D01*
X745491Y61731D01*
X744137Y58464D01*
X741636Y55963D01*
X738369Y54609D01*
X734831Y54609D01*
G37*
%LPD*%
%LPC*%
G36*
X315731Y416559D02*
X315731Y416559D01*
X312464Y417913D01*
X309963Y420414D01*
X308609Y423681D01*
X308609Y427219D01*
X309963Y430486D01*
X312464Y432987D01*
X315731Y434341D01*
X319269Y434341D01*
X322536Y432987D01*
X325037Y430486D01*
X326391Y427219D01*
X326391Y423681D01*
X325037Y420414D01*
X322536Y417913D01*
X319269Y416559D01*
X315731Y416559D01*
G37*
%LPD*%
%LPC*%
G36*
X1077731Y54609D02*
X1077731Y54609D01*
X1074464Y55963D01*
X1071963Y58464D01*
X1070609Y61731D01*
X1070609Y65269D01*
X1071963Y68536D01*
X1074464Y71037D01*
X1077731Y72391D01*
X1081269Y72391D01*
X1084536Y71037D01*
X1087037Y68536D01*
X1088391Y65269D01*
X1088391Y61731D01*
X1087037Y58464D01*
X1084536Y55963D01*
X1081269Y54609D01*
X1077731Y54609D01*
G37*
%LPD*%
%LPC*%
G36*
X1179331Y54609D02*
X1179331Y54609D01*
X1176064Y55963D01*
X1173563Y58464D01*
X1172209Y61731D01*
X1172209Y65269D01*
X1173563Y68536D01*
X1176064Y71037D01*
X1179331Y72391D01*
X1182869Y72391D01*
X1186136Y71037D01*
X1188637Y68536D01*
X1189991Y65269D01*
X1189991Y61731D01*
X1188637Y58464D01*
X1186136Y55963D01*
X1182869Y54609D01*
X1179331Y54609D01*
G37*
%LPD*%
%LPC*%
G36*
X188755Y105529D02*
X188755Y105529D01*
X185532Y106865D01*
X183065Y109332D01*
X181729Y112555D01*
X181729Y116045D01*
X183065Y119268D01*
X185532Y121735D01*
X188755Y123071D01*
X192245Y123071D01*
X195468Y121735D01*
X197935Y119268D01*
X199271Y116045D01*
X199271Y112555D01*
X197935Y109332D01*
X195468Y106865D01*
X192245Y105529D01*
X188755Y105529D01*
G37*
%LPD*%
%LPC*%
G36*
X264955Y105529D02*
X264955Y105529D01*
X261732Y106865D01*
X259265Y109332D01*
X257929Y112555D01*
X257929Y116045D01*
X259265Y119268D01*
X261732Y121735D01*
X264955Y123071D01*
X268445Y123071D01*
X271668Y121735D01*
X274135Y119268D01*
X275471Y116045D01*
X275471Y112555D01*
X274135Y109332D01*
X271668Y106865D01*
X268445Y105529D01*
X264955Y105529D01*
G37*
%LPD*%
%LPC*%
G36*
X577647Y26923D02*
X577647Y26923D01*
X575563Y29007D01*
X575563Y30816D01*
X575551Y30914D01*
X575548Y31013D01*
X575531Y31071D01*
X575523Y31131D01*
X575487Y31223D01*
X575459Y31319D01*
X575429Y31371D01*
X575406Y31427D01*
X575348Y31507D01*
X575298Y31593D01*
X575232Y31668D01*
X575220Y31684D01*
X575210Y31692D01*
X575192Y31713D01*
X572134Y34771D01*
X572134Y44405D01*
X572122Y44503D01*
X572119Y44602D01*
X572102Y44660D01*
X572094Y44720D01*
X572058Y44812D01*
X572030Y44908D01*
X572000Y44960D01*
X571977Y45016D01*
X571919Y45096D01*
X571869Y45182D01*
X571803Y45257D01*
X571791Y45273D01*
X571781Y45281D01*
X571763Y45302D01*
X571082Y45983D01*
X571004Y46043D01*
X570932Y46111D01*
X570879Y46140D01*
X570831Y46177D01*
X570740Y46217D01*
X570653Y46265D01*
X570595Y46280D01*
X570539Y46304D01*
X570441Y46319D01*
X570346Y46344D01*
X570246Y46350D01*
X570225Y46354D01*
X570213Y46352D01*
X570185Y46354D01*
X570070Y46354D01*
X569972Y46342D01*
X569873Y46339D01*
X569815Y46322D01*
X569754Y46314D01*
X569662Y46278D01*
X569567Y46250D01*
X569515Y46220D01*
X569459Y46197D01*
X569379Y46139D01*
X569293Y46089D01*
X569218Y46023D01*
X569201Y46011D01*
X569194Y46001D01*
X569172Y45983D01*
X567893Y44703D01*
X564947Y44703D01*
X562863Y46787D01*
X562863Y49733D01*
X564947Y51817D01*
X567893Y51817D01*
X569172Y50537D01*
X569251Y50477D01*
X569323Y50409D01*
X569376Y50380D01*
X569424Y50343D01*
X569515Y50303D01*
X569601Y50255D01*
X569660Y50240D01*
X569716Y50216D01*
X569814Y50201D01*
X569909Y50176D01*
X570009Y50170D01*
X570030Y50166D01*
X570042Y50168D01*
X570070Y50166D01*
X572289Y50166D01*
X575946Y46509D01*
X575946Y36875D01*
X575958Y36777D01*
X575961Y36678D01*
X575978Y36620D01*
X575986Y36560D01*
X576022Y36468D01*
X576050Y36372D01*
X576080Y36320D01*
X576103Y36264D01*
X576161Y36184D01*
X576211Y36098D01*
X576277Y36023D01*
X576289Y36007D01*
X576299Y35999D01*
X576317Y35978D01*
X577887Y34408D01*
X577965Y34348D01*
X578037Y34280D01*
X578090Y34251D01*
X578138Y34214D01*
X578229Y34174D01*
X578316Y34126D01*
X578374Y34111D01*
X578430Y34087D01*
X578528Y34072D01*
X578623Y34047D01*
X578723Y34041D01*
X578744Y34037D01*
X578756Y34039D01*
X578784Y34037D01*
X580593Y34037D01*
X582677Y31953D01*
X582677Y29007D01*
X580593Y26923D01*
X577647Y26923D01*
G37*
%LPD*%
%LPC*%
G36*
X922452Y218693D02*
X922452Y218693D01*
X920368Y220777D01*
X920368Y223723D01*
X920379Y223734D01*
X920452Y223828D01*
X920531Y223917D01*
X920549Y223953D01*
X920574Y223985D01*
X920621Y224095D01*
X920675Y224200D01*
X920684Y224240D01*
X920700Y224277D01*
X920719Y224395D01*
X920745Y224511D01*
X920744Y224551D01*
X920750Y224591D01*
X920739Y224710D01*
X920735Y224829D01*
X920724Y224867D01*
X920720Y224908D01*
X920680Y225020D01*
X920647Y225134D01*
X920626Y225169D01*
X920613Y225207D01*
X920546Y225306D01*
X920485Y225408D01*
X920445Y225453D01*
X920434Y225470D01*
X920419Y225484D01*
X920379Y225529D01*
X918781Y227127D01*
X918781Y228537D01*
X918766Y228655D01*
X918758Y228773D01*
X918746Y228812D01*
X918741Y228852D01*
X918697Y228963D01*
X918660Y229076D01*
X918639Y229110D01*
X918624Y229148D01*
X918554Y229244D01*
X918490Y229345D01*
X918461Y229372D01*
X918437Y229405D01*
X918345Y229481D01*
X918259Y229563D01*
X918223Y229582D01*
X918192Y229608D01*
X918084Y229659D01*
X917980Y229716D01*
X917941Y229726D01*
X917904Y229743D01*
X917788Y229766D01*
X917672Y229796D01*
X917612Y229799D01*
X917592Y229803D01*
X917572Y229802D01*
X917512Y229806D01*
X916102Y229806D01*
X914018Y231889D01*
X914018Y234836D01*
X916102Y236919D01*
X919048Y236919D01*
X921132Y234836D01*
X921132Y233426D01*
X921147Y233308D01*
X921154Y233189D01*
X921167Y233151D01*
X921172Y233110D01*
X921215Y233000D01*
X921252Y232887D01*
X921274Y232852D01*
X921289Y232815D01*
X921358Y232719D01*
X921422Y232618D01*
X921452Y232590D01*
X921475Y232557D01*
X921567Y232481D01*
X921654Y232400D01*
X921689Y232380D01*
X921720Y232355D01*
X921828Y232304D01*
X921932Y232246D01*
X921972Y232236D01*
X922008Y232219D01*
X922125Y232197D01*
X922240Y232167D01*
X922300Y232163D01*
X922320Y232159D01*
X922341Y232161D01*
X922401Y232157D01*
X923811Y232157D01*
X925894Y230073D01*
X925894Y227127D01*
X925884Y227116D01*
X925811Y227022D01*
X925732Y226933D01*
X925714Y226897D01*
X925689Y226865D01*
X925642Y226756D01*
X925587Y226650D01*
X925578Y226610D01*
X925562Y226573D01*
X925544Y226456D01*
X925518Y226339D01*
X925519Y226299D01*
X925513Y226259D01*
X925524Y226141D01*
X925527Y226022D01*
X925539Y225983D01*
X925542Y225942D01*
X925583Y225830D01*
X925616Y225716D01*
X925636Y225681D01*
X925650Y225643D01*
X925717Y225545D01*
X925777Y225442D01*
X925817Y225397D01*
X925829Y225380D01*
X925844Y225367D01*
X925884Y225321D01*
X927482Y223723D01*
X927482Y220777D01*
X925398Y218693D01*
X922452Y218693D01*
G37*
%LPD*%
%LPC*%
G36*
X1522527Y266318D02*
X1522527Y266318D01*
X1520443Y268402D01*
X1520443Y271348D01*
X1522527Y273432D01*
X1525044Y273432D01*
X1525162Y273447D01*
X1525281Y273454D01*
X1525319Y273467D01*
X1525360Y273472D01*
X1525470Y273515D01*
X1525583Y273552D01*
X1525618Y273574D01*
X1525655Y273589D01*
X1525751Y273658D01*
X1525852Y273722D01*
X1525880Y273752D01*
X1525913Y273775D01*
X1525989Y273867D01*
X1526070Y273954D01*
X1526090Y273989D01*
X1526115Y274020D01*
X1526166Y274128D01*
X1526224Y274232D01*
X1526234Y274272D01*
X1526251Y274308D01*
X1526273Y274425D01*
X1526303Y274540D01*
X1526307Y274600D01*
X1526311Y274620D01*
X1526309Y274641D01*
X1526313Y274701D01*
X1526313Y274722D01*
X1528678Y277087D01*
X1532022Y277087D01*
X1534387Y274722D01*
X1534387Y271378D01*
X1532022Y269013D01*
X1528694Y269013D01*
X1528596Y269001D01*
X1528497Y268998D01*
X1528439Y268981D01*
X1528378Y268973D01*
X1528286Y268937D01*
X1528191Y268909D01*
X1528139Y268879D01*
X1528083Y268856D01*
X1528003Y268798D01*
X1527917Y268748D01*
X1527842Y268682D01*
X1527825Y268670D01*
X1527818Y268660D01*
X1527796Y268642D01*
X1525473Y266318D01*
X1522527Y266318D01*
G37*
%LPD*%
%LPC*%
G36*
X1428864Y252031D02*
X1428864Y252031D01*
X1426781Y254114D01*
X1426781Y257061D01*
X1428864Y259144D01*
X1431811Y259144D01*
X1434203Y256752D01*
X1434297Y256679D01*
X1434386Y256601D01*
X1434422Y256582D01*
X1434454Y256558D01*
X1434563Y256510D01*
X1434669Y256456D01*
X1434708Y256447D01*
X1434746Y256431D01*
X1434863Y256412D01*
X1434979Y256386D01*
X1435020Y256388D01*
X1435060Y256381D01*
X1435178Y256392D01*
X1435297Y256396D01*
X1435336Y256407D01*
X1435376Y256411D01*
X1435488Y256451D01*
X1435603Y256485D01*
X1435638Y256505D01*
X1435676Y256519D01*
X1435774Y256586D01*
X1435877Y256646D01*
X1435922Y256686D01*
X1435939Y256697D01*
X1435952Y256713D01*
X1435998Y256752D01*
X1438389Y259144D01*
X1441336Y259144D01*
X1443419Y257061D01*
X1443419Y254114D01*
X1441336Y252031D01*
X1438389Y252031D01*
X1435998Y254423D01*
X1435903Y254496D01*
X1435814Y254574D01*
X1435778Y254593D01*
X1435746Y254617D01*
X1435637Y254665D01*
X1435531Y254719D01*
X1435492Y254728D01*
X1435454Y254744D01*
X1435337Y254763D01*
X1435221Y254789D01*
X1435180Y254787D01*
X1435140Y254794D01*
X1435022Y254783D01*
X1434903Y254779D01*
X1434864Y254768D01*
X1434824Y254764D01*
X1434711Y254724D01*
X1434597Y254690D01*
X1434563Y254670D01*
X1434524Y254656D01*
X1434426Y254589D01*
X1434323Y254529D01*
X1434278Y254489D01*
X1434261Y254478D01*
X1434248Y254462D01*
X1434203Y254423D01*
X1431811Y252031D01*
X1428864Y252031D01*
G37*
%LPD*%
%LPC*%
G36*
X463347Y329183D02*
X463347Y329183D01*
X461263Y331267D01*
X461263Y334213D01*
X463347Y336297D01*
X465074Y336297D01*
X465192Y336312D01*
X465311Y336319D01*
X465349Y336332D01*
X465390Y336337D01*
X465500Y336380D01*
X465613Y336417D01*
X465648Y336439D01*
X465685Y336454D01*
X465781Y336523D01*
X465882Y336587D01*
X465910Y336617D01*
X465943Y336640D01*
X466019Y336732D01*
X466100Y336819D01*
X466120Y336854D01*
X466145Y336885D01*
X466196Y336993D01*
X466254Y337097D01*
X466264Y337137D01*
X466281Y337173D01*
X466303Y337290D01*
X466333Y337405D01*
X466337Y337465D01*
X466341Y337485D01*
X466339Y337506D01*
X466343Y337566D01*
X466343Y339611D01*
X468427Y341694D01*
X471373Y341694D01*
X473457Y339611D01*
X473457Y336664D01*
X471373Y334581D01*
X469646Y334581D01*
X469528Y334566D01*
X469409Y334558D01*
X469371Y334546D01*
X469330Y334541D01*
X469220Y334497D01*
X469107Y334460D01*
X469072Y334439D01*
X469035Y334424D01*
X468939Y334354D01*
X468838Y334290D01*
X468810Y334261D01*
X468777Y334237D01*
X468701Y334145D01*
X468620Y334059D01*
X468600Y334023D01*
X468575Y333992D01*
X468524Y333884D01*
X468466Y333780D01*
X468456Y333741D01*
X468439Y333704D01*
X468417Y333588D01*
X468387Y333472D01*
X468383Y333412D01*
X468379Y333392D01*
X468381Y333372D01*
X468377Y333312D01*
X468377Y331267D01*
X466293Y329183D01*
X463347Y329183D01*
G37*
%LPD*%
%LPC*%
G36*
X1532052Y177418D02*
X1532052Y177418D01*
X1529968Y179502D01*
X1529968Y182448D01*
X1530773Y183252D01*
X1530845Y183346D01*
X1530924Y183436D01*
X1530943Y183472D01*
X1530967Y183504D01*
X1531015Y183613D01*
X1531069Y183719D01*
X1531078Y183758D01*
X1531094Y183796D01*
X1531112Y183913D01*
X1531139Y184029D01*
X1531137Y184070D01*
X1531144Y184110D01*
X1531133Y184228D01*
X1531129Y184347D01*
X1531118Y184386D01*
X1531114Y184426D01*
X1531074Y184539D01*
X1531040Y184653D01*
X1531020Y184687D01*
X1531006Y184726D01*
X1530939Y184824D01*
X1530879Y184927D01*
X1530839Y184972D01*
X1530828Y184989D01*
X1530812Y185002D01*
X1530773Y185047D01*
X1529968Y185852D01*
X1529968Y188798D01*
X1532052Y190882D01*
X1534998Y190882D01*
X1537082Y188798D01*
X1537082Y185852D01*
X1536277Y185047D01*
X1536204Y184953D01*
X1536126Y184864D01*
X1536107Y184828D01*
X1536083Y184796D01*
X1536035Y184687D01*
X1535981Y184581D01*
X1535972Y184542D01*
X1535956Y184504D01*
X1535937Y184387D01*
X1535911Y184271D01*
X1535913Y184230D01*
X1535906Y184190D01*
X1535917Y184072D01*
X1535921Y183953D01*
X1535932Y183914D01*
X1535936Y183874D01*
X1535976Y183762D01*
X1536010Y183647D01*
X1536030Y183612D01*
X1536044Y183574D01*
X1536111Y183476D01*
X1536171Y183373D01*
X1536211Y183328D01*
X1536222Y183311D01*
X1536238Y183298D01*
X1536277Y183252D01*
X1537082Y182448D01*
X1537082Y179502D01*
X1534998Y177418D01*
X1532052Y177418D01*
G37*
%LPD*%
%LPC*%
G36*
X1357228Y459513D02*
X1357228Y459513D01*
X1354863Y461878D01*
X1354863Y465222D01*
X1357228Y467587D01*
X1360572Y467587D01*
X1362937Y465222D01*
X1362937Y461878D01*
X1360572Y459513D01*
X1357228Y459513D01*
G37*
%LPD*%
%LPC*%
G36*
X1160378Y459513D02*
X1160378Y459513D01*
X1158013Y461878D01*
X1158013Y465222D01*
X1160378Y467587D01*
X1163722Y467587D01*
X1166087Y465222D01*
X1166087Y461878D01*
X1163722Y459513D01*
X1160378Y459513D01*
G37*
%LPD*%
%LPC*%
G36*
X963528Y459513D02*
X963528Y459513D01*
X961163Y461878D01*
X961163Y465222D01*
X963528Y467587D01*
X966872Y467587D01*
X969237Y465222D01*
X969237Y461878D01*
X966872Y459513D01*
X963528Y459513D01*
G37*
%LPD*%
%LPC*%
G36*
X766678Y459513D02*
X766678Y459513D01*
X764313Y461878D01*
X764313Y465222D01*
X766678Y467587D01*
X770022Y467587D01*
X772387Y465222D01*
X772387Y461878D01*
X770022Y459513D01*
X766678Y459513D01*
G37*
%LPD*%
%LPC*%
G36*
X569828Y459513D02*
X569828Y459513D01*
X567463Y461878D01*
X567463Y465222D01*
X569828Y467587D01*
X573172Y467587D01*
X575537Y465222D01*
X575537Y461878D01*
X573172Y459513D01*
X569828Y459513D01*
G37*
%LPD*%
%LPC*%
G36*
X1476608Y338863D02*
X1476608Y338863D01*
X1474243Y341228D01*
X1474243Y344572D01*
X1476608Y346937D01*
X1479952Y346937D01*
X1482317Y344572D01*
X1482317Y341228D01*
X1479952Y338863D01*
X1476608Y338863D01*
G37*
%LPD*%
%LPC*%
G36*
X648568Y247423D02*
X648568Y247423D01*
X646203Y249788D01*
X646203Y253132D01*
X648568Y255497D01*
X651912Y255497D01*
X654277Y253132D01*
X654277Y249788D01*
X651912Y247423D01*
X648568Y247423D01*
G37*
%LPD*%
%LPC*%
G36*
X590148Y260123D02*
X590148Y260123D01*
X587783Y262488D01*
X587783Y265832D01*
X590148Y268197D01*
X593492Y268197D01*
X595857Y265832D01*
X595857Y262488D01*
X593492Y260123D01*
X590148Y260123D01*
G37*
%LPD*%
%LPC*%
G36*
X1494388Y346483D02*
X1494388Y346483D01*
X1492023Y348848D01*
X1492023Y352192D01*
X1494388Y354557D01*
X1497732Y354557D01*
X1500097Y352192D01*
X1500097Y348848D01*
X1497732Y346483D01*
X1494388Y346483D01*
G37*
%LPD*%
%LPC*%
G36*
X1448668Y227103D02*
X1448668Y227103D01*
X1446303Y229468D01*
X1446303Y232812D01*
X1448668Y235177D01*
X1452012Y235177D01*
X1454377Y232812D01*
X1454377Y229468D01*
X1452012Y227103D01*
X1448668Y227103D01*
G37*
%LPD*%
%LPC*%
G36*
X976228Y260123D02*
X976228Y260123D01*
X973863Y262488D01*
X973863Y265832D01*
X976228Y268197D01*
X979572Y268197D01*
X981937Y265832D01*
X981937Y262488D01*
X979572Y260123D01*
X976228Y260123D01*
G37*
%LPD*%
%LPC*%
G36*
X1032108Y247423D02*
X1032108Y247423D01*
X1029743Y249788D01*
X1029743Y253132D01*
X1032108Y255497D01*
X1035452Y255497D01*
X1037817Y253132D01*
X1037817Y249788D01*
X1035452Y247423D01*
X1032108Y247423D01*
G37*
%LPD*%
%LPC*%
G36*
X1339448Y26443D02*
X1339448Y26443D01*
X1337083Y28808D01*
X1337083Y32152D01*
X1339448Y34517D01*
X1342792Y34517D01*
X1345157Y32152D01*
X1345157Y28808D01*
X1342792Y26443D01*
X1339448Y26443D01*
G37*
%LPD*%
%LPC*%
G36*
X1509628Y370613D02*
X1509628Y370613D01*
X1507263Y372978D01*
X1507263Y376322D01*
X1509628Y378687D01*
X1512972Y378687D01*
X1515337Y376322D01*
X1515337Y372978D01*
X1512972Y370613D01*
X1509628Y370613D01*
G37*
%LPD*%
%LPC*%
G36*
X775568Y166143D02*
X775568Y166143D01*
X773203Y168508D01*
X773203Y171852D01*
X775568Y174217D01*
X778912Y174217D01*
X781277Y171852D01*
X781277Y168508D01*
X778912Y166143D01*
X775568Y166143D01*
G37*
%LPD*%
%LPC*%
G36*
X552048Y158523D02*
X552048Y158523D01*
X549683Y160888D01*
X549683Y164232D01*
X552048Y166597D01*
X555392Y166597D01*
X557757Y164232D01*
X557757Y160888D01*
X555392Y158523D01*
X552048Y158523D01*
G37*
%LPD*%
%LPC*%
G36*
X478388Y150903D02*
X478388Y150903D01*
X476023Y153268D01*
X476023Y156612D01*
X478388Y158977D01*
X481732Y158977D01*
X484097Y156612D01*
X484097Y153268D01*
X481732Y150903D01*
X478388Y150903D01*
G37*
%LPD*%
%LPC*%
G36*
X925428Y150903D02*
X925428Y150903D01*
X923063Y153268D01*
X923063Y156612D01*
X925428Y158977D01*
X928772Y158977D01*
X931137Y156612D01*
X931137Y153268D01*
X928772Y150903D01*
X925428Y150903D01*
G37*
%LPD*%
%LPC*%
G36*
X706988Y150903D02*
X706988Y150903D01*
X704623Y153268D01*
X704623Y156612D01*
X706988Y158977D01*
X710332Y158977D01*
X712697Y156612D01*
X712697Y153268D01*
X710332Y150903D01*
X706988Y150903D01*
G37*
%LPD*%
%LPC*%
G36*
X1477878Y262663D02*
X1477878Y262663D01*
X1475513Y265028D01*
X1475513Y268372D01*
X1477878Y270737D01*
X1481222Y270737D01*
X1483587Y268372D01*
X1483587Y265028D01*
X1481222Y262663D01*
X1477878Y262663D01*
G37*
%LPD*%
%LPC*%
G36*
X1187048Y143283D02*
X1187048Y143283D01*
X1184683Y145648D01*
X1184683Y148992D01*
X1187048Y151357D01*
X1190392Y151357D01*
X1192757Y148992D01*
X1192757Y145648D01*
X1190392Y143283D01*
X1187048Y143283D01*
G37*
%LPD*%
%LPC*%
G36*
X1568048Y133123D02*
X1568048Y133123D01*
X1565683Y135488D01*
X1565683Y138832D01*
X1568048Y141197D01*
X1571392Y141197D01*
X1573757Y138832D01*
X1573757Y135488D01*
X1571392Y133123D01*
X1568048Y133123D01*
G37*
%LPD*%
%LPC*%
G36*
X1519788Y133123D02*
X1519788Y133123D01*
X1517423Y135488D01*
X1517423Y138832D01*
X1519788Y141197D01*
X1523132Y141197D01*
X1525497Y138832D01*
X1525497Y135488D01*
X1523132Y133123D01*
X1519788Y133123D01*
G37*
%LPD*%
%LPC*%
G36*
X925428Y133123D02*
X925428Y133123D01*
X923063Y135488D01*
X923063Y138832D01*
X925428Y141197D01*
X928772Y141197D01*
X931137Y138832D01*
X931137Y135488D01*
X928772Y133123D01*
X925428Y133123D01*
G37*
%LPD*%
%LPC*%
G36*
X478388Y133123D02*
X478388Y133123D01*
X476023Y135488D01*
X476023Y138832D01*
X478388Y141197D01*
X481732Y141197D01*
X484097Y138832D01*
X484097Y135488D01*
X481732Y133123D01*
X478388Y133123D01*
G37*
%LPD*%
%LPC*%
G36*
X706988Y130583D02*
X706988Y130583D01*
X704623Y132948D01*
X704623Y136292D01*
X706988Y138657D01*
X710332Y138657D01*
X712697Y136292D01*
X712697Y132948D01*
X710332Y130583D01*
X706988Y130583D01*
G37*
%LPD*%
%LPC*%
G36*
X1443588Y107723D02*
X1443588Y107723D01*
X1441223Y110088D01*
X1441223Y113432D01*
X1443588Y115797D01*
X1446932Y115797D01*
X1449297Y113432D01*
X1449297Y110088D01*
X1446932Y107723D01*
X1443588Y107723D01*
G37*
%LPD*%
%LPC*%
G36*
X602848Y102643D02*
X602848Y102643D01*
X600483Y105008D01*
X600483Y108352D01*
X602848Y110717D01*
X606192Y110717D01*
X608557Y108352D01*
X608557Y105008D01*
X606192Y102643D01*
X602848Y102643D01*
G37*
%LPD*%
%LPC*%
G36*
X615548Y102643D02*
X615548Y102643D01*
X613183Y105008D01*
X613183Y108352D01*
X615548Y110717D01*
X618892Y110717D01*
X621257Y108352D01*
X621257Y105008D01*
X618892Y102643D01*
X615548Y102643D01*
G37*
%LPD*%
%LPC*%
G36*
X374248Y100103D02*
X374248Y100103D01*
X371883Y102468D01*
X371883Y105812D01*
X374248Y108177D01*
X377592Y108177D01*
X379957Y105812D01*
X379957Y102468D01*
X377592Y100103D01*
X374248Y100103D01*
G37*
%LPD*%
%LPC*%
G36*
X386948Y100103D02*
X386948Y100103D01*
X384583Y102468D01*
X384583Y105812D01*
X386948Y108177D01*
X390292Y108177D01*
X392657Y105812D01*
X392657Y102468D01*
X390292Y100103D01*
X386948Y100103D01*
G37*
%LPD*%
%LPC*%
G36*
X823828Y100103D02*
X823828Y100103D01*
X821463Y102468D01*
X821463Y105812D01*
X823828Y108177D01*
X827172Y108177D01*
X829537Y105812D01*
X829537Y102468D01*
X827172Y100103D01*
X823828Y100103D01*
G37*
%LPD*%
%LPC*%
G36*
X836528Y100103D02*
X836528Y100103D01*
X834163Y102468D01*
X834163Y105812D01*
X836528Y108177D01*
X839872Y108177D01*
X842237Y105812D01*
X842237Y102468D01*
X839872Y100103D01*
X836528Y100103D01*
G37*
%LPD*%
%LPC*%
G36*
X1578208Y89943D02*
X1578208Y89943D01*
X1575843Y92308D01*
X1575843Y95652D01*
X1578208Y98017D01*
X1581552Y98017D01*
X1583917Y95652D01*
X1583917Y92308D01*
X1581552Y89943D01*
X1578208Y89943D01*
G37*
%LPD*%
%LPC*%
G36*
X752708Y89943D02*
X752708Y89943D01*
X750343Y92308D01*
X750343Y95652D01*
X752708Y98017D01*
X756052Y98017D01*
X758417Y95652D01*
X758417Y92308D01*
X756052Y89943D01*
X752708Y89943D01*
G37*
%LPD*%
%LPC*%
G36*
X531728Y89943D02*
X531728Y89943D01*
X529363Y92308D01*
X529363Y95652D01*
X531728Y98017D01*
X535072Y98017D01*
X537437Y95652D01*
X537437Y92308D01*
X535072Y89943D01*
X531728Y89943D01*
G37*
%LPD*%
%LPC*%
G36*
X1446128Y319813D02*
X1446128Y319813D01*
X1443763Y322178D01*
X1443763Y325522D01*
X1446128Y327887D01*
X1449472Y327887D01*
X1451837Y325522D01*
X1451837Y322178D01*
X1449472Y319813D01*
X1446128Y319813D01*
G37*
%LPD*%
%LPC*%
G36*
X1494388Y41683D02*
X1494388Y41683D01*
X1492023Y44048D01*
X1492023Y47392D01*
X1494388Y49757D01*
X1497732Y49757D01*
X1500097Y47392D01*
X1500097Y44048D01*
X1497732Y41683D01*
X1494388Y41683D01*
G37*
%LPD*%
%LPC*%
G36*
X1141328Y26443D02*
X1141328Y26443D01*
X1138963Y28808D01*
X1138963Y32152D01*
X1141328Y34517D01*
X1144672Y34517D01*
X1147037Y32152D01*
X1147037Y28808D01*
X1144672Y26443D01*
X1141328Y26443D01*
G37*
%LPD*%
%LPC*%
G36*
X671627Y234568D02*
X671627Y234568D01*
X669543Y236652D01*
X669543Y239598D01*
X671627Y241682D01*
X674573Y241682D01*
X676657Y239598D01*
X676657Y236652D01*
X674573Y234568D01*
X671627Y234568D01*
G37*
%LPD*%
%LPC*%
G36*
X265227Y232663D02*
X265227Y232663D01*
X263143Y234747D01*
X263143Y237693D01*
X265227Y239777D01*
X268173Y239777D01*
X270257Y237693D01*
X270257Y234747D01*
X268173Y232663D01*
X265227Y232663D01*
G37*
%LPD*%
%LPC*%
G36*
X1489189Y255206D02*
X1489189Y255206D01*
X1487106Y257289D01*
X1487106Y260236D01*
X1489189Y262319D01*
X1492136Y262319D01*
X1494219Y260236D01*
X1494219Y257289D01*
X1492136Y255206D01*
X1489189Y255206D01*
G37*
%LPD*%
%LPC*%
G36*
X1141527Y226631D02*
X1141527Y226631D01*
X1139443Y228714D01*
X1139443Y231661D01*
X1141527Y233744D01*
X1144473Y233744D01*
X1146557Y231661D01*
X1146557Y228714D01*
X1144473Y226631D01*
X1141527Y226631D01*
G37*
%LPD*%
%LPC*%
G36*
X1436802Y223456D02*
X1436802Y223456D01*
X1434718Y225539D01*
X1434718Y228486D01*
X1436802Y230569D01*
X1439748Y230569D01*
X1441832Y228486D01*
X1441832Y225539D01*
X1439748Y223456D01*
X1436802Y223456D01*
G37*
%LPD*%
%LPC*%
G36*
X1424102Y223456D02*
X1424102Y223456D01*
X1422018Y225539D01*
X1422018Y228486D01*
X1424102Y230569D01*
X1427048Y230569D01*
X1429132Y228486D01*
X1429132Y225539D01*
X1427048Y223456D01*
X1424102Y223456D01*
G37*
%LPD*%
%LPC*%
G36*
X1530464Y215518D02*
X1530464Y215518D01*
X1528381Y217602D01*
X1528381Y220548D01*
X1530464Y222632D01*
X1533411Y222632D01*
X1535494Y220548D01*
X1535494Y217602D01*
X1533411Y215518D01*
X1530464Y215518D01*
G37*
%LPD*%
%LPC*%
G36*
X1039927Y317118D02*
X1039927Y317118D01*
X1037843Y319202D01*
X1037843Y322148D01*
X1039927Y324232D01*
X1042873Y324232D01*
X1044957Y322148D01*
X1044957Y319202D01*
X1042873Y317118D01*
X1039927Y317118D01*
G37*
%LPD*%
%LPC*%
G36*
X1335202Y212343D02*
X1335202Y212343D01*
X1333118Y214427D01*
X1333118Y217373D01*
X1335202Y219457D01*
X1338148Y219457D01*
X1340232Y217373D01*
X1340232Y214427D01*
X1338148Y212343D01*
X1335202Y212343D01*
G37*
%LPD*%
%LPC*%
G36*
X669087Y207263D02*
X669087Y207263D01*
X667003Y209347D01*
X667003Y212293D01*
X669087Y214377D01*
X672033Y214377D01*
X674117Y212293D01*
X674117Y209347D01*
X672033Y207263D01*
X669087Y207263D01*
G37*
%LPD*%
%LPC*%
G36*
X1057707Y204723D02*
X1057707Y204723D01*
X1055623Y206807D01*
X1055623Y209753D01*
X1057707Y211837D01*
X1060653Y211837D01*
X1062737Y209753D01*
X1062737Y206807D01*
X1060653Y204723D01*
X1057707Y204723D01*
G37*
%LPD*%
%LPC*%
G36*
X1119302Y204406D02*
X1119302Y204406D01*
X1117218Y206489D01*
X1117218Y209436D01*
X1119302Y211519D01*
X1122248Y211519D01*
X1124332Y209436D01*
X1124332Y206489D01*
X1122248Y204406D01*
X1119302Y204406D01*
G37*
%LPD*%
%LPC*%
G36*
X1541577Y204406D02*
X1541577Y204406D01*
X1539493Y206489D01*
X1539493Y209436D01*
X1541577Y211519D01*
X1544523Y211519D01*
X1546607Y209436D01*
X1546607Y206489D01*
X1544523Y204406D01*
X1541577Y204406D01*
G37*
%LPD*%
%LPC*%
G36*
X1322502Y372681D02*
X1322502Y372681D01*
X1320418Y374764D01*
X1320418Y377711D01*
X1322502Y379794D01*
X1325448Y379794D01*
X1327532Y377711D01*
X1327532Y374764D01*
X1325448Y372681D01*
X1322502Y372681D01*
G37*
%LPD*%
%LPC*%
G36*
X516687Y189483D02*
X516687Y189483D01*
X514603Y191567D01*
X514603Y194513D01*
X516687Y196597D01*
X519633Y196597D01*
X521717Y194513D01*
X521717Y191567D01*
X519633Y189483D01*
X516687Y189483D01*
G37*
%LPD*%
%LPC*%
G36*
X376987Y456183D02*
X376987Y456183D01*
X374903Y458267D01*
X374903Y461213D01*
X376987Y463297D01*
X379933Y463297D01*
X382017Y461213D01*
X382017Y458267D01*
X379933Y456183D01*
X376987Y456183D01*
G37*
%LPD*%
%LPC*%
G36*
X747827Y179006D02*
X747827Y179006D01*
X745743Y181089D01*
X745743Y184036D01*
X747827Y186119D01*
X750773Y186119D01*
X752857Y184036D01*
X752857Y181089D01*
X750773Y179006D01*
X747827Y179006D01*
G37*
%LPD*%
%LPC*%
G36*
X229667Y433323D02*
X229667Y433323D01*
X227583Y435407D01*
X227583Y438353D01*
X229667Y440437D01*
X232613Y440437D01*
X234697Y438353D01*
X234697Y435407D01*
X232613Y433323D01*
X229667Y433323D01*
G37*
%LPD*%
%LPC*%
G36*
X1373302Y423481D02*
X1373302Y423481D01*
X1371218Y425564D01*
X1371218Y428511D01*
X1373302Y430594D01*
X1376248Y430594D01*
X1378332Y428511D01*
X1378332Y425564D01*
X1376248Y423481D01*
X1373302Y423481D01*
G37*
%LPD*%
%LPC*%
G36*
X1530464Y158368D02*
X1530464Y158368D01*
X1528381Y160452D01*
X1528381Y163398D01*
X1530464Y165482D01*
X1533411Y165482D01*
X1535494Y163398D01*
X1535494Y160452D01*
X1533411Y158368D01*
X1530464Y158368D01*
G37*
%LPD*%
%LPC*%
G36*
X1557452Y156781D02*
X1557452Y156781D01*
X1555368Y158864D01*
X1555368Y161811D01*
X1557452Y163894D01*
X1560398Y163894D01*
X1562482Y161811D01*
X1562482Y158864D01*
X1560398Y156781D01*
X1557452Y156781D01*
G37*
%LPD*%
%LPC*%
G36*
X229667Y410463D02*
X229667Y410463D01*
X227583Y412547D01*
X227583Y415493D01*
X229667Y417577D01*
X232613Y417577D01*
X234697Y415493D01*
X234697Y412547D01*
X232613Y410463D01*
X229667Y410463D01*
G37*
%LPD*%
%LPC*%
G36*
X1528877Y393318D02*
X1528877Y393318D01*
X1526793Y395402D01*
X1526793Y398348D01*
X1528877Y400432D01*
X1531823Y400432D01*
X1533907Y398348D01*
X1533907Y395402D01*
X1531823Y393318D01*
X1528877Y393318D01*
G37*
%LPD*%
%LPC*%
G36*
X270307Y392683D02*
X270307Y392683D01*
X268223Y394767D01*
X268223Y397713D01*
X270307Y399797D01*
X273253Y399797D01*
X275337Y397713D01*
X275337Y394767D01*
X273253Y392683D01*
X270307Y392683D01*
G37*
%LPD*%
%LPC*%
G36*
X1274877Y390143D02*
X1274877Y390143D01*
X1272793Y392227D01*
X1272793Y395173D01*
X1274877Y397257D01*
X1277823Y397257D01*
X1279907Y395173D01*
X1279907Y392227D01*
X1277823Y390143D01*
X1274877Y390143D01*
G37*
%LPD*%
%LPC*%
G36*
X1209789Y390143D02*
X1209789Y390143D01*
X1207706Y392227D01*
X1207706Y395173D01*
X1209789Y397257D01*
X1212736Y397257D01*
X1214819Y395173D01*
X1214819Y392227D01*
X1212736Y390143D01*
X1209789Y390143D01*
G37*
%LPD*%
%LPC*%
G36*
X1546339Y134556D02*
X1546339Y134556D01*
X1544256Y136639D01*
X1544256Y139586D01*
X1546339Y141669D01*
X1549286Y141669D01*
X1551369Y139586D01*
X1551369Y136639D01*
X1549286Y134556D01*
X1546339Y134556D01*
G37*
%LPD*%
%LPC*%
G36*
X941502Y371093D02*
X941502Y371093D01*
X939418Y373177D01*
X939418Y376123D01*
X941502Y378207D01*
X944448Y378207D01*
X946532Y376123D01*
X946532Y373177D01*
X944448Y371093D01*
X941502Y371093D01*
G37*
%LPD*%
%LPC*%
G36*
X727189Y371093D02*
X727189Y371093D01*
X725106Y373177D01*
X725106Y376123D01*
X727189Y378207D01*
X730136Y378207D01*
X732219Y376123D01*
X732219Y373177D01*
X730136Y371093D01*
X727189Y371093D01*
G37*
%LPD*%
%LPC*%
G36*
X1579677Y369506D02*
X1579677Y369506D01*
X1577593Y371589D01*
X1577593Y374536D01*
X1579677Y376619D01*
X1582623Y376619D01*
X1584707Y374536D01*
X1584707Y371589D01*
X1582623Y369506D01*
X1579677Y369506D01*
G37*
%LPD*%
%LPC*%
G36*
X1247889Y361568D02*
X1247889Y361568D01*
X1245806Y363652D01*
X1245806Y366598D01*
X1247889Y368682D01*
X1250836Y368682D01*
X1252919Y366598D01*
X1252919Y363652D01*
X1250836Y361568D01*
X1247889Y361568D01*
G37*
%LPD*%
%LPC*%
G36*
X1444739Y347281D02*
X1444739Y347281D01*
X1442656Y349364D01*
X1442656Y352311D01*
X1444739Y354394D01*
X1447686Y354394D01*
X1449769Y352311D01*
X1449769Y349364D01*
X1447686Y347281D01*
X1444739Y347281D01*
G37*
%LPD*%
%LPC*%
G36*
X1382827Y118681D02*
X1382827Y118681D01*
X1380743Y120764D01*
X1380743Y123711D01*
X1382827Y125794D01*
X1385773Y125794D01*
X1387857Y123711D01*
X1387857Y120764D01*
X1385773Y118681D01*
X1382827Y118681D01*
G37*
%LPD*%
%LPC*%
G36*
X1355839Y118681D02*
X1355839Y118681D01*
X1353756Y120764D01*
X1353756Y123711D01*
X1355839Y125794D01*
X1358786Y125794D01*
X1360869Y123711D01*
X1360869Y120764D01*
X1358786Y118681D01*
X1355839Y118681D01*
G37*
%LPD*%
%LPC*%
G36*
X1057707Y268223D02*
X1057707Y268223D01*
X1055623Y270307D01*
X1055623Y273253D01*
X1057707Y275337D01*
X1060653Y275337D01*
X1062737Y273253D01*
X1062737Y270307D01*
X1060653Y268223D01*
X1057707Y268223D01*
G37*
%LPD*%
%LPC*%
G36*
X669087Y270763D02*
X669087Y270763D01*
X667003Y272847D01*
X667003Y275793D01*
X669087Y277877D01*
X672033Y277877D01*
X674117Y275793D01*
X674117Y272847D01*
X672033Y270763D01*
X669087Y270763D01*
G37*
%LPD*%
%LPC*%
G36*
X1541577Y271081D02*
X1541577Y271081D01*
X1539493Y273164D01*
X1539493Y276111D01*
X1541577Y278194D01*
X1544523Y278194D01*
X1546607Y276111D01*
X1546607Y273164D01*
X1544523Y271081D01*
X1541577Y271081D01*
G37*
%LPD*%
%LPC*%
G36*
X1419339Y347281D02*
X1419339Y347281D01*
X1417256Y349364D01*
X1417256Y352311D01*
X1419339Y354394D01*
X1422286Y354394D01*
X1424369Y352311D01*
X1424369Y349364D01*
X1422286Y347281D01*
X1419339Y347281D01*
G37*
%LPD*%
%LPC*%
G36*
X1344727Y107568D02*
X1344727Y107568D01*
X1342643Y109652D01*
X1342643Y112598D01*
X1344727Y114682D01*
X1347673Y114682D01*
X1349757Y112598D01*
X1349757Y109652D01*
X1347673Y107568D01*
X1344727Y107568D01*
G37*
%LPD*%
%LPC*%
G36*
X1251064Y345693D02*
X1251064Y345693D01*
X1248981Y347777D01*
X1248981Y350723D01*
X1251064Y352807D01*
X1254011Y352807D01*
X1256094Y350723D01*
X1256094Y347777D01*
X1254011Y345693D01*
X1251064Y345693D01*
G37*
%LPD*%
%LPC*%
G36*
X166167Y339343D02*
X166167Y339343D01*
X164083Y341427D01*
X164083Y344373D01*
X166167Y346457D01*
X169113Y346457D01*
X171197Y344373D01*
X171197Y341427D01*
X169113Y339343D01*
X166167Y339343D01*
G37*
%LPD*%
%LPC*%
G36*
X1243127Y334263D02*
X1243127Y334263D01*
X1241043Y336347D01*
X1241043Y339293D01*
X1243127Y341377D01*
X1246073Y341377D01*
X1248157Y339293D01*
X1248157Y336347D01*
X1246073Y334263D01*
X1243127Y334263D01*
G37*
%LPD*%
%LPC*%
G36*
X1052627Y329183D02*
X1052627Y329183D01*
X1050543Y331267D01*
X1050543Y334213D01*
X1052627Y336297D01*
X1055573Y336297D01*
X1057657Y334213D01*
X1057657Y331267D01*
X1055573Y329183D01*
X1052627Y329183D01*
G37*
%LPD*%
%LPC*%
G36*
X1278052Y248856D02*
X1278052Y248856D01*
X1275968Y250939D01*
X1275968Y253886D01*
X1278052Y255969D01*
X1280998Y255969D01*
X1283082Y253886D01*
X1283082Y250939D01*
X1280998Y248856D01*
X1278052Y248856D01*
G37*
%LPD*%
%LPC*%
G36*
X1511414Y245681D02*
X1511414Y245681D01*
X1509331Y247764D01*
X1509331Y250711D01*
X1511414Y252794D01*
X1514361Y252794D01*
X1516444Y250711D01*
X1516444Y247764D01*
X1514361Y245681D01*
X1511414Y245681D01*
G37*
%LPD*%
%LPC*%
G36*
X976077Y92837D02*
X976077Y92837D01*
X973993Y94921D01*
X973993Y97867D01*
X976077Y99951D01*
X979023Y99951D01*
X981107Y97867D01*
X981107Y94921D01*
X979023Y92837D01*
X976077Y92837D01*
G37*
%LPD*%
%LPC*%
G36*
X925627Y240918D02*
X925627Y240918D01*
X923543Y243002D01*
X923543Y245948D01*
X925627Y248032D01*
X928573Y248032D01*
X930657Y245948D01*
X930657Y243002D01*
X928573Y240918D01*
X925627Y240918D01*
G37*
%LPD*%
%LPC*%
G36*
X576377Y240918D02*
X576377Y240918D01*
X574293Y243002D01*
X574293Y245948D01*
X576377Y248032D01*
X579323Y248032D01*
X581407Y245948D01*
X581407Y243002D01*
X579323Y240918D01*
X576377Y240918D01*
G37*
%LPD*%
%LPC*%
G36*
X1414577Y239331D02*
X1414577Y239331D01*
X1412493Y241414D01*
X1412493Y244361D01*
X1414577Y246444D01*
X1417523Y246444D01*
X1419607Y244361D01*
X1419607Y241414D01*
X1417523Y239331D01*
X1414577Y239331D01*
G37*
%LPD*%
%LPC*%
G36*
X163627Y288543D02*
X163627Y288543D01*
X161543Y290627D01*
X161543Y293573D01*
X163627Y295657D01*
X166573Y295657D01*
X168657Y293573D01*
X168657Y290627D01*
X166573Y288543D01*
X163627Y288543D01*
G37*
%LPD*%
%LPC*%
G36*
X1238047Y296163D02*
X1238047Y296163D01*
X1235963Y298247D01*
X1235963Y301193D01*
X1238047Y303277D01*
X1240993Y303277D01*
X1243077Y301193D01*
X1243077Y298247D01*
X1240993Y296163D01*
X1238047Y296163D01*
G37*
%LPD*%
%LPC*%
G36*
X1293927Y302831D02*
X1293927Y302831D01*
X1291843Y304914D01*
X1291843Y307861D01*
X1293927Y309944D01*
X1296873Y309944D01*
X1298957Y307861D01*
X1298957Y304914D01*
X1296873Y302831D01*
X1293927Y302831D01*
G37*
%LPD*%
%LPC*%
G36*
X435407Y311403D02*
X435407Y311403D01*
X433323Y313487D01*
X433323Y316433D01*
X435407Y318517D01*
X438353Y318517D01*
X440437Y316433D01*
X440437Y313487D01*
X438353Y311403D01*
X435407Y311403D01*
G37*
%LPD*%
%LPC*%
G36*
X630987Y311403D02*
X630987Y311403D01*
X628903Y313487D01*
X628903Y316433D01*
X630987Y318517D01*
X633933Y318517D01*
X636017Y316433D01*
X636017Y313487D01*
X633933Y311403D01*
X630987Y311403D01*
G37*
%LPD*%
%LPC*%
G36*
X1532052Y194881D02*
X1532052Y194881D01*
X1529968Y196964D01*
X1529968Y199911D01*
X1532052Y201994D01*
X1534998Y201994D01*
X1537082Y199911D01*
X1537082Y196964D01*
X1534998Y194881D01*
X1532052Y194881D01*
G37*
%LPD*%
%LPC*%
G36*
X1027227Y311403D02*
X1027227Y311403D01*
X1025143Y313487D01*
X1025143Y316433D01*
X1027227Y318517D01*
X1030173Y318517D01*
X1032257Y316433D01*
X1032257Y313487D01*
X1030173Y311403D01*
X1027227Y311403D01*
G37*
%LPD*%
%LPC*%
G36*
X1251064Y312356D02*
X1251064Y312356D01*
X1248981Y314439D01*
X1248981Y317386D01*
X1251064Y319469D01*
X1254011Y319469D01*
X1256094Y317386D01*
X1256094Y314439D01*
X1254011Y312356D01*
X1251064Y312356D01*
G37*
%LPD*%
%LPC*%
G36*
X1236777Y313943D02*
X1236777Y313943D01*
X1234693Y316027D01*
X1234693Y318973D01*
X1236777Y321057D01*
X1239723Y321057D01*
X1241807Y318973D01*
X1241807Y316027D01*
X1239723Y313943D01*
X1236777Y313943D01*
G37*
%LPD*%
%LPC*%
G36*
X449377Y317118D02*
X449377Y317118D01*
X447293Y319202D01*
X447293Y322148D01*
X449377Y324232D01*
X452323Y324232D01*
X454407Y322148D01*
X454407Y319202D01*
X452323Y317118D01*
X449377Y317118D01*
G37*
%LPD*%
%LPC*%
G36*
X641464Y317118D02*
X641464Y317118D01*
X639381Y319202D01*
X639381Y322148D01*
X641464Y324232D01*
X644411Y324232D01*
X646494Y322148D01*
X646494Y319202D01*
X644411Y317118D01*
X641464Y317118D01*
G37*
%LPD*%
%LPC*%
G36*
X224587Y237743D02*
X224587Y237743D01*
X222503Y239827D01*
X222503Y242773D01*
X224587Y244857D01*
X227533Y244857D01*
X229617Y242773D01*
X229617Y239827D01*
X227533Y237743D01*
X224587Y237743D01*
G37*
%LPD*%
%LPC*%
G36*
X1428864Y323468D02*
X1428864Y323468D01*
X1426781Y325552D01*
X1426781Y328498D01*
X1428864Y330582D01*
X1431811Y330582D01*
X1433894Y328498D01*
X1433894Y325552D01*
X1431811Y323468D01*
X1428864Y323468D01*
G37*
%LPD*%
%LPC*%
G36*
X1209789Y328231D02*
X1209789Y328231D01*
X1207706Y330314D01*
X1207706Y333261D01*
X1209789Y335344D01*
X1212736Y335344D01*
X1214819Y333261D01*
X1214819Y330314D01*
X1212736Y328231D01*
X1209789Y328231D01*
G37*
%LPD*%
%LPC*%
G36*
X661467Y329183D02*
X661467Y329183D01*
X659383Y331267D01*
X659383Y334213D01*
X661467Y336297D01*
X664413Y336297D01*
X666497Y334213D01*
X666497Y331267D01*
X664413Y329183D01*
X661467Y329183D01*
G37*
%LPD*%
%LPC*%
G36*
X857047Y329183D02*
X857047Y329183D01*
X854963Y331267D01*
X854963Y334213D01*
X857047Y336297D01*
X859993Y336297D01*
X862077Y334213D01*
X862077Y331267D01*
X859993Y329183D01*
X857047Y329183D01*
G37*
%LPD*%
%LPC*%
G36*
X1555864Y234568D02*
X1555864Y234568D01*
X1553781Y236652D01*
X1553781Y239598D01*
X1555864Y241682D01*
X1558811Y241682D01*
X1560894Y239598D01*
X1560894Y236652D01*
X1558811Y234568D01*
X1555864Y234568D01*
G37*
%LPD*%
%LPC*%
G36*
X1017702Y234568D02*
X1017702Y234568D01*
X1015618Y236652D01*
X1015618Y239598D01*
X1017702Y241682D01*
X1020648Y241682D01*
X1022732Y239598D01*
X1022732Y236652D01*
X1020648Y234568D01*
X1017702Y234568D01*
G37*
%LPD*%
%LPC*%
G36*
X829107Y311403D02*
X829107Y311403D01*
X827023Y313487D01*
X827023Y316433D01*
X829107Y318517D01*
X832053Y318517D01*
X834137Y316433D01*
X834137Y313487D01*
X832053Y311403D01*
X829107Y311403D01*
G37*
%LPD*%
D10*
X1181100Y63500D03*
X1206500Y63500D03*
X933450Y425450D03*
X908050Y425450D03*
X863600Y425450D03*
X838200Y425450D03*
X1060450Y425450D03*
X1035050Y425450D03*
X1130300Y425450D03*
X1104900Y425450D03*
X1327150Y425450D03*
X1301750Y425450D03*
X1257300Y425450D03*
X1231900Y425450D03*
X1454150Y425450D03*
X1428750Y425450D03*
X958850Y63500D03*
X984250Y63500D03*
D11*
X190500Y114300D03*
X266700Y114300D03*
D10*
X1250950Y63500D03*
X1276350Y63500D03*
X736600Y63500D03*
X762000Y63500D03*
X508000Y63500D03*
X533400Y63500D03*
X1054100Y63500D03*
X1079500Y63500D03*
X1377950Y63500D03*
X1403350Y63500D03*
X342900Y425450D03*
X317500Y425450D03*
X469900Y425450D03*
X444500Y425450D03*
X539750Y425450D03*
X514350Y425450D03*
X666750Y425450D03*
X641350Y425450D03*
X736600Y425450D03*
X711200Y425450D03*
D12*
X88900Y438150D03*
X88900Y82550D03*
D13*
X1193800Y166688D03*
X1531938Y161925D03*
D14*
X768350Y463550D03*
X965200Y463550D03*
X1162050Y463550D03*
X1358900Y463550D03*
X1511300Y374650D03*
X1447800Y323850D03*
X1479550Y266700D03*
X1530350Y273050D03*
X1445260Y111760D03*
X1521460Y137160D03*
X1341120Y30480D03*
X1143000Y30480D03*
X1033780Y251460D03*
X977900Y264160D03*
X650240Y251460D03*
X591820Y264160D03*
X375920Y104140D03*
X388620Y104140D03*
X604520Y106680D03*
X617220Y106680D03*
X825500Y104140D03*
X838200Y104140D03*
X927100Y154940D03*
X927100Y137160D03*
X708660Y154940D03*
X708660Y134620D03*
X777240Y170180D03*
X754380Y93980D03*
X480060Y154940D03*
X480060Y137160D03*
X533400Y93980D03*
X553720Y162560D03*
D13*
X670560Y274320D03*
X670560Y210820D03*
X1059180Y271780D03*
X1059180Y208280D03*
X858520Y332740D03*
X830580Y314960D03*
X464820Y332740D03*
X436880Y314960D03*
X167640Y342900D03*
X165100Y292100D03*
X226060Y241300D03*
X266700Y236220D03*
X378460Y459740D03*
D14*
X571500Y463550D03*
D13*
X231140Y436880D03*
X231140Y414020D03*
X271780Y396240D03*
D14*
X1478280Y342900D03*
X1496060Y350520D03*
X1427480Y187960D03*
X1450340Y231140D03*
X1399540Y167640D03*
X1196340Y182880D03*
X1188720Y147320D03*
X1496060Y45720D03*
X1579880Y93980D03*
X1569720Y137160D03*
D13*
X1244600Y337820D03*
X1239520Y299720D03*
X662940Y332740D03*
X632460Y314960D03*
X1054100Y332740D03*
X1028700Y314960D03*
X977550Y96394D03*
X1483360Y203200D03*
X998220Y167640D03*
X998220Y160020D03*
X1187450Y161925D03*
X1533525Y180975D03*
X1346200Y111125D03*
X1357313Y122238D03*
X1390650Y180975D03*
X1533525Y187325D03*
X1384300Y122238D03*
X1547813Y138113D03*
X469900Y338138D03*
X1490663Y258763D03*
X450850Y320675D03*
X1512888Y206375D03*
D15*
X1503363Y209550D02*
X1404938Y209550D01*
D13*
X923925Y222250D03*
X1404938Y209550D03*
X1503363Y209550D03*
X642938Y320675D03*
X1439863Y255588D03*
X1389380Y48260D03*
D15*
X1353820Y48260D01*
X1320800Y81280D01*
X1320800Y116840D01*
D13*
X1320800Y116840D03*
D14*
X373380Y314960D03*
X401320Y314960D03*
X553720Y314960D03*
X566420Y314960D03*
X579120Y314960D03*
X767080Y314960D03*
X795020Y314960D03*
X947420Y294640D03*
X947420Y304800D03*
X965200Y314960D03*
X1160780Y314960D03*
X1173480Y304800D03*
X1173480Y297180D03*
X1351280Y325120D03*
X1358900Y320040D03*
X1371600Y304800D03*
X1371600Y294640D03*
X1320800Y190500D03*
X1143000Y195580D03*
X1125220Y167640D03*
X871220Y106680D03*
X891540Y106680D03*
X904240Y99060D03*
X904240Y76200D03*
X904240Y58420D03*
X916940Y68580D03*
X1524000Y259080D03*
D13*
X149860Y482600D03*
X157480Y482600D03*
X165100Y482600D03*
X149860Y474980D03*
X157480Y474980D03*
X165100Y474980D03*
X172720Y482600D03*
X172720Y474980D03*
X180340Y482600D03*
X180340Y474980D03*
X187960Y474980D03*
X187960Y482600D03*
X195580Y482600D03*
X195580Y474980D03*
X203200Y474980D03*
X203200Y482600D03*
D16*
X652780Y104140D03*
X668020Y104140D03*
X678180Y91440D03*
X421640Y104140D03*
X439420Y104140D03*
X452120Y91440D03*
X459740Y71120D03*
X477520Y71120D03*
D13*
X1308100Y81280D03*
X1333500Y81280D03*
X172720Y264160D03*
X162560Y241300D03*
X182880Y264160D03*
X728663Y374650D03*
X942975Y374650D03*
X1252538Y349250D03*
X1211263Y331788D03*
X1276350Y393700D03*
X1211263Y393700D03*
X1446213Y350838D03*
X1420813Y350838D03*
X1238250Y317500D03*
X1295400Y306388D03*
X1252538Y315913D03*
X1249363Y365125D03*
X1323975Y376238D03*
X1374775Y427038D03*
X917575Y233363D03*
X1468438Y203200D03*
X922338Y228600D03*
X1483678Y195898D03*
X1143000Y230188D03*
X1425575Y227013D03*
X1041400Y320675D03*
X1438275Y227013D03*
X1336675Y215900D03*
X1463675Y185738D03*
D15*
X1464310Y194628D02*
X1399540Y194628D01*
X1397000Y192088D01*
X1464310Y194628D02*
X1476375Y182563D01*
X1476375Y179388D01*
D13*
X1397000Y192088D03*
X1476375Y179388D03*
X1411288Y215900D03*
X1422400Y204788D03*
X1430338Y327025D03*
X1430338Y255588D03*
X927100Y244475D03*
X577850Y244475D03*
X1416050Y242888D03*
D15*
X1519238Y212725D02*
X1519238Y206375D01*
X1487488Y174625D01*
X966788Y174625D01*
X939800Y201613D01*
D13*
X1519238Y212725D03*
X939800Y201613D03*
X1558925Y160338D03*
X749300Y182563D03*
X579120Y30480D03*
D15*
X574040Y35560D01*
X574040Y45720D01*
X571500Y48260D01*
X566420Y48260D01*
D13*
X566420Y48260D03*
X518160Y193040D03*
X1557338Y238125D03*
X984250Y182563D03*
X1512888Y249238D03*
X1279525Y252413D03*
D15*
X1470025Y117475D02*
X1501775Y149225D01*
D13*
X673100Y238125D03*
X1019175Y238125D03*
X1501775Y149225D03*
X1470025Y117475D03*
X1530350Y396875D03*
X1581150Y373063D03*
X1508125Y144463D03*
X1120775Y207963D03*
X835660Y195580D03*
D15*
X741680Y195580D01*
X713740Y223520D01*
X680720Y223520D01*
D13*
X680720Y223520D03*
X1531938Y219075D03*
X1524000Y269875D03*
X1543050Y207963D03*
X1543050Y274638D03*
X1484313Y217488D03*
X1533525Y198438D03*
M02*
