G04 EAGLE Gerber RS-274X export*
G75*
%MOMM*%
%FSLAX34Y34*%
%LPD*%
%INBottom Copper*%
%IPPOS*%
%AMOC8*
5,1,8,0,0,1.08239X$1,22.5*%
G01*
%ADD10C,1.524000*%
%ADD11C,2.540000*%
%ADD12C,3.048000*%
%ADD13C,0.127000*%
%ADD14C,0.457200*%
%ADD15C,0.553200*%
%ADD16C,0.975000*%
%ADD17C,0.381000*%


D10*
X1181100Y63500D03*
X1206500Y63500D03*
X933450Y425450D03*
X908050Y425450D03*
X863600Y425450D03*
X838200Y425450D03*
X1060450Y425450D03*
X1035050Y425450D03*
X1130300Y425450D03*
X1104900Y425450D03*
X1327150Y425450D03*
X1301750Y425450D03*
X1257300Y425450D03*
X1231900Y425450D03*
X1454150Y425450D03*
X1428750Y425450D03*
X958850Y63500D03*
X984250Y63500D03*
D11*
X190500Y114300D03*
X266700Y114300D03*
D10*
X1250950Y63500D03*
X1276350Y63500D03*
X736600Y63500D03*
X762000Y63500D03*
X508000Y63500D03*
X533400Y63500D03*
X1054100Y63500D03*
X1079500Y63500D03*
X1377950Y63500D03*
X1403350Y63500D03*
X342900Y425450D03*
X317500Y425450D03*
X469900Y425450D03*
X444500Y425450D03*
X539750Y425450D03*
X514350Y425450D03*
X666750Y425450D03*
X641350Y425450D03*
X736600Y425450D03*
X711200Y425450D03*
D12*
X88900Y438150D03*
X88900Y82550D03*
D13*
X1198880Y161608D02*
X1483043Y161608D01*
X1198880Y161608D02*
X1193800Y166688D01*
X1483043Y161608D02*
X1504950Y139700D01*
X1509713Y139700D01*
X1531938Y161925D01*
D14*
X1193800Y166688D03*
X1531938Y161925D03*
D15*
X768350Y463550D03*
X965200Y463550D03*
X1162050Y463550D03*
X1358900Y463550D03*
X1511300Y374650D03*
X1447800Y323850D03*
X1479550Y266700D03*
X1530350Y273050D03*
X1445260Y111760D03*
X1521460Y137160D03*
X1341120Y30480D03*
X1143000Y30480D03*
X1033780Y251460D03*
X977900Y264160D03*
X650240Y251460D03*
X591820Y264160D03*
X375920Y104140D03*
X388620Y104140D03*
X604520Y106680D03*
X617220Y106680D03*
X825500Y104140D03*
X838200Y104140D03*
X927100Y154940D03*
X927100Y137160D03*
X708660Y154940D03*
X708660Y134620D03*
X777240Y170180D03*
X754380Y93980D03*
X480060Y154940D03*
X480060Y137160D03*
X533400Y93980D03*
X553720Y162560D03*
D14*
X670560Y274320D03*
X670560Y210820D03*
X1059180Y271780D03*
X1059180Y208280D03*
X858520Y332740D03*
X830580Y314960D03*
X464820Y332740D03*
X436880Y314960D03*
X167640Y342900D03*
X165100Y292100D03*
X226060Y241300D03*
X266700Y236220D03*
X378460Y459740D03*
D15*
X571500Y463550D03*
D14*
X231140Y436880D03*
X231140Y414020D03*
X271780Y396240D03*
D15*
X1478280Y342900D03*
X1496060Y350520D03*
X1427480Y187960D03*
X1450340Y231140D03*
X1399540Y167640D03*
X1196340Y182880D03*
X1188720Y147320D03*
X1496060Y45720D03*
X1579880Y93980D03*
X1569720Y137160D03*
D14*
X1244600Y337820D03*
X1239520Y299720D03*
X662940Y332740D03*
X632460Y314960D03*
X1054100Y332740D03*
X1028700Y314960D03*
X977550Y96394D03*
X1483360Y203200D03*
X998220Y167640D03*
X998220Y160020D03*
D13*
X1187450Y161925D02*
X1187450Y166688D01*
X1195388Y174625D01*
X1527175Y174625D01*
X1533525Y180975D01*
D14*
X1187450Y161925D03*
X1533525Y180975D03*
D13*
X1357313Y122238D02*
X1346200Y111125D01*
D14*
X1346200Y111125D03*
X1357313Y122238D03*
D13*
X1390650Y180975D02*
X1471613Y180975D01*
X1477963Y187325D01*
X1533525Y187325D01*
D14*
X1390650Y180975D03*
X1533525Y187325D03*
D13*
X1531938Y122238D02*
X1384300Y122238D01*
X1531938Y122238D02*
X1547813Y138113D01*
D14*
X1384300Y122238D03*
X1547813Y138113D03*
D13*
X1212850Y338138D02*
X469900Y338138D01*
X1212850Y338138D02*
X1244600Y369888D01*
X1433513Y369888D01*
X1490663Y312738D01*
X1490663Y258763D01*
D14*
X469900Y338138D03*
X1490663Y258763D03*
D13*
X450850Y320675D02*
X450850Y325438D01*
X495300Y369888D01*
X1162050Y369888D01*
X1227138Y434975D01*
X1374775Y434975D01*
X1517650Y292100D01*
X1517650Y217488D01*
X1512888Y212725D01*
X1512888Y206375D01*
D14*
X450850Y320675D03*
X1512888Y206375D03*
D13*
X1131888Y222250D02*
X923925Y222250D01*
X1131888Y222250D02*
X1144588Y209550D01*
X1404938Y209550D01*
D14*
X923925Y222250D03*
X1404938Y209550D03*
X1503363Y209550D03*
D13*
X1035050Y320675D02*
X642938Y320675D01*
X1035050Y320675D02*
X1039813Y325438D01*
X1236663Y325438D01*
X1250950Y311150D01*
X1408113Y311150D01*
X1428750Y331788D01*
X1431925Y331788D01*
X1439863Y323850D01*
X1439863Y255588D01*
D14*
X642938Y320675D03*
X1439863Y255588D03*
X1389380Y48260D03*
X1320800Y116840D03*
D15*
X373380Y314960D03*
X401320Y314960D03*
X553720Y314960D03*
X566420Y314960D03*
X579120Y314960D03*
X767080Y314960D03*
X795020Y314960D03*
X947420Y294640D03*
X947420Y304800D03*
X965200Y314960D03*
X1160780Y314960D03*
X1173480Y304800D03*
X1173480Y297180D03*
X1351280Y325120D03*
X1358900Y320040D03*
X1371600Y304800D03*
X1371600Y294640D03*
X1320800Y190500D03*
X1143000Y195580D03*
X1125220Y167640D03*
X871220Y106680D03*
X891540Y106680D03*
X904240Y99060D03*
X904240Y76200D03*
X904240Y58420D03*
X916940Y68580D03*
X1524000Y259080D03*
D14*
X149860Y482600D03*
X157480Y482600D03*
X165100Y482600D03*
X149860Y474980D03*
X157480Y474980D03*
X165100Y474980D03*
X172720Y482600D03*
X172720Y474980D03*
X180340Y482600D03*
X180340Y474980D03*
X187960Y474980D03*
X187960Y482600D03*
X195580Y482600D03*
X195580Y474980D03*
X203200Y474980D03*
X203200Y482600D03*
D16*
X652780Y104140D03*
X668020Y104140D03*
X678180Y91440D03*
X421640Y104140D03*
X439420Y104140D03*
X452120Y91440D03*
X459740Y71120D03*
X477520Y71120D03*
D14*
X1308100Y81280D03*
X1333500Y81280D03*
X172720Y264160D03*
X162560Y241300D03*
X182880Y264160D03*
D13*
X728663Y374650D02*
X812800Y374650D01*
X863600Y425450D01*
D14*
X728663Y374650D03*
D17*
X942975Y374650D02*
X1009650Y374650D01*
X1060450Y425450D01*
D14*
X942975Y374650D03*
D13*
X1228725Y349250D02*
X1252538Y349250D01*
X1228725Y349250D02*
X1211263Y331788D01*
D14*
X1252538Y349250D03*
X1211263Y331788D03*
D17*
X1276350Y393700D02*
X1295400Y393700D01*
X1327150Y425450D01*
X1276350Y393700D02*
X1211263Y393700D01*
D14*
X1276350Y393700D03*
X1211263Y393700D03*
D13*
X1420813Y350838D02*
X1446213Y350838D01*
D14*
X1446213Y350838D03*
X1420813Y350838D03*
D13*
X1249363Y306388D02*
X1238250Y317500D01*
X1249363Y306388D02*
X1295400Y306388D01*
D14*
X1238250Y317500D03*
X1295400Y306388D03*
D13*
X1252538Y315913D02*
X1252538Y342900D01*
X1257300Y347663D01*
X1257300Y357188D01*
X1249363Y365125D01*
D14*
X1252538Y315913D03*
X1249363Y365125D03*
D13*
X1323975Y376238D02*
X1374775Y427038D01*
D14*
X1323975Y376238D03*
X1374775Y427038D03*
D13*
X1133475Y233363D02*
X917575Y233363D01*
X1133475Y233363D02*
X1143000Y223838D01*
X1422400Y223838D01*
X1443038Y203200D01*
X1468438Y203200D01*
D14*
X917575Y233363D03*
X1468438Y203200D03*
D13*
X1130300Y228600D02*
X922338Y228600D01*
X1130300Y228600D02*
X1138238Y220663D01*
X1420813Y220663D01*
X1445578Y195898D01*
X1483678Y195898D01*
D14*
X922338Y228600D03*
X1483678Y195898D03*
D13*
X1422400Y230188D02*
X1143000Y230188D01*
X1422400Y230188D02*
X1425575Y227013D01*
D14*
X1143000Y230188D03*
X1425575Y227013D03*
D13*
X1204913Y320675D02*
X1041400Y320675D01*
X1204913Y320675D02*
X1277938Y247650D01*
X1417638Y247650D01*
X1438275Y227013D01*
D14*
X1041400Y320675D03*
X1438275Y227013D03*
D13*
X1404938Y215900D02*
X1336675Y215900D01*
X1404938Y215900D02*
X1427798Y193040D01*
X1456373Y193040D01*
X1463675Y185738D01*
D14*
X1336675Y215900D03*
X1463675Y185738D03*
X1397000Y192088D03*
X1476375Y179388D03*
D13*
X1422400Y204788D02*
X1411288Y215900D01*
D14*
X1411288Y215900D03*
X1422400Y204788D03*
D13*
X1430338Y255588D02*
X1430338Y327025D01*
D14*
X1430338Y327025D03*
X1430338Y255588D03*
D13*
X927100Y244475D02*
X577850Y244475D01*
X928688Y242888D02*
X1416050Y242888D01*
X928688Y242888D02*
X927100Y244475D01*
D14*
X927100Y244475D03*
X577850Y244475D03*
X1416050Y242888D03*
X1519238Y212725D03*
X939800Y201613D03*
D13*
X1525588Y127000D02*
X1558925Y160338D01*
X1525588Y127000D02*
X804863Y127000D01*
X749300Y182563D01*
D14*
X1558925Y160338D03*
X749300Y182563D03*
X579120Y30480D03*
X566420Y48260D03*
D13*
X566420Y144780D01*
X553311Y157889D01*
X551785Y157889D01*
X549049Y160625D01*
X549049Y162151D01*
X518160Y193040D01*
D14*
X518160Y193040D03*
D13*
X1557338Y165100D02*
X1557338Y238125D01*
X1557338Y165100D02*
X1524000Y131763D01*
X1047750Y131763D01*
X996950Y182563D01*
X984250Y182563D01*
D14*
X1557338Y238125D03*
X984250Y182563D03*
D13*
X1420813Y249238D02*
X1512888Y249238D01*
X1420813Y249238D02*
X1417638Y252413D01*
X1279525Y252413D01*
D14*
X1512888Y249238D03*
X1279525Y252413D03*
D13*
X1019175Y238125D02*
X673100Y238125D01*
X1530350Y280988D02*
X1530350Y396875D01*
X1530350Y280988D02*
X1538288Y273050D01*
X1538288Y193675D02*
X1538288Y179388D01*
X1538288Y193675D02*
X1538288Y273050D01*
X1538288Y179388D02*
X1508125Y149225D01*
X1501775Y149225D01*
X1420813Y238125D02*
X1019175Y238125D01*
X1420813Y238125D02*
X1445895Y213043D01*
X1488758Y213043D01*
X1508125Y193675D01*
X1538288Y193675D01*
D14*
X673100Y238125D03*
X1019175Y238125D03*
X1501775Y149225D03*
X1470025Y117475D03*
X1530350Y396875D03*
D13*
X1581150Y373063D02*
X1581150Y271463D01*
X1547813Y238125D01*
X1547813Y184150D01*
X1531938Y168275D02*
X1508125Y144463D01*
X1531938Y168275D02*
X1547813Y184150D01*
X1531938Y168275D02*
X1536700Y163513D01*
X1536700Y160338D01*
X1512888Y136525D01*
X1187133Y136525D01*
X1120775Y202883D01*
X1120775Y207963D01*
D14*
X1581150Y373063D03*
X1508125Y144463D03*
X1120775Y207963D03*
X835660Y195580D03*
X680720Y223520D03*
D13*
X1531938Y219075D02*
X1531938Y261938D01*
X1524000Y269875D01*
D14*
X1531938Y219075D03*
X1524000Y269875D03*
D13*
X1543050Y274638D02*
X1543050Y207963D01*
D14*
X1543050Y207963D03*
X1543050Y274638D03*
D13*
X1489075Y217488D02*
X1484313Y217488D01*
X1489075Y217488D02*
X1508125Y198438D01*
X1533525Y198438D01*
D14*
X1484313Y217488D03*
X1533525Y198438D03*
M02*
