G04 EAGLE Gerber RS-274X export*
G75*
%MOMM*%
%FSLAX34Y34*%
%LPD*%
%IN*%
%IPPOS*%
%AMOC8*
5,1,8,0,0,1.08239X$1,22.5*%
G01*
%ADD10C,0.254000*%


D10*
X0Y68650D02*
X1657Y62450D01*
X3848Y56419D01*
X6556Y50601D01*
X9761Y45042D01*
X13439Y39783D01*
X17560Y34864D01*
X22095Y30324D01*
X27008Y26196D01*
X32262Y22512D01*
X37818Y19300D01*
X43632Y16584D01*
X49661Y14385D01*
X55858Y12720D01*
X62177Y11602D01*
X68569Y11039D01*
X74987Y11035D01*
X81380Y11590D01*
X87700Y12700D01*
X1537700Y12700D01*
X1542889Y12095D01*
X1548112Y11944D01*
X1553327Y12249D01*
X1558496Y13008D01*
X1563580Y14214D01*
X1568539Y15859D01*
X1573335Y17929D01*
X1577933Y20410D01*
X1582298Y23282D01*
X1586395Y26524D01*
X1590194Y30110D01*
X1593666Y34014D01*
X1596785Y38205D01*
X1599527Y42653D01*
X1601870Y47322D01*
X1603798Y52178D01*
X1605295Y57183D01*
X1606350Y62300D01*
X1606350Y417000D01*
X1606353Y423272D01*
X1605810Y429521D01*
X1604724Y435698D01*
X1603104Y441757D01*
X1600962Y447652D01*
X1598315Y453338D01*
X1595182Y458771D01*
X1591587Y463911D01*
X1587558Y468718D01*
X1583125Y473155D01*
X1578323Y477190D01*
X1573187Y480790D01*
X1567757Y483929D01*
X1562074Y486583D01*
X1556182Y488731D01*
X1550124Y490357D01*
X1543948Y491450D01*
X1537700Y492000D01*
X36900Y492000D01*
X33419Y491571D01*
X29989Y490840D01*
X26636Y489813D01*
X23385Y488497D01*
X20261Y486903D01*
X17288Y485043D01*
X14488Y482931D01*
X11883Y480583D01*
X9493Y478017D01*
X7335Y475253D01*
X5426Y472310D01*
X3782Y469213D01*
X2413Y465984D01*
X1331Y462648D01*
X544Y459230D01*
X58Y455757D01*
X-124Y452255D01*
X0Y448750D01*
X0Y68650D01*
M02*
